<?xml version="1.0" encoding="UTF-8"?>
<svg id="Capa_1" data-name="Capa 1" xmlns="http://www.w3.org/2000/svg" viewBox="0 0 200 200">
  <path d="M152.99,80.58c-11.35,0-20.43-6.13-20.43-6.13l-13.94,4.55,4.52-13.49s-7.22-10-7.22-21.99c0-20.47,16.59-37.07,37.07-37.07s37.07,16.6,37.07,37.07c0,20.47-16.6,37.07-37.07,37.07M136.19,24.31c-3.57,2.29-4.18,7.63-4.28,8.78-.1,1.15-.21,3.6,1.68,7.71,1.88,4.12,6.49,9.7,12.18,15.01,5.69,5.31,14.41,7.59,17.05,8.33,2.64.74,8.21-.57,10.83-3.4,2.62-2.83,2.01-5.77,1.96-6.75-.05-.98-.93-1.13-.93-1.13,0,0-7.23-3.5-8.72-4.18-1.49-.68-2.24.43-2.24.43,0,0-2.19,2.77-2.9,3.68-.7.91-1.11,1.71-2.95,1.11-1.84-.6-5.53-2.59-8.54-5.29-3.01-2.7-5.32-6.27-5.97-7.36-.65-1.08.1-1.76.1-1.76,0,0,1.91-2.2,2.82-3.38.91-1.18.34-2.49.13-3.02-.22-.53-3.15-7.42-3.58-8.39-.43-.97-1.36-1.13-1.36-1.13h-3.48c-.62,0-1.81.76-1.81.76M100.78,138.44c-.31-.22-.46-.53-.46-.92v-10.52c0-.48.13-.91.39-1.28.26-.37.64-.65,1.12-.82l8.21-2.83c.44-.18.94-.31,1.51-.39.57-.09,1.1-.13,1.58-.13h5.65c.44,0,.81.15,1.12.46.31.31.46.68.46,1.12v48.11c0,.44-.15.81-.46,1.12s-.68.46-1.12.46h-9.92c-.44,0-.81-.15-1.12-.46-.31-.31-.46-.68-.46-1.12v-33.25c0-.35-.13-.61-.39-.79-.26-.17-.55-.2-.85-.07l-4.21,1.45c-.39.13-.74.09-1.05-.13ZM126.61,138.44c-.31-.22-.46-.53-.46-.92v-10.52c0-.48.13-.91.39-1.28.26-.37.64-.65,1.12-.82l8.21-2.83c.44-.18.94-.31,1.51-.39.57-.09,1.1-.13,1.58-.13h5.65c.44,0,.81.15,1.12.46.31.31.46.68.46,1.12v48.11c0,.44-.15.81-.46,1.12s-.68.46-1.12.46h-9.92c-.44,0-.81-.15-1.12-.46-.31-.31-.46-.68-.46-1.12v-33.25c0-.35-.13-.61-.39-.79-.26-.17-.55-.2-.85-.07l-4.21,1.45c-.39.13-.74.09-1.05-.13ZM188.98,160.2c.31.31.46.68.46,1.12v9.92c0,.44-.15.81-.46,1.12s-.68.46-1.12.46h-33.98c-.44,0-.81-.15-1.12-.46-.31-.31-.46-.68-.46-1.12v-6.77c0-1.05.39-1.93,1.18-2.63l16.96-15.71c1.05-.96,1.96-1.83,2.73-2.6s1.39-1.47,1.87-2.1c.48-.64.84-1.26,1.08-1.87.24-.61.36-1.25.36-1.91,0-1.27-.44-2.31-1.31-3.12s-2.08-1.22-3.61-1.22c-1.66,0-3.04.49-4.14,1.48-1.1.99-1.64,2.42-1.64,4.3,0,.61-.09,1.02-.26,1.22s-.46.3-.85.3h-10.52c-.35,0-.64-.1-.85-.3-.22-.2-.33-.6-.33-1.22,0-3.16.57-5.9,1.71-8.25s2.61-4.27,4.4-5.78c1.8-1.51,3.81-2.64,6.05-3.38s4.45-1.12,6.64-1.12c2.41,0,4.7.39,6.87,1.18,2.17.79,4.07,1.92,5.72,3.38s2.96,3.25,3.94,5.36c.99,2.1,1.48,4.49,1.48,7.16,0,2.19-.35,4.17-1.05,5.95-.7,1.77-1.58,3.4-2.63,4.86-1.05,1.47-2.2,2.8-3.45,4.01-1.25,1.2-2.4,2.31-3.45,3.32l-3.35,3.09c-.22.13-.27.31-.16.53s.27.33.49.33h11.7c.44,0,.81.15,1.12.46ZM46.86,181.43c-1.17,0-2.13.98-2.13,2.18v7.07c0,1.21.95,2.18,2.13,2.18s2.14-.98,2.14-2.18v-7.07c0-1.2-.96-2.18-2.14-2.18ZM68.25,181.43c-3.08,0-5.58,2.56-5.58,5.72s2.51,5.73,5.58,5.73,5.59-2.56,5.59-5.73-2.49-5.72-5.59-5.72ZM63.76,83.23c19.29,0,34.93-16,34.93-35.72,0-1.52-.1-3.02-.28-4.5h-19.22c1.02-2.19,1.61-4.61,1.61-7.18s-.59-5-1.61-7.18h14.25c-6.16-10.14-17.14-16.89-29.67-16.89s-23.49,6.75-29.65,16.89h14.24c-1.02,2.19-1.61,4.61-1.61,7.18s.59,5,1.61,7.18h-19.21c-.18,1.47-.28,2.97-.28,4.5,0,19.73,15.63,35.72,34.91,35.72ZM63.76,23.27c6.92,0,12.56,5.63,12.56,12.56s-5.63,12.56-12.56,12.56-12.56-5.63-12.56-12.56,5.63-12.56,12.56-12.56ZM79.91,181.43c-3.08,0-5.58,2.56-5.58,5.72s2.5,5.73,5.58,5.73,5.59-2.56,5.59-5.73-2.49-5.72-5.59-5.72ZM91.57,181.43c-3.08,0-5.59,2.56-5.59,5.72s2.5,5.73,5.59,5.73,5.59-2.56,5.59-5.73-2.51-5.72-5.59-5.72ZM131.57,87.09H33.11c-13.76,0-25.16,10.48-25.16,27.66v26.72c0,5.88,4.65,10.66,10.41,10.66s10.4-4.78,10.4-10.66v-26.72h4.35v52.06c0,7.87,6.23,14.25,13.92,14.25s13.92-6.38,13.92-14.25v-18.02h5.07v18.1c0,7.88,6.21,14.26,13.89,14.26s13.93-6.39,13.93-14.26v-52.14l37.73-.24c7.57,0,13.71-6.14,13.71-13.71s-6.14-13.71-13.71-13.71ZM74.98,114.73h-8.01v8.01h-6.41v-8.01h-8.01v-6.41h8.01v-8.01h6.41v8.01h8.01v6.41Z"/>
</svg>