<?xml version="1.0" encoding="UTF-8"?>
<svg id="Capa_1" data-name="Capa 1" xmlns="http://www.w3.org/2000/svg" viewBox="0 0 200 200">
  <path d="M70.06,113.13l-38.64,4.07c-5.07.53-9.59-3.22-9.99-8.3-.17-2.16.43-4.2,1.58-5.85l44.26,5.23,2.79,4.86ZM86.49,133.47l3.05,15.93-4.16,5.9c-3.9,5.54-3.04,13.13,2.01,17.65h0c6.01,5.39,15.4,4.26,19.96-2.4l4.96-7.25c3.06-4.48,4.44-9.9,3.89-15.3l-1.49-14.54,12.21-5.5.6,3.43c1.24,7.04,7.86,11.81,14.93,10.76h0c7.22-1.07,12.19-7.8,11.1-15.01l-2.62-17.35c-1.43-9.5-11.21-15.31-20.24-12.01l-12.86,4.7-5.07-9.81c-6.28-12.13-20.81-17.42-33.42-12.17l-4.24,1.77c-5,2.08-10.44,2.87-15.82,2.29l-34.34-3.72c-4.85-.53-9.25,2.88-9.95,7.71h0c-.73,5.05,2.84,9.71,7.91,10.3l46.93,5.54,16.66,29.08ZM73.22,47.15c-.12,15.44,11.64,28.63,27.29,30,15.65,1.37,29.52-9.58,32.08-24.8l-59.37-5.19ZM149.01,35.51l-15.17-1.33.21-2.45c.9-10.28-6.77-19.42-17.05-20.32l-6.83-.6c-.35-2.11-2.07-3.81-4.31-4.01-2.23-.2-4.23,1.18-4.94,3.2l-.81-.07c-13.07-1.14-24.71,8.51-26.06,21.52l-1.05-.09c-.57-.05-1.07.37-1.12.94l-.39,4.43c-.05.57.37,1.07.94,1.12l1.04.09,6.6.58,70.57,6.17c1.81.16,3.41-1.18,3.56-2.99.28-3.15-2.05-5.93-5.2-6.2ZM81.09,32.08l-4.25-.37c-.63-.06-1.07-.66-.92-1.28.78-3.21,2.2-5.41,3.63-5.29,1.43.13,2.45,2.54,2.66,5.84.04.63-.5,1.16-1.13,1.1ZM78.12,182.53c2.42,2.27,6.22,2.15,8.49-.26,2.27-2.42,2.15-6.22-.26-8.49-2.42-2.27-6.22-2.15-8.49.26-2.27,2.42-2.15,6.22.26,8.49ZM87.75,191.58c2.42,2.27,6.22,2.15,8.49-.26s2.15-6.22-.26-8.49c-2.42-2.27-6.22-2.15-8.49.26-2.27,2.42-2.15,6.22.26,8.49ZM68.4,173.39c2.42,2.27,6.22,2.15,8.49-.26,2.27-2.42,2.15-6.22-.26-8.49-2.42-2.27-6.22-2.15-8.49.26s-2.15,6.22.26,8.49ZM145.84,155.06c3.21-.83,5.15-4.1,4.32-7.31-.83-3.21-4.1-5.15-7.31-4.32-3.21.83-5.15,4.1-4.32,7.31.83,3.21,4.1,5.15,7.31,4.32ZM158.64,151.76c3.21-.83,5.15-4.1,4.32-7.31-.83-3.21-4.1-5.15-7.31-4.32s-5.15,4.1-4.32,7.31c.83,3.21,4.1,5.15,7.31,4.32ZM132.92,158.38c3.21-.83,5.15-4.1,4.32-7.31-.83-3.21-4.1-5.15-7.31-4.32-3.21.83-5.15,4.1-4.32,7.31.83,3.21,4.1,5.15,7.31,4.32Z"/>
</svg>