<?xml version="1.0" encoding="UTF-8"?>
<svg id="Capa_1" data-name="Capa 1" xmlns="http://www.w3.org/2000/svg" viewBox="0 0 200 200">
  <path d="M94.19,23.17c3.26,4.36,11.19,12.69,15.53,17.16,1.61,1.66,4.28,1.67,5.89,0,4.34-4.47,12.28-12.79,15.54-17.16,3.38-4.52,1.33-11.13-3.49-14.07-1.68-1.02-3.53-1.5-5.36-1.5-3.47,0-6.66,1.88-8.81,4.94-.73,1.04-.83,1.61-.83,1.61,0,0-.09-.57-.82-1.61-2.14-3.05-5.34-4.94-8.81-4.94-1.83,0-3.68.49-5.36,1.5-4.82,2.95-6.87,9.55-3.49,14.07ZM128.61,161.78l-49.56,10.69-3.43-15.89-24.38-25.69c-3.9-4.1-3.74-10.59.37-14.5h0c4.1-3.9,10.59-3.74,14.5.37l5.58,5.92,2.44-2.32-10.59-11.19c-3.9-4.1-3.74-10.59.37-14.5h0c4.1-3.9,10.59-3.74,14.5.37l10.59,11.19,2.21-2.1-9.06-9.57c-3.9-4.1-3.74-10.59.37-14.5h0c4.1-3.9,10.59-3.74,14.5.37l9.06,9.57,2.4-2.29-29.21-30.89c-3.85-4.14-3.65-10.6.44-14.49h0c4.13-3.92,10.65-3.75,14.57.37l48.12,50.02c12.69,13.35,12.15,34.45-1.2,47.14l-14.42,13.7,1.83,8.21ZM133.9,167.18c-18.82,4.06-37.38,8.06-56.26,12.14.93,4.33,1.82,8.45,2.83,13.1,18.58-4.01,37.25-8.04,56.26-12.14-.97-4.49-1.86-8.63-2.83-13.1ZM131.15,76.33l14.61-13.89c3.2-3.05,3.33-8.11.29-11.32h0c-6.01-6.32-16.01-6.58-22.33-.57l-8.97,8.52,16.4,17.25Z"/>
</svg>