<?xml version="1.0" encoding="UTF-8"?>
<svg id="Capa_1" data-name="Capa 1" xmlns="http://www.w3.org/2000/svg" viewBox="0 0 200 200">
  <path d="M164,70.07s-.06.38-.01,1.01c.12,1.64-1.16,3.05-2.81,3.05h-36.39c-1.65,0-2.93-1.41-2.81-3.05.04-.62-.01-1.01-.01-1.01,0-1.16.94-2.11,2.11-2.11h37.82c1.16,0,2.11.94,2.11,2.11ZM136.87,40.01h11.45c1.11,0,2.01-.91,2.01-2.01s-.91-2.01-2.01-2.01h-11.45c-1.11,0-2.01.91-2.01,2.01s.91,2.01,2.01,2.01ZM165.78,175.09h-45.59c-1.96,0-3.33,1.9-2.76,3.78,2.18,7.22,8.9,6.84,8.9,6.84h33.31s6.8.38,8.94-6.97c.53-1.83-.89-3.65-2.8-3.65ZM141.02,131.06c-4.04,0-7.32,3.24-7.32,7.32s3.28,7.32,7.32,7.32,7.32-3.24,7.32-7.32-3.18-7.32-7.32-7.32ZM121.74,63.57h41.71c.91,0,1.65-.74,1.65-1.65v-3.71s.19-9.24-16.98-10.88v-4.54h-11.04v4.54c-17.18,1.64-16.99,10.88-16.99,10.88v3.71c0,.91.74,1.65,1.65,1.65ZM162.84,107.93c0,4.96,2.41,10.29,4.87,11.39,0,0,1.5.78,1.5,3.25v45.41c0,1.57-1.28,2.85-2.85,2.85h-46.78c-1.57,0-2.85-1.28-2.85-2.85v-45.41c0-2.48,1.5-3.25,1.5-3.25,2.46-1.1,4.87-6.42,4.87-11.39s-2.41-10.29-4.87-11.39c0,0-1.9-.57-1.9-3.05v-10.55s.02-.34.12-.89c.36-2.13,2.22-3.67,4.38-3.67h44.29c2.16,0,4.02,1.54,4.38,3.67.09.55.12.89.12.89v10.55c0,2.48-1.9,3.05-1.9,3.05-2.46,1.1-4.87,6.42-4.87,11.39ZM155.3,138.37c0-7.7-6.42-13.98-14.29-13.98s-14.29,6.28-14.29,13.98,6.52,13.98,14.29,13.98,14.29-6.28,14.29-13.98ZM156.64,124.54l.62-.58c.8-.76,1.97-1.76,1.97-3.38,0-1.98-1.57-3.18-3.35-3.18-1.64,0-3.5,1.09-3.5,3.45,0,.22.09.28.22.28h1.96c.15,0,.21-.06.21-.28,0-.7.45-1.08,1.08-1.08.58,0,.92.33.92.81,0,.5-.34.84-1.13,1.58l-3.16,2.93c-.13.12-.22.31-.22.49v1.26c0,.16.13.29.29.29h6.33c.16,0,.29-.13.29-.29v-1.85c0-.16-.13-.29-.29-.29h-2.18c-.09,0-.13-.11-.06-.16ZM90.7,76.64c0,3.93,2.25,7.87,5.61,9.55,2.25,1.12,3.38,3.38,3.38,5.63v79.31c0,8.99-7.31,16.3-16.31,16.3h-26.98c-8.98,0-16.31-7.31-16.31-16.3v-79.31c0-2.25,1.68-4.51,3.37-5.63,3.39-1.69,5.64-5.62,5.64-9.55s-2.25-7.87-5.64-9.55c-1.69-1.13-3.37-3.38-3.37-5.63,0-1.12,1.12-1.68,1.68-1.68h56.22c1.12,0,1.69.56,1.69,1.68,0,2.25-1.13,4.49-3.38,5.63-3.36,1.69-5.61,5.62-5.61,9.55ZM78.22,131.86c0-5.06-9.16-17.74-9.16-17.74,0,0-9.16,12.68-9.16,17.74s4.1,9.25,9.16,9.25,9.16-4.1,9.16-9.25ZM74.96,13.62h-10.14c-1.13,0-2.81,1.12-2.81,2.81h15.75c0-1.69-1.12-2.81-2.8-2.81ZM42.89,51.16v3.69h53.98v-3.69h-53.98ZM95.2,33.86c-3.45-1.55-6.65-2.59-10.14-3.38-4.41-1-7.3-4.5-7.3-8.43v-1.7h-15.75v1.7c0,3.93-2.88,7.51-6.74,8.43-3.45.82-6.74,1.69-10.1,3.38-1.71.56-5.08,3.69-5.08,6.74v6.18h59.59v-6.18c0-3.37-1.74-5.5-4.49-6.74Z"/>
</svg>