<?xml version="1.0" encoding="UTF-8"?>
<svg id="Capa_1" data-name="Capa 1" xmlns="http://www.w3.org/2000/svg" viewBox="0 0 200 200">
  <path d="M100,129.2c1.82,0,3.54.33,5.15,1,1.6.66,3.05,1.64,4.33,2.94,1.3,1.3,2.29,2.75,2.95,4.35.67,1.61,1,3.34,1,5.17,0,1.83-.34,3.54-1,5.14-.66,1.59-1.65,3.03-2.95,4.34-1.29,1.3-2.73,2.28-4.33,2.94-1.61.67-3.32,1-5.15,1s-3.53-.33-5.14-.99c-1.6-.66-3.05-1.64-4.35-2.93h-.01c-1.29-1.32-2.28-2.77-2.93-4.35-.66-1.6-1-3.31-1-5.13,0-1.81.33-3.52,1-5.13.65-1.59,1.62-3.04,2.9-4.33h0c1.29-1.32,2.74-2.32,4.35-2.99,1.61-.67,3.34-1.01,5.19-1.01ZM100,124.26h0c3.08,0,5.69-2.26,6.14-5.3l6.38-43.15c.57-3.85-.67-7.74-3.35-10.56h0c-5-5.24-13.38-5.21-18.34.08l-.1.11c-2.64,2.81-3.84,6.67-3.28,10.49l6.4,43.04c.45,3.04,3.07,5.3,6.14,5.3ZM192.06,156.33c-.26,5.39-1.98,10.58-5,15.04-2.9,4.29-6.89,7.75-11.54,9.99-3.86,1.86-8.14,2.85-12.39,2.85,0,0-.38,0-.58,0H36.41s-1.18-.14-1.18-.14c-3.11-.36-7.21-1.04-11.29-3.11-4.93-2.5-9.04-6.31-11.88-11.03-2.91-4.83-4.34-10.4-4.13-16.1.16-4.42,1.29-8.81,3.38-13.05l.28-.57L75.33,28.89l.68-.95c2.55-3.55,5.69-5.71,7.21-6.74,5.17-3.55,11.05-5.41,17.06-5.41.42,0,.85,0,1.27.03,6.49.29,12.55,2.69,17.53,6.96,2.24,1.93,4.04,3.95,5.49,6.19l.31.48,63.75,111.33.27.55c2.35,4.73,3.41,9.78,3.16,15.01ZM171.63,155.37c.08-1.74-.29-3.4-1.06-4.96l-63.16-110.31c-.44-.67-1.03-1.27-1.64-1.79-1.45-1.25-3.21-1.98-5.13-2.06-2.1-.09-4.1.61-5.82,1.79-.65.45-1.73,1.18-2.2,1.83l-.06.08-62.91,109.87c-.73,1.47-1.23,3.09-1.29,4.74-.06,1.7.34,3.37,1.22,4.83.86,1.43,2.11,2.57,3.6,3.33,1.2.61,3,.87,4.41,1.04h125.24c1.32.05,2.61-.23,3.79-.8,1.41-.68,2.62-1.74,3.5-3.04.91-1.35,1.43-2.91,1.51-4.54Z"/>
</svg>