<?xml version="1.0" encoding="UTF-8"?>
<svg id="Capa_1" xmlns="http://www.w3.org/2000/svg" version="1.1" viewBox="0 0 200 200">
  <!-- Generator: Adobe Illustrator 29.0.0, SVG Export Plug-In . SVG Version: 2.1.0 Build 186)  -->
  <path d="M103.53,186.59l-.52,5.73c-.15,1.65-1.59,2.88-3.2,2.73-1.61-.14-2.8-1.6-2.65-3.26l.52-5.73c.15-1.64,1.58-2.86,3.19-2.72,1.61.15,2.81,1.61,2.67,3.25ZM149.01,90.91c-3.38-4.04-9.39-4.59-13.44-1.21l-24.27,20.27-39.59-3.56c-10.61-.95-20.12,6.34-21.31,19.57l-1.58,17.62c-.41,4.53,2.85,8.54,7.29,8.94,4.43.4,8.35-2.97,8.76-7.49l1.58-17.62,3.35.3-2.45,27.25c-.44,4.87,2.29,9.28,6.45,11.1l-.2,2.2c-.15,1.65,1.04,3.11,2.65,3.26,1.61.15,3.05-1.08,3.2-2.73l.18-1.97c4.82-.73,8.71-4.75,9.18-9.93l.09-1.01,3.91.35-1.25,13.95c-.55,6.07,3.8,11.42,9.72,11.96,5.93.53,11.18-3.96,11.73-10.03l3.61-40.19.15-1.66,31.05-25.93c4.04-3.38,4.59-9.39,1.21-13.44ZM95.57,104.58c15.07.36,27.58-11.57,27.94-26.64.09-3.57-.53-6.99-1.7-10.15-.79-2.29-1.87-4.44-3.21-6.41.33-1.35.54-2.76.61-4.21.4-8.7-6.28-13.22-8.93-14.67-.16-.09-.35-.07-.48.05-.13.12-.18.3-.12.47,2.63,7.17-7.26,8.97-7.31,1.87-.04-5.08,4.94-8.32,6.07-8.99.14-.08.22-.24.21-.4-.42-5.18-5.47-10.42-7.42-12.26-.12-.11-.3-.15-.45-.09-.16.06-.26.21-.27.37-.22,4.02-5.43,3.41-5.78.25-.28-2.57,2.15-5.05,3-5.83.16-.15.18-.39.06-.56-3.16-4.36-2.01-9.55-1.23-11.9.06-.18,0-.37-.15-.48-.15-.11-.36-.11-.5,0-2.87,2.14-10.1,8.5-9.81,18.3,0,.08.03.16.07.23.75,1.11,7.27,11.1,2.48,16.08-3.54,3.68-7.76-1.12-6.31-5.22.06-.16.01-.34-.11-.46-.13-.12-.31-.14-.47-.07-1.86.86-5.69,3.34-6.71,9.39-.02.13.02.26.1.36.96,1.06,6.59,7.5,4.63,11.26-1.62,3.12-6.1,1.9-7.11-1.52-.06-.18-.22-.31-.41-.31s-.35.12-.41.31c-.7,2.37-1.55,6.87-.05,11.74-1.74,3.48-2.76,7.39-2.86,11.54-.36,15.07,11.57,27.58,26.64,27.94Z"/>
</svg>