<?xml version="1.0" encoding="UTF-8"?>
<svg id="Capa_1" data-name="Capa 1" xmlns="http://www.w3.org/2000/svg" viewBox="0 0 200 200">
  <path d="M165.42,101.77c-.61-.73-1.3-1.46-1.94-2.18.65-.73,1.33-1.46,1.94-2.18,5.54-6.6,9.48-12.94,11.68-18.87,3.97-10.64,1.81-18.27-.7-22.8-.34-.61-.74-1.25-1.19-1.9-.99,4.07-3.23,7.58-6.27,10.15.75,3.12.38,6.73-1.14,10.79-1.78,4.79-5.11,10.1-9.89,15.78-.47.56-1,1.12-1.49,1.68-5.03-4.84-10.75-9.63-16.97-14.25-.73-7.93-1.85-15.49-3.36-22.45.71-.16,1.44-.36,2.14-.51,2.08-.43,4.06-.74,5.95-.97,1.94,5.72,7.12,9.84,13.27,9.84,7.8,0,14.13-6.59,14.13-14.73,0-8.13-6.32-14.73-14.13-14.73-5.91,0-10.96,3.79-13.07,9.17-2.58.26-5.26.65-8.09,1.23-.91.19-1.86.44-2.79.66-.28-.95-.54-1.93-.84-2.84-2.71-8.31-6.01-15.03-9.83-19.98-6.86-8.9-14.27-10.77-19.29-10.77-5.01,0-12.43,1.87-19.29,10.77-3.82,4.95-7.13,11.68-9.83,19.98-.3.91-.56,1.9-.84,2.84-.93-.22-1.88-.47-2.78-.66-5.26-1.09-10.14-1.64-14.5-1.64-2.47,0-4.83.18-7.01.53-10.82,1.74-16.08,7.5-18.59,12.03-.22.4-.44.86-.65,1.32,1.53-.43,3.11-.74,4.77-.74,2.53,0,4.94.54,7.14,1.51,2.18-1.91,5.09-3.24,8.86-3.84,1.69-.27,3.52-.41,5.49-.41,3.71,0,7.92.48,12.56,1.44.7.14,1.43.34,2.14.51-1.51,6.96-2.63,14.52-3.36,22.45-6.22,4.62-11.94,9.42-16.97,14.25-.49-.56-1.02-1.12-1.49-1.68-1.49-1.77-2.78-3.49-3.98-5.18,2.3-2.62,3.74-6.08,3.74-9.91,0-8.13-6.32-14.73-14.13-14.73-7.8,0-14.13,6.59-14.13,14.73,0,8.13,6.33,14.73,14.13,14.73.45,0,.87-.1,1.31-.14,1.62,2.41,3.47,4.86,5.56,7.34.61.73,1.3,1.46,1.94,2.18-.65.73-1.33,1.46-1.94,2.18-5.54,6.59-9.48,12.94-11.68,18.87-3.97,10.64-1.81,18.27.69,22.8,2.51,4.53,7.77,10.29,18.59,12.03,2.18.35,4.54.53,7.01.53,4.36,0,9.24-.55,14.51-1.64.91-.19,1.86-.44,2.78-.66.28.95.54,1.93.84,2.84,2.71,8.3,6.01,15.02,9.83,19.98,6.86,8.9,14.27,10.77,19.29,10.77.75,0,1.56-.06,2.41-.16-2.78-2.8-4.67-6.5-5.33-10.65-3.04-.84-5.92-3-8.59-6.47-3.09-4.01-5.83-9.66-8.16-16.81-.23-.7-.43-1.46-.65-2.18,6.53-2.12,13.37-4.89,20.32-8.19,6.95,3.3,13.79,6.07,20.32,8.19-.22.72-.42,1.48-.65,2.18-.67,2.06-1.4,3.92-2.14,5.71-.78-.14-1.57-.25-2.39-.25-7.8,0-14.13,6.59-14.13,14.73,0,8.13,6.32,14.73,14.13,14.73,7.8,0,14.13-6.59,14.13-14.73,0-3.47-1.2-6.61-3.12-9.13,1.05-2.41,2.05-4.93,2.96-7.72.3-.91.56-1.9.84-2.84.93.22,1.88.47,2.78.66,5.26,1.09,10.14,1.64,14.5,1.64,2.47,0,4.84-.18,7.02-.53,10.82-1.74,16.08-7.5,18.59-12.03,2.51-4.52,4.66-12.15.69-22.8-2.2-5.92-6.14-12.27-11.68-18.86ZM149.39,99.59c-2.8,2.68-5.82,5.36-9.05,8,.09-2.64.13-5.31.13-8s-.05-5.35-.13-8c3.23,2.64,6.25,5.32,9.05,8ZM76.63,99.59c0-5.4.2-10.71.56-15.88,4.11-2.91,8.42-5.74,12.91-8.44,4.49-2.7,9-5.18,13.47-7.44,4.47,2.26,8.98,4.73,13.47,7.44,4.49,2.7,8.8,5.53,12.91,8.44.36,5.17.56,10.47.56,15.88s-.2,10.71-.56,15.88c-4.11,2.91-8.42,5.74-12.91,8.44-4.49,2.7-8.99,5.18-13.47,7.44-4.47-2.26-8.98-4.73-13.47-7.44-4.49-2.7-8.8-5.53-12.91-8.44-.36-5.17-.56-10.47-.56-15.88ZM128.59,70.39c-2.15-1.4-4.35-2.77-6.58-4.12-2.23-1.34-4.47-2.64-6.71-3.88,3.81-1.6,7.54-2.98,11.17-4.17.83,3.87,1.54,7.93,2.12,12.17ZM83.89,45.99c2.33-7.15,5.08-12.81,8.16-16.81,3.52-4.57,7.4-6.89,11.51-6.89,4.12,0,7.99,2.32,11.51,6.89,3.09,4.01,5.83,9.66,8.16,16.81.23.7.43,1.46.65,2.18-6.53,2.12-13.37,4.89-20.32,8.19-6.95-3.3-13.79-6.07-20.32-8.19.22-.72.42-1.48.65-2.18ZM80.65,58.21c3.63,1.19,7.36,2.58,11.17,4.17-2.24,1.24-4.48,2.54-6.71,3.88-2.23,1.34-4.42,2.72-6.58,4.12.58-4.24,1.29-8.3,2.12-12.17ZM66.79,107.58c-3.23-2.64-6.25-5.32-9.05-8,2.8-2.68,5.82-5.36,9.05-8-.09,2.64-.13,5.31-.13,8s.05,5.35.13,8ZM68.88,144.15c-4.64.96-8.84,1.44-12.56,1.44h0c-1.97,0-3.8-.14-5.48-.41-5.56-.89-9.42-3.23-11.48-6.95-2.06-3.72-2.07-8.38-.04-13.84,1.78-4.79,5.11-10.1,9.89-15.78.47-.56,1-1.12,1.49-1.68,5.03,4.84,10.75,9.63,16.97,14.25.73,7.93,1.85,15.49,3.36,22.45-.71.16-1.44.37-2.14.51ZM80.65,140.96c-.83-3.87-1.54-7.94-2.12-12.17,2.15,1.4,4.35,2.77,6.58,4.12,2.23,1.34,4.47,2.64,6.71,3.88-3.81,1.6-7.54,2.98-11.17,4.17ZM115.31,136.78c2.24-1.24,4.48-2.54,6.71-3.88,2.23-1.34,4.42-2.72,6.58-4.12-.58,4.24-1.29,8.3-2.12,12.17-3.63-1.19-7.36-2.58-11.17-4.17ZM167.78,138.24c-2.06,3.72-5.92,6.06-11.48,6.95-1.69.27-3.52.41-5.49.41h0c-3.71,0-7.91-.48-12.55-1.44-.7-.14-1.43-.34-2.14-.51,1.51-6.96,2.63-14.52,3.36-22.45,6.22-4.62,11.94-9.42,16.97-14.25.49.56,1.02,1.12,1.49,1.68,4.77,5.68,8.1,10.99,9.89,15.78,2.04,5.46,2.02,10.12-.04,13.84ZM118.91,115.55c4.2-4.46,6.38-9.77,6.38-16,0-6.23-2.18-11.54-6.38-15.92-4.28-4.46-9.37-6.65-15.35-6.65s-11.07,2.19-15.35,6.65c-4.2,4.38-6.38,9.68-6.38,15.92,0,6.23,2.18,11.54,6.38,16,4.28,4.38,9.37,6.65,15.35,6.65,5.98,0,11.07-2.27,15.35-6.65ZM116.09,114.62c-.73.76-1.54,1.1-2.5,1.1-1.05,0-1.86-.34-2.59-1.1-.65-.67-1.05-1.6-1.05-2.69,0-.93.4-1.85,1.05-2.61.73-.76,1.54-1.09,2.59-1.09.97,0,1.78.34,2.5,1.09.73.76,1.05,1.68,1.05,2.61,0,1.09-.32,2.02-1.05,2.69ZM122.31,102.41c0,1.01-.32,1.94-1.05,2.61-.65.76-1.53,1.1-2.5,1.1-1.05,0-1.86-.34-2.59-1.1-.65-.67-1.05-1.6-1.05-2.61s.4-1.94,1.05-2.69c.73-.67,1.54-1.1,2.59-1.1.97,0,1.86.42,2.5,1.1.73.76,1.05,1.68,1.05,2.69ZM114.55,88.93c.73-.67,1.54-1.01,2.59-1.01.97,0,1.86.34,2.5,1.01.73.84,1.05,1.68,1.05,2.7,0,1.09-.32,1.94-1.05,2.61-.65.84-1.54,1.18-2.5,1.18-1.05,0-1.86-.34-2.59-1.18-.65-.67-1.05-1.52-1.05-2.61,0-1.01.4-1.85,1.05-2.7ZM106.63,82.19c.73-.67,1.53-1.1,2.59-1.1.97,0,1.86.42,2.5,1.1.73.76,1.05,1.68,1.05,2.7s-.32,1.94-1.05,2.61c-.65.76-1.53,1.09-2.5,1.09-1.05,0-1.86-.34-2.59-1.09-.65-.67-1.05-1.6-1.05-2.61s.4-1.94,1.05-2.7ZM96.37,81.77c.81-.67,1.62-1.01,2.58-1.01,1.05,0,1.86.34,2.59,1.01.73.84,1.05,1.68,1.05,2.7,0,1.09-.32,1.94-1.05,2.61-.73.84-1.53,1.18-2.59,1.18-.97,0-1.78-.34-2.58-1.18-.64-.67-1.05-1.52-1.05-2.61,0-1.01.41-1.85,1.05-2.7ZM88.05,88.51c.73-.67,1.54-1.01,2.59-1.01.97,0,1.86.34,2.5,1.01.73.84,1.05,1.68,1.05,2.7,0,1.1-.32,1.94-1.05,2.61-.65.84-1.54,1.18-2.5,1.18-1.05,0-1.86-.34-2.59-1.18-.65-.68-1.05-1.52-1.05-2.61,0-1.01.4-1.85,1.05-2.7ZM86.11,104.26c-.65-.76-1.05-1.6-1.05-2.69,0-1.01.4-1.85,1.05-2.61.73-.76,1.53-1.09,2.59-1.09.97,0,1.78.34,2.5,1.09.73.76,1.05,1.6,1.05,2.61,0,1.1-.32,1.94-1.05,2.69-.73.76-1.53,1.1-2.5,1.1-1.05,0-1.86-.34-2.59-1.1ZM96.21,113.95c-.65.76-1.53,1.09-2.5,1.09-1.05,0-1.86-.34-2.59-1.09-.65-.76-1.05-1.6-1.05-2.7,0-1.01.4-1.85,1.05-2.61.73-.76,1.53-1.09,2.59-1.09.97,0,1.86.34,2.5,1.09.73.76,1.05,1.6,1.05,2.61,0,1.09-.32,1.94-1.05,2.7ZM94.92,99.54c0-2.44.81-4.63,2.5-6.4,1.7-1.77,3.8-2.69,6.14-2.69,2.42,0,4.44.93,6.14,2.69,1.7,1.77,2.59,3.96,2.59,6.4,0,2.44-.89,4.63-2.59,6.4-1.7,1.77-3.72,2.61-6.14,2.61s-4.44-.84-6.14-2.61c-1.7-1.77-2.5-3.96-2.5-6.4ZM100.01,115.46c0-1.01.4-1.94,1.05-2.7.73-.67,1.53-1.09,2.59-1.09.97,0,1.86.42,2.5,1.09.73.76,1.05,1.68,1.05,2.7s-.32,1.94-1.05,2.61c-.65.76-1.53,1.09-2.5,1.09-1.05,0-1.86-.34-2.59-1.09-.65-.67-1.05-1.6-1.05-2.61Z"/>
</svg>