<?xml version="1.0" encoding="UTF-8"?>
<svg id="Capa_1" data-name="Capa 1" xmlns="http://www.w3.org/2000/svg" viewBox="0 0 200 200">
  <path d="M192.63,75.92l-6.81-21.85c-1.33-4.25-5.27-7.15-9.72-7.15h-18.58c-7.52-5.77-16.92-9.2-27.13-9.21l-22.28-.02v-1.88c0-2.39-1.95-4.34-4.34-4.34h-41.44c-2.39,0-4.34,1.95-4.34,4.34v1.87h-26.5c-4.8,0-8.69,3.88-8.69,8.68v89.79h-1.39c-2.39,0-4.34,1.95-4.34,4.34v3.63c0,2.39,1.95,4.34,4.34,4.34h1.39v1.49c0,4.8,3.89,8.69,8.69,8.69h7.12c1.89,11.51,11.88,20.29,23.92,20.29s22.03-8.78,23.92-20.29h20.64c1.89,11.51,11.88,20.29,23.92,20.29s22.03-8.78,23.92-20.29h7.07c6.21,0,11.4-4.35,12.71-10.18h.42c2.39,0,4.34-1.95,4.34-4.34v-3.63c0-2.39-1.95-4.34-4.34-4.34h-.09v-53.82c0-10.74-3.79-20.59-10.11-28.29h12.76c-1.8,4.29-2.29,8.7-1.66,13.39.15,1.14,2.38,7.75,4.04,12.56,1,2.89,4.09,4.48,7.02,3.6l1.76-.53c3.04-.91,4.75-4.13,3.81-7.16ZM33.09,133.04c0,.87-.7,1.57-1.57,1.57h-1.5c-.87,0-1.57-.7-1.57-1.57v-5.19c0-.87.7-1.57,1.57-1.57h1.5c.87,0,1.57.7,1.57,1.57v5.19ZM33.09,120.19c0,.87-.7,1.57-1.57,1.57h-1.5c-.87,0-1.57-.7-1.57-1.57v-13.63c0-.87.7-1.57,1.57-1.57h1.5c.87,0,1.57.7,1.57,1.57v13.63ZM33.09,51.52c0,.87-.7,1.57-1.57,1.57h-1.5c-.87,0-1.57-.7-1.57-1.57v-5.19c0-.87.7-1.57,1.57-1.57h1.5c.87,0,1.57.7,1.57,1.57v5.19ZM41.07,93.1c-2.4,0-4.34-1.94-4.34-4.34v-29.54c0-2.4,1.94-4.34,4.34-4.34h26.93c2.4,0,4.34,1.94,4.34,4.34v29.54c0,2.4-1.95,4.34-4.34,4.34h-26.93ZM62.51,166.03c-6.26,0-11.34-5.08-11.34-11.34s5.08-11.34,11.34-11.34,11.34,5.08,11.34,11.34-5.08,11.34-11.34,11.34ZM83.03,93.1c-2.4,0-4.34-1.94-4.34-4.34v-29.54c0-2.4,1.94-4.34,4.34-4.34h27.8c2.4,0,4.34,1.94,4.34,4.34v29.54c0,2.4-1.95,4.34-4.34,4.34h-27.8ZM130.99,166.03c-6.26,0-11.34-5.08-11.34-11.34s5.08-11.34,11.34-11.34,11.34,5.08,11.34,11.34-5.08,11.34-11.34,11.34ZM127.85,106.92c-1.26-1.83-6.6-11.05-6.6-12.52v-35.19c0-2.4,1.94-4.34,4.34-4.34h12.79c13.57,0,24.57,11,24.57,24.57v43.83c0,2.61-2.29,4.65-4.88,4.32-12.62-1.62-23.09-10.34-30.23-20.67ZM167.39,136.16c1.42,0,2.58,1.16,2.58,2.58v7.15c0,1.42-1.16,2.58-2.58,2.58h-12.02c-2.39,0-4.34-1.95-4.34-4.34v-3.63c0-2.39,1.95-4.34,4.34-4.34h12.02Z"/>
</svg>