<?xml version="1.0" encoding="UTF-8"?>
<svg id="Capa_1" data-name="Capa 1" xmlns="http://www.w3.org/2000/svg" viewBox="0 0 200 200">
  <path d="M43.59,125.96c4.74.48,9.48.96,14.21,1.44,10.98-10.98,20.23-21.95,31.2-32.93-16.74-8.75-33.41-16.54-50.48-24.57-5.49-2.58-18.51-7.08-14.22-11.37l3.18-3.18,3.18-3.18c1.71-1.71,6.63-2.42,9.91-1.7,6.73,1.48,13.45,2.96,20.18,4.44l2.56-2.56,2.56-2.56c3.86-3.86,4.72-7.99,9.71-3.01,4.23,4.23,2.77,3.93-.86,7.57l-1.49,1.49-1.49,1.49c6.07,1.34,12.14,2.67,18.21,4.01l2.64-2.64,2.64-2.64c4.61-4.61,4.92-8.09,9.86-3.16,4.82,4.82,1.85,4.85-2.58,9.28l-1.57,1.57c5.6,1.23,11.2,2.47,16.8,3.7l9.87-9.87,9.87-9.87,9.87-9.87,9.87-9.87c1.29-1.29,2.72-2.3,4.22-3.05,1.49-.74,3.05-1.21,4.56-1.38,1.52-.18,3-.06,4.36.35,1.36.41,2.6,1.12,3.61,2.14h0c1.02,1.02,1.73,2.25,2.14,3.62.41,1.36.52,2.85.35,4.36-.18,1.52-.64,3.07-1.38,4.56-.74,1.49-1.76,2.93-3.04,4.21l-9.88,9.88-9.88,9.88-9.88,9.88-9.88,9.88c1.23,5.58,2.46,11.15,3.68,16.73l1.57-1.57c4.43-4.43,4.46-7.4,9.28-2.58,5,5,.63,6.08-3.16,9.86l-2.64,2.64-2.64,2.64c1.34,6.07,2.67,12.14,4.01,18.21l1.49-1.49c4.94-4.94,4.48-6.93,9.06-2.35,4.9,4.9,1.57,5.13-3.01,9.71l-2.56,2.56-2.56,2.56c1.48,6.73,2.96,13.45,4.44,20.18.72,3.27.67,7.54-1.7,9.91l-3.18,3.18-3.18,3.18c-4.29,4.29-8.78-8.72-11.37-14.21-8.03-17.05-15.81-33.71-24.55-50.43-12.05,9.52-22.06,20.33-32.91,31.19.48,4.74.96,9.48,1.44,14.21.25,2.49-.25,5.47-2.02,7.24l-2.5,2.5c-3.57,3.57-5.46,3.89-7.6-1.32-2.6-6.33-5.19-12.65-7.79-18.98-6.33-2.6-12.65-5.19-18.98-7.79-5.22-2.14-4.89-4.03-1.32-7.6l2.5-2.5c1.77-1.77,6.25-1.8,7.24-2.02h0Z" style="fill-rule: evenodd;"/>
</svg>