<?xml version="1.0" encoding="UTF-8"?>
<svg id="Capa_1" data-name="Capa 1" xmlns="http://www.w3.org/2000/svg" viewBox="0 0 200 200">
  <path d="M84.67,22.72c-.66-.03-1.31-.06-1.95-.09v-13c.64-.03,1.3-.06,1.95-.09v13.19ZM98.65,9.2c-.65,0-1.31,0-1.95.01v13.83c.65,0,1.3,0,1.95.01v-13.86ZM75.35,10.11c-.66.05-1.31.11-1.95.16v11.71c.64.06,1.29.11,1.95.16v-12.04ZM93.99,9.25c-.65.01-1.31.02-1.95.04v13.69c.65.01,1.3.03,1.95.04v-13.76ZM89.33,9.36c-.65.02-1.31.04-1.95.06v13.41c.64.02,1.3.04,1.95.06v-13.54ZM80.01,9.78c-.66.04-1.31.08-1.95.13v12.44c.64.04,1.29.09,1.95.13v-12.69ZM147.96,17.94c1.12-.58,1.72-1.18,1.72-1.81s-.61-1.23-1.72-1.81v3.62ZM54.75,13.27v5.72c.6.18,1.25.36,1.95.54v-6.8c-.71.17-1.36.35-1.95.54ZM70.69,10.53c-.66.07-1.31.14-1.95.21v10.77c.64.07,1.29.14,1.95.21v-11.19ZM66.02,11.07c-.67.09-1.32.18-1.95.27v9.57c.63.09,1.28.18,1.95.27v-10.11ZM61.36,11.77c-.68.12-1.33.24-1.95.36v7.99c.62.12,1.27.24,1.95.36v-8.71ZM131.27,10.74c-.64-.07-1.29-.14-1.95-.21v11.19c.66-.07,1.31-.14,1.95-.21v-10.77ZM140.59,12.13c-.62-.12-1.27-.24-1.95-.36v8.71c.68-.12,1.33-.24,1.95-.36v-7.99ZM145.25,13.27c-.6-.18-1.25-.36-1.95-.54v6.8c.71-.17,1.36-.35,1.95-.54v-5.72ZM136.4,30.17c3.87-.54,8.93-1.25,13.27-2.91v156.61c0,3.83-22.24,6.93-49.68,6.93s-49.68-3.1-49.68-6.93V27.26c4.34,1.66,9.41,2.37,13.27,2.91,9.79,1.37,22.72,2.12,36.4,2.12s26.61-.75,36.4-2.12ZM119.47,119.39c-.46.95-.07,2.09.88,2.55.95.46,2.09.07,2.55-.88.46-.95.07-2.09-.88-2.55-.95-.46-2.09-.07-2.55.88ZM118.37,117.72c.95.46,2.09.07,2.55-.88.46-.95.07-2.09-.88-2.55-.95-.46-2.09-.07-2.55.88-.46.95-.07,2.09.88,2.55ZM87.58,83.37c0,4.2,3.4,7.6,7.6,7.6s7.6-3.4,7.6-7.6-3.4-7.6-7.6-7.6-7.6,3.4-7.6,7.6ZM89.9,128.15c0-1.05-.85-1.91-1.91-1.91s-1.91.85-1.91,1.91.85,1.91,1.91,1.91,1.91-.85,1.91-1.91ZM93.52,125.21c0-1.05-.85-1.91-1.91-1.91s-1.91.85-1.91,1.91.85,1.91,1.91,1.91,1.91-.85,1.91-1.91ZM97.14,122.29c0-1.05-.85-1.91-1.91-1.91s-1.91.85-1.91,1.91.85,1.91,1.91,1.91,1.91-.85,1.91-1.91ZM121.38,126.79l-16.11-34.04h-35.73l19.79,12.96-3.71,21.08,15.96-13.02,19.79,13.02ZM123.98,122.73c-.95-.46-2.09-.07-2.55.88-.46.95-.07,2.09.88,2.55.95.46,2.09.07,2.55-.88.46-.95.07-2.09-.88-2.55ZM135.93,11.34c-.63-.09-1.28-.18-1.95-.27v10.11c.67-.09,1.32-.18,1.95-.27v-9.57ZM52.04,17.94v-3.62c-1.12.58-1.72,1.18-1.72,1.81s.61,1.23,1.72,1.81ZM103.31,9.21c-.65,0-1.3,0-1.95-.01v13.86c.65,0,1.31,0,1.95-.01v-13.83ZM107.97,9.28c-.65-.01-1.3-.03-1.95-.04v13.76c.65-.01,1.31-.02,1.95-.04v-13.69ZM112.63,9.42c-.65-.02-1.3-.04-1.95-.06v13.54c.65-.02,1.31-.04,1.95-.06v-13.41ZM121.95,9.91c-.64-.04-1.29-.09-1.95-.13v12.69c.66-.04,1.31-.08,1.95-.13v-12.44ZM117.29,9.63c-.64-.03-1.3-.06-1.95-.09v13.19c.66-.03,1.31-.06,1.95-.09v-13ZM126.61,10.27c-.64-.06-1.29-.11-1.95-.16v12.04c.66-.05,1.31-.11,1.95-.16v-11.71Z"/>
</svg>