<?xml version="1.0" encoding="UTF-8"?>
<svg id="Capa_1" data-name="Capa 1" xmlns="http://www.w3.org/2000/svg" viewBox="0 0 200 200">
  <path d="M133.39,69.39c-15.33,0-27.72-12.39-27.72-27.72,0-15.33,12.39-27.8,27.72-27.8s27.8,12.47,27.8,27.8c0,15.33-12.47,27.72-27.8,27.72M123.92,181.05v-6.65c0-1.28-1.05-2.32-2.32-2.32h-.65c-1.28,0-2.32,1.05-2.32,2.32v6.65c0,1.28,1.05,2.32,2.32,2.32h.65c1.28,0,2.32-1.05,2.32-2.32ZM151.96,181.05v-6.65c0-1.28-1.05-2.32-2.32-2.32h-.65c-1.28,0-2.32,1.05-2.32,2.32v6.65c0,1.28,1.05,2.32,2.32,2.32h.65c1.28,0,2.32-1.05,2.32-2.32ZM181.33,98.02v30.36c.06,11.31-14.66,11.31-14.66,0v-29.2h-6.97v60.35c0,5.24-3.61,10.07-8.78,10.89-6.61,1.04-12.28-4-12.28-10.38l.06-23.84h-7.09v23.29c0,5.24-3.58,10.09-8.75,10.93-6.59,1.07-12.28-3.98-12.28-10.37l.06-60.86-6.87,8.4-16.2.06c-11.2,0-11.2-14.74,0-14.74h6.78l8.13-9.77c5.17-6.21,12.83-9.8,20.9-9.8h33.71c14.6,0,24.24,12.22,24.24,24.69ZM133.14,84.39l5.86,9.95-1.61.95,7.54,2.11,1.8-7.61-1.61.94-3.74-6.34h-8.24ZM127.03,91.73l6.17,3.56,2.82-4.13-3.99-6.77-5,7.34ZM123.89,97.71l-4.24,7.34h8.21l2.19-3.78,1.61.93-1.86-7.6-7.53,2.17,1.62.94ZM134.63,106.09h-14.99s2.51,7.07,2.51,7.07l12.48.04v-7.11ZM153.21,106.07h-11.73s0-1.87,0-1.87l-5.65,5.43,5.65,5.41v-1.86h7.7s4.04-7.11,4.04-7.11ZM153.21,105.05l-4.57-8.29-6.13,3.54,2.84,4.75h7.86ZM27.44,114.02l-3.42-2.87,39.92-47.29,3.39,2.87-39.89,47.29ZM57.46,91.56h0s.02,0,.02,0h-.02ZM78.22,114.18l-50.68.03v4.38h-6.53c-1.29,0-2.34,1.05-2.34,2.34,0,1.29,1.05,2.34,2.34,2.34h6.52l-.02,32.67,5.81.03c9.49,0,17.17,7.68,17.17,17.17l-.16,11.68h17.48c4.68,0,8.68-3.39,9.44-8.01l6.33-38.26v-19.02c0-2.96-2.4-5.36-5.37-5.36ZM54.91,90.66v.02l-1.72.83-.82-1.77-5.23,14.9c-.42,1.21.22,2.55,1.43,2.95l8.44,2.93c1.21.42,2.53-.23,2.95-1.43l5.18-14.88-1.74.85-.83-1.72-1.72.82-.82-1.72-1.73.82-.84-1.71-1.72.84-.83-1.75ZM46.07,173.15c0,7.17-5.81,12.98-12.97,12.98s-12.97-5.81-12.97-12.98c0-7.15,5.81-12.97,12.97-12.97s12.97,5.81,12.97,12.97ZM38.75,173.15c0-3.11-2.53-5.62-5.64-5.62-3.11,0-5.64,2.52-5.64,5.62,0,3.12,2.53,5.64,5.64,5.64s5.64-2.52,5.64-5.64Z"/>
</svg>