<?xml version="1.0" encoding="UTF-8"?>
<svg id="Capa_1" data-name="Capa 1" xmlns="http://www.w3.org/2000/svg" viewBox="0 0 200 200">
  <path d="M153.68,11l-21.47,2.13v35.07c0,.07-.01,9.83-8.08,9.83h-48.26c-8.06,0-8.08-9.76-8.08-9.83V13.13l-21.47-2.13-14.31,154.37s1.24,23.64,14.92,23.64h106.12c13.68,0,14.92-23.64,14.92-23.64l-14.31-154.37ZM126.79,118.07c.16-.1.37-.04.45.12l8.69,15.06c.14.22-.03.49-.29.49h-14.51c-.12,0-.23-.05-.29-.16l-5.07-8.76c-.08-.16-.03-.37.12-.46l10.89-6.29ZM75.35,147.48l-8.19-10.96c-.08-.11-.1-.26-.03-.37l8.04-13.93c.1-.15.04-.36-.12-.45l-4.69-2.71c-.26-.15-.19-.55.1-.62l16.22-3.35c.16-.04.33.05.38.22l5.21,15.72c.1.29-.22.55-.49.4l-4.69-2.71c-.15-.1-.36-.04-.45.12l-10.73,18.59c-.12.22-.42.23-.56.04ZM94.98,147.7c0,.19-.15.33-.33.33h-17.38c-.26,0-.42-.27-.3-.49l7.27-12.57c.05-.11.16-.16.29-.16h10.13c.18,0,.33.15.33.33v12.57ZM96.8,111.12c-.1.16-.3.22-.45.12l-10.89-6.29c-.16-.1-.22-.3-.12-.45l8.69-15.06c.12-.22.45-.22.57,0l7.26,12.57c.07.1.07.23,0,.33l-5.06,8.77ZM101.13,110.33l4.69-2.71c.16-.1.22-.3.12-.46l-10.73-18.59c-.12-.2.01-.48.25-.51l13.58-1.61c.14-.01.26.05.33.16l8.04,13.93c.1.16.3.22.46.12l4.69-2.71c.26-.15.57.1.48.4l-5.21,15.72c-.05.15-.22.25-.38.22l-16.21-3.35c-.3-.07-.37-.46-.11-.62ZM136.41,135.18l-5.4,12.57c-.05.12-.18.21-.3.21h-16.09c-.18,0-.33.15-.33.33v5.41c0,.31-.38.45-.57.22l-11.02-12.35c-.11-.14-.11-.33,0-.45l11.02-12.37c.19-.22.57-.08.57.23v5.41c0,.18.15.33.33.33h21.48c.23,0,.4.25.3.46Z"/>
</svg>