<?xml version="1.0" encoding="UTF-8"?>
<svg id="Capa_1" xmlns="http://www.w3.org/2000/svg" version="1.1" viewBox="0 0 200 200">
  <!-- Generator: Adobe Illustrator 29.0.0, SVG Export Plug-In . SVG Version: 2.1.0 Build 186)  -->
  <path d="M164.81,23.36h-91.25c0,3.33-2.7,6.04-6.04,6.04s-6.04-2.7-6.04-6.04h-30.03c0,12.15-9.85,22-22,22v56.54c12.15,0,22,9.85,22,22h30.03c0-3.33,2.7-6.04,6.04-6.04s6.04,2.7,6.04,6.04h91.25c0-12.15,9.85-22,22-22v-56.54c-12.15,0-22-9.85-22-22ZM67.53,113.18c-3.33,0-6.04-2.7-6.04-6.04s2.7-6.04,6.04-6.04,6.04,2.7,6.04,6.04-2.7,6.04-6.04,6.04ZM67.53,96.43c-3.33,0-6.04-2.7-6.04-6.04s2.7-6.04,6.04-6.04,6.04,2.7,6.04,6.04-2.7,6.04-6.04,6.04ZM67.53,79.67c-3.33,0-6.04-2.7-6.04-6.04s2.7-6.04,6.04-6.04,6.04,2.7,6.04,6.04-2.7,6.04-6.04,6.04ZM67.53,62.91c-3.33,0-6.04-2.7-6.04-6.04s2.7-6.04,6.04-6.04,6.04,2.7,6.04,6.04-2.7,6.04-6.04,6.04ZM67.53,46.16c-3.33,0-6.04-2.7-6.04-6.04s2.7-6.04,6.04-6.04,6.04,2.7,6.04,6.04-2.7,6.04-6.04,6.04ZM149.64,102.6l-18.82-9.16-18.82,9.16,2.9-20.73-14.53-15.07,20.61-3.65,9.84-18.48,9.84,18.48,20.61,3.65-14.53,15.07,2.9,20.73ZM169.87,130.31c-3.16,3.81-5.06,8.7-5.06,14.04H31.46c0-5.34-1.9-10.23-5.06-14.04h143.47ZM169.87,150.76c-3.16,3.81-5.06,8.7-5.06,14.04H31.46c0-5.34-1.9-10.23-5.06-14.04h143.47ZM169.87,171.21c-3.16,3.81-5.06,8.7-5.06,14.04H31.46c0-5.34-1.9-10.23-5.06-14.04h143.47Z"/>
</svg>