<?xml version="1.0" encoding="UTF-8"?>
<svg id="Capa_1" data-name="Capa 1" xmlns="http://www.w3.org/2000/svg" viewBox="0 0 200 200">
  <path d="M43.86,59.7h112.28c5.73,0,10.94,2.34,14.71,6.11,3.77,3.78,6.11,8.98,6.11,14.72v75.7c0,5.7-2.34,10.9-6.11,14.68h-.01s-.01.03-.01.03c-3.78,3.77-8.98,6.11-14.69,6.11H43.86c-5.73,0-10.94-2.33-14.71-6.11-3.77-3.77-6.11-8.98-6.11-14.71v-75.7c0-5.72,2.35-10.92,6.11-14.69l.02-.03c3.77-3.77,8.97-6.11,14.69-6.11M80.27,22.96h37.96c5.36,0,10.25,2.21,13.8,5.76l.02-.02c3.54,3.54,5.74,8.43,5.74,13.82v10.4h-15.65v-10.4c0-1.06-.44-2.04-1.15-2.75v-.03c-.69-.69-1.67-1.12-2.75-1.12h-37.96c-1.09,0-2.06.43-2.75,1.12l-.03.03c-.69.69-1.12,1.67-1.12,2.75v10.4h-15.65v-10.4c0-5.35,2.2-10.23,5.74-13.79h.02s.02-.03.02-.03c3.55-3.54,8.44-5.74,13.79-5.74M134.76,102.46h-21.92v-21.91h-25.82v21.91h-21.91v25.82h21.91v21.92h25.82v-21.92h21.92v-25.82Z"/>
</svg>