<?xml version="1.0" encoding="UTF-8"?>
<svg id="Capa_1" data-name="Capa 1" xmlns="http://www.w3.org/2000/svg" viewBox="0 0 200 200">
  <path d="M77.15,11.62c0-2.09,1.69-3.78,3.78-3.78h41.2c2.09,0,3.78,1.69,3.78,3.78v20.54h-48.77V11.62ZM77.28,125.91v-21.99c.76,0,1.51.04,2.24.12.37.04.73.11,1.1.17.36.06.72.09,1.08.17,10.02,2.07,17.58,10.96,17.58,21.58,0,.19-.02.39-.03.58-.01.55-.03,1.1-.08,1.64-.02.2-.06.4-.09.6-.07.53-.14,1.07-.24,1.59-.02.12-.06.23-.09.35-.13.6-.28,1.19-.46,1.77-.01.04-.03.08-.04.11-.43,1.34-.97,2.62-1.63,3.84,0,0,0,.01,0,.02-.33.61-.7,1.21-1.09,1.78-.09.13-.19.25-.28.38-.31.44-.63.88-.97,1.3-.45.54-.93,1.07-1.43,1.57,0,0,0,0,0,0l-15.54-15.54.04-.04h-.04ZM37.61,27.12c0-2.09,1.69-3.78,3.78-3.78h27.14l.03,24.32h-30.95v-20.54ZM59.2,146.21c-.13.6-.28,1.19-.46,1.77-.01.04-.03.08-.04.11-.43,1.34-.97,2.62-1.63,3.84,0,0,0,.01,0,.02-.33.61-.7,1.21-1.09,1.78-.09.13-.19.25-.28.38-.31.44-.63.88-.97,1.3-.45.54-.93,1.07-1.43,1.57,0,0,0,0,0,0l-15.54-15.54.04-.04h-.04v-21.99c.76,0,1.51.04,2.24.12.37.04.73.11,1.1.17.36.06.72.09,1.08.17,10.02,2.07,17.58,10.96,17.58,21.58,0,.19-.02.39-.03.58-.01.55-.03,1.1-.08,1.64-.02.2-.06.4-.09.6-.07.53-.14,1.07-.24,1.59-.02.12-.06.23-.09.35ZM115.71,185.04c-4.75,4.75-10.97,7.12-17.2,7.12s-12.44-2.37-17.19-7.12l-21.94-21.94c5.8-5.78,8.99-13.47,8.99-21.65,0-2.11-.22-4.17-.62-6.17-2.86-13.95-15.23-24.48-30.01-24.49v-54.5h30.83l.08,69.62c0,.89.14,1.76.39,2.57.4,1.31,1.11,2.54,2.14,3.57l43.59,43.59c1.54,1.54,3.2,2.9,4.96,4.08-1.06,1.9-2.39,3.69-4,5.31ZM155.25,169.54c-4.75,4.75-10.97,7.12-17.2,7.12s-12.44-2.37-17.19-7.12l-21.94-21.94c5.8-5.78,8.99-13.47,8.99-21.65,0-2.11-.22-4.17-.62-6.17-2.86-13.95-15.23-24.48-30.01-24.49v-54.5h48.64v65.02l29.34,29.34c4.75,4.75,7.14,10.98,7.14,17.21s-2.39,12.43-7.14,17.18ZM165.13,42.12l-12.28-16.36c-.65-.86-1.94-.86-2.59,0l-12.28,16.36c-.6.8-.03,1.94.97,1.94h7.65v51.88c0,2.58,1.89,4.89,4.46,5.14,2.95.28,5.43-2.03,5.43-4.92v-52.09h7.65c1,0,1.57-1.14.97-1.94Z"/>
</svg>