<?xml version="1.0" encoding="UTF-8"?>
<svg id="Capa_1" xmlns="http://www.w3.org/2000/svg" version="1.1" viewBox="0 0 200 200">
  <!-- Generator: Adobe Illustrator 29.0.0, SVG Export Plug-In . SVG Version: 2.1.0 Build 186)  -->
  <path d="M178.15,87.96h-.22l-34.95-24.44c-.66-.44-1.44-.66-2.21-.66h-18.25c-1,0-1.88.77-1.88,1.77-1.22,11.61-11.06,20.79-23.12,20.79s-21.9-9.07-23.12-20.79c-.11-1-.88-1.77-1.88-1.77h-18.25c-.77,0-1.55.22-2.21.66l-34.95,24.44c-1.55,1.11-2.1,3.1-1.22,4.87l15.37,30.31c1,1.77,3.21,2.65,5.09,1.77l9.07-4.2v69.57c0,2.1,1.77,3.87,3.87,3.87h96.67c2.1,0,3.87-1.77,3.87-3.87v-69.57l9.07,4.2c1.88.89,4.2.11,5.09-1.77l15.37-30.31c.88-1.66.33-3.76-1.22-4.87ZM91.24,106.1c9.8-8.13,32.66-4.36,30.53,7.08-.36,1.95-1.98,3.21-3.87,4.6-5.86,4.32-9.01,7.04-11.44,13.52-.05-.06-.09-.12-.15-.18-1.62-1.62-3.85-2.62-6.32-2.62s-4.7,1-6.32,2.62c-.71.71-1.27,1.55-1.71,2.46-8.22-11.69-8.48-20.85-.72-27.48ZM105.47,137.45c0,1.51-.61,2.88-1.6,3.87-.99.99-2.36,1.6-3.87,1.6s-2.88-.61-3.87-1.6c-.99-.99-1.6-2.36-1.6-3.87s.61-2.88,1.6-3.87c.99-.99,2.36-1.6,3.87-1.6s2.88.61,3.87,1.6c.99.99,1.6,2.36,1.6,3.87ZM77.17,161.49c-11.94-4.42-20.11-26.1-9.13-29.98,1.87-.66,3.76.11,5.92,1.05,6.62,2.89,10.54,4.25,17.27,3.17-.11.56-.17,1.14-.17,1.73,0,2.47,1,4.7,2.62,6.32,1.62,1.62,3.85,2.62,6.32,2.62.34,0,.66-.06.99-.1-6.06,13.58-13.99,18.67-23.81,15.2ZM110.77,168.88c-1.51-1.29-1.79-3.31-2.05-5.65-.82-7.26-1.6-11.34-6.02-16.71-.13-.16-.27-.3-.4-.46,1.54-.41,2.93-1.19,4.02-2.28,1.62-1.62,2.62-3.85,2.62-6.32,0-1.67-.49-3.21-1.28-4.55,14.45-1.38,22.64,2.97,24.52,13.08,2.14,12.55-12.55,30.46-21.4,22.9ZM87.68,76.05c7.04,5.61,17.15,4.46,22.64-2.7,9.17-11.95-2.1-30.03-12.86-36.82-11.19,7.7-23.49,28.61-9.78,39.52ZM98.47,69.74c1.3.6,1.88,2.25,1.15,3.48-1.69,2.84-7.76.28-9.93-1.84-1.91-1.87-5.11-9.1-1.55-10.25,4.07-1.32,3.29,4.8,5.18,6.62,1.29,1.24,3.47,1.21,5.15,1.99ZM91.36,33.09c3.77-9.06-4.66-22.78-12.56-27.23-7.51,6.09-16.34,17.99-11.46,27.94,4.85,9.89,19.8,9.41,24.02-.71ZM70.27,27.26c.35-.88,1.27-1.49,2.21-1.35,2.33.33,1.29,4.24,3.54,5.87,1.46,1.06,6.88,1.46,4.94,4.58-2.26,3.63-12.81-3.79-10.69-9.09ZM126.67,37.62c4.05-7.86-2.72-18.11-9.26-22.48-6.95,4.69-14.66,17.35-7.51,24.77,4.72,4.9,13.62,3.82,16.77-2.29ZM111.59,30.97c2.18-.58,1.76,3.08,3.31,4.47,1.17,1.05,2.78.93,4.04,1.78.92,1.31-.69,2.73-2.09,2.67-4.8-.21-8.94-7.93-5.26-8.91Z"/>
</svg>