<?xml version="1.0" encoding="UTF-8"?>
<svg id="Capa_1" xmlns="http://www.w3.org/2000/svg" version="1.1" viewBox="0 0 200 200">
  <!-- Generator: Adobe Illustrator 29.0.0, SVG Export Plug-In . SVG Version: 2.1.0 Build 186)  -->
  <path d="M187.61,65.68c-8.26-11.1-17.46-21.79-26.46-32.25-1.99-1.59-4.18-2.87-6.5-3.91-9.46-4.23-19.56-7.28-29.1-11.34-2.4.21-4.32,1.79-6.47,2.65-12.04,4.83-24.01,5.21-36.22.65-1.85-.69-6.88-3.4-8.33-3.27-9.36,3.79-19.07,6.97-28.32,11.01-5.5,2.4-7.98,4.47-11.85,8.97-7.94,9.22-14.96,19.58-22.97,28.79-1.59,1.94-1.13,3.31.44,5,8.03,6.65,15.17,15.39,23.1,22.01,1.58,1.32,2.97,2.67,5.07,1.3l8.53-8.68v92.02c0,1.73,1.4,3.14,3.14,3.14h96.68c1.73,0,3.14-1.41,3.14-3.14v-92.02l8.53,8.68c1.84,1.2,3,.45,4.49-.72l24.15-22.99c1.93-2.61.57-3.77-1.03-5.92ZM123.47,98.38c.9.29,1.27,1.35.83,2.35-.44,1-1.52,1.58-2.42,1.29-.9-.29-1.27-1.35-.83-2.35.44-1,1.52-1.58,2.42-1.29ZM122.43,96.93c-.44,1-1.52,1.58-2.42,1.29-.9-.29-1.27-1.35-.83-2.35.44-1,1.52-1.58,2.42-1.29.9.29,1.27,1.35.83,2.35ZM79.47,26.33c3.71,1.18,6.7,2.49,10.69,3.19,10.71,1.9,21.15.6,31.24-3.33-5.19,22.51-37.33,22.53-42.8.15.02-.34.62-.09.88,0ZM105.21,67.2c0,4.11-3.23,8.01-7.22,8.71-3.99.7-7.22-2.06-7.22-6.17s3.23-8.01,7.22-8.71c3.99-.7,7.22,2.06,7.22,6.17ZM91.17,115.38c-1,.18-1.81-.52-1.81-1.55s.81-2.01,1.81-2.19c1-.18,1.81.52,1.81,1.55s-.81,2.01-1.81,2.19ZM94.6,111.9c-1,.18-1.81-.52-1.81-1.55s.81-2.01,1.81-2.19c1-.18,1.81.52,1.81,1.55s-.81,2.01-1.81,2.19ZM98.04,108.43c-1,.18-1.81-.52-1.81-1.55s.81-2.01,1.81-2.19c1-.18,1.81.52,1.81,1.55s-.81,2.01-1.81,2.19ZM104.08,97.16l-15.16,15.42,3.52-21.25-18.79-9.38,33.92-5.98,15.3,30.63-18.79-9.43ZM126.17,104.53c-.44,1-1.52,1.58-2.42,1.29-.9-.29-1.27-1.35-.83-2.35.44-1,1.52-1.58,2.42-1.29s1.27,1.35.83,2.35Z"/>
</svg>