<?xml version="1.0" encoding="UTF-8"?>
<svg id="Capa_1" data-name="Capa 1" xmlns="http://www.w3.org/2000/svg" viewBox="0 0 200 200">
  <path d="M123.43,29.36h-4.1v-4.65c0-5.79-4.74-10.53-10.54-10.53h-12.39c-5.79,0-10.54,4.74-10.54,10.53v4.65h-4.1c-16.02,0-29.06,13.04-29.06,29.06v100.28c0,16.02,13.03,29.06,29.06,29.06h41.67c16.02,0,29.06-13.04,29.06-29.06V58.41c0-16.02-13.03-29.06-29.06-29.06ZM139.1,158.69c0,8.64-7.03,15.67-15.67,15.67h-41.67c-8.64,0-15.67-7.03-15.67-15.67V58.41c0-8.64,7.03-15.67,15.67-15.67h41.67c8.64,0,15.67,7.03,15.67,15.67v100.28ZM72.78,62.82v95.87c0,4.96,4.02,8.98,8.98,8.98h41.67c4.96,0,8.98-4.02,8.98-8.98V62.82s-59.63,0-59.63,0ZM97.53,133.22l3.42-28.95h-13.77l18.68-33.28-3.28,25.41h14.46l-19.51,36.82Z"/>
</svg>