<?xml version="1.0" encoding="UTF-8"?>
<svg id="Capa_1" data-name="Capa 1" xmlns="http://www.w3.org/2000/svg" viewBox="0 0 200 200">
  <path d="M41.45,164.71c.12,2.47-.75,4.97-2.63,6.85-1.71,1.71-3.98,2.65-6.4,2.65s-4.69-.94-6.4-2.65c-2.24-2.24-3.05-5.37-2.45-8.27-.61.13-1.23.2-1.87.2-2.42,0-4.69-.94-6.4-2.65-3.53-3.53-3.53-9.27,0-12.81,1.71-1.71,3.98-2.65,6.4-2.65.17,0,.35.02.52.03,2,4.02,4.68,7.75,8.07,11.14,3.42,3.42,7.15,6.13,11.16,8.16ZM184.7,148.04c-1.71-1.71-3.98-2.65-6.4-2.65-.2,0-.41.02-.61.03-2.02,4.04-4.75,7.78-8.18,11.21-3.37,3.36-7.03,6.04-10.96,8.05-.13,2.48.74,5,2.62,6.89,1.71,1.71,3.98,2.65,6.4,2.65s4.69-.94,6.4-2.65c2.24-2.24,3.05-5.37,2.45-8.27.61.13,1.23.2,1.87.2,2.42,0,4.69-.94,6.4-2.65,3.53-3.53,3.53-9.27,0-12.81ZM184.7,39.16c-1.71-1.71-3.98-2.65-6.4-2.65-.64,0-1.26.07-1.87.2.6-2.89-.21-6.02-2.45-8.27-1.71-1.71-3.98-2.65-6.4-2.65s-4.69.94-6.4,2.65c-1.91,1.91-2.78,4.47-2.62,6.98,4,2,7.69,4.7,11.03,8.1,3.42,3.36,6.13,7.06,8.14,11.07.19.01.38.03.57.03,2.42,0,4.69-.94,6.4-2.65,3.53-3.53,3.53-9.27,0-12.8ZM22.2,54.59c2.01-4.07,4.73-7.8,8.16-11.18,3.35-3.4,7.05-6.09,11.09-8.09.13-2.48-.74-5-2.62-6.89-1.71-1.71-3.98-2.65-6.4-2.65s-4.69.94-6.4,2.65c-2.24,2.24-3.05,5.37-2.45,8.27-.61-.13-1.23-.2-1.87-.2-2.42,0-4.69.94-6.4,2.65-3.53,3.53-3.53,9.27,0,12.8,1.71,1.71,3.98,2.65,6.4,2.65.17,0,.33-.02.5-.02ZM125.04,165.9h-9.96v8.31h9.96v-8.31ZM111.67,165.9h-9.96v8.31h9.96v-8.31ZM98.29,165.9h-9.96v8.31h9.96v-8.31ZM84.92,165.9h-9.96v8.31h9.96v-8.31ZM174.45,73.49l-.03,53.15c0,9.67-3.37,17.73-10.27,24.62-6.81,6.8-15.04,10.25-24.47,10.25h-.02l-79.37-.04c-9.54,0-17.82-3.46-24.63-10.27-6.81-6.81-10.11-14.87-10.11-24.64l.03-53.15c0-9.77,3.42-18.06,10.15-24.64,6.56-6.69,14.84-10.09,24.6-10.09l34,.02-5.88,14.41h11.53l-4.27,21.35,15.31-25.56h-10.68l5.94-10.2,33.45.02c9.82,0,17.83,3.32,24.5,10.14,6.79,6.65,10.24,14.95,10.23,24.63ZM96.46,112.39c0-16.94-13.78-30.72-30.72-30.72s-30.72,13.78-30.72,30.72,13.78,30.72,30.72,30.72,30.72-13.78,30.72-30.72ZM107.28,145.04c0-.73-.28-1.41-.8-1.93l-4.55-4.55c-.26-.26-.56-.46-.9-.6-.99-.4-2.19-.17-2.95.6l-4.55,4.55c-.52.52-.8,1.2-.8,1.93s.28,1.41.8,1.93c1.03,1.03,2.83,1.03,3.86,0l2.63-2.62,2.63,2.62c1.03,1.03,2.83,1.03,3.86,0,.52-.52.8-1.2.8-1.93ZM165.45,112.39c0-16.94-13.78-30.72-30.72-30.72s-30.72,13.78-30.72,30.72,13.78,30.72,30.72,30.72,30.72-13.78,30.72-30.72Z"/>
</svg>