<?xml version="1.0" encoding="UTF-8"?>
<svg id="Capa_1" xmlns="http://www.w3.org/2000/svg" version="1.1" viewBox="0 0 200 200">
  <!-- Generator: Adobe Illustrator 29.0.0, SVG Export Plug-In . SVG Version: 2.1.0 Build 186)  -->
  <path d="M90.05,176.78h17.16v4.99h-17.16v-4.99ZM195.3,101.3l-6.19,7.41,1.19,6.19c-.22.32-.47.62-.75.89l-.45.44c-8.49,8.16-18.49,14.57-29.45,18.88h0c-2.12,1.42-4.92,1.29-6.9-.31l-10.04-8.1c-.65-.53-1.03-1.32-1.03-2.16v-.51c0-1.18-.57-2.29-1.53-2.98l-18.53-13.29c-2.75-1.97-6.45-2.03-9.26-.13l-23.76,16.02c-.99.67-1.66,1.73-1.83,2.91l-.24,1.64c-.4,2.71-2.27,4.96-4.86,5.85l-5.51,1.9c-2.88.99-6.02.96-8.89-.1l-6.66-2.45c-4.36-1.6-8.96-2.43-13.61-2.43H10.58c-4.47,0-7.93-3.93-7.36-8.36,0,0,2.08-18.77,3.19-24.96,5.47-30.4,28.22-54.86,56.87-66.4l5.65-2.57c10.9-4.96,22.53-8.14,34.44-9.39l5.62-.59c10.37-1.09,20.86-.2,30.9,2.63l23.28,7.7c.62.21,1.15.55,1.56.98,1.28,1.47.95,3.72.19,5.02,0,0-4.96,5.79-5.04,5.8l-10.01,1.33c-3.18.43-2.96,3.95.46,3.46l10.01-1.33c.41-.06.82.14,1.05.49l2,2.88c7.21-.35,11.84,1.36,11.84,1.36,3.45,1.52,6.25,4.21,7.91,7.59l1.74,3.56c.68,1.39.2,3.06-1.11,3.87,0,0-6.16,2.99-8.25,3.88,2.23,4.45,4.23,8.98,6,13.59,3.88-.28,9.89-.53,9.89-.53,1.1,0,2.06.76,2.32,1.83l2.9,12.1c.53,2.23.05,4.57-1.33,6.4ZM48.63,67.26l18.02-10.85.6-2.09-6.13-.5.4-9.37-4.38,4.81-8.51,18ZM47.56,73.45c.88.58,2.61-.22,3.86-1.8.4-.5.69-1.02.89-1.51.07.1.17.19.27.27.87.58,2.61-.22,3.86-1.8.41-.51.7-1.04.9-1.54.07.11.16.2.27.27.88.59,2.61-.22,3.86-1.8.41-.51.71-1.05.91-1.55.08.12.17.22.29.3.88.59,2.6-.22,3.86-1.8,1.26-1.58,1.57-3.33.69-3.91-.88-.59-2.61.22-3.87,1.8-.41.51-.71,1.05-.91,1.55-.08-.12-.17-.22-.28-.3-.88-.58-2.61.22-3.87,1.8-.41.51-.7,1.04-.9,1.54-.08-.11-.17-.2-.27-.27-.88-.58-2.61.22-3.86,1.8-.4.5-.69,1.02-.89,1.51-.07-.1-.16-.19-.27-.27-.88-.58-2.61.22-3.87,1.8-1.26,1.58-1.56,3.33-.69,3.91ZM11.74,106.43l19.83-21.49c1.14-1.24,1.98-2.73,2.43-4.35l3.94-13.95c.31-1.08-.94-1.93-1.83-1.25h0c-11.59,8.73-20.18,20.85-24.57,34.68-.61,1.93-1.19,3.73-1.68,5.27-.36,1.13,1.07,1.97,1.87,1.09ZM14.5,113.47c9.94-5.77,18.96-13.01,26.73-21.47l.75-.82c1.27-1.38-.28-3.51-1.99-2.72l-1.41.65c-10.49,4.86-19.37,12.63-25.59,22.39-.05.08-.11.17-.16.25-.69,1.09.54,2.37,1.66,1.72h0ZM78.48,89.5l-12.58-2.27c-2.39-.43-4.86.16-6.8,1.63l-33.37,25.37c-2.7,2.05-1.06,6.35,2.31,6.1l21-1.46c4.36-.3,8.66-1.23,12.76-2.75l9.38-3.47c1.91-.62,3.42-2.1,4.05-4.01l5.25-15.74c.5-1.51-.45-3.11-2.01-3.39ZM92.31,58.81c1.24-.55,2.26-1.52,2.87-2.73l11.8-23.22c.73-1.43-.4-3.11-2-2.98l-8.7.7c-1.32.11-2.55.71-3.43,1.7l-.89.99c-7.29,8.11-12.59,17.8-15.5,28.31h0c-.6,1.94,1.37,3.68,3.22,2.85l12.62-5.63ZM121.71,56.89l-14.43,5.98c-2.08.86-3.69,2.58-4.42,4.71l-9.19,26.77c-.54,1.58,1.21,2.95,2.61,2.06l15.74-9.99c1.3-.82,2.31-2.02,2.92-3.43l9.84-23.01c.83-1.93-1.11-3.89-3.05-3.09ZM131.77,44.36l5.45-10.5c1.18-2.27-.47-4.98-3.02-4.98h-6.15c-2.53,0-4.89,1.27-6.29,3.39l-10.3,15.64c-1.24,1.88.54,4.29,2.7,3.66l13.72-4.01c1.68-.49,3.08-1.64,3.89-3.19ZM179.48,97.84h0c-4.24-12.21-10.82-23.48-19.38-33.18l-2.22-2.52c-1.28-1.45-3.46-1.7-5.03-.56l-18.58,13.44c-2.37,1.71-2.47,5.21-.2,7.05l32.04,26.13c1.49,1.22,3.62,1.27,5.17.14l6.38-4.66c1.83-1.33,2.57-3.7,1.82-5.84ZM165.65,137.22l.47,4.14,5.05-.58-.68-5.93c-1.59.84-3.21,1.63-4.85,2.37ZM177.49,130.81c-1.68,1.07-3.39,2.09-5.13,3.05l.81,7.1c.17,1.49,1.53,2.57,3.02,2.4,1.49-.17,2.57-1.53,2.4-3.02l-1.09-9.53ZM111.32,148.48l24.94-24.94-7.66-5.49-23.85,23.85,6.58,6.58ZM92.51,141.85l-5.81-5.81c-1.08.9-2.32,1.6-3.66,2.06l-5.51,1.9s-.01,0-.02,0l8.42,8.42,6.58-6.58ZM92.07,165.74v7.44h13.15v-7.44h-13.15ZM110.58,154.78v2c0,2.57-2.08,4.65-4.65,4.65h-14.65c-2.57,0-4.65-2.08-4.65-4.65v-2c0-.62.24-1.21.68-1.64l9.65-9.65c.91-.91,2.38-.91,3.29,0l9.65,9.65c.44.44.68,1.03.68,1.64ZM105.84,155.53v-1.68l-6.42-6.42c-.45-.45-1.19-.45-1.64,0l-6.42,6.42v1.68c0,.64.52,1.16,1.16,1.16h12.16c.64,0,1.16-.52,1.16-1.16Z"/>
</svg>