<?xml version="1.0" encoding="UTF-8"?>
<svg id="Capa_1" data-name="Capa 1" xmlns="http://www.w3.org/2000/svg" viewBox="0 0 200 200">
  <path d="M66.31,189.88v4.56c0,.97-.8,1.77-1.77,1.77s-1.77-.79-1.77-1.77v-4.56c0-.97.8-1.77,1.77-1.77s1.77.8,1.77,1.77ZM40.79,187.98c-2.11,0-3.82,1.76-3.82,3.92,0,2.17,1.72,3.92,3.83,3.91,2.12,0,3.82-1.76,3.82-3.93,0-2.16-1.72-3.91-3.83-3.9ZM48.77,187.96c-2.11,0-3.82,1.76-3.81,3.92,0,2.17,1.72,3.92,3.83,3.91,2.11,0,3.82-1.76,3.81-3.93,0-2.16-1.72-3.91-3.83-3.91ZM32.81,188c-2.11,0-3.82,1.76-3.81,3.92,0,2.17,1.72,3.92,3.83,3.91,2.13,0,3.83-1.76,3.82-3.93,0-2.16-1.71-3.91-3.84-3.91ZM24.05,125.21c-1.12-2.55-1.86-5.23-2.21-7.97-4.51,1.96-6.76,6.16-6.7,12.07.06,15.73.04,4.81.04,20.55,0,10.16,13.45,10.16,13.45,0v-15.2h.64c-2.36-2.8-4.12-5.98-5.22-9.44ZM53.51,145.81c-6.29,0-12.67-1.97-17.97-5.55-1.51-1.02-2.89-2.15-4.16-3.36v39.95c0,13.47,19.44,13.47,19.44,0l.04-15.35h3.24v15.35c0,13.47,20.21,13.47,20.21,0v-40.03c-.61.56-1.24,1.11-1.9,1.62-4.99,4.75-11.69,7.37-18.91,7.37ZM83.97,117.37c-.24,1.99-.64,3.96-1.22,5.87-1.31,4.3-3.46,8.17-6.32,11.42h.46v15.2c0,10.16,13.45,10.16,13.45,0,0-15.74-.02-4.82.04-20.55.06-5.78-2.09-9.93-6.4-11.94ZM134.35,187.98c-2.11,0-3.82,1.76-3.82,3.92,0,2.17,1.72,3.92,3.83,3.91,2.12,0,3.82-1.76,3.82-3.93,0-2.16-1.72-3.91-3.83-3.9ZM142.33,187.96c-2.11,0-3.82,1.76-3.81,3.92,0,2.17,1.72,3.92,3.83,3.91,2.11,0,3.82-1.76,3.81-3.93,0-2.16-1.72-3.91-3.83-3.91ZM126.36,188c-2.11,0-3.82,1.76-3.81,3.92,0,2.17,1.72,3.92,3.83,3.91,2.13,0,3.83-1.76,3.82-3.93,0-2.16-1.71-3.91-3.84-3.91ZM158.85,187.98c-2.11,0-3.82,1.76-3.82,3.92,0,2.17,1.72,3.92,3.83,3.91,2.12,0,3.82-1.76,3.82-3.93,0-2.16-1.72-3.91-3.83-3.9ZM166.83,187.96c-2.11,0-3.82,1.76-3.81,3.92,0,2.17,1.72,3.92,3.83,3.91,2.11,0,3.82-1.76,3.81-3.93,0-2.16-1.72-3.91-3.83-3.91ZM150.87,188c-2.11,0-3.82,1.76-3.81,3.92,0,2.17,1.72,3.92,3.83,3.91,2.13,0,3.83-1.76,3.82-3.93,0-2.16-1.71-3.91-3.84-3.91ZM184.86,129.31c.09-8.36-4.45-13.31-13.49-13.31h-5.2c-4.9,4.33-11.3,6.7-18.17,6.7-6.29,0-12.67-1.97-17.97-5.55-.54-.37-1.06-.75-1.57-1.14h-9.05c-3.16-3.15-7.08-7.06-11.65-11.63-1.13-1.13-2.3-1.9-3.47-2.37l.8-2.29,1.64.57c1.2.42,2.53-.22,2.95-1.42l11.08-31.63c.42-1.2-.22-2.53-1.42-2.95l-1.64-.57,3.15-9c.17-.48-.09-1.01-.57-1.18l-2.62-.92c-.48-.17-1.01.09-1.18.57l-3.15,9-1.42-.5c-1.2-.42-2.53.22-2.95,1.42l-11.08,31.63c-.42,1.2.22,2.53,1.42,2.95l1.42.5-1.21,3.46c-5.19,1.33-8.33,8.13-2.74,13.71l16.2,16.2h12.88l.04,5.25v40.04c0,13.47,19.44,13.47,19.44,0l.04-15.35h3.24v15.35c0,13.47,20.21,13.47,20.21,0v-42.2h2.57v15.2c0,10.16,13.45,10.16,13.45,0,0-15.74-.02-4.82.04-20.55ZM136.16,36.91c.46.11.9.29,1.29.54l1.06-1.06,1.31,1.31-1.06,1.06c.25.39.43.83.54,1.29h1.5v1.85h-1.5c-.11.46-.29.9-.54,1.29l1.06,1.06-1.31,1.31-1.06-1.06c-.39.25-.83.43-1.29.54v1.5h-1.86v-1.5c-.46-.11-.9-.29-1.29-.54l-1.06,1.06-1.31-1.31,1.06-1.06c-.25-.39-.43-.83-.54-1.29h-1.5v-1.85h1.5c.11-.47.29-.9.54-1.29l-1.06-1.06,1.31-1.31,1.06,1.06c.39-.25.83-.43,1.29-.54v-1.5h1.85v1.5ZM135.23,38.57c-1.33,0-2.41,1.08-2.41,2.41s1.08,2.41,2.41,2.41,2.41-1.08,2.41-2.41-1.08-2.41-2.41-2.41ZM140.25,46.45c.2-.12.41-.22.65-.27v-.75h.93v.75c.23.05.45.14.65.27l.53-.53.65.66-.53.53c.12.2.22.41.27.65h.75v.93h-.75c-.05.23-.14.45-.27.65l.53.53-.65.66-.53-.53c-.2.12-.41.22-.65.27v.75h-.93v-.75c-.23-.05-.45-.14-.64-.27l-.53.53-.66-.66.53-.53c-.12-.2-.22-.41-.27-.65h-.75v-.93h.75c.05-.23.15-.45.27-.65l-.53-.53.66-.66.53.53ZM140.43,48.21c0,.51.42.93.93.93s.93-.42.93-.93-.42-.93-.93-.93-.93.42-.93.93ZM109.25,34.5c-1-.96-1.61-2.25-1.61-3.67,0-2.96,2.64-5.36,5.9-5.36s5.9,2.4,5.9,5.36c0,1.42-.61,2.71-1.61,3.67v1.69c0,.89-.72,1.61-1.61,1.61-.47,0-.88-.2-1.18-.52-.23.61-.81,1.05-1.5,1.05s-1.28-.44-1.5-1.05c-.29.32-.71.52-1.18.52-.89,0-1.61-.72-1.61-1.61v-1.69ZM114.27,30.09c0,1,.81,1.81,1.81,1.81s1.81-.81,1.81-1.81-.81-1.81-1.81-1.81-1.81.81-1.81,1.81ZM113.22,33.27l-.8,1.6c-.18.36,0,.65.4.65h1.44c.4,0,.58-.29.4-.65l-.8-1.6c-.18-.36-.47-.36-.65,0ZM111.02,31.9c1,0,1.81-.81,1.81-1.81s-.81-1.81-1.81-1.81-1.81.81-1.81,1.81.81,1.81,1.81,1.81ZM106.88,43.02c-.42-.9-1.5-1.3-2.4-.87-.9.42-1.3,1.5-.87,2.4.25.54.73.89,1.27,1-.26.49-.3,1.08-.05,1.62.42.9,1.5,1.3,2.4.87.9-.42,1.29-1.5.87-2.4-.05-.11-.11-.22-.19-.31l5.72-2.67,5.72,2.67c-.07.1-.13.2-.18.31-.42.9-.03,1.98.87,2.4.9.42,1.98.03,2.4-.87.25-.54.21-1.13-.05-1.62.54-.11,1.02-.46,1.27-1,.42-.9.03-1.98-.87-2.4-.9-.42-1.98-.03-2.4.87-.05.11-.09.23-.12.34l-4.07-1.9,4.07-1.9c.03.12.07.23.12.34.42.9,1.5,1.3,2.4.87.9-.42,1.3-1.5.87-2.4-.25-.54-.73-.89-1.27-1,.26-.48.3-1.08.05-1.62-.42-.9-1.5-1.3-2.4-.87-.9.42-1.3,1.5-.87,2.4.05.11.11.22.19.31l-5.72,2.67-5.72-2.67c.07-.1.13-.2.19-.31.42-.9.03-1.98-.87-2.4-.9-.42-1.98-.03-2.4.87-.25.54-.21,1.13.05,1.62-.54.11-1.02.46-1.27,1-.42.9-.03,1.98.87,2.4.9.42,1.98.03,2.4-.87.05-.11.09-.23.12-.34l4.07,1.9-4.07,1.9c-.03-.12-.07-.23-.12-.34ZM51.6,70.22v10.53l9.47-15.19h-5.58l9.47-13.63h-5.37l3.79-9.07h-11.78l-5.58,13.85h5.16l-5.16,13.5h5.58ZM119.75,4.72c2.47.99,3.3,2.48,3.54,3.62-.67.5-1.26,1.15-1.75,1.9,1.15.78,2.99,1.74,5.13,1.74s3.98-.95,5.13-1.74c-.5-.75-1.08-1.4-1.75-1.9.25-1.14,1.07-2.63,3.54-3.62.25-.1.37-.38.27-.63-.1-.25-.38-.37-.63-.27-2.61,1.04-3.64,2.65-4.02,3.98-.79-.41-1.64-.64-2.55-.64s-1.76.23-2.55.64c-.38-1.33-1.41-2.94-4.02-3.98-.24-.1-.53.02-.63.27-.1.25.02.53.27.63ZM116.07,16.79c0-.53.43-.96.96-.96h2.89c0-.52.04-1.02.11-1.51l-2.53-1.52c-.46-.27-.6-.87-.33-1.32.27-.46.87-.6,1.32-.33l2,1.2c.15-.45.34-.87.55-1.28,1.27.86,3.26,1.87,5.63,1.87s4.36-1.01,5.63-1.87c.21.41.39.83.55,1.28l2-1.2c.46-.27,1.05-.13,1.32.33.27.46.13,1.05-.33,1.32l-2.53,1.52c.07.49.11.99.11,1.51h2.89c.53,0,.96.43.96.96s-.43.96-.96.96h-3.05c-.07.44-.17.88-.29,1.3l2.87,1.72c.46.27.6.87.33,1.32-.18.3-.5.47-.83.47-.17,0-.34-.04-.49-.14l-2.55-1.53c-1.21,2.63-3.27,4.56-5.62,4.56s-4.42-1.93-5.62-4.56l-2.55,1.53c-.16.09-.33.14-.49.14-.33,0-.65-.17-.83-.47-.27-.46-.13-1.05.33-1.32l2.87-1.72c-.12-.43-.22-.86-.29-1.3h-3.05c-.53,0-.96-.43-.96-.96ZM125.7,19.68c0,1.33,1.08,2.41,2.41,2.41s2.41-1.08,2.41-2.41-1.08-2.41-2.41-2.41-2.41,1.08-2.41,2.41ZM122.81,15.83c0,.8.65,1.44,1.44,1.44s1.44-.65,1.44-1.44-.65-1.44-1.44-1.44-1.44.65-1.44,1.44ZM130.45,60.57l2.11-1.22v2.44h2.01v-2.44l2.11,1.22,1-1.74-2.11-1.22,2.11-1.22-1-1.74-2.11,1.22v-2.44h-2.01v2.44l-2.11-1.22-1,1.74,2.11,1.22-2.11,1.22,1,1.74ZM153.21,62.15c22.09,4.74,28.24,36.18,10.67,49.68-12.72,12.39-35.96,5.18-41-11.37-8.57-18.93,9.49-43.31,30.34-38.31ZM134.93,103.19l-4.02,4.02,2.71,2.71,4.02-4.02,4.02,4.02,2.71-2.71-4.02-4.02,4.02-4.02-2.71-2.71-4.02,4.02-4.02-4.02-2.71,2.71,4.02,4.02ZM28.39,123.58c-8.57-18.93,9.49-43.31,30.34-38.31,22.09,4.74,28.24,36.18,10.67,49.68-12.72,12.39-35.96,5.18-41-11.37ZM35.43,105.5c0,3.19,2.59,5.78,5.78,5.78s5.78-2.59,5.78-5.78-5.78-10.4-5.78-10.4c0,0-5.78,7.21-5.78,10.4Z"/>
</svg>