<?xml version="1.0" encoding="UTF-8"?>
<svg id="Capa_1" xmlns="http://www.w3.org/2000/svg" version="1.1" viewBox="0 0 200 200">
  <!-- Generator: Adobe Illustrator 29.0.0, SVG Export Plug-In . SVG Version: 2.1.0 Build 186)  -->
  <path d="M14.63,29.82c10.9-15,31.9-18.4,46.9-7.5,15.1,10.9,18.5,32,7.6,47-10.9,15.1-32,18.5-47.1,7.5-15-10.9-18.4-31.9-7.5-47h.1ZM78.43,159.92l-24-.2c-17.5,0-22.1-12.9-22.5-18.5l-5.2-32.7c-.4-2.4-2.5-4-4.9-3.7-2.5.3-4.3,2.6-3.9,5.1l5.2,32.3c.9,10.7,10,26.3,31.3,26.3l24,.2c1.9,0,3.7-1.2,4.3-3.1.9-2.9-1.2-5.8-4.2-5.8l-.1.1ZM119.73,162.92c4-5.5,2.8-13.2-2.8-17.2l-20.7-15c-2.3-1.7-5-2.1-7.6-2.1l-19.3-.2-3.7-21.8,23.7-.2c5.3-.3,9.2-5,8.9-10.2-.2-2.1-1-4-2.3-5.5l5-10.4h.1c2.8,1.1,6-.2,7.3-3l6.6-13.8c.4-.8,0-1.8-.8-2.2h0c-.8-.4-1.8,0-2.2.8l-4.8,10c-.4.8-1.3,1.2-2.1.9-.7-.3-1-1.3-.6-2.2l4.8-10c.4-.8,0-1.8-.8-2.2h0c-.8-.4-1.8,0-2.2.8l-4.8,10c-.4.8-1.3,1.2-2.1.9-.7-.3-1-1.3-.6-2.2l4.8-10c.4-.8,0-1.8-.8-2.2h0c-.8-.4-1.8,0-2.2.8l-6.6,13.8c-1.3,2.7-.3,6,2.2,7.5l.2.1-4.6,9.7c-1.1-.4-2.4-.5-3.6-.5h-8.6l12-25.2c1.1-2.3.1-5-2.1-6.1-2.3-1.1-5-.1-6.1,2.1l-9.6,20.1c-1,2-.3,4.4,1.4,5.6l-1.6,3.3-26.9-.2c-7.7.6-15.2,9-14.6,16.7l5.9,36.9s.4,13.1,16.6,13.2l32,.3,16,11.6c5.5,4,13.2,2.8,17.2-2.8v.1ZM126.43,74.92c0,.4.4.6.6.3,1.3-1.8,3.6-5.7,2.3-9.6-1.4-4-3.7-8-2.2-13.2.1-.4-.3-.8-.7-.5-1.5,1.2-3.9,4-3.9,8.8s4.2,8.5,3.8,14.2h.1ZM121.93,173.42c-2.7-2-6.4-1.4-8.3,1.2-1.9,2.6-1.3,6.3,1.4,8.3,2.7,1.9,6.4,1.4,8.3-1.2,1.9-2.7,1.3-6.4-1.4-8.3ZM134.43,63.52c0,.3.3.4.4.2.9-1.2,2.4-3.8,1.5-6.5s-2.5-5.4-1.5-8.9c0-.3-.2-.5-.4-.3-1,.8-2.6,2.7-2.6,6s2.9,5.7,2.6,9.6v-.1ZM191.03,69.72c-.7-.9-1.6-1.4-2.6-1.6.1-1-.1-2.1-.8-3-1.4-1.9-4-2.3-5.9-.9-1.4,1-1.9,2.7-1.6,4.3,0,.4.2.8.4,1.1l-3.1,2.3,1.3,1.8,2.8,3.7,3.1-2.3c1.5,1.5,3.8,1.7,5.5.4,1.9-1.4,2.3-4,.9-5.9v.1ZM129.13,163.52c-2.7-2-6.4-1.4-8.3,1.2-1.9,2.6-1.3,6.3,1.4,8.3,2.7,1.9,6.4,1.4,8.3-1.2,1.9-2.6,1.3-6.4-1.4-8.3ZM174.43,74.22l-3.4,2.5h-1.2c-1.1-.1-2.4-.2-3.7-.3-3.6,0-7.6.3-10.8,1.9.5-.9,1.3-1.8,2.2-2.6,3.5-3.2,10.7-2.3,12.2-2.1-3.2-6-8.1-10.5-14.4-10.2-15.8.7-22.2,17.6-27.6,19.8-3.3,1.3-5.6.4-7.2,0-.5-.2-1.1,0-1.5.5-1,1.2-2.9,3.6-3.2,4-.4.5-.5,1.2-.2,1.8,1.5,3.6,7.9,15.5,26.8,17.2,22.3,2,27.4-4.4,29.9-8.8,1.3-2.3,1.7-5.6,1.5-9.3.7-2.2,1.1-4.4,1.4-6.2l3.3-2.5-2.8-3.7-1.3-1.8v-.2ZM136.33,153.52c-2.7-2-6.4-1.4-8.3,1.2-1.9,2.6-1.3,6.3,1.4,8.3,2.7,1.9,6.4,1.4,8.3-1.2,1.9-2.6,1.3-6.3-1.4-8.3ZM170.33,112.42h-94.3c-1.1,0-2,.9-2,2v7.7c0,1.1.9,2,2,2h94.3c1.1,0,2-.9,2-2v-7.7c0-1.1-.9-2-2-2Z"/>
</svg>