<?xml version="1.0" encoding="UTF-8"?>
<svg id="Capa_1" data-name="Capa 1" xmlns="http://www.w3.org/2000/svg" viewBox="0 0 200 200">
  <path d="M92.69,78.45l-4.12-3.09,1.58-21.61c.66-9.04-3.28-17.8-10.47-23.3-6.62-5.06-15.21-6.77-23.26-4.63l-10.75,2.87c-18.87,5.03-30.81,23.58-27.58,42.84l1.67,9.94-4,3.91c-1.88,1.84-2.74,4.49-2.31,7.08l3.09,18.44c.5,2.98,2.63,5.44,5.52,6.34.79.25,1.61.37,2.41.37.45,0,.89-.05,1.33-.12l6.05,36.06c2.09,12.44,12.85,21.55,25.46,21.55,13.53,0,24.76-10.44,25.75-23.94l2.9-39.76c.2.01.39.05.58.05,1.15,0,2.31-.25,3.39-.75,2.65-1.23,4.42-3.8,4.63-6.71l1.35-18.51c.2-2.73-1.01-5.38-3.2-7.03ZM87.81,85.78l-.54,7.4-.53,7.29c-.09,1.28-1.55,1.96-2.59,1.2l-20.37-14.8c-5.73-4.16-13.64-3.5-18.6,1.56l-18.48,18.85c-.94.95-2.56.44-2.78-.87l-2.42-14.43c-.09-.53.09-1.06.47-1.44l16.71-16.34c2.58-2.53,5.6-4.37,8.82-5.54,2.58-.93,4.23-3.48,4.23-6.23v-2.99c0-1.98-.73-3.85-1.83-5.5-.59-.88-.93-1.95-.93-3.09,0-3.56,3.3-6.35,7.01-5.49,1.99.47,3.62,2.07,4.11,4.05.41,1.64.09,3.19-.69,4.42-1.13,1.79-1.9,3.79-1.9,5.91v2c0,2.95,1.99,5.52,4.84,6.28,2.97.79,5.82,2.13,8.41,4.07l16.42,12.28c.45.33.69.87.65,1.43l.06-.89h0l-.07.89h0ZM104.1,85.47l1.35,18.51c.21,2.91,1.99,5.48,4.63,6.71,1.08.5,2.24.75,3.39.75.2,0,.39-.03.58-.05l2.9,39.76c.98,13.49,12.22,23.94,25.75,23.94,12.61,0,23.37-9.11,25.46-21.55l6.05-36.06c.44.07.88.12,1.33.12.81,0,1.62-.12,2.41-.37,2.89-.91,5.02-3.36,5.52-6.34l3.09-18.44c.44-2.6-.43-5.24-2.31-7.08l-4-3.91,1.67-9.94c3.23-19.26-8.72-37.81-27.58-42.84l-10.75-2.87c-8.05-2.15-16.64-.44-23.26,4.63-7.19,5.51-11.13,14.27-10.47,23.3l1.58,21.61-4.12,3.09c-2.2,1.64-3.4,4.29-3.2,7.03ZM112.19,85.78l-.07-.89h0l.06.89c-.04-.56.2-1.09.65-1.43l16.42-12.28c2.59-1.93,5.44-3.28,8.41-4.07,2.85-.76,4.84-3.33,4.84-6.28v-2c0-2.12-.77-4.12-1.9-5.91-.78-1.23-1.09-2.78-.69-4.42.49-1.99,2.11-3.59,4.11-4.05,3.71-.87,7.01,1.93,7.01,5.49,0,1.15-.34,2.21-.93,3.09-1.1,1.65-1.83,3.51-1.83,5.5v2.99c0,2.75,1.65,5.29,4.23,6.23,3.22,1.16,6.24,3.01,8.82,5.54l16.71,16.34c.38.37.56.91.47,1.44l-2.42,14.43c-.22,1.32-1.84,1.83-2.78.87l-18.48-18.85c-4.96-5.06-12.87-5.72-18.6-1.56l-20.37,14.8c-1.04.75-2.5.07-2.59-1.2l-.53-7.29-.54-7.4h0Z"/>
</svg>