<?xml version="1.0" encoding="UTF-8"?>
<svg id="Capa_1" xmlns="http://www.w3.org/2000/svg" version="1.1" viewBox="0 0 200 200">
  <!-- Generator: Adobe Illustrator 29.0.0, SVG Export Plug-In . SVG Version: 2.1.0 Build 186)  -->
  <path d="M99.55,96.58h78.87s2.27-4.46,2.27-18.51c0-39.21-41.42-58.55-80.24-58.81h0c-.15-.01-.3,0-.45,0-.15,0-.3,0-.45,0h0c-38.82.27-80.24,19.61-80.24,58.82,0,14.05,2.27,18.51,2.27,18.51h77.98ZM140.12,59.51c4.81,0,8.71,3.9,8.71,8.71s-3.9,8.71-8.71,8.71-8.71-3.9-8.71-8.71,3.9-8.71,8.71-8.71ZM100,37.49c4.6.23,8.26,4.03,8.26,8.69s-3.66,8.45-8.26,8.69c-4.6-.23-8.26-4.03-8.26-8.69s3.66-8.45,8.26-8.69ZM59.88,59.51c4.81,0,8.71,3.9,8.71,8.71s-3.9,8.71-8.71,8.71-8.71-3.9-8.71-8.71,3.9-8.71,8.71-8.71Z"/>
  <path d="M156.49,142.29H43.51c-11.11,0-18.41,11.59-13.62,21.61,4.92,10.3,15.33,16.86,26.75,16.86h86.72c11.42,0,21.82-6.56,26.75-16.86,4.79-10.02-2.52-21.61-13.62-21.61Z"/>
  <path d="M184.16,120.22h-.54c-7.79,0-16-14.67-27.12-14.67-14.76,0-18.6,14.53-28.29,14.53-6.57,0-14.3-14.23-27.76-14.84v-.03c-.15,0-.3.01-.45.01-.15,0-.3-.01-.45-.01v.03c-13.46.61-21.19,14.84-27.76,14.84-9.69,0-13.54-14.53-28.29-14.53-11.11,0-19.33,14.67-27.12,14.67h-.54c-3.67,0-6.65,2.98-6.65,6.65s2.98,6.65,6.65,6.65h4.16c10.41,0,13.87-13.31,23.6-13.31,7.08,0,13.24,10.82,20.02,12.6,7.02,1.84,15.01,1.35,21.21-2.51,5.26-3.27,7.54-9.96,15.16-10.22,7.62.26,9.9,6.95,15.16,10.22,6.2,3.85,14.19,4.34,21.21,2.51,6.78-1.78,12.95-12.6,20.02-12.6,9.74,0,13.19,13.31,23.6,13.31h4.16c3.67,0,6.65-2.98,6.65-6.65s-2.98-6.65-6.65-6.65Z"/>
</svg>