<?xml version="1.0" encoding="UTF-8"?>
<svg id="Capa_1" data-name="Capa 1" xmlns="http://www.w3.org/2000/svg" viewBox="0 0 200 200">
  <path d="M14.57,29.78c10.88-15.03,31.92-18.4,46.93-7.54,15.11,10.93,18.48,31.97,7.6,47.01-10.91,15.08-31.95,18.45-47.06,7.52-15.01-10.86-18.38-31.9-7.47-46.98ZM78.42,159.89l-23.98-.24c-17.52-.05-22.11-12.95-22.49-18.5l-5.21-32.65c-.38-2.36-2.54-4-4.91-3.72-2.52.29-4.28,2.62-3.88,5.13l5.16,32.31c.95,10.73,9.95,26.28,31.26,26.34l23.98.24c1.94.02,3.67-1.22,4.27-3.06.95-2.86-1.17-5.82-4.19-5.85ZM119.68,162.86c3.98-5.5,2.77-13.21-2.77-17.22l-20.68-15.02c-2.28-1.65-4.96-2.11-7.6-2.11l-19.35-.23-3.67-21.81,23.69-.22c5.28-.35,9.23-4.95,8.87-10.18-.18-2.1-1.02-3.99-2.29-5.48l4.95-10.37c.08.04.12.06.13.06,2.82,1.05,6.02-.2,7.34-2.97l6.59-13.79c.4-.84.04-1.85-.79-2.24l-.04-.02c-.84-.4-1.84-.04-2.24.79l-4.77,9.99c-.4.84-1.33,1.23-2.05.88-.73-.35-1-1.32-.61-2.15l4.77-9.99c.4-.84.04-1.85-.79-2.24l-.04-.02c-.84-.4-1.85-.04-2.24.79l-4.77,9.99c-.4.84-1.32,1.23-2.06.88-.73-.35-1-1.32-.6-2.15l4.77-9.99c.4-.84.04-1.85-.79-2.24l-.05-.02c-.83-.4-1.85-.04-2.24.79l-6.58,13.79c-1.3,2.73-.31,5.96,2.2,7.51,0,0,.09.04.25.12l-4.63,9.69c-1.14-.37-2.36-.54-3.64-.46l-8.59-.07,12.02-25.17c1.08-2.26.12-4.97-2.14-6.05-2.27-1.08-4.97-.12-6.05,2.14l-9.61,20.13c-.96,2.01-.31,4.37,1.43,5.63l-1.57,3.28-26.86-.22c-7.69.56-15.15,9.04-14.6,16.71l5.89,36.92s.37,13.13,16.64,13.18l31.97.31,15.97,11.6c5.54,4.01,13.22,2.77,17.24-2.77ZM126.4,74.86c-.03.37.43.61.65.31,1.32-1.8,3.62-5.7,2.27-9.6-1.39-4.01-3.65-8.02-2.18-13.22.11-.41-.33-.79-.66-.51-1.47,1.21-3.92,3.97-3.92,8.84,0,5.42,4.24,8.52,3.84,14.19ZM121.86,173.43c-2.71-1.96-6.42-1.41-8.34,1.24-1.9,2.62-1.27,6.34,1.44,8.3,2.69,1.95,6.43,1.39,8.33-1.23,1.92-2.65,1.27-6.35-1.42-8.3ZM134.38,63.47c-.02.25.29.41.44.21.89-1.21,2.44-3.85,1.53-6.48-.93-2.71-2.46-5.41-1.47-8.92.08-.28-.22-.53-.44-.35-.99.82-2.64,2.67-2.64,5.96,0,3.66,2.86,5.75,2.59,9.57ZM191.01,69.67c-.66-.88-1.6-1.43-2.6-1.62.11-1.01-.15-2.07-.81-2.95-1.39-1.87-4.03-2.25-5.9-.86-1.37,1.02-1.94,2.71-1.6,4.27.08.39.22.77.42,1.12l-3.06,2.28,1.34,1.8,2.77,3.71,3.06-2.28c1.45,1.47,3.8,1.69,5.51.42,1.86-1.39,2.25-4.03.86-5.9ZM129.05,163.49c-2.71-1.96-6.42-1.41-8.34,1.24-1.9,2.63-1.27,6.34,1.44,8.3,2.69,1.95,6.42,1.4,8.32-1.23,1.92-2.65,1.27-6.35-1.42-8.3ZM174.42,74.19l-3.37,2.51-.1.07c-.38-.05-.78-.1-1.19-.15-1.15-.13-2.4-.23-3.71-.26-3.62-.09-7.62.3-10.81,1.92.54-.89,1.25-1.77,2.17-2.59,3.53-3.21,10.73-2.32,12.17-2.1-3.21-5.97-8.13-10.49-14.36-10.23-15.82.66-22.24,17.61-27.6,19.81-3.27,1.34-5.63.4-7.19-.1-.54-.17-1.13.01-1.49.46-.96,1.22-2.89,3.65-3.18,4-.4.47-.48,1.16-.22,1.79,1.54,3.65,7.95,15.53,26.82,17.24,22.34,2.02,27.43-4.42,29.9-8.84,1.27-2.26,1.74-5.6,1.52-9.31.68-2.21,1.11-4.4,1.38-6.21l3.35-2.49-2.76-3.71-1.34-1.8ZM136.25,153.54c-2.71-1.96-6.44-1.4-8.34,1.23-1.9,2.63-1.27,6.34,1.44,8.3,2.69,1.95,6.42,1.39,8.33-1.24,1.9-2.63,1.27-6.35-1.43-8.3ZM170.28,112.39h-94.3c-1.1,0-2,.9-2,2v7.67c0,1.1.9,2,2,2h94.3c1.1,0,2-.9,2-2v-7.67c0-1.1-.9-2-2-2Z"/>
</svg>