<?xml version="1.0" encoding="UTF-8"?>
<svg id="Capa_1" data-name="Capa 1" xmlns="http://www.w3.org/2000/svg" viewBox="0 0 200 200">
  <path d="M89.95,40.01l1.34-7.38c.71-3.93,4.14-6.79,8.14-6.79h1.16c4,0,7.42,2.86,8.14,6.79l1.34,7.38c.11.58-.34,1.12-.94,1.12h-18.23c-.59,0-1.04-.54-.94-1.12ZM115.3,47.9c-.74-2.09-2.72-3.49-4.94-3.49h-20.73c-2.22,0-4.2,1.4-4.94,3.49h0c-.26.72.28,1.49,1.05,1.49h28.51c.77,0,1.31-.76,1.05-1.49h0ZM157.36,53H42.64c-10.52,0-19.06,8.53-19.06,19.06v122.75h19.08v-110.18c0-2.63,2.13-4.76,4.76-4.76h105.15c2.63,0,4.76,2.13,4.76,4.76l.02,110.18h19.06v-122.75c0-10.52-8.53-19.06-19.06-19.06ZM134.8,71.42c-2.72,0-4.92-2.2-4.92-4.92s2.2-4.92,4.92-4.92,4.92,2.2,4.92,4.92-2.2,4.92-4.92,4.92ZM148.14,71.42c-2.72,0-4.92-2.2-4.92-4.92s2.2-4.92,4.92-4.92,4.92,2.2,4.92,4.92-2.2,4.92-4.92,4.92ZM47.69,96.45c2.09,1.82,3.41,4.51,3.41,7.5s-1.32,5.67-3.41,7.5c-.66.57-1.69.08-1.69-.79v-13.41c0-.87,1.03-1.37,1.69-.79ZM46,131.54v13.41c0,.87,1.03,1.37,1.69.79,2.09-1.82,3.41-4.51,3.41-7.5s-1.32-5.67-3.41-7.5c-.66-.57-1.69-.08-1.69.79ZM46,165.84v13.41c0,.87,1.03,1.37,1.69.79,2.09-1.82,3.41-4.51,3.41-7.5s-1.32-5.67-3.41-7.5c-.66-.57-1.69-.08-1.69.79ZM154,97.24v13.41c0,.87-1.03,1.37-1.69.79-2.09-1.82-3.41-4.51-3.41-7.5s1.32-5.67,3.41-7.5c.66-.57,1.69-.08,1.69.79ZM152.31,130.75c-2.09,1.82-3.41,4.51-3.41,7.5,0,2.99,1.32,5.67,3.41,7.5.66.57,1.69.08,1.69-.79v-13.41c0-.87-1.03-1.37-1.69-.79ZM152.31,165.05c-2.09,1.82-3.41,4.51-3.41,7.5,0,2.99,1.32,5.67,3.41,7.5.66.57,1.69.08,1.69-.79v-13.41c0-.87-1.03-1.37-1.69-.79ZM90.43,194.1h0c-.94,0-1.71-.77-1.71-1.71v-4.24c0-.94.77-1.71,1.71-1.71h0c.94,0,1.71.77,1.71,1.71v4.24c0,.94-.77,1.71-1.71,1.71ZM102.05,186.44c-2.12,0-3.83,1.71-3.83,3.83s1.71,3.83,3.83,3.83,3.83-1.71,3.83-3.83-1.71-3.83-3.83-3.83ZM109.84,186.44c-2.12,0-3.83,1.71-3.83,3.83s1.71,3.83,3.83,3.83,3.83-1.71,3.83-3.83-1.71-3.83-3.83-3.83ZM117.64,186.44c-2.12,0-3.83,1.71-3.83,3.83s1.71,3.83,3.83,3.83,3.83-1.71,3.83-3.83-1.71-3.83-3.83-3.83ZM137.97,151.27c-4.61-5.21-14.54-16.57-16.2-18.52-1.68-1.98-4.15-3.13-6.75-3.13h-10.18l-3.93,3.93,4.81,18.53-5.72,5.72-5.72-5.72,4.81-18.53-3.93-3.93h-10.18c-2.6,0-5.07,1.14-6.75,3.13-1.66,1.95-11.59,13.32-16.2,18.52-2.4,2.71-2.05,6.87.76,9.15,2.66,2.15,6.54,1.82,8.79-.75l10.33-11.87v29.39c-.01,4.83,4.21,8.71,9.15,8.14,4.17-.49,7.23-4.19,7.23-8.39v-10.32h3.42v10.32c0,4.2,3.06,7.9,7.23,8.39,4.94.57,9.16-3.31,9.16-8.14v-29.39s10.31,11.87,10.31,11.87c2.25,2.57,6.13,2.9,8.79.75,2.81-2.28,3.16-6.44.76-9.15ZM100,86.84c-11.17,0-20.23,9.06-20.23,20.23s9.06,20.23,20.23,20.23,20.23-9.06,20.23-20.23-9.06-20.23-20.23-20.23ZM92.13,23.7h0c1.23-.88,1.55-2.57.73-3.84l-5.66-8.77c-.82-1.28-2.52-1.81-3.84-1.05-1.41.8-1.84,2.61-.98,3.96l5.71,8.92c.87,1.37,2.72,1.72,4.04.78ZM102.83,18.44l-.02-10.34c0-1.36-.92-2.6-2.25-2.86-1.79-.34-3.37,1.02-3.37,2.75l-.02,10.44c0,1.57,1.27,2.84,2.83,2.84h0c1.57,0,2.84-1.27,2.83-2.84ZM111.9,22.92l5.62-8.79c.82-1.28.6-3.04-.64-3.93-1.32-.95-3.14-.59-4.01.76l-5.75,8.9c-.82,1.27-.5,2.96.73,3.84h0c1.32.94,3.16.59,4.04-.78ZM73.32,27.11l10.13,4.65c1.54.71,3.36-.09,3.88-1.71h0c.44-1.37-.22-2.85-1.53-3.45l-10.3-4.68c-1.46-.66-3.18.02-3.78,1.53-.56,1.41.21,3.01,1.59,3.65ZM116.54,31.76l10.18-4.67c1.23-.57,1.98-1.92,1.66-3.24-.43-1.78-2.33-2.64-3.9-1.92l-10.3,4.68c-1.31.59-1.97,2.08-1.53,3.45h0c.52,1.62,2.34,2.42,3.88,1.71Z"/>
</svg>