<?xml version="1.0" encoding="UTF-8"?>
<svg id="Capa_1" xmlns="http://www.w3.org/2000/svg" version="1.1" viewBox="0 0 200 200">
  <!-- Generator: Adobe Illustrator 29.0.0, SVG Export Plug-In . SVG Version: 2.1.0 Build 186)  -->
  <g>
    <path d="M95.77,15.28H28.68c-8.21,0-14.14,6.67-13.19,14.81l13.44,114.91c.95,8.15,8.44,14.81,16.64,14.81h33.29c8.2,0,15.7-6.66,16.65-14.81l13.44-114.91c.95-8.15-4.98-14.81-13.19-14.81ZM75.04,35.6h2.34c1.13,0,3.38,2.38,8.92,12.63.09.15.24.54.5.54.29,0,.24-1.28.24-1.7,0-5.54-1.51-10.46-1.51-11.14,0-.41.65-.33,1.21-.33h2.25c.65,0,2.04-.54,2.04,14.1,0,11.12-.89,10.56-1.63,10.56h-3.11c-2.05,0-.2-1.84-4.83-11.2-.39-.8-2.99-5.78-3.94-5.78-.74,0-.53,3.23-.53,3.83,0,8.36,1.22,11.38,1.22,12.89,0,.38-.56.26-.84.26h-2.75c-.74,0-1.63.57-1.63-10.56,0-14.64,1.53-14.1,2.04-14.1ZM54.06,35.6h4.12c.3,0,.66,0,.66.39,0,.68-1.48,3.83-1.48,10.64s2.43,8.8,4.18,8.8c1.48,0,4.68-.38,4.68-8.5s-1.45-10.41-1.45-10.94c0-.48.86-.39,1.13-.39h2.9c.59,0,1.74.48,1.74,11.14,0,8.72-2.66,13.96-9.01,13.96-5.57,0-8.98-4.3-8.98-13.16,0-9.48,1.12-11.95,1.51-11.95ZM41.4,49.35c-6.49-2.01-7.2-4.95-7.2-7.46s1.69-6.73,7.71-6.73c4.29,0,7.35,2.28,7.35,3.14s-1.54,3.53-2.37,3.53c-.74,0-1.89-2.66-4.98-2.66-1.48,0-3.38.73-3.38,2.45,0,2.13,2.94,2.97,4.57,3.52,6.22,2.08,7.5,5.07,7.5,7.89,0,3.44-2.46,7.68-8.72,7.68-4.21,0-8.47-2.25-8.47-6.97,0-2.52,1.51-4,1.81-4,.5,0,0,6.02,6.37,6.02,2.25,0,4.21-.98,4.21-2.82,0-2.16-2.67-3.04-4.39-3.59ZM39.91,112.41c-.81,0-1.53-.57-1.68-1.41-.16-.92.46-1.81,1.39-1.97l7.72-1.36c.93-.16,1.81.46,1.97,1.39.16.93-.46,1.81-1.39,1.98l-7.71,1.35c-.1.02-.2.03-.3.03ZM62.23,95.08c6.46,0,11.69,5.24,11.69,11.7s-5.24,11.7-11.69,11.7-11.71-5.24-11.71-11.7,5.24-11.7,11.71-11.7ZM60.52,91.96v-7.84c0-.94.76-1.7,1.71-1.7s1.7.76,1.7,1.7v7.84c0,.94-.76,1.71-1.7,1.71s-1.71-.77-1.71-1.71ZM78.09,90.51l-5.04,6.01c-.33.41-.82.61-1.3.61-.39,0-.78-.14-1.1-.4-.72-.61-.81-1.68-.21-2.4l5.04-6.01c.61-.71,1.68-.81,2.4-.21.72.6.81,1.68.21,2.4ZM81,93.97c.82-.47,1.86-.19,2.33.62.47.82.19,1.86-.63,2.33l-6.79,3.91c-.27.15-.56.23-.85.23-.59,0-1.16-.3-1.48-.85-.47-.81-.19-1.86.63-2.33l6.79-3.92ZM71.58,86.07l-2.68,7.36c-.26.69-.9,1.13-1.6,1.13-.19,0-.39-.04-.58-.11-.89-.32-1.35-1.3-1.02-2.18l2.68-7.36c.32-.88,1.3-1.34,2.18-1.01.89.32,1.35,1.3,1.02,2.18ZM57.74,94.45c-.2.07-.39.11-.59.11-.69,0-1.34-.44-1.6-1.13l-2.69-7.36c-.32-.88.14-1.86,1.02-2.18.88-.33,1.86.13,2.19,1.01l2.68,7.36c.33.88-.13,1.87-1.02,2.18ZM54.01,94.33c.6.72.51,1.8-.21,2.4-.32.26-.71.4-1.09.4-.49,0-.97-.21-1.31-.61l-5.04-6.01c-.6-.72-.51-1.8.21-2.4.72-.6,1.8-.51,2.4.21l5.05,6.01ZM50.24,97.89c.82.46,1.1,1.51.63,2.33-.32.54-.89.85-1.48.85-.29,0-.58-.07-.85-.23l-6.79-3.91c-.81-.47-1.1-1.51-.63-2.33.48-.81,1.52-1.09,2.33-.62l6.79,3.92ZM47.92,102.53c.93.16,1.55,1.05,1.39,1.97-.15.83-.86,1.41-1.68,1.41-.1,0-.2,0-.29-.03l-7.72-1.36c-.92-.17-1.54-1.04-1.39-1.98.17-.92,1.05-1.55,1.98-1.38l7.71,1.36ZM43.45,119.58c-.27.16-.56.23-.85.23-.59,0-1.16-.3-1.48-.85-.46-.81-.18-1.86.63-2.33l6.79-3.92c.81-.48,1.86-.19,2.33.63.47.81.19,1.85-.63,2.33l-6.79,3.91ZM47.66,125.84c-.38,0-.77-.13-1.1-.4-.72-.6-.81-1.68-.21-2.4l5.04-6c.61-.72,1.68-.82,2.4-.21.72.61.81,1.68.21,2.4l-5.05,6c-.33.41-.82.61-1.3.61ZM58.75,121.29l-2.68,7.37c-.26.69-.91,1.12-1.6,1.12-.19,0-.39-.04-.58-.1-.89-.32-1.34-1.31-1.02-2.19l2.69-7.36c.32-.88,1.3-1.34,2.18-1.02.89.33,1.34,1.3,1.02,2.18ZM63.93,129.43c0,.95-.76,1.71-1.7,1.71s-1.71-.76-1.71-1.71v-7.84c0-.94.76-1.7,1.71-1.7s1.7.76,1.7,1.7v7.84ZM70.55,129.68c-.19.06-.39.1-.58.1-.7,0-1.35-.43-1.6-1.12l-2.68-7.37c-.32-.88.13-1.86,1.02-2.18.88-.32,1.86.13,2.18,1.02l2.68,7.36c.32.88-.14,1.87-1.02,2.19ZM77.88,125.44c-.33.26-.71.4-1.09.4-.49,0-.97-.21-1.31-.61l-5.04-6c-.6-.72-.51-1.8.21-2.4.73-.6,1.8-.51,2.4.21l5.04,6c.6.73.51,1.8-.21,2.4ZM83.32,118.96c-.31.54-.89.85-1.48.85-.29,0-.58-.07-.85-.23l-6.79-3.91c-.82-.48-1.09-1.51-.63-2.33.47-.82,1.51-1.1,2.33-.63l6.79,3.92c.82.47,1.1,1.51.63,2.33ZM84.55,112.41c-.1,0-.2-.01-.3-.03l-7.72-1.35c-.93-.17-1.55-1.05-1.38-1.98.16-.93,1.05-1.55,1.97-1.39l7.72,1.36c.93.17,1.55,1.05,1.38,1.97-.15.84-.87,1.41-1.67,1.41ZM84.83,104.52l-7.72,1.36c-.1.02-.2.03-.3.03-.81,0-1.53-.58-1.68-1.41-.16-.92.46-1.81,1.38-1.97l7.72-1.36c.92-.17,1.81.45,1.97,1.38.17.93-.45,1.81-1.38,1.98ZM89.07,73.62h-53.7c-1.65,0-2.99-1.33-2.99-2.98s1.34-2.98,2.99-2.98h53.7c1.65,0,2.99,1.34,2.99,2.98s-1.34,2.98-2.99,2.98Z"/>
    <path d="M38.3,177.97c0,4.88,3.99,8.86,8.86,8.86h30.12c4.87,0,8.86-3.99,8.86-8.86v-14.17h-47.84v14.17Z"/>
  </g>
  <g>
    <path d="M183.81,174.74l-10.97-93.76c-.78-6.65-6.89-12.08-13.59-12.08h-27.15c-6.69,0-12.81,5.43-13.58,12.08l-10.96,93.76c-.79,6.65,4.05,12.09,10.75,12.09h54.75c6.69,0,11.53-5.44,10.76-12.09ZM163.63,140.28l-5.95,3.43c-.24.14-.49.2-.74.2-.52,0-1.02-.27-1.3-.75-.41-.72-.16-1.63.55-2.04l5.95-3.43c.72-.42,1.63-.17,2.04.54.41.72.17,1.64-.55,2.05ZM138.46,138c.53.63.45,1.57-.18,2.11-.28.23-.62.35-.96.35-.43,0-.85-.18-1.15-.53l-4.41-5.26c-.53-.64-.45-1.58.18-2.11.63-.54,1.57-.45,2.1.18l4.42,5.27ZM138.37,128.84c.77-.28,1.64.12,1.91.89l2.35,6.47c.28.77-.11,1.64-.89,1.9-.17.07-.34.1-.51.1-.61,0-1.18-.38-1.4-.99l-2.35-6.45c-.29-.78.11-1.63.89-1.92ZM145.67,138.65c5.67,0,10.26,4.59,10.26,10.26s-4.59,10.25-10.26,10.25-10.26-4.59-10.26-10.25,4.59-10.26,10.26-10.26ZM144.18,135.91v-6.87c0-.82.67-1.49,1.49-1.49s1.49.67,1.49,1.49v6.87c0,.82-.67,1.5-1.49,1.5s-1.49-.68-1.49-1.5ZM153.87,130.75l-2.35,6.45c-.22.6-.79.99-1.4.99-.17,0-.35-.03-.51-.1-.77-.26-1.17-1.13-.89-1.9l2.35-6.47c.29-.77,1.14-1.17,1.92-.89.78.29,1.18,1.14.89,1.92ZM157.3,132.73c.53-.63,1.48-.71,2.11-.18.63.53.72,1.47.19,2.11l-4.42,5.26c-.3.35-.72.53-1.14.53-.34,0-.67-.12-.96-.35-.63-.54-.71-1.47-.18-2.11l4.42-5.27ZM147.48,87.83c0-.11.04-.2.11-.27.07-.07.16-.11.27-.11h2.39c.11,0,.2.04.27.11.07.07.11.16.11.27v4.1c0,.08.03.16.09.22.06.06.14.1.22.1h4.41c.08,0,.16-.03.22-.1.06-.06.1-.14.1-.22v-4.1c0-.11.04-.2.11-.27.07-.07.16-.11.27-.11h2.41c.11,0,.2.04.27.11.07.07.11.16.11.27v11.6c0,.11-.04.2-.11.27-.07.07-.16.11-.27.11h-2.41c-.11,0-.2-.04-.27-.11-.07-.07-.11-.16-.11-.27v-3.9c0-.08-.03-.16-.1-.22-.06-.06-.14-.1-.22-.1h-4.41c-.08,0-.16.03-.22.1-.06.06-.09.14-.09.22v3.9c0,.11-.04.2-.11.27-.07.07-.16.11-.27.11h-2.39c-.11,0-.2-.04-.27-.11-.07-.07-.11-.16-.11-.27v-11.6ZM131.69,96.61c0-.4.15-.74.45-1.01l6.5-6.02c.4-.37.75-.7,1.05-.99s.53-.56.72-.81c.18-.24.32-.48.42-.72.09-.23.14-.48.14-.73,0-.49-.17-.89-.5-1.2s-.8-.47-1.39-.47c-.64,0-1.17.19-1.59.57-.42.38-.63.93-.63,1.65,0,.24-.03.39-.1.47-.07.07-.18.11-.33.11h-4.03c-.13,0-.24-.04-.33-.11-.08-.08-.13-.23-.13-.47,0-1.21.22-2.26.65-3.16.44-.9,1-1.64,1.69-2.22.69-.58,1.46-1.01,2.32-1.3.86-.29,1.7-.43,2.54-.43.92,0,1.8.15,2.63.45.83.3,1.56.73,2.19,1.3.63.56,1.13,1.25,1.51,2.05.38.81.57,1.72.57,2.75,0,.84-.13,1.6-.4,2.28-.27.68-.6,1.3-1.01,1.86s-.84,1.07-1.32,1.54c-.48.46-.92.89-1.32,1.27l-1.28,1.18c-.08.05-.1.12-.06.2s.1.13.19.13h4.48c.17,0,.31.06.43.18.12.12.18.26.18.43v3.8c0,.17-.06.31-.18.43-.12.12-.26.18-.43.18h-13.02c-.17,0-.31-.06-.43-.18-.12-.12-.18-.26-.18-.43v-2.59ZM129.03,107.04h33.28c1.01,0,1.85.83,1.85,1.85s-.84,1.85-1.85,1.85h-33.28c-1.02,0-1.85-.84-1.85-1.85s.83-1.85,1.85-1.85ZM127.17,138.23c.41-.71,1.33-.96,2.04-.54l5.95,3.43c.71.41.96,1.33.54,2.04-.27.48-.77.75-1.29.75-.25,0-.51-.06-.74-.2l-5.95-3.43c-.72-.41-.96-1.33-.55-2.05ZM124.64,145.2c.14-.81.92-1.35,1.73-1.21l6.77,1.2c.82.13,1.36.92,1.22,1.73-.13.73-.76,1.23-1.47,1.23-.09,0-.18,0-.27-.02l-6.77-1.19c-.81-.15-1.35-.92-1.21-1.73ZM126.11,153.86c-.71,0-1.34-.51-1.47-1.24-.14-.82.4-1.59,1.21-1.73l6.77-1.19c.81-.15,1.59.4,1.73,1.21.14.82-.4,1.59-1.22,1.73l-6.77,1.19c-.08.01-.17.02-.26.02ZM128.47,160.34c-.52,0-1.02-.27-1.29-.74-.41-.72-.17-1.63.55-2.05l5.95-3.43c.71-.41,1.63-.17,2.04.55.42.71.17,1.62-.54,2.04l-5.95,3.44c-.24.13-.5.19-.75.19ZM132.9,165.63c-.33,0-.68-.12-.96-.35-.63-.53-.72-1.48-.18-2.11l4.41-5.27c.53-.64,1.47-.72,2.11-.18.63.53.71,1.47.18,2.1l-4.42,5.26c-.29.36-.72.54-1.15.54ZM142.63,161.64l-2.35,6.45c-.22.61-.79.98-1.4.98-.17,0-.34-.02-.51-.09-.78-.28-1.18-1.13-.89-1.9l2.35-6.46c.28-.78,1.14-1.18,1.91-.89.78.29,1.17,1.14.89,1.92ZM147.17,168.79c0,.82-.67,1.5-1.49,1.5s-1.49-.68-1.49-1.5v-6.87c0-.82.67-1.49,1.49-1.49s1.49.68,1.49,1.49v6.87ZM152.98,168.98c-.17.07-.34.09-.51.09-.61,0-1.18-.37-1.41-.98l-2.35-6.45c-.28-.78.12-1.63.89-1.92.78-.29,1.63.12,1.91.89l2.35,6.46c.28.77-.12,1.63-.89,1.9ZM159.41,165.28c-.28.23-.62.35-.96.35-.43,0-.85-.18-1.15-.54l-4.42-5.26c-.53-.64-.44-1.58.18-2.1.63-.54,1.58-.45,2.11.18l4.42,5.27c.53.63.45,1.57-.19,2.11ZM164.18,159.6c-.28.48-.78.74-1.3.74-.25,0-.51-.06-.75-.19l-5.95-3.44c-.72-.41-.96-1.33-.55-2.04.41-.71,1.33-.96,2.04-.55l5.95,3.43c.72.42.96,1.33.55,2.05ZM166.71,152.62c-.13.73-.76,1.24-1.47,1.24-.08,0-.17-.01-.26-.02l-6.77-1.19c-.81-.14-1.35-.91-1.21-1.73.14-.81.92-1.35,1.73-1.21l6.77,1.19c.81.14,1.36.91,1.21,1.73ZM165.5,146.93l-6.77,1.19c-.08.01-.17.02-.26.02-.71,0-1.34-.5-1.47-1.23-.14-.8.4-1.59,1.21-1.73l6.77-1.2c.81-.14,1.59.4,1.73,1.21.14.81-.4,1.58-1.21,1.73Z"/>
    <path d="M159.62,40.35c0-3.74-3.06-6.8-6.8-6.8h-14.3c-3.74,0-6.8,3.06-6.8,6.8v24.57h27.9v-24.57Z"/>
  </g>
</svg>