<?xml version="1.0" encoding="UTF-8"?>
<svg id="Capa_1" data-name="Capa 1" xmlns="http://www.w3.org/2000/svg" viewBox="0 0 200 200">
  <path d="M119.2,29.84h-10.08c-1.3,2.79-4.89,4.79-9.12,4.79s-7.82-2.01-9.12-4.79h-10.08v16.84h38.39v-16.84Z"/>
  <path d="M125.15,50.34h-50.3c-14.76,0-26.72,11.96-26.72,26.72v84.34c0,14.76,11.96,26.72,26.72,26.72h50.3c14.76,0,26.72-11.96,26.72-26.72v-84.34c0-14.76-11.96-26.72-26.72-26.72ZM114.97,97.21l3.24-3.86c.71-.85,1.97-.96,2.82-.25.85.71.96,1.97.25,2.82l-3.24,3.86c-.71.85-1.97.96-2.82.25-.85-.71-.96-1.97-.25-2.82ZM98,87.44c0-1.11.9-2,2-2h0c1.11,0,2,.9,2,2v5.04c0,1.11-.9,2-2,2h0c-1.11,0-2-.9-2-2v-5.04ZM78.97,93.1c.85-.71,2.11-.6,2.82.25l3.24,3.86c.71.85.6,2.11-.25,2.82-.85.71-2.11.6-2.82-.25l-3.24-3.86c-.71-.85-.6-2.11.25-2.82ZM67.77,112.48h0c.19-1.09,1.23-1.82,2.32-1.62l4.97.88c1.09.19,1.82,1.23,1.62,2.32-.19,1.09-1.23,1.82-2.32,1.62l-4.97-.88c-1.09-.19-1.82-1.23-1.62-2.32ZM78.77,132.74l-4.37,2.52c-.96.55-2.18.22-2.74-.73h0c-.55-.96-.22-2.19.73-2.74l4.37-2.52c.96-.55,2.18-.22,2.74.73h0c.55.96.22,2.19-.73,2.74ZM93.1,142.98l-1.73,4.74c-.38,1.04-1.53,1.58-2.57,1.2h0c-1.04-.38-1.58-1.53-1.2-2.57l1.73-4.74c.38-1.04,1.53-1.58,2.57-1.2h0c1.04.38,1.58,1.53,1.2,2.57ZM111.19,148.91h0c-1.04.38-2.19-.16-2.57-1.2l-1.73-4.74c-.38-1.04.16-2.19,1.2-2.57h0c1.04-.38,2.19.16,2.57,1.2l1.73,4.74c.38,1.04-.16,2.19-1.2,2.57ZM100,137.79c-10.84,0-19.63-8.79-19.63-19.63s8.79-19.63,19.63-19.63,19.63,8.79,19.63,19.63-8.79,19.63-19.63,19.63ZM128.34,134.53h0c-.55.96-1.78,1.29-2.74.74l-4.37-2.52c-.96-.55-1.29-1.78-.73-2.74h0c.55-.96,1.78-1.29,2.74-.73l4.37,2.52c.96.55,1.29,1.78.73,2.74ZM130.6,114.8l-4.97.88c-1.09.19-2.13-.54-2.32-1.62h0c-.19-1.09.54-2.13,1.63-2.32l4.97-.88c1.09-.19,2.13.54,2.32,1.62h0c.19,1.09-.53,2.13-1.62,2.32Z"/>
  <path d="M119.2,19.68c0-4.31-3.49-7.8-7.8-7.8h-22.79c-4.31,0-7.8,3.49-7.8,7.8v7.01h38.39v-7.01Z"/>
</svg>