<?xml version="1.0" encoding="UTF-8"?>
<svg id="Capa_1" data-name="Capa 1" xmlns="http://www.w3.org/2000/svg" viewBox="0 0 200 200">
  <path d="M53.99,138.05c-1.93,1.12-2.6,3.59-1.48,5.52,1.12,1.93,3.59,2.6,5.52,1.48,1.93-1.12,2.6-3.59,1.48-5.52-1.12-1.93-3.59-2.59-5.52-1.48Z"/>
  <path d="M58.04,88.94c-1.93-1.12-4.41-.45-5.52,1.48-1.12,1.93-.45,4.41,1.48,5.52,1.93,1.12,4.41.45,5.52-1.48,1.12-1.93.45-4.41-1.48-5.52Z"/>
  <path d="M97.28,62.81h2.53c1.77,0,3.2,1.44,3.2,3.2v7.81c0,1.77-1.44,3.2-3.2,3.2h-2.52c-1.77,0-3.2-1.44-3.2-3.2v-7.8c0-1.77,1.44-3.2,3.2-3.2Z"/>
  <path d="M76.01,156.02c-1.93-1.12-4.41-.45-5.52,1.48-1.12,1.93-.45,4.41,1.48,5.52,1.93,1.12,4.41.45,5.52-1.48,1.12-1.93.45-4.41-1.48-5.52Z"/>
  <path d="M76.01,77.97c1.93-1.12,2.59-3.59,1.48-5.52-1.12-1.93-3.59-2.6-5.52-1.48-1.93,1.12-2.6,3.59-1.48,5.52,1.12,1.93,3.59,2.6,5.52,1.48Z"/>
  <path d="M47.56,112.53h7.81c1.77,0,3.2,1.44,3.2,3.2v2.53c0,1.77-1.44,3.2-3.2,3.2h-7.81c-1.77,0-3.2-1.44-3.2-3.2v-2.53c0-1.77,1.44-3.2,3.2-3.2Z"/>
  <path d="M97.28,156.98h2.53c1.77,0,3.2,1.44,3.2,3.2v7.81c0,1.77-1.43,3.2-3.2,3.2h-2.53c-1.77,0-3.2-1.44-3.2-3.2v-7.81c0-1.77,1.44-3.2,3.2-3.2Z"/>
  <path d="M137.57,94.47c1.12,1.93,3.59,2.59,5.52,1.48,1.93-1.12,2.6-3.59,1.48-5.52-1.12-1.93-3.59-2.6-5.52-1.48-1.93,1.12-2.6,3.59-1.48,5.52Z"/>
  <path d="M163.78,64.39c1.33,1.61,4.44,1.76,5.4-.09l5.74-7.56c.97-1.86,1.42-3.94-.09-5.4l-14.7-14.21c-1.51-1.46-3.57-.94-5.4.09l-7.68,5.7c-1.83,1.03-1.61,4.18.09,5.4,1.69,1.22,3.19,2.37,4.54,3.48l-7.12,6.87c-8.11-6.4-17.58-11.15-27.91-13.73-3.05-.76-6.18-1.34-9.37-1.71v-13.45h12.19c2.41,0,4.38-1.97,4.38-4.38v-12.41c0-2.41-1.97-4.38-4.38-4.38h-41.86c-2.41,0-4.38,1.97-4.38,4.38v12.41c0,1.75,1.03,3.26,2.52,3.96.57.27,1.2.42,1.86.42h12.19v13.45c-9.71,1.14-18.84,4.15-27.04,8.65-6.19,3.4-11.84,7.66-16.79,12.61-13.45,13.45-21.78,32.04-21.78,52.57s8.32,39.12,21.78,52.57c13.45,13.45,32.04,21.78,52.57,21.78s39.12-8.32,52.57-21.78c13.45-13.45,21.78-32.04,21.78-52.57,0-19.41-7.44-37.09-19.63-50.33l6.89-6.64c1.18,1.35,2.35,2.76,3.63,4.3ZM157.82,117.05c0,16.37-6.64,31.2-17.36,41.92-10.72,10.73-25.55,17.36-41.92,17.36s-31.19-6.64-41.92-17.36c-10.73-10.73-17.36-25.55-17.36-41.92s6.64-31.2,17.36-41.92c11.14-11.14,26.14-17.36,41.92-17.36s30.76,6.2,41.92,17.36c10.73,10.73,17.36,25.55,17.36,41.92Z"/>
  <path d="M111.27,123.35c2.55-5.11,1.85-11.47-2.23-15.94-3.98-4.36-10.06-5.67-15.29-3.8l-21.21-19.46c-3.12-2.87-7.2.99-4.64,4.24l17.8,22.52c-2.4,5.06-1.66,11.29,2.35,15.68,4.06,4.44,10.29,5.72,15.59,3.69l8.39,7.96c1.25,1.18,3.86.73,5.14-.44h0c1.27-1.17,1.91-3.68.9-5.08l-6.8-9.37Z"/>
  <path d="M141.72,112.54h7.81c1.77,0,3.2,1.44,3.2,3.2v2.53c0,1.77-1.43,3.2-3.2,3.2h-7.81c-1.77,0-3.2-1.44-3.2-3.2v-2.53c0-1.77,1.43-3.2,3.2-3.2Z"/>
  <path d="M121.07,156.03c-1.93,1.12-2.59,3.59-1.48,5.52,1.12,1.93,3.59,2.6,5.52,1.48,1.93-1.12,2.6-3.59,1.48-5.52-1.12-1.93-3.59-2.6-5.52-1.48Z"/>
  <path d="M143.09,138.05c-1.93-1.12-4.41-.45-5.52,1.48-1.12,1.93-.45,4.41,1.48,5.52,1.93,1.12,4.41.45,5.52-1.48,1.12-1.93.45-4.41-1.48-5.52Z"/>
  <path d="M125.12,70.97c-1.93-1.12-4.41-.45-5.52,1.48-1.12,1.93-.45,4.41,1.48,5.52,1.93,1.12,4.41.45,5.52-1.48,1.12-1.93.45-4.41-1.48-5.52Z"/>
</svg>