<?xml version="1.0" encoding="UTF-8"?>
<svg id="Capa_1" xmlns="http://www.w3.org/2000/svg" version="1.1" viewBox="0 0 200 200">
  <!-- Generator: Adobe Illustrator 29.0.0, SVG Export Plug-In . SVG Version: 2.1.0 Build 186)  -->
  <path d="M98.72,29.91c0-11.1,7.39-17.38,11.85-20.14,1-.62,2.34.23,1.98,1.17-4.45,11.85,2.41,21,6.59,30.14,4.07,8.88-2.88,17.78-6.86,21.89-.67.69-2.04.15-1.96-.7,1.2-12.93-11.6-20-11.6-32.35ZM94.25,70.04c-.13-2.39-.68-4.81-1.8-7.24-6.2-13.56-16.37-27.11-9.77-44.68.52-1.39-1.47-2.66-2.95-1.74-6.59,4.1-17.56,13.4-17.56,29.86,0,9.22,4.81,16.45,9.36,23.81h22.72ZM74.35,131.12c0-1.23-.41-2.26-1.33-3.18-.92-.92-1.95-1.33-3.18-1.33-1.33,0-2.36.41-3.28,1.33-.82.92-1.33,1.95-1.33,3.18,0,1.33.51,2.36,1.33,3.28.92.92,1.95,1.33,3.28,1.33,1.23,0,2.26-.41,3.18-1.33.92-.92,1.33-1.95,1.33-3.28ZM76.2,138.4c-1.33,0-2.36.41-3.28,1.33-.82.92-1.33,1.95-1.33,3.18,0,1.33.51,2.36,1.33,3.28.92.92,1.95,1.33,3.28,1.33,1.23,0,2.36-.41,3.18-1.33.92-.92,1.33-1.95,1.33-3.28,0-1.23-.41-2.26-1.33-3.18-.82-.92-1.95-1.33-3.18-1.33ZM72.3,123.12c1.23,0,2.36-.41,3.18-1.44.92-.82,1.33-1.85,1.33-3.18,0-1.23-.41-2.26-1.33-3.28-.82-.82-1.95-1.23-3.18-1.23-1.33,0-2.36.41-3.28,1.23-.82,1.03-1.33,2.05-1.33,3.28,0,1.33.51,2.36,1.33,3.18.92,1.02,1.95,1.44,3.28,1.44ZM88.81,143.43c-1.33,0-2.36.51-3.28,1.33-.82.92-1.33,2.05-1.33,3.28s.51,2.36,1.33,3.18c.92.92,1.95,1.33,3.28,1.33,1.23,0,2.36-.41,3.18-1.33.92-.82,1.33-1.95,1.33-3.18s-.41-2.36-1.33-3.28c-.82-.82-1.95-1.33-3.18-1.33ZM95.89,115.33c1.23,0,2.36-.41,3.18-1.33.92-.82,1.33-1.95,1.33-3.18s-.41-2.36-1.33-3.28c-.82-.82-1.95-1.33-3.18-1.33-1.33,0-2.36.51-3.28,1.33-.82.92-1.33,2.05-1.33,3.28s.51,2.36,1.33,3.18c.92.92,1.95,1.33,3.28,1.33ZM82.86,114.92c1.33,0,2.36-.41,3.28-1.44.92-.82,1.33-1.85,1.33-3.18,0-1.23-.41-2.26-1.33-3.28-.92-.82-1.95-1.23-3.28-1.23-1.23,0-2.26.41-3.28,1.23-.82,1.03-1.33,2.05-1.33,3.28,0,1.33.51,2.36,1.33,3.18,1.03,1.03,2.05,1.44,3.28,1.44ZM183.89,105.58c0,36.44-33.29,48.53-34.71,49.02l-1.27.44c-2.28,19.92-19.19,35.39-39.72,35.39h-41.31c-22.09,0-39.99-17.91-39.99-39.99v-73.28h121.3v4.3h11.35c12.74,0,24.35,11.49,24.35,24.11ZM116.3,128.66c0-7.59-2.77-14.05-8.1-19.38-5.44-5.44-11.9-8.1-19.49-8.1s-14.05,2.67-19.49,8.1c-5.33,5.33-8.1,11.79-8.1,19.38s2.77,14.05,8.1,19.49c5.44,5.33,11.9,8.1,19.49,8.1s14.05-2.77,19.49-8.1c5.33-5.44,8.1-11.9,8.1-19.49ZM169.48,105.58c0-4.72-5.11-9.7-9.94-9.7h-11.35v43.41c7.02-3.67,21.29-13.61,21.29-33.71ZM104.71,128.87c-.82.92-1.33,2.05-1.33,3.28s.51,2.36,1.33,3.18c.92.92,1.95,1.33,3.28,1.33,1.23,0,2.36-.41,3.18-1.33.92-.82,1.33-1.95,1.33-3.18s-.41-2.36-1.33-3.28c-.82-.82-1.95-1.33-3.18-1.33-1.33,0-2.36.51-3.28,1.33ZM96.51,120.86c-2.15-2.15-4.72-3.28-7.79-3.28s-5.64,1.13-7.79,3.28c-2.15,2.16-3.18,4.82-3.18,7.8s1.03,5.64,3.18,7.8c2.15,2.15,4.82,3.18,7.79,3.18s5.64-1.03,7.79-3.18c2.15-2.15,3.28-4.82,3.28-7.8s-1.13-5.64-3.28-7.8ZM102.66,115.74c-.82,1.03-1.33,2.05-1.33,3.28,0,1.33.51,2.36,1.33,3.18.92,1.03,1.95,1.44,3.28,1.44,1.23,0,2.36-.41,3.18-1.44.92-.82,1.33-1.85,1.33-3.18,0-1.23-.41-2.26-1.33-3.28-.82-.82-1.95-1.23-3.18-1.23-1.33,0-2.36.41-3.28,1.23ZM101.43,139.22c-1.33,0-2.36.41-3.28,1.33-.82.92-1.33,2.05-1.33,3.18,0,1.33.51,2.46,1.33,3.28.92.92,1.95,1.33,3.28,1.33,1.23,0,2.26-.41,3.18-1.33.92-.82,1.33-1.95,1.33-3.28,0-1.13-.41-2.26-1.33-3.18-.92-.92-1.95-1.33-3.18-1.33Z"/>
</svg>