<?xml version="1.0" encoding="UTF-8"?>
<svg id="Capa_1" data-name="Capa 1" xmlns="http://www.w3.org/2000/svg" viewBox="0 0 200 200">
  <path d="M172.87,130.1c-2.85,7.44-11.79,11.1-19.8,8.3l-18.47-6.45-26.83,18.87c-6.27,4.41-14.59,4.58-21.04.44l-.06-.04c2.54-2.53,4.16-5.95,4.33-9.71.18-4.01-1.24-7.83-4-10.74-2.76-2.91-6.49-4.54-10.46-4.57l-7.09-.19-.98-4.19-1.67-.12c-.05.64-.16,1.28-.35,1.92l-2.12,7.34,12.12.23c5.47.04,9.82,4.63,9.57,10.09-.24,5.21-4.56,9.28-9.77,9.22l-26.8-.46c-5.7-.07-9.75-5.57-8.13-11.04l5.66-19.11c-1.62-5.68-.69-12.03,3.16-17.16,7.34-9.8,21.01-12.22,31.27-5.55l25.41,16.35,14.75-10.37c4.6-3.43,10.6-4.34,16-2.44l26.2,9.21c8.68,3.06,12.39,11.57,9.09,20.17ZM191.03,124.9c.27,4.1-3.57,7.71-7.64,7.66-4.22-.06-7.65-3.48-7.66-7.72,0-3.97,3.39-7.61,7.72-7.62,4.04-.01,7.86,3.63,7.57,7.69ZM183.46,133.65c-4.33.01-7.73,3.65-7.72,7.62,0,4.24,3.44,7.66,7.66,7.72,4.07.06,7.9-3.56,7.64-7.66.29-4.06-3.53-7.7-7.57-7.69ZM183.46,100.78c-4.33.01-7.73,3.65-7.72,7.62,0,4.24,3.44,7.66,7.66,7.72,4.07.06,7.9-3.56,7.64-7.66.29-4.06-3.53-7.7-7.57-7.69ZM40.77,100.42c-14.91,2.4-28.95-7.67-31.44-22.55-2.5-14.97,7.74-29.34,22.66-31.77,14.77-2.41,28.97,7.82,31.47,22.66,2.54,15.06-7.61,29.23-22.7,31.66ZM31.21,66.82c0-4.72-3.07-8.94-4.63-10.77-.47-.55-1.31-.55-1.78,0-1.46,1.72-4.24,5.52-4.59,9.88-.26,3.26,2.05,6.32,5.31,6.41,3.12.09,5.68-2.41,5.68-5.51Z"/>
</svg>