<?xml version="1.0" encoding="UTF-8"?>
<svg id="Capa_1" data-name="Capa 1" xmlns="http://www.w3.org/2000/svg" viewBox="0 0 200 200">
  <path d="M55.96,135.05c5.21-5.35,13.72-5.65,19.29-.66,2.62,2.35,11.54,10.44,11.54,10.44l9.8-5.14c2.11-1.11,4.6-1.22,6.8-.3,4.38,1.82,11.97,5.01,17.18,7.34,4.13,1.85,5.95,6.73,4.01,10.83h0c-1.88,3.98-6.59,5.72-10.61,3.92-6.14-2.75-13.1-5.83-13.1-5.83l-11.97,5.91c-5.16,2.55-11.34,1.7-15.62-2.13-6.01-5.38-14.1-12.62-16.99-15.19-2.71-2.41-2.86-6.59-.33-9.19h0ZM114.68,175.02l.6,6.01h11.41l.56-6.01h11.15c2.32,0,4.19-1.97,4.19-4.28h0c0-2.32-1.88-4.2-4.2-4.19l-62.89.09c-3.59,0-7.04-1.4-9.6-3.92l-37.55-36.87c-1.71-1.68-4.44-1.68-6.16-.01h0c-1.78,1.73-1.78,4.59,0,6.32l36.29,35.24c4.93,4.78,11.51,7.61,18.38,7.64h.12l.8,6.01h11.61l.57-6.01h24.73ZM66.97,109.97c-.07-10.3-8.41-18.63-18.81-18.78-10.33-.15-18.94,8.03-19.26,18.29-.33,10.6,8.09,19.34,18.79,19.51,10.63.17,19.35-8.44,19.28-19.02ZM185.83,61.77c-27.39-13.88-54.74-27.84-82.04-41.89-2.41-1.24-4.26-1.18-6.63.03-27.51,13.96-55.06,27.86-82.66,41.66-2.57,1.29-2.97,3.56-2.97,5.45,0,12.21,9.9,22.12,22.12,22.12s22.12-9.9,22.12-22.12c0,12.21,9.9,22.12,22.12,22.12,8.89,0,16.56-5.25,20.07-12.82v59.68h4.32v-59.2c3.61,7.31,11.14,12.34,19.84,12.34,12.21,0,22.12-9.9,22.12-22.12,0,12.21,9.9,22.12,22.12,22.12s22.12-9.9,22.12-22.12c0-1.89-.18-4.01-2.63-5.25ZM126.45,154.45c.05,1.89,1.64,3.37,3.57,3.32,1.93-.05,3.45-1.6,3.41-3.49-.05-1.88-1.64-3.36-3.58-3.32-1.92.05-3.45,1.61-3.4,3.49ZM126.62,161.55c.05,1.88,1.64,3.37,3.57,3.32,1.93-.05,3.45-1.61,3.41-3.49-.05-1.88-1.64-3.37-3.58-3.32-1.92.05-3.45,1.61-3.4,3.49ZM126.27,147.34c.05,1.89,1.64,3.37,3.57,3.32,1.93-.05,3.45-1.6,3.41-3.5s-1.64-3.37-3.58-3.32c-1.92.05-3.45,1.61-3.4,3.49Z"/>
</svg>