<?xml version="1.0" encoding="UTF-8"?>
<svg id="Capa_1" data-name="Capa 1" xmlns="http://www.w3.org/2000/svg" viewBox="0 0 200 200">
  <path d="M49.19,35.91c17.38-8.61,39.73,8.9,35.42,27.87-2.3,19.05-28.04,27.85-41.92,14.97-13.98-11.24-9.8-36.11,6.5-42.84h0ZM42.83,98.9l-2.4,11.28h-18.12c-5.64,0-10.21,4.57-10.21,10.21v24.92c0,11.13,16.73,11.37,16.73,0v-10.49h26.48c5.68,0,10.57-4.02,11.68-9.59l4.07-20.54c1.52-7.67-3.35-15.15-10.97-16.86h0c-7.83-1.76-15.59,3.21-17.26,11.06ZM19.64,155.39c-2.65,0-4.77,2.18-4.77,4.87s2.12,4.88,4.77,4.88,4.75-2.18,4.75-4.88-2.13-4.87-4.75-4.87ZM9.7,155.39c-2.62,0-4.76,2.18-4.76,4.87s2.14,4.88,4.76,4.88,4.76-2.18,4.76-4.88-2.13-4.87-4.76-4.87ZM29.57,155.39c-2.65,0-4.77,2.18-4.77,4.87s2.12,4.88,4.77,4.88,4.76-2.18,4.76-4.88-2.14-4.87-4.76-4.87ZM72.44,141.01v-1.77c0-.63-.51-1.14-1.14-1.14h-36.3c-.63,0-1.14.51-1.14,1.14v1.77c0,.63.51,1.14,1.14,1.14h36.3c.63,0,1.14-.51,1.14-1.14ZM93.4,140.79v-39.3c0-.75-.61-1.36-1.36-1.36h-16.22c-.75,0-1.36.61-1.36,1.36v39.3c0,.75.61,1.36,1.36,1.36h16.22c.75,0,1.36-.61,1.36-1.36ZM36.43,144.25c-1.42,0-2.58,1.15-2.58,2.58v2.75c0,5.83,4.7,10.55,10.51,10.61h0c2.68,0,2.52,1.93.95,4.55l-.95,1.6h28.08v-22.09h-36.01ZM87.59,98.68c0-.79-.65-1.44-1.44-1.44h-4.28c-.79,0-1.44.65-1.44,1.44h7.16ZM86.35,145.65v-1.4h-7.21v1.4c0,1.3-1.1,2.4-2.4,2.4h-2.28v7.21h2.28c5.3,0,9.61-4.31,9.61-9.61ZM140.62,161.31c0,2.78-2.25,5.03-5.03,5.03s-5.03-2.25-5.03-5.03,2.25-5.03,5.03-5.03,5.03,2.25,5.03,5.03ZM125.2,156.28c-2.78,0-5.03,2.25-5.03,5.03s2.25,5.03,5.03,5.03,5.03-2.25,5.03-5.03-2.25-5.03-5.03-5.03ZM114.7,156.28c-2.78,0-5.03,2.25-5.03,5.03s2.25,5.03,5.03,5.03,5.03-2.25,5.03-5.03-2.25-5.03-5.03-5.03ZM145.35,113.06l-12.15-17.59c-2.38-6.68-8.76-11.45-16.25-11.45-6.78,0-12.18,5.69-11.82,12.46l1.9,17.82c.29,5.15,3.32,9.76,7.94,12.06h0v18.35c0,5.4,4.38,9.78,9.78,9.78h0c5.4,0,9.78-4.38,9.78-9.78l-.16-20.78c2.61,1.82,6.17,1.95,8.94.04,3.58-2.46,4.48-7.35,2.03-10.92ZM139.45,41.43c-12.91-.21-23.84,10.76-23.88,23.77-.04,12.79,10.55,23.86,23.26,23.84,11.67-.02,24.04-8.93,23.91-23.51.47-14.4-11.74-23.91-23.29-24.1ZM176.75,150.95c.34,1.1.64,2.22.89,3.34.21.95,1.05,1.6,1.98,1.6.14,0,.29-.02.44-.05,1.1-.24,1.79-1.32,1.55-2.42-.27-1.23-.6-2.47-.98-3.68-.34-1.07-1.48-1.67-2.55-1.33-1.07.34-1.67,1.48-1.33,2.55ZM174.12,144.58c.36.7,1.07,1.09,1.81,1.09.32,0,.64-.07.94-.23,1-.52,1.38-1.75.86-2.74-.58-1.12-1.23-2.23-1.91-3.3-.6-.95-1.86-1.23-2.81-.62-.95.6-1.23,1.86-.62,2.81.62.97,1.2,1.97,1.73,2.99ZM188.02,163.32l3.29-3.29c.79-.79.79-2.08,0-2.88-.79-.79-2.08-.79-2.88,0l-5.44,5.44c-.15.15-.27.33-.36.51-.02,0-.03,0-.05,0,.02-.11.03-.22.03-.34,0-.59-.01-1.19-.04-1.78-.05-1.12-.98-2-2.11-1.95-1.12.05-2,.99-1.95,2.11.02.53.03,1.07.03,1.61,0,.02,0,.04,0,.06-.06-.08-.12-.16-.19-.24l-5.44-5.44c-.79-.79-2.08-.79-2.88,0-.79.79-.79,2.08,0,2.88l3.29,3.29c-4.21.28-7.04.8-7.04,1.4,0,.9,6.44,1.63,14.39,1.63s14.39-.73,14.39-1.63c0-.59-2.83-1.11-7.04-1.4ZM152.11,121.22c-1.21-.38-2.45-.71-3.69-.98-1.1-.24-2.18.46-2.42,1.55-.24,1.1.46,2.18,1.55,2.42,1.12.24,2.24.54,3.34.89.2.06.41.09.61.09.87,0,1.67-.56,1.94-1.43.34-1.07-.26-2.21-1.33-2.55ZM168.19,136.11c.4.44.95.66,1.5.66.49,0,.98-.18,1.37-.53.83-.76.88-2.05.12-2.87-.86-.93-1.76-1.84-2.69-2.69-.83-.76-2.11-.7-2.87.13-.76.83-.7,2.11.13,2.87.85.78,1.67,1.6,2.44,2.44ZM162.45,126.04c-1.07-.68-2.18-1.32-3.3-1.91-1-.52-2.22-.13-2.74.87-.52,1-.13,2.22.87,2.74,1.02.53,2.02,1.11,2.99,1.73.34.22.72.32,1.09.32.67,0,1.33-.33,1.72-.94.6-.95.33-2.2-.62-2.81Z"/>
</svg>