<?xml version="1.0" encoding="UTF-8"?>
<svg id="Capa_1" data-name="Capa 1" xmlns="http://www.w3.org/2000/svg" viewBox="0 0 200 200">
  <path d="M187.84,115.21c4.41,5.58,3.46,13.67-2.11,18.08l-44.03,34.81c-5.52,4.36-12.36,6.71-19.39,6.65l-11.59-.1-41.94-.35c-.78,0-1.51-.37-2-.98l-34.67-43.85c-.88-1.12-.69-2.74.43-3.62l17.85-14.01c5.43-4.26,12.13-6.58,19.03-6.59h3.38s50.02-.05,50.02-.05c7.1,0,12.86,5.74,12.86,12.84h0c0,7.1-5.74,12.86-12.84,12.86l-21.85.02c-3.55,0-6.42,2.88-6.42,6.43,0,3.55,2.88,6.42,6.43,6.42l26.07-.03c2.29,0,4.52-.77,6.33-2.19l36.39-28.51c5.58-4.37,13.64-3.41,18.04,2.15M89.74,38.24c4.21,0,7.62,3.41,7.62,7.62s-3.41,7.62-7.62,7.62-7.62-3.41-7.62-7.62,3.41-7.62,7.62-7.62M172.03,13.75c1.11,1.64,1.76,3.62,1.76,5.75v53.24c0,5.68-4.6,10.28-10.28,10.28h-90.14c-5.68,0-10.28-4.6-10.28-10.28V19.5c0-2.13.65-4.11,1.76-5.75.74-1.09,1.68-2.04,2.78-2.78,1.64-1.11,3.62-1.76,5.75-1.76h90.14c2.13,0,4.11.65,5.75,1.76,1.09.74,2.04,1.68,2.78,2.78M160.94,31.56c-4.7-1.1-8.39-4.79-9.49-9.49h-66.02c-1.1,4.7-4.79,8.39-9.49,9.49v29.11c4.7,1.1,8.39,4.79,9.49,9.49h66.01c1.1-4.7,4.79-8.39,9.49-9.49v-29.11ZM55.87,180.24c.88,1.11.69,2.73-.42,3.61l-8.07,6.38c-1.11.88-2.73.69-3.61-.42l-33.84-42.8c-.88-1.11-.69-2.73.42-3.61l8.07-6.38c1.11-.88,2.73-.69,3.61.42l33.84,42.8ZM147.14,38.24c4.21,0,7.62,3.41,7.62,7.62s-3.41,7.62-7.62,7.62-7.62-3.41-7.62-7.62,3.41-7.62,7.62-7.62M118.44,29.72c7.92,0,14.35,6.22,14.35,16.4s-6.42,16.4-14.35,16.4-14.35-6.08-14.35-16.4,6.42-16.4,14.35-16.4"/>
</svg>