<?xml version="1.0" encoding="UTF-8"?>
<svg id="Capa_1" data-name="Capa 1" xmlns="http://www.w3.org/2000/svg" viewBox="0 0 200 200">
  <path d="M49.77,82.49h82.11c12.03,0,21.86,9.83,21.86,21.85v13.5h-56.13v30.24h56.13v11.67c0,12.02-9.84,21.87-21.86,21.87H28.41l.08-106.55c-.04-.37-.08-.72-.1-1.07-.34-4.12.34-8.32,1.84-12.14,1.88-4.81,5.08-9.11,9.2-12.11l1.82-1.3h35.25l24.25-25.27,4.56-4.79,4.96,4.36,29.24,25.71h7.46v6.55l19.6,17.24,5.14,4.51-13.97,16-10.34-9.04,4.93-5.68-46.18-40.6-38.08,40.04h-19.44l14.65-15.26h-17.29c-1.26,1.28-2.27,2.89-2.95,4.65-.75,1.92-1.09,4.02-.93,6.06.15,1.87.76,3.7,1.9,5.29,1.22,1.67,3.1,3.16,5.76,4.28M118.66,124.35c-5.33,0-9.66,4.32-9.66,9.66s4.33,9.66,9.66,9.66,9.67-4.32,9.67-9.66-4.32-9.66-9.67-9.66"/>
</svg>