<?xml version="1.0" encoding="UTF-8"?>
<svg id="Capa_1" xmlns="http://www.w3.org/2000/svg" version="1.1" viewBox="0 0 200 200">
  <!-- Generator: Adobe Illustrator 29.0.0, SVG Export Plug-In . SVG Version: 2.1.0 Build 186)  -->
  <path d="M36.15,153.87c-17.94,0-32.5-14.55-32.5-32.5s14.56-32.49,32.5-32.49,32.5,14.49,32.5,32.49-14.55,32.5-32.5,32.5M96.09,130.64v46.99h82.43l-.07-39.14c-.09-9.53-7.82-17.1-17.28-17.1h-55.82c-5.11,0-9.26,4.14-9.26,9.26ZM70.6,156.23h-26.08c-5.89,0-10.67,4.83-10.67,10.7s4.78,10.7,10.67,10.7h36.71c5.89,0,10.67-4.83,10.67-10.7v-36.5c0-5.86-4.78-10.69-10.67-10.69s-10.67,4.83-10.67,10.69l.04,25.8ZM183.01,157.52c0,3.62,2.98,6.52,6.66,6.52s6.68-2.9,6.68-6.52-2.98-6.51-6.68-6.51c-3.68,0-6.66,2.91-6.66,6.51ZM183.01,171.11c0,3.59,2.98,6.51,6.66,6.51,3.7,0,6.68-2.92,6.68-6.51,0-3.59-2.98-6.51-6.68-6.51-3.68,0-6.66,2.92-6.66,6.51ZM183.01,143.93c0,3.62,2.98,6.52,6.66,6.52s6.68-2.9,6.68-6.52c0-3.59-2.98-6.51-6.68-6.51s-6.66,2.92-6.66,6.51ZM67.66,82.46h10.49l-11.39,11.63v5.91h23.67v-6.22h-12.73l11.99-12.21v-5.32h-22.03v6.22ZM93.64,56.15h14.88l-16.15,16.5v8.38h33.56v-8.82h-18.05l17-17.32v-7.55h-31.25v8.82ZM131.02,28.75h24.8l-26.92,27.49v13.96h55.94v-14.7h-30.09l28.34-28.87v-12.58h-52.08v14.7Z"/>
</svg>