<?xml version="1.0" encoding="UTF-8"?>
<svg id="Capa_1" xmlns="http://www.w3.org/2000/svg" version="1.1" viewBox="0 0 200 200">
  <!-- Generator: Adobe Illustrator 29.0.0, SVG Export Plug-In . SVG Version: 2.1.0 Build 186)  -->
  <path d="M107.19,51.82c.15-.23.35-.44.6-.59.89-.55,2.06-.27,2.61.63.05.09.09.17.13.26,13.29,2.06,23.48,13.81,23.48,27.99,0,15.63-12.38,28.29-27.65,28.29s-27.66-12.67-27.66-28.29,12.38-28.31,27.66-28.31c.28,0,.55.01.83.02ZM89.14,183.6c0,2.51,1.97,4.54,4.43,4.54s4.42-2.02,4.42-4.54-1.98-4.53-4.42-4.53-4.43,2.03-4.43,4.53ZM79.91,183.6c0,2.51,1.99,4.54,4.42,4.54s4.42-2.02,4.42-4.54-1.98-4.53-4.42-4.53-4.42,2.03-4.42,4.53ZM102.8,188.13c2.43,0,4.42-2.02,4.42-4.54s-1.99-4.53-4.42-4.53-4.43,2.03-4.43,4.53,1.97,4.54,4.43,4.54ZM118.05,180.79v5.6c0,.96.76,1.73,1.7,1.73s1.69-.78,1.69-1.73v-5.6c0-.95-.76-1.73-1.69-1.73s-1.7.78-1.7,1.73ZM87.68,38.21c-.99.36-1.5,1.45-1.14,2.43.36.99,1.45,1.5,2.43,1.14.99-.36,1.5-1.45,1.14-2.43-.36-.99-1.44-1.5-2.43-1.14ZM93.04,23.5c-.55-.9-1.72-1.18-2.61-.63-.89.55-1.18,1.72-.63,2.61.55.9,1.72,1.18,2.61.63.89-.55,1.18-1.72.63-2.61ZM83.17,25.7c-.99.36-1.5,1.45-1.14,2.43.36.99,1.44,1.5,2.43,1.14.99-.36,1.5-1.44,1.14-2.43-.36-.99-1.45-1.5-2.43-1.14ZM85.43,31.96c-.99.36-1.5,1.44-1.14,2.43.36.99,1.45,1.5,2.43,1.14.99-.35,1.5-1.45,1.14-2.43-.36-.99-1.44-1.5-2.43-1.14ZM103.69,48.17c.55.89,1.72,1.18,2.61.63.89-.55,1.18-1.72.63-2.61-.55-.89-1.72-1.18-2.61-.63-.89.55-1.17,1.72-.63,2.61ZM96.74,36.82c.55.89,1.72,1.18,2.61.63.89-.55,1.17-1.72.63-2.61-.55-.89-1.72-1.18-2.61-.63-.89.55-1.18,1.72-.63,2.61ZM92.37,45.61c-.36-.99-1.44-1.5-2.43-1.14-.99.36-1.5,1.45-1.14,2.43.36.99,1.44,1.5,2.43,1.14.99-.36,1.5-1.44,1.14-2.43ZM100.21,42.5c.55.9,1.72,1.18,2.61.63.89-.55,1.18-1.72.63-2.61-.55-.89-1.72-1.18-2.61-.63-.89.55-1.18,1.72-.63,2.61ZM77.71,42.66c-1.04.15-1.76,1.11-1.61,2.15.15,1.04,1.11,1.76,2.15,1.61,1.04-.15,1.76-1.12,1.61-2.15-.15-1.04-1.11-1.76-2.15-1.61ZM78.66,49.79c-1.04.15-1.76,1.12-1.61,2.15.15,1.04,1.11,1.76,2.15,1.61,1.04-.15,1.76-1.11,1.61-2.15-.15-1.04-1.11-1.76-2.15-1.61ZM93.49,54.3c.99-.36,1.5-1.45,1.14-2.43-.36-.99-1.45-1.5-2.43-1.14-.99.36-1.5,1.44-1.14,2.43.36.99,1.45,1.5,2.43,1.14ZM79.61,56.56c-1.04.15-1.76,1.11-1.61,2.15.15,1.04,1.11,1.76,2.15,1.61,1.04-.15,1.76-1.11,1.61-2.15-.15-1.04-1.11-1.76-2.15-1.61ZM75.81,28.76c-1.04.15-1.76,1.11-1.61,2.15.15,1.04,1.11,1.76,2.15,1.61,1.04-.15,1.76-1.11,1.61-2.15-.15-1.04-1.12-1.76-2.15-1.61ZM93.9,28.54c-.89.55-1.18,1.72-.63,2.61.55.89,1.72,1.18,2.61.63.89-.55,1.18-1.72.63-2.61-.55-.89-1.72-1.17-2.61-.63ZM151.03,189.32H56.12l.03-73.02h2.14v-5.5h2.25v3.72c0,1.57,1.28,2.85,2.85,2.85s2.85-1.28,2.85-2.85v-10.38c0-1.57-1.28-2.85-2.85-2.85s-2.85,1.28-2.85,2.85v3.72h-2.25v-5.5h-2.13l.03-81.38c.01-8.02,9.92-15.83,18.2-8.19-4.55,3.26-6.83,8.97-5.64,14.54l26.37-9.9c-2.91-5.24-8.82-8.07-14.69-7.13-.49-.67-1.02-1.31-1.59-1.9-3.1-3.22-7.39-5.21-12.12-5.21s-8.99,1.99-12.09,5.21h0s0,.02,0,.02c-3.09,3.21-5.01,7.66-5.01,12.56l-.03,81.38h-2.7v13.94h2.7l-.03,73.02h-.57c-1.96,0-3.56,1.6-3.56,3.56v.36c0,1.96,1.6,3.56,3.56,3.56h102.07c1.96,0,3.56-1.6,3.56-3.56v-.36c0-1.96-1.6-3.56-3.56-3.56ZM76.76,35.53c-1.04.15-1.76,1.11-1.61,2.15.15,1.04,1.12,1.76,2.15,1.61,1.04-.15,1.76-1.11,1.61-2.15-.15-1.04-1.11-1.76-2.15-1.61ZM104.57,167.55v-5.55h-22.04v5.55c0,6.23,4.94,11.29,11.03,11.29s11-5.06,11-11.29ZM130.63,111.46c10.9,0,19.93,8.31,19.93,21.91v16.72c0,4.66-3.68,8.44-8.25,8.44s-8.24-3.78-8.24-8.44v-16.72h-3.44v16.34h-48.1v-16.34h-3.9v16.72c0,4.66-3.68,8.44-8.25,8.44s-8.23-3.78-8.23-8.44v-16.72c0-11.8,8.09-21.91,20.38-21.91h48.1ZM95.8,130.85c0-.91-.74-1.65-1.65-1.65s-1.65.74-1.65,1.65.74,1.65,1.65,1.65,1.65-.74,1.65-1.65ZM121.47,130.85c0-.91-.74-1.65-1.65-1.65s-1.65.74-1.65,1.65.74,1.65,1.65,1.65,1.65-.74,1.65-1.65ZM130.63,167.49v-5.49h-22.04v5.49c0,6.23,4.93,11.28,11.03,11.28s11.02-5.06,11.02-11.28Z"/>
</svg>