<?xml version="1.0" encoding="UTF-8"?>
<svg id="Capa_1" data-name="Capa 1" xmlns="http://www.w3.org/2000/svg" viewBox="0 0 200 200">
  <path d="M51.29,157.8s-5.49,5.98-6.14,11.68c-.39,3.42.96,7.78,6.3,7.78,5.2,0,6.38-4.5,5.86-8.04-.83-5.67-6.01-11.42-6.01-11.42ZM72.88,135.73s-5.49,5.98-6.14,11.68c-.39,3.42.96,7.78,6.3,7.78,5.2,0,6.38-4.5,5.86-8.04-.83-5.67-6.01-11.42-6.01-11.42ZM29.6,135.73s-5.5,5.98-6.14,11.68c-.39,3.42.96,7.78,6.3,7.78,5.2,0,6.37-4.5,5.86-8.04-.83-5.67-6.01-11.42-6.01-11.42ZM11.38,112.62c.04,3.41,2.81,6.16,6.23,6.16h110.97c3.41,0,6.19-2.75,6.23-6.16l.02-3.81H11.36l.02,3.81ZM126.37,10.03c-33.25,0-60.5,26.16-62.26,58.98l-49.08,21.21c-2.3,1-3.78,3.27-3.76,5.78l.03,4.5h123.58l.03-4.5c.03-2.51-1.46-4.79-3.76-5.78l-48.3-20.87c1.57-22.66,20.46-40.63,43.51-40.63s43.67,19.59,43.67,43.67v108.23c0,5.16,4.18,9.34,9.34,9.34s9.34-4.18,9.34-9.34v-108.23c0-34.38-27.97-62.36-62.36-62.36ZM94.47,157.8s-5.49,5.98-6.14,11.68c-.39,3.42.96,7.78,6.3,7.78,5.2,0,6.38-4.5,5.86-8.04-.83-5.67-6.01-11.42-6.01-11.42ZM116.17,135.73s-5.49,5.98-6.14,11.68c-.39,3.42.97,7.78,6.3,7.78,5.2,0,6.37-4.5,5.86-8.04-.83-5.67-6.01-11.42-6.01-11.42Z"/>
</svg>