<?xml version="1.0" encoding="UTF-8"?>
<svg id="Capa_1" xmlns="http://www.w3.org/2000/svg" version="1.1" viewBox="0 0 200 200">
  <!-- Generator: Adobe Illustrator 29.0.0, SVG Export Plug-In . SVG Version: 2.1.0 Build 186)  -->
  <defs>
    <style>
      .st0 {
        fill-rule: evenodd;
      }
    </style>
  </defs>
  <path d="M49.8,91.36c22.07,6.6,45.31-5.94,51.91-28.01,6.6-22.07-5.94-45.31-28.01-51.91-22.07-6.6-45.31,5.94-51.91,28.01-6.6,22.07,5.94,45.31,28.01,51.91ZM113.2,173.77c-4.29,0-7.79,3.57-7.79,7.97s3.5,7.99,7.79,7.99,7.79-3.56,7.79-7.99-3.49-7.97-7.79-7.97ZM129.46,173.77c-4.33,0-7.8,3.57-7.8,7.97s3.47,7.99,7.8,7.99,7.78-3.56,7.78-7.99-3.48-7.97-7.78-7.97ZM145.71,173.77c-4.33,0-7.8,3.57-7.8,7.97s3.47,7.99,7.8,7.99,7.79-3.56,7.79-7.99-3.5-7.97-7.79-7.97ZM114.23,36.97l-6.29-13.35.91-.43,6.29,13.35-.91.43ZM109.95,22.34c-.13-.28-.06-.48.22-.61.56-.26,1.24-.24,1.79.18.81.64,2.04.73,3.02.28.97-.46,1.68-1.47,1.71-2.5.01-.69.44-1.23,1-1.49l25.3-11.91c2.22-1.05,4.88-.09,5.93,2.14l3.14,6.67c1.05,2.22.09,4.88-2.13,5.93l-.78.37c-1.48-1.09-3.14-1.93-4.93-2.46-4.43-1.32-9.15-.66-12.93,1.82-3.49,2.27-5.89,5.78-6.76,9.88-.17.8-.26,1.61-.3,2.41-.48.07-1.02-.06-1.39-.29-.81-.64-2.05-.74-3.02-.28-.97.46-1.68,1.47-1.71,2.51-.08.55-.44,1.23-1,1.49-.28.13-.55-.08-.61-.22l-6.55-13.9ZM107.68,36.32c-.68-.85-1.9-1.14-2.87-.69l-.42.2-1.83-3.89.42-.2c.97-.46,1.5-1.58,1.23-2.79-.21-.95-.33-1.87-.34-2.9-.01-.82.31-1.5,1.14-1.9l1.53-.72,6.94,14.74-1.53.72c-.75.36-1.92-.11-2.26-.47-.81-.63-1.41-1.35-2.01-2.11ZM101.58,32.39l1.83,3.89c-.42.2-.89-.09-1.02-.37l-1.18-2.51c-.2-.42-.05-.82.37-1.02ZM157.12,123.99l-10.14,33.9c-2.99,10-13.72,16.07-23.68,12.94-9.76-3.07-15.39-13.41-12.45-23.23l7-23.4-17.68-33.02c-3.92-7.33-1.17-16.45,6.15-20.39l31.59-16.88-7.59-13.64c-3.48-5.33-2.06-12.52,3.27-15.98,5.34-3.49,12.55-1.71,16.01,3.64l12.72,23.29c1.63,2.68,2.14,5.97,1.17,9.22-1.04,3.47-3.51,6.02-6.55,7.33l-11.56,6.25,8.01,14.62c5.92,10.8,7.26,23.53,3.73,35.33Z"/>
  <path class="st0" d="M99.76,126.62c-.41-.8-1.23-1.31-2.13-1.31h-26.74l5.14-24.66c.23-1.1-.34-2.22-1.37-2.68-1.03-.46-2.24-.13-2.91.78l-28.74,39.52c-.53.73-.61,1.69-.2,2.5.41.8,1.23,1.31,2.13,1.31h26.74l-5.14,24.66c-.23,1.11.34,2.22,1.37,2.68.31.14.64.21.97.21.75,0,1.48-.35,1.94-.99l28.74-39.52c.53-.73.61-1.69.2-2.49Z"/>
  <path class="st0" d="M40.4,100.03c-.2-.4-.61-.65-1.05-.65h-13.19l2.53-12.16c.11-.54-.17-1.09-.68-1.32-.51-.23-1.11-.06-1.43.39l-14.17,19.48c-.26.36-.3.83-.1,1.23.2.4.61.65,1.05.65h13.19l-2.53,12.16c-.11.55.17,1.09.68,1.32.15.07.32.1.48.1.37,0,.73-.17.96-.49l14.17-19.49c.26-.36.3-.83.1-1.23Z"/>
</svg>