<?xml version="1.0" encoding="UTF-8"?>
<svg id="Capa_1" data-name="Capa 1" xmlns="http://www.w3.org/2000/svg" viewBox="0 0 200 200">
  <path d="M155.76,10.09H44.24c-18.83,0-34.14,15.31-34.14,34.14v111.53c0,18.83,15.32,34.14,34.14,34.14h111.53c18.83,0,34.14-15.31,34.14-34.14V44.23c0-18.83-15.32-34.14-34.14-34.14ZM172.21,152.43c0,10.9-8.87,19.77-19.78,19.77H47.57c-10.9,0-19.78-8.87-19.78-19.77V47.57c0-10.9,8.87-19.77,19.78-19.77h104.86c10.9,0,19.78,8.87,19.78,19.77v104.86ZM100,48.59c-28.39,0-51.41,23.02-51.41,51.41s23.02,51.41,51.41,51.41,51.41-23.02,51.41-51.41-23.02-51.41-51.41-51.41ZM78.63,108.05c-4.44,0-8.05-3.6-8.05-8.05s3.6-8.05,8.05-8.05,8.05,3.6,8.05,8.05-3.6,8.05-8.05,8.05ZM121.37,108.05c-4.44,0-8.05-3.6-8.05-8.05s3.6-8.05,8.05-8.05,8.05,3.6,8.05,8.05-3.6,8.05-8.05,8.05Z"/>
</svg>