<?xml version="1.0" encoding="UTF-8"?>
<svg id="Capa_1" data-name="Capa 1" xmlns="http://www.w3.org/2000/svg" viewBox="0 0 200 200">
  <path d="M123.77,95.68c3.18-2.6,7.91-2.42,10.87.54l33.51,35.51c1.27,1.27,2.02,2.88,2.27,4.54-1.52-.46-3.12-.71-4.78-.71h-7.27c-.38-2.44-1.52-4.79-3.39-6.66l-30.58-32.58h0s-.63-.64-.63-.64ZM165.25,139.56h-6.92c-.41,2.37-1.53,4.64-3.35,6.46l-1.76,1.76c-2.28,2.28-5.32,3.54-8.56,3.54s-6.28-1.26-8.56-3.54l-8.22-8.22h-16.79l11.18-7.03-17.75-22.2.89-.89s0,0,0,0l33.51,35.51c3.15,3.15,8.31,3.15,11.47,0l1.76-1.76c3.15-3.15,3.15-8.31,0-11.47l-32.22-34.23c-3.22-3.22-7.59-5.03-12.14-5.03h0c-4.54,0-8.9,1.81-12.11,5.02l-46.07,42.07h-15.25c-6.54,0-12.28,4.83-12.92,11.34-.73,7.48,5.19,13.85,12.53,13.85h131.68c7.34,0,13.26-6.36,12.53-13.85-.64-6.51-6.38-11.34-12.92-11.34ZM121.33,30.18c-16.89,0-30.58,13.69-30.58,30.58s13.69,30.58,30.58,30.58,30.58-13.69,30.58-30.58-13.69-30.58-30.58-30.58ZM13.59,144.35c-3.47,0-6.2,2.93-6.19,6.11,0,3.4,2.76,6.14,6.14,6.19,3.26.05,6.34-2.85,6.12-6.14.23-3.25-2.83-6.17-6.07-6.16ZM19.66,163.68c.22,3.28-2.86,6.18-6.12,6.14-3.38-.05-6.13-2.79-6.14-6.19,0-3.18,2.72-6.1,6.19-6.11,3.24,0,6.3,2.91,6.07,6.16ZM19.66,137.33c.22,3.28-2.86,6.18-6.12,6.14-3.38-.05-6.13-2.79-6.14-6.19,0-3.18,2.72-6.1,6.19-6.11,3.24,0,6.3,2.91,6.07,6.16ZM186.52,144.35c-3.47,0-6.2,2.93-6.19,6.11,0,3.4,2.76,6.14,6.14,6.19,3.26.05,6.34-2.85,6.12-6.14.23-3.25-2.83-6.17-6.07-6.16ZM192.59,163.68c.22,3.28-2.86,6.18-6.12,6.14-3.38-.05-6.13-2.79-6.14-6.19,0-3.18,2.72-6.1,6.19-6.11,3.24,0,6.3,2.91,6.07,6.16ZM192.59,137.33c.22,3.28-2.86,6.18-6.12,6.14-3.38-.05-6.13-2.79-6.14-6.19,0-3.18,2.72-6.1,6.19-6.11,3.24,0,6.3,2.91,6.07,6.16Z"/>
</svg>