<?xml version="1.0" encoding="UTF-8"?>
<svg id="Capa_1" xmlns="http://www.w3.org/2000/svg" version="1.1" viewBox="0 0 200 200">
  <!-- Generator: Adobe Illustrator 29.0.0, SVG Export Plug-In . SVG Version: 2.1.0 Build 186)  -->
  <path d="M183.81,89.52c0,.7,0,1.5-.2,2.2l-2.4,9.6c-.7,3.1-3.1,5.4-6,6.2h0l-10.8,2.9c-4.8,1.2-7.1,4-7.1,10.9s8.4,5.7,10.8,25.1c0,0-3.3,1.3-6.6,2.2v19.8c0,6.1-5.5,11-11.8,10-5-.8-8.5-5.3-8.5-10.4v-15.6c-5.4.5-10.6.4-15.3,0l-2.2,7.6,1,2.6c4.2,15.6-16.6,16.3-19.5,5.9l-1.6-8.3c-.3-1.2-.2-2.5.4-3.7l3.6-9-3.4-2.5s13.3-15.3,13.9-22.4c.6-7.9-2.7-12.1-2.7-18.9,0-9.8,3.2-8.9,2-14.4-.4-1.7-2.7-10-4.1-14.6-.6-2-.3-4,.9-5.7l3.9-6c2.4-3.8,7.4-5,11.3-2.7h0c4.2,2.4,5.5,7.9,2.8,11.9l-3.5,5.3s5.7,7.7,7.1,9.1c4.8,8.8,14.2,14.9,24.9,14.9s18-4.8,23.2-12h-.1ZM160.61,48.22c-13.8,0-25,11.2-25,25s11.2,25,25,25,25-11.2,25-25-11.2-25-25-25h0ZM106.51,8.52l6.3,12.8c1.1,2.2,0,5.7-3.4,7.5-3.5,1.7-7,.3-7.7-4-.5-3.1,4.5-6.6,7.9-5l-1.5-3-11.5,2.2,5.8,11.7c1.1,2.2,0,5.7-3.4,7.5-3.5,1.7-7,.3-7.7-4-.5-3.1,4.5-6.6,7.9-5l-8.7-17.4,16.2-3.1-.2-.2ZM127.91,28.22l2.3,6.4-5.6.9,2.9,6.2c.9,1.8,0,4.6-2.8,6-2.8,1.4-5.6.2-6.2-3.2-.4-2.5,3.6-5.3,6.3-4.1l-5.2-10.7,8.2-1.4.1-.1ZM117.31,187.12c2.4-2.2,2.6-6,.3-8.4-2.2-2.4-6-2.5-8.4-.3s-2.5,6-.3,8.4c2.2,2.4,6,2.6,8.4.3M130.21,184.52c2.4-2.2,2.6-6,.3-8.4-2.3-2.4-6-2.6-8.4-.3s-2.5,6-.3,8.4c2.3,2.4,6,2.6,8.4.3M147.71,190.62c2.8-1.7,3.7-5.3,2-8.2-1.7-2.9-5.4-3.7-8.2-2-2.8,1.7-3.7,5.3-2,8.2,1.7,2.8,5.3,3.7,8.2,2M160.91,190.62c2.8-1.7,3.7-5.3,2-8.2-1.7-2.8-5.3-3.7-8.2-2-2.8,1.7-3.7,5.3-2,8.2,1.7,2.8,5.3,3.7,8.2,2M23.71,173.62c-2.6,0-4.7,2.1-4.7,4.7s2.1,4.7,4.7,4.7,4.7-2.1,4.7-4.7-2.1-4.7-4.7-4.7ZM33.81,173.62c-2.6,0-4.7,2.1-4.7,4.7s2.1,4.7,4.7,4.7,4.7-2.1,4.7-4.7-2.1-4.7-4.7-4.7ZM43.91,173.62c-2.6,0-4.7,2.1-4.7,4.7s2.1,4.7,4.7,4.7,4.7-2.1,4.7-4.7-2.1-4.7-4.7-4.7ZM67.81,178.02c-2.6,0-4.7,2.1-4.7,4.7s2.1,4.7,4.7,4.7,4.7-2.1,4.7-4.7-2.1-4.7-4.7-4.7ZM78.01,178.02c-2.6,0-4.7,2.1-4.7,4.7s2.1,4.7,4.7,4.7,4.7-2.1,4.7-4.7-2.1-4.7-4.7-4.7ZM88.11,178.02c-2.6,0-4.7,2.1-4.7,4.7s2.1,4.7,4.7,4.7,4.7-2.1,4.7-4.7-2.1-4.7-4.7-4.7ZM55.51,87.82c14.7,0,26.6-11.9,26.6-26.6s-11.9-26.6-26.6-26.6-26.6,11.9-26.6,26.6,11.9,26.6,26.6,26.6ZM101.21,78.02c2.5-4.1,1.1-9.5-3.1-11.8h-.2c-.3-.3-.7-.4-1-.6l1.7-2.5c.9-1.4.8-3.3-.4-4.5-1.6-1.6-4.1-1.2-5.3.5l-18.9,28.9-33.5,4.5c-1.4.2-2.8.7-4,1.4l-15.9,9.7c-4.6,2.8-7,8.2-6,13.5l2,11c.7,4.7,5.3,7.9,10,6.9s7.5-5.8,6.4-10.4l-1.9-8.4,7.2-3.5v24.2l-11.2,19.3c-2.5,6.1.4,13,6.5,15.5s13.1-.4,15.5-6.5l12.9-23.5,7.6,7.6-2.5,14.5c-1.1,6.6,3.9,12.7,10.6,13h.3c6.1.2,10.5-4.4,11.8-10.4l3.7-17.1c.7-3.4.1-7-1.8-10l-5.3-8.4v-29.5l14.6-23.7.2.3Z"/>
</svg>