<?xml version="1.0" encoding="UTF-8"?>
<svg id="Capa_1" data-name="Capa 1" xmlns="http://www.w3.org/2000/svg" viewBox="0 0 200 200">
  <path d="M78.54,9.26c-18.01,0-32.6,14.6-32.6,32.6s14.6,32.6,32.6,32.6,32.6-14.59,32.6-32.6-14.6-32.6-32.6-32.6ZM78.54,70.04c-15.54,0-28.18-12.64-28.18-28.18h56.36c0,15.54-12.64,28.18-28.18,28.18ZM166.64,28.99c0-.63.51-1.14,1.14-1.14h10.77c.63,0,1.14.51,1.14,1.14s-.51,1.14-1.14,1.14h-10.77c-.63,0-1.14-.51-1.14-1.14ZM131.59,138.63l-1.17,2.08c-.76,1.36-2.48,1.85-3.84,1.09-1.36-.76-1.85-2.48-1.09-3.84l.52-.93,2.1.79c1.13.42,2.29.68,3.47.82ZM179.68,57.33c0,.63-.51,1.14-1.14,1.14h-4.25l-28,50.03c.77.87.95,2.16.35,3.23l-1.91,3.42c-1.19-1.54-2.67-2.81-4.37-3.76l1.35-2.41c.6-1.07,1.79-1.59,2.94-1.39l27.48-49.11h-4.36c-.63,0-1.14-.51-1.14-1.14s.51-1.14,1.14-1.14h10.77c.63,0,1.14.51,1.14,1.14ZM189.8,33.52l-32.61-.19c-2.09-.01-3.79,1.67-3.8,3.76l-.07,11.9c-.01,2.09,1.67,3.79,3.76,3.8l32.61.19c1.39,0,2.53-1.11,2.54-2.51l.09-14.42c0-1.39-1.11-2.53-2.51-2.54ZM163.06,46.4c-1.79-.01-3.23-1.47-3.22-3.26.02-1.79,1.47-3.23,3.26-3.22,1.79,0,3.23,1.47,3.22,3.26,0,1.79-1.47,3.23-3.26,3.22ZM143.16,127.81h0c-2.04,5.5-8.15,8.3-13.65,6.26l-10.49-3.94c-5.21-1.96-8.69-6.91-8.75-12.47l-.26-12.11h-1.86l.05,54.25c0,8.41-6.81,15.24-15.23,15.24h0c-8.41,0-15.23-6.82-15.23-15.23v-23.54h-2.71v23.54c0,8.41-6.82,15.23-15.23,15.23h-.05c-8.39,0-15.21-6.79-15.23-15.19l-.21-54.1h0s-9.32,7.94-9.32,7.94c-6.4,5.45-16.28,2.83-19.13-5.08l-7.51-20.85c-2-5.55.75-11.66,6.18-13.88l-.42-6.04c-.11-1.6,1.11-3,2.71-3.11,1.6-.11,3,1.11,3.11,2.71l.4,5.75c.15.02.3.05.46.08l1.61-5.89c.42-1.55,2.04-2.47,3.58-2.04,1.55.42,2.47,2.04,2.04,3.58l-1.93,7.04c1.19,1.09,2.17,2.46,2.8,4.06l1.94,4.93,3.43-3.01c3.69-3.24,8.43-5.02,13.34-5.02l56.14.08c15.02.02,27.17,12.22,27.14,27.24l-.04,7.58,6.06,2.33c5.5,2.04,8.3,8.15,6.26,13.65ZM59.95,190.74h0c-1.93,0-3.5-1.58-3.5-3.5v-6.9c0-1.93,1.58-3.5,3.5-3.5h0c1.93,0,3.5,1.58,3.5,3.5v6.9c0,1.93-1.58,3.5-3.5,3.5ZM93.13,190.74h0c-3.82,0-6.95-3.13-6.95-6.95h0c0-3.82,3.13-6.95,6.95-6.95h0c3.82,0,6.95,3.13,6.95,6.95h0c0,3.82-3.13,6.95-6.95,6.95ZM78.13,190.74h0c-3.82,0-6.95-3.13-6.95-6.95h0c0-3.82,3.13-6.95,6.95-6.95h0c3.82,0,6.95,3.13,6.95,6.95h0c0,3.82-3.13,6.95-6.95,6.95ZM108.13,190.74h0c-3.82,0-6.95-3.13-6.95-6.95h0c0-3.82,3.13-6.95,6.95-6.95h0c3.82,0,6.95,3.13,6.95,6.95h0c0,3.82-3.13,6.95-6.95,6.95Z"/>
</svg>