<?xml version="1.0" encoding="UTF-8"?>
<svg id="Capa_1" xmlns="http://www.w3.org/2000/svg" version="1.1" viewBox="0 0 200 200">
  <!-- Generator: Adobe Illustrator 29.0.0, SVG Export Plug-In . SVG Version: 2.1.0 Build 186)  -->
  <path d="M43.75,132.4c-19.95,0-36.18-16.23-36.18-36.28s16.23-36.22,36.18-36.22,36.31,16.23,36.31,36.22-16.23,36.28-36.31,36.28M115.22,185.63c-.86.66-1.07,1.9-.44,2.78l3.59,4.97c.67.85,1.89,1.04,2.77.43l26.4-19.19c.87-.66,1.05-1.92.42-2.78l-3.57-4.98c-.68-.86-1.88-1.05-2.77-.42l-26.4,19.19ZM124.13,133.95l-6.7-9.25-5.5,4.03,6.71,9.33,5.48-4.11ZM103.45,100.17L58.97,19.53l-7.79.05,46.74,84.65,5.53-4.05ZM108.82,149.44l-10.4-13.64,22.02-17.65c4.38-3.63,4.93-10.15,1.31-14.49-3.71-4.3-10.14-4.88-14.51-1.25l-37.79,28.34c-6.36,5.35-7.51,17.46-2.19,23.8l21.89,25.43s8.62,11.23,22.84,1l27.91-20.72,13.51.05c7.36,0,13.29-5.93,13.29-13.3s-5.93-13.28-13.29-13.28l-19.77-.06c-3.03,0-5.66,1.3-7.96,2.96l-16.84,12.82ZM181.75,147.98c0-3.52-2.91-6.35-6.49-6.35s-6.5,2.82-6.5,6.35c0,3.5,2.9,6.33,6.5,6.33,3.58,0,6.49-2.83,6.49-6.33ZM181.75,134.74c0-3.49-2.91-6.34-6.49-6.34-3.6,0-6.5,2.85-6.5,6.34s2.9,6.34,6.5,6.34,6.49-2.84,6.49-6.34ZM181.75,161.2c0-3.52-2.91-6.35-6.49-6.35-3.6,0-6.5,2.82-6.5,6.35s2.9,6.33,6.5,6.33,6.49-2.85,6.49-6.33ZM148.32,24.75c14.8,0,26.78,11.98,26.78,26.78s-11.98,26.78-26.78,26.78-26.78-12-26.78-26.78,12-26.78,26.78-26.78h0ZM179.9,19.97c-1.16-1.16-3.06-1.16-4.21,0l-6.32,6.31c-1.16,1.16-1.16,3.04,0,4.2,1.16,1.16,3.04,1.16,4.2,0l6.32-6.31c1.16-1.16,1.16-3.05,0-4.21h0ZM192.97,51.53c0-1.64-1.36-2.98-2.98-2.98h-8.94c-1.62,0-2.98,1.34-2.98,2.98s1.36,2.98,2.98,2.98h8.94c1.62,0,2.98-1.36,2.98-2.98h0ZM179.9,83.08c1.16-1.16,1.16-3.04,0-4.2l-6.32-6.31c-1.16-1.16-3.04-1.16-4.2,0-1.16,1.16-1.16,3.04,0,4.2l6.32,6.31c1.14,1.16,3.05,1.16,4.21,0h0ZM148.32,96.16c1.66,0,2.98-1.32,2.98-2.98v-8.92c0-1.64-1.32-2.96-2.98-2.96s-2.96,1.32-2.96,2.96v8.92c0,1.66,1.34,2.98,2.96,2.98h0ZM116.77,83.08c1.16,1.16,3.05,1.16,4.21,0l6.32-6.31c1.16-1.16,1.16-3.04,0-4.2-1.16-1.16-3.06-1.16-4.22,0l-6.31,6.31c-1.16,1.16-1.16,3.04,0,4.2h0ZM103.69,51.53c0,1.62,1.34,2.98,2.98,2.98h8.92c1.64,0,2.98-1.36,2.98-2.98s-1.34-2.98-2.98-2.98h-8.92c-1.64,0-2.98,1.34-2.98,2.98h0ZM116.77,19.97c-1.16,1.16-1.16,3.05,0,4.21l6.31,6.31c1.16,1.16,3.06,1.16,4.22,0,1.16-1.16,1.16-3.04,0-4.2l-6.32-6.31c-1.16-1.16-3.05-1.16-4.21,0h0ZM145.35,9.87v8.92c0,1.64,1.34,2.98,2.96,2.98s2.98-1.34,2.98-2.98v-8.92c0-1.64-1.32-2.98-2.98-2.98s-2.96,1.34-2.96,2.98Z"/>
</svg>