<?xml version="1.0" encoding="UTF-8"?>
<svg id="Capa_1" data-name="Capa 1" xmlns="http://www.w3.org/2000/svg" viewBox="0 0 200 200">
  <path d="M175.82,158.85l-61.86-61.86-1.62-2.2c6.56-6.59,15.87-15.93,21.22-21.28,4.09-4.09,5.61-10.13,5.61-10.13l11.47-35.25,9.96,4.98.45-.94-9.85-5.16c-1.37-.67-2.41-.39-3.74.4l-14.6,9.63s-3.49,2.23-4.63,3.37c-1.72,1.72-4.25,4.93-4.25,4.93l-24,32.65-24-32.65s-2.52-3.21-4.25-4.93c-1.14-1.14-4.63-3.37-4.63-3.37l-14.6-9.63c-1.33-.79-2.37-1.07-3.74-.4l-9.85,5.16.45.94,9.96-4.98,11.47,35.25s1.52,6.05,5.61,10.13c5.36,5.36,14.66,14.7,21.22,21.28l-1.62,2.2-61.86,61.86c-3.32,3.32-3.32,8.71,0,12.03,3.32,3.32,8.71,3.32,12.03,0l63.79-63.79,63.79,63.79c3.32,3.32,8.71,3.32,12.03,0,3.32-3.32,3.32-8.71,0-12.03ZM128.82,57.79l2.42-7.4c.59-1.8,2.52-2.78,4.32-2.19,1.8.59,2.78,2.52,2.19,4.32l-2.42,7.4c-.59,1.8-2.52,2.78-4.32,2.19-1.8-.59-2.78-2.52-2.19-4.32ZM68.98,62.11c-1.8.59-3.73-.39-4.32-2.19l-2.42-7.4c-.59-1.8.39-3.73,2.19-4.32,1.8-.59,3.73.39,4.32,2.19l2.42,7.4c.59,1.8-.39,3.73-2.19,4.32ZM53.76,145.68l-21.29,21.29c-1.34,1.34-3.5,1.34-4.84,0-1.34-1.34-1.34-3.5,0-4.84l21.29-21.29c1.34-1.34,3.5-1.34,4.84,0,1.34,1.34,1.34,3.5,0,4.84ZM77.07,122.37l-16.03,16.03c-1.34,1.34-3.5,1.34-4.84,0-1.34-1.34-1.34-3.5,0-4.84l16.03-16.03c1.34-1.34,3.5-1.34,4.84,0,1.34,1.34,1.34,3.5,0,4.84ZM85.23,114.21c-1.34,1.34-3.5,1.34-4.84,0-1.34-1.34-1.34-3.5,0-4.84,1.34-1.34,3.5-1.34,4.84,0,1.34,1.34,1.34,3.5,0,4.84ZM119.61,114.21c-1.34,1.34-3.5,1.34-4.84,0-1.34-1.34-1.34-3.5,0-4.84,1.34-1.34,3.5-1.34,4.84,0,1.34,1.34,1.34,3.5,0,4.84ZM143.8,138.4c-1.34,1.34-3.5,1.34-4.84,0l-16.03-16.03c-1.34-1.34-1.34-3.5,0-4.84,1.34-1.34,3.5-1.34,4.84,0l16.03,16.03c1.34,1.34,1.34,3.5,0,4.84ZM172.37,166.97c-1.34,1.34-3.5,1.34-4.84,0l-21.29-21.29c-1.34-1.34-1.34-3.5,0-4.84,1.34-1.34,3.5-1.34,4.84,0l21.29,21.29c1.34,1.34,1.34,3.5,0,4.84Z"/>
  <path d="M47.02,78.37c.77.99,2.24,1.07,3.1.16l8.92-9.33c.53-.55.71-1.36.46-2.08l-11.91-34.74-21.49,10.87c-2.29,1.16-2.96,4.12-1.4,6.15l22.32,28.96Z"/>
  <path d="M140.5,67.13c-.25.72-.07,1.53.46,2.08l8.92,9.33c.87.91,2.34.83,3.1-.16l22.32-28.96c1.57-2.03.9-4.99-1.4-6.15l-21.49-10.87-11.91,34.74Z"/>
</svg>