<?xml version="1.0" encoding="UTF-8"?>
<svg id="Capa_1" xmlns="http://www.w3.org/2000/svg" version="1.1" viewBox="0 0 200 200">
  <!-- Generator: Adobe Illustrator 29.0.0, SVG Export Plug-In . SVG Version: 2.1.0 Build 186)  -->
  <rect x="8.3" y="126.81" width="47.68" height="12.82" rx="2.86" ry="2.86"/>
  <path d="M103.68,76.84c-1.8,1.8-1.8,4.72,0,6.53,1.8,1.8,4.72,1.8,6.53,0,1.8-1.8,1.8-4.72,0-6.53-1.8-1.8-4.72-1.8-6.53,0Z"/>
  <path d="M32.14,147.64s-16.8,15.27-16.8,30.73c0,9.28,7.52,16.8,16.8,16.8s16.8-7.52,16.8-16.8c0-15.45-16.8-30.73-16.8-30.73ZM35,188.49c0,1.58-1.28,2.86-2.86,2.86-7.16,0-12.99-5.82-12.99-12.99,0-1.58,1.28-2.86,2.86-2.86s2.86,1.28,2.86,2.86c0,4,3.26,7.26,7.26,7.26,1.58,0,2.86,1.28,2.86,2.86Z"/>
  <path d="M106.94,56.03c-13.28,0-24.08,10.8-24.08,24.08s10.8,24.08,24.08,24.08,24.08-10.8,24.08-24.08-10.8-24.08-24.08-24.08ZM87.24,82.76c-1.47,0-2.66-1.19-2.66-2.66s1.19-2.66,2.66-2.66,2.66,1.19,2.66,2.66-1.19,2.66-2.66,2.66ZM106.94,57.75c1.47,0,2.66,1.19,2.66,2.66s-1.19,2.66-2.66,2.66-2.66-1.19-2.66-2.66,1.19-2.66,2.66-2.66ZM106.94,102.46c-1.47,0-2.66-1.19-2.66-2.66s1.19-2.66,2.66-2.66,2.66,1.19,2.66,2.66-1.19,2.66-2.66,2.66ZM120.11,68.15l-7.43,15.02c-.59,1.19-1.55,2.14-2.73,2.73l-14.97,7.39c-.35.17-.77.1-1.05-.17-.28-.28-.35-.7-.17-1.05l7.4-15c.59-1.19,1.55-2.15,2.73-2.73l15-7.4c.35-.17.77-.1,1.05.17.28.28.35.7.17,1.05ZM126.63,77.44c1.47,0,2.66,1.19,2.66,2.66s-1.19,2.66-2.66,2.66-2.66-1.19-2.66-2.66,1.19-2.66,2.66-2.66Z"/>
  <path d="M176.29,14.23c-13.58,0-24.59,11.01-24.59,24.59v22.21h-7.72c-5.54-10.74-15.61-18.75-27.68-21.52.03-.31.05-.62.05-.94v-6.99h18.99c4.54,0,8.26-3.72,8.26-8.26h0c0-4.54-3.72-8.26-8.26-8.26h-19.33c-1.09-4-4.75-6.96-9.08-6.96s-7.99,2.97-9.08,6.96h-19.33c-4.54,0-8.26,3.72-8.26,8.26h0c0,4.54,3.72,8.26,8.26,8.26h18.99v6.99c0,.32.02.63.05.94-12.09,2.78-22.16,10.81-27.7,21.56-31.47.82-56.83,26.66-56.83,58.32v3.46h38.15v-3.46c0-10.65,8.28-19.37,18.73-20.13,6.94,13.37,20.9,22.52,37,22.52s30.12-9.18,37.04-22.59h7.72v83.99h35.86V14.23h-11.27ZM106.94,112.52c-17.87,0-32.41-14.54-32.41-32.41s14.54-32.41,32.41-32.41,32.41,14.54,32.41,32.41-14.54,32.41-32.41,32.41Z"/>
</svg>