<?xml version="1.0" encoding="UTF-8"?>
<svg id="Capa_1" data-name="Capa 1" xmlns="http://www.w3.org/2000/svg" viewBox="0 0 200 200">
  <path d="M147.57,107.53c-8.35.01-29.88,2.57-35.41,5.76-7.34,4.23-10.48,3.89-10.48,3.89h-1.95s-1.39-.01-1.39-.01c0,0-3.13.36-10.49-3.85-5.55-3.17-27.08-5.65-35.43-5.64-8.35.01-42.07,1.7-45.36,2.93l.6,11.09s5.3,1.42,6.33,9.15c1.03,7.73,5.24,30.43,15.13,37.02,8.91,5.95,25.73,10.22,45.92,1.53,2.2-.94,7.63-4.64,9.7-6.87,4.27-4.59,11.23-13.62,13.74-25.83h3.14c2.56,12.21,9.54,21.22,13.83,25.8,2.08,2.22,7.52,5.9,9.72,6.83,20.22,8.62,37.02,4.29,45.92-1.69,9.86-6.63,14-29.34,15-37.07,1.01-7.74,6.3-9.17,6.3-9.17l.56-11.1c-3.29-1.22-37.02-2.79-45.37-2.77ZM90.04,125.52c.04.13.08.29.11.46H21.94c.43-1.5.99-2.87,1.68-4.06h64.65c.89,1.27,1.44,2.51,1.77,3.61ZM90.7,134.93H20.83c0-1.39.07-2.75.2-4.06h69.61c.06,1.41.08,2.84.06,4.06ZM22.83,148.78h65.12c-.59,1.51-1.23,2.86-1.93,4.06H24.21c-.52-1.3-.97-2.66-1.38-4.06ZM21.68,143.89c-.25-1.35-.45-2.71-.59-4.06h69.15c-.22,1.45-.48,2.81-.78,4.06H21.68ZM54.95,113.17c13.87.36,22.32,1.3,27.49,3.85H28.56c7-4.19,17.99-4.06,26.38-3.85ZM35.69,165.76h36.55c-9.75,5.06-23.45,6.66-36.55,0ZM79.64,160.59c-.1.1-.21.19-.31.28H28.82c-.79-.92-1.54-1.97-2.23-3.13h55.85c-.92,1.02-1.87,1.95-2.81,2.84ZM171.79,117.02h-54.28c5.16-2.59,13.61-3.57,27.55-3.98,8.53-.25,19.73-.41,26.73,3.98ZM179.25,134.93h-69.87c-.03-1.22-.01-2.66.04-4.06h69.63c.13,1.31.2,2.67.2,4.06ZM112.19,148.78h65.04c-.41,1.4-.87,2.76-1.39,4.06h-61.7c-.7-1.21-1.36-2.55-1.95-4.06ZM110.66,143.89c-.3-1.26-.57-2.61-.8-4.06h69.12c-.14,1.36-.35,2.72-.6,4.06h-67.73ZM109.9,125.97c.04-.17.07-.33.12-.47.32-1.09.86-2.33,1.74-3.59h64.8c.67,1.2,1.22,2.57,1.63,4.06h-68.28ZM117.75,157.74h55.69c-.7,1.16-1.47,2.21-2.28,3.13h-50.26c-.12-.11-.25-.22-.37-.33-.93-.87-1.87-1.79-2.78-2.79ZM128.09,165.76h36.02c-12.9,6.44-26.36,4.92-36.02,0ZM131.96,56.17c-1.77-1.49-2-4.13-.52-5.9l6.78-8.08c1.49-1.77,4.13-2,5.9-.52,1.77,1.49,2,4.13.52,5.9l-6.78,8.08c-1.49,1.77-4.13,2-5.9.52ZM148.88,85.49c-.4-2.28,1.12-4.45,3.4-4.85l10.39-1.83c2.28-.4,4.45,1.12,4.85,3.4h0c.4,2.28-1.12,4.45-3.4,4.85l-10.39,1.83c-2.28.4-4.45-1.12-4.85-3.4h0ZM95.96,40.4v-10.55c0-2.31,1.87-4.19,4.19-4.19h0c2.31,0,4.19,1.87,4.19,4.19v10.55c0,2.31-1.87,4.19-4.19,4.19h0c-2.31,0-4.19-1.87-4.19-4.19ZM55.66,47.57c-1.49-1.77-1.26-4.41.52-5.9,1.77-1.49,4.41-1.26,5.9.52l6.78,8.08c1.49,1.77,1.26,4.41-.52,5.9-1.77,1.49-4.41,1.26-5.9-.52l-6.78-8.08ZM32.78,82.2h0c.4-2.28,2.57-3.8,4.85-3.4l10.39,1.83c2.28.4,3.8,2.57,3.4,4.85-.4,2.28-2.57,3.8-4.85,3.4l-10.39-1.83c-2.28-.4-3.8-2.57-3.4-4.85ZM59.11,94.08c0-22.66,18.37-41.03,41.03-41.03s41.03,18.37,41.03,41.03c0,1.22-.06,2.43-.17,3.63-10.24.76-27,2.92-33.69,6.77-3.3,1.9-5.13,2.43-5.66,2.55h-1.72s-1.28-.01-1.28-.01l-.31-.12-.11.02c-.81-.24-2.54-.86-5.28-2.43-6.65-3.8-23.4-5.91-33.68-6.65-.11-1.24-.18-2.49-.18-3.75Z"/>
</svg>