<?xml version="1.0" encoding="UTF-8"?>
<svg id="Capa_1" xmlns="http://www.w3.org/2000/svg" version="1.1" viewBox="0 0 200 200">
  <!-- Generator: Adobe Illustrator 29.0.0, SVG Export Plug-In . SVG Version: 2.1.0 Build 186)  -->
  <g id="sun">
    <path d="M165.94,29.87c8.76,6.52,10.58,18.91,4.07,27.67-6.52,8.76-18.91,10.58-27.67,4.07-8.76-6.52-10.58-18.91-4.07-27.67,6.52-8.76,18.9-10.58,27.67-4.07Z"/>
    <g>
      <g>
        <path d="M125.84,17.67c-1.2,1.21-1.2,3.16.02,4.36l5.91,5.86c1.21,1.2,3.16,1.19,4.36-.01,1.2-1.21,1.19-3.17-.02-4.36l-5.9-5.86c-1.21-1.2-3.16-1.19-4.37.02Z"/>
        <path d="M182.43,73.81c1.2-1.21,1.2-3.16-.02-4.36l-5.91-5.86c-1.21-1.2-3.16-1.19-4.36.01-1.2,1.21-1.19,3.17.02,4.36l5.9,5.87c1.21,1.2,3.16,1.19,4.36-.02Z"/>
      </g>
      <g>
        <path d="M126.06,74.03c1.21,1.2,3.16,1.2,4.36-.01l5.86-5.91c1.2-1.21,1.19-3.16-.01-4.36-1.21-1.2-3.17-1.19-4.36.02l-5.86,5.9c-1.2,1.21-1.19,3.16.02,4.36Z"/>
        <path d="M182.21,17.44c-1.21-1.2-3.16-1.2-4.36.02l-5.86,5.91c-1.2,1.21-1.19,3.16.01,4.36,1.21,1.2,3.17,1.19,4.36-.02l5.86-5.9c1.2-1.21,1.19-3.16-.02-4.36Z"/>
      </g>
    </g>
    <g>
      <g>
        <path d="M114.28,45.89c0,1.7,1.39,3.08,3.09,3.07l8.32-.03c1.71,0,3.08-1.39,3.08-3.1,0-1.7-1.4-3.08-3.1-3.07l-8.32.03c-1.7,0-3.08,1.39-3.07,3.1Z"/>
        <path d="M193.99,45.58c0-1.7-1.39-3.08-3.09-3.07l-8.32.03c-1.71,0-3.08,1.39-3.07,3.1,0,1.71,1.4,3.09,3.1,3.07l8.32-.03c1.71,0,3.08-1.39,3.07-3.1Z"/>
      </g>
      <g>
        <path d="M154.29,85.6c1.7,0,3.08-1.39,3.07-3.1l-.03-8.32c0-1.71-1.39-3.08-3.1-3.08-1.71,0-3.08,1.4-3.07,3.1l.03,8.32c0,1.71,1.39,3.08,3.1,3.07Z"/>
        <path d="M153.98,5.88c-1.7,0-3.08,1.39-3.07,3.09l.03,8.32c0,1.71,1.39,3.08,3.1,3.08,1.71,0,3.08-1.4,3.07-3.1l-.03-8.32c0-1.7-1.39-3.08-3.1-3.07Z"/>
      </g>
    </g>
  </g>
  <path d="M39.93,68.71c-8.84-11.72-13.42-3.44-19.37-11.33-2.87-3.81-2.11-9.23,1.69-12.1,10.22-7.71,22.4,6.42,17.68,23.43Z"/>
  <path d="M32.52,72.2c-9.61-.46-7.32,4.58-13.8,4.27-3.12-.15-5.55-2.48-5.42-5.2.35-7.3,12.57-7.4,19.21.93Z"/>
  <g>
    <path d="M44.72,152.95c-7.95,0-14.43-6.37-14.64-14.27l-19.95-1.75h0c-.19,29.46,22.19,54.71,52.22,57.39,29.84,2.68,56.43-18.36,61.41-47.44l-64.67-5.66c-1.36,6.69-7.28,11.73-14.36,11.73Z"/>
    <path d="M154.94,122.19h0s-29.08-2.49-29.08-2.49l.38-4.59c1.72-19.7-13.01-37.11-32.71-38.83l-13.01-1.15c-.57-4.02-4.02-7.27-8.23-7.65-4.21-.38-8.03,2.3-9.37,6.12h-1.53c-25.06-2.3-47.25,16.07-49.93,40.94h-1.91c-1.15-.19-2.1.57-2.1,1.53l-.76,8.42c0,1.15.76,2.1,1.72,2.1h1.91l12.63,1.34,9.58.84c2.4-4.96,5.83-8.8,6.8-9.84l5.4-5.76,5.4,5.77c1.11,1.19,5.44,6.06,7.76,12.06l100.12,8.79c3.44.38,6.5-2.3,6.89-5.74.57-5.93-4.02-11.29-9.95-11.86ZM25.24,115.5l-.19.19-8.03-.77c-1.15,0-2.1-1.34-1.72-2.49,1.53-6.12,4.21-10.33,6.89-10.14,2.68.19,4.78,4.78,5.16,11.1,0,1.15-.96,2.3-2.1,2.1Z"/>
  </g>
  <path d="M44.72,146.61c-4.59,0-8.32-3.73-8.32-8.32,0-6.89,7.24-14.69,7.55-15.02l.77-.82.77.82c.31.33,7.55,8.13,7.55,15.02,0,4.59-3.73,8.32-8.32,8.32Z"/>
</svg>