<?xml version="1.0" encoding="UTF-8"?>
<svg id="Capa_1" xmlns="http://www.w3.org/2000/svg" version="1.1" viewBox="0 0 200 200">
  <!-- Generator: Adobe Illustrator 29.0.0, SVG Export Plug-In . SVG Version: 2.1.0 Build 186)  -->
  <path d="M100.12,84.27c-11.12,0-21.68,4.38-29.53,12.23-7.56,7.56-12.23,18-12.23,29.54s4.67,21.98,12.23,29.53c7.56,7.56,18,12.23,29.53,12.23s21.98-4.68,29.53-12.23c7.56-7.56,12.23-18,12.23-29.53s-4.68-21.98-12.23-29.54c-7.86-7.86-18.43-12.23-29.53-12.23ZM96.98,90.07c0-1.24,1.01-2.26,2.26-2.26h1.78c1.24,0,2.26,1.01,2.26,2.26v5.5c0,1.24-1.01,2.26-2.26,2.26h-1.78c-1.24,0-2.26-1.02-2.26-2.26v-5.5ZM81.41,93.57c1.36-.79,3.1-.32,3.89,1.04.79,1.36.32,3.1-1.04,3.89-1.36.79-3.11.32-3.89-1.04-.79-1.36-.32-3.1,1.04-3.89ZM61.95,126.88v-1.78c0-1.24,1.01-2.26,2.26-2.26h5.5c1.24,0,2.26,1.01,2.26,2.26v1.78c0,1.24-1.02,2.26-2.26,2.26h-5.5c-1.24,0-2.26-1.01-2.26-2.26ZM71.59,145.76c-1.36.79-3.1.32-3.89-1.04-.79-1.36-.32-3.1,1.04-3.89,1.36-.79,3.1-.32,3.89,1.04.79,1.36.32,3.11-1.04,3.89ZM72.63,110.12c-.79,1.36-2.53,1.83-3.89,1.04-1.36-.79-1.83-2.53-1.04-3.89.79-1.36,2.53-1.83,3.89-1.04,1.36.79,1.83,2.53,1.04,3.89ZM85.29,157.38c-.79,1.36-2.53,1.83-3.89,1.04-1.36-.79-1.83-2.53-1.04-3.89.79-1.36,2.53-1.83,3.89-1.04,1.36.79,1.83,2.53,1.04,3.89ZM103.27,161.92c0,1.24-1.01,2.26-2.26,2.26h-1.78c-1.24,0-2.26-1.01-2.26-2.26v-5.5c0-1.24,1.01-2.26,2.26-2.26h1.78c1.24,0,2.26,1.02,2.26,2.26v5.5ZM113.25,140.64h0c-.9.82-2.74,1.14-3.62.31l-5.91-5.61c-3.73,1.43-8.12.53-10.98-2.6-2.83-3.09-3.35-7.48-1.66-11.04l-12.54-15.86c-1.81-2.29,1.07-5,3.27-2.99l14.95,13.71c3.69-1.32,7.97-.4,10.77,2.67,2.88,3.15,3.36,7.63,1.57,11.23l4.79,6.6c.71.98.26,2.75-.63,3.58ZM118.85,158.43c-1.36.79-3.1.32-3.89-1.04-.79-1.36-.32-3.1,1.04-3.89,1.36-.79,3.11-.32,3.89,1.04.79,1.36.32,3.1-1.04,3.89ZM119.89,97.46c-.79,1.36-2.53,1.83-3.89,1.04-1.36-.79-1.83-2.53-1.04-3.89.79-1.36,2.53-1.83,3.89-1.04,1.36.79,1.83,2.53,1.04,3.89ZM132.56,144.72c-.79,1.36-2.53,1.83-3.89,1.04-1.36-.79-1.83-2.53-1.04-3.89.79-1.36,2.53-1.83,3.89-1.04,1.36.79,1.83,2.53,1.04,3.89ZM138.31,125.11v1.78c0,1.24-1.01,2.26-2.26,2.26h-5.5c-1.24,0-2.26-1.01-2.26-2.26v-1.78c0-1.24,1.02-2.26,2.26-2.26h5.5c1.24,0,2.26,1.01,2.26,2.26ZM132.56,107.27c.79,1.36.32,3.1-1.04,3.89-1.36.79-3.1.32-3.89-1.04-.79-1.36-.32-3.1,1.04-3.89,1.36-.79,3.1-.32,3.89,1.04Z"/>
  <path d="M154.97,74.04c-10.7-21.51-27.72-43.39-46.69-60.02l-8.14-7.14-8.19,7.09c-16.19,14.01-37.89,39.34-50.23,68.42-14.34,33.79-12.64,63.63,4.92,86.28,12.67,16.35,32.1,25.72,53.31,25.72,28.36,0,53.15-16.53,63.15-42.1,8.87-22.68,6.06-49.73-8.13-78.25ZM137.16,163.07c-9.48,9.48-22.57,15.34-37.04,15.34s-27.56-5.86-37.04-15.34c-9.48-9.48-15.34-22.58-15.34-37.04s5.86-27.56,15.34-37.04c3.49-3.49,7.47-6.49,11.83-8.89,5.77-3.18,12.21-5.29,19.05-6.1v-9.47h-8.59c-.47,0-.91-.11-1.31-.29-1.05-.5-1.77-1.56-1.77-2.79v-8.74c0-1.7,1.39-3.09,3.09-3.09h29.49c1.7,0,3.09,1.39,3.09,3.09v8.74c0,1.7-1.39,3.09-3.09,3.09h-8.59v9.47c2.25.26,4.45.67,6.6,1.21,7.28,1.82,13.95,5.17,19.66,9.68l3.46-3.34c.87-.83,2.24-.83,3.1.01l2.79,2.73c.9.88.89,2.32-.01,3.19l-3.21,3.09c8.58,9.33,13.83,21.78,13.83,35.46,0,14.46-5.86,27.56-15.34,37.04Z"/>
</svg>