<?xml version="1.0" encoding="UTF-8"?>
<svg id="Capa_1" xmlns="http://www.w3.org/2000/svg" version="1.1" viewBox="0 0 200 200">
  <!-- Generator: Adobe Illustrator 29.0.0, SVG Export Plug-In . SVG Version: 2.1.0 Build 186)  -->
  <path d="M65.85,124.36h13.37v-11.19c0-3.83-3.01-6.97-6.68-6.97-3.68,0-6.68,3.14-6.68,6.97v11.19ZM84.13,111.03v13.33h4.77c2.21,0,4.31.54,6.17,1.49.86.44,1.67.98,2.43,1.59v-16.41c0-1.59-.52-3.06-1.39-4.24-1.22-1.66-3.15-2.73-5.3-2.73-3.68,0-6.69,3.14-6.69,6.97ZM102.41,112.31v24.18c0,3.83,3.01,6.97,6.68,6.97,3.68,0,6.68-3.13,6.68-6.97v-24.18c0-3.83-3.01-6.97-6.68-6.97-3.68,0-6.68,3.14-6.68,6.97ZM120.69,117.15v19.34c0,3.83,3.01,6.97,6.68,6.97,3.68,0,6.68-3.13,6.68-6.97v-19.34c0-3.83-3.01-6.97-6.68-6.97s-6.68,3.14-6.68,6.97ZM126.44,57.56c3.23,13.02,3.16,27.62-.54,43.36,4.77-5.92,9.07-16.65,12.44-36.89,19.35,13.1,32.15,35.84,32.15,61.68,0,31.94-19.55,59.12-46.85,69.25l.09-10.48c11.65-12.1,10.33-18.88,10.33-35.15-1.99,1.13-4.27,1.77-6.68,1.77-3.49,0-6.68-1.34-9.14-3.54-2.46,2.21-5.65,3.54-9.14,3.54-3.4,0-6.53-1.27-8.96-3.39-2.56,3.56-6.64,5.87-11.23,5.87h-2.28s-5.56,0-5.56,0c-2.06,0-3.75-1.76-3.75-3.91,0-1.76,1.12-3.25,2.66-3.74h8.94c3.68,0,6.69-3.14,6.69-6.97,0-3.83-3.01-6.97-6.69-6.97h-23.19c-7.65,0-10.22,9.67-10.51,17.79-.51,14.41,13.26,22.8,20.98,33.83v11.27c-27.21-10.18-46.68-37.32-46.68-69.19,0-19.66,7.4-37.51,19.46-50.7,17.62-19.26,31.63-42.03,29.17-69.96,25.69,10.44,42.44,28.86,48.3,52.52Z"/>
</svg>