<?xml version="1.0" encoding="UTF-8"?>
<svg id="Capa_1" data-name="Capa 1" xmlns="http://www.w3.org/2000/svg" viewBox="0 0 200 200">
  <path d="M105.23,73.85l15.08-15.08c-3.56-11.14-.92-23.83,7.92-32.68,8.29-8.28,19.95-11.12,30.55-8.53l-17.94,17.94c-3.47,3.47-3.47,9.08,0,12.55l11.1,11.1c3.47,3.47,9.08,3.47,12.55,0l17.94-17.94c2.6,10.6-.25,22.27-8.53,30.55-8.84,8.84-21.53,11.48-32.67,7.92l-15.08,15.08-7.85-7.84,2.61-2.62c1.45-1.45,1.45-3.79,0-5.23-1.44-1.45-3.78-1.45-5.23,0l-2.62,2.62-7.85-7.84ZM86.92,118.31l-2.62,2.61c-1.44,1.44-3.78,1.44-5.23,0-1.44-1.44-1.44-3.79,0-5.23l2.62-2.62-7.84-7.84-15.09,15.08c-11.14-3.56-23.83-.92-32.68,7.92-8.28,8.28-11.12,19.95-8.53,30.55l17.94-17.94c3.47-3.47,9.08-3.47,12.55,0l11.1,11.1c3.46,3.47,3.47,9.08,0,12.55l-17.94,17.94c10.6,2.59,22.27-.25,30.55-8.53,8.84-8.84,11.47-21.53,7.92-32.68l15.08-15.08-7.84-7.84ZM182.44,158.78l-17.94-17.94c-3.47-3.47-9.08-3.47-12.55,0l-11.1,11.1c-3.47,3.47-3.47,9.08,0,12.55l17.94,17.94c-10.6,2.59-22.26-.25-30.55-8.53-8.84-8.84-11.48-21.53-7.92-32.68l-61.55-61.55c-11.14,3.56-23.83.92-32.68-7.92-8.28-8.28-11.12-19.95-8.53-30.55l17.93,17.94c3.47,3.47,9.09,3.47,12.55,0l11.1-11.1c3.46-3.47,3.46-9.08,0-12.55l-17.94-17.94c10.6-2.59,22.27.25,30.55,8.53,8.84,8.84,11.47,21.53,7.92,32.68l61.55,61.55c11.14-3.56,23.83-.92,32.67,7.92,8.28,8.28,11.13,19.95,8.53,30.55ZM120.92,115.69l-36.61-36.61c-1.44-1.45-3.78-1.45-5.23,0-1.45,1.44-1.45,3.78,0,5.23l36.61,36.61c1.44,1.44,3.79,1.44,5.23,0,1.45-1.44,1.45-3.79,0-5.23Z"/>
</svg>