<?xml version="1.0" encoding="UTF-8"?>
<svg id="Capa_1" data-name="Capa 1" xmlns="http://www.w3.org/2000/svg" viewBox="0 0 200 200">
  <path d="M96.54,76.57c-7.16,27.4-.61,60.5,36.2,61.62-15.89-4.53-27.52-19.16-27.52-36.51,0-7.72,2.31-14.9,6.27-20.89-9.37-5.74-19.52-16.55-19.52-27.41,16,1.27,23.61,3.71,28.14,18.15,6.4-4.89,14.39-7.8,23.07-7.8,8.12,0,15.64,2.55,21.82,6.89,4.57-13.63,12.18-15.99,27.85-17.24,0,10.43-9.39,20.83-18.44,26.72,4.25,6.13,6.73,13.56,6.73,21.58,0,19.83-15.21,36.11-34.59,37.8l-.13.12h2.67v37.29h-11.79l-4.98-27.32c-1.26.65-2.55,1.27-3.88,1.84v25.48h-11.79l-3.77-20.7c-4.78.91-9.78,1.39-14.92,1.39-2.99,0-5.93-.16-8.81-.47v19.78h-11.78l-4.26-23.3c-1.57-.53-3.1-1.11-4.61-1.73v25.04h-11.78l-6.71-36.79c-5.08-4.76-8.98-10.29-11.39-16.33-1.13.13-2.26.17-3.39.12-3.36-.16-6.68-1.11-9.46-2.85-2.43-1.53-4.45-3.66-5.73-6.37-.04-.1-.13-.29-.26-.6h-.02c-.23-.54-.41-1.1-.58-1.65-7.2-3.09-11.97-15.42-11.99-15.47l7.67-3.04s2.23,5.67,4.53,8.86c1.02-3.05,2.96-5.55,5.32-6.67l.08-.03.14-.06.08-.03c2.48-1.04,4.65-.86,6.33.15,1.3.8,2.17,1.99,2.57,3.46h0c.29,1.08.3,2.31.01,3.58-.59,2.55-2.63,5.71-6.35,8.15.58,1.13,1.48,2.04,2.57,2.74,1.54.97,3.44,1.5,5.42,1.59.25.01.52.02.78.01-.32-1.96-.49-3.97-.49-6,0-23.38,21.66-42.85,50.33-47.08,2.41,5.6,5.95,10.18,10.35,14h0ZM144.69,101.33c-9.69,0-17.54,6-17.54,13.4s7.85,13.41,17.54,13.41,17.53-6.01,17.53-13.41-7.85-13.4-17.53-13.4ZM131.66,53.92c-3.73-4.18-2.3-7.41-.84-10.69,2.28-5.11,4.59-10.32-2.01-17.9-1.06-1.21-2.9-1.33-4.12-.27-1.2,1.05-1.32,2.9-.27,4.1,4.16,4.77,2.61,8.26,1.08,11.69-2.23,5.02-4.43,9.95,1.79,16.94,1.08,1.2,2.92,1.31,4.11.24,1.21-1.08,1.31-2.92.25-4.12h0ZM147.51,41.48c-1.79-1.89-1.11-3.82-.43-5.7,1.38-3.84,2.71-7.58-2.68-12.01-1.24-1.02-3.07-.84-4.09.4-1.02,1.24-.84,3.08.4,4.09,2.21,1.82,1.55,3.67.87,5.56-1.26,3.55-2.56,7.18,1.72,11.68,1.12,1.16,2.96,1.21,4.11.1,1.17-1.11,1.22-2.95.1-4.12h0ZM163.95,53.92c-3.71-4.18-2.28-7.41-.83-10.69,2.27-5.11,4.59-10.32-2.01-17.9-1.06-1.21-2.91-1.33-4.11-.27-1.21,1.05-1.33,2.9-.27,4.1,4.15,4.77,2.6,8.26,1.08,11.69-2.23,5.02-4.42,9.95,1.79,16.94,1.08,1.2,2.92,1.31,4.12.24,1.2-1.08,1.31-2.92.24-4.12h0ZM136.74,110.07c-2.8,0-5.08,2.27-5.08,5.07s2.27,5.08,5.08,5.08,5.08-2.27,5.08-5.08-2.27-5.07-5.08-5.07ZM152.62,110.07c-2.8,0-5.08,2.27-5.08,5.07s2.27,5.08,5.08,5.08,5.08-2.27,5.08-5.08-2.27-5.07-5.08-5.07Z"/>
</svg>