<?xml version="1.0" encoding="UTF-8"?>
<svg id="Capa_1" data-name="Capa 1" xmlns="http://www.w3.org/2000/svg" viewBox="0 0 200 200">
  <path d="M96.59,62.45h6.83v-4.66c0-2.38,1.71-4.09,4.09-4.09s4.05,1.71,4.05,4.09v17.07c0,2.38-1.67,4.09-4.05,4.09s-4.09-1.71-4.09-4.09v-5.12h-6.83v5.12c0,2.38-1.71,4.09-4.09,4.09s-4.05-1.71-4.05-4.09v-17.07c0-2.38,1.67-4.09,4.05-4.09s4.09,1.71,4.09,4.09v4.66ZM54.37,153.26h20.88v-20.88h-20.88v20.88ZM145.63,132.38h-20.88v20.88h20.88v-20.88ZM54.37,108.42h20.88v-20.88h-20.88v20.88ZM145.63,87.54h-20.88v20.88h20.88v-20.88ZM89.56,108.42h20.88v-20.88h-20.88v20.88ZM183.25,76.91l-7.02,7.02h-11.11v98.57H34.88v-98.57h-11.11l-7.02-7.02L100,17.5l30.64,21.86v-9.12h23.52v25.91l29.09,20.76ZM156.3,75.44l-56.3-39.06-56.29,39.06v98.23h42.6v-41.29h27.39v41.29h42.6v-98.23Z"/>
</svg>