<?xml version="1.0" encoding="UTF-8"?>
<svg id="Capa_1" data-name="Capa 1" xmlns="http://www.w3.org/2000/svg" viewBox="0 0 200 200">
  <path d="M82.67,93.74l22.4,28.51h4.9c5.2,0,9.41,4.21,9.41,9.41h0c0,5.2-4.21,9.41-9.41,9.41h-14.53c-2.64,0-5.13-1.22-6.75-3.3l-8.28-10.64-13.02,13.26,1.34,5.68c1.14,5.1-2.04,10.16-7.13,11.34h0c-5.24,1.21-10.44-2.16-11.46-7.44l-3.21-17c-.42-2.18.3-4.43,1.92-5.95l12.01-11.32-8.1-9.78-10.05,9.7c-2.17,2.09-5.63,2.01-7.69-.19l-10.19-10.83c-2.93-2.97-2.95-7.74-.05-10.74h0c3.01-3.11,7.99-3.13,11.02-.04l3.75,3.83,16.54-16.84c1.85-1.84,4.06-2.58,6.64-2.58h33.17c2.21,0,4.43.74,5.91,2.58l5.88,6.87c2.72,3.19,2.28,7.99-.97,10.63h0c-3.12,2.53-7.69,2.14-10.32-.9l-3.82-4.41-9.9.74ZM11.27,64.9c0,13.15,10.66,23.8,23.8,23.8,13.15,0,23.8-10.66,23.8-23.8,0-13.15-10.66-23.8-23.8-23.8-13.15,0-23.8,10.66-23.8,23.8ZM56.41,164.14c0,2.71,2.13,4.88,4.76,4.88s4.77-2.18,4.77-4.88-2.12-4.88-4.77-4.88c-2.63,0-4.76,2.18-4.76,4.88ZM66.35,164.14c0,2.71,2.14,4.88,4.77,4.88s4.77-2.18,4.77-4.88c0-2.69-2.14-4.88-4.77-4.88-2.63,0-4.77,2.18-4.77,4.88ZM46.47,164.14c0,2.71,2.14,4.88,4.76,4.88s4.77-2.18,4.77-4.88c0-2.69-2.12-4.88-4.77-4.88-2.62,0-4.76,2.18-4.76,4.88ZM125.51,136.45c2.71,0,4.88-2.13,4.88-4.76s-2.18-4.77-4.88-4.77c-2.69,0-4.88,2.12-4.88,4.77,0,2.63,2.18,4.76,4.88,4.76ZM125.51,126.5c2.71,0,4.88-2.14,4.88-4.77s-2.18-4.77-4.88-4.77c-2.69,0-4.88,2.14-4.88,4.77,0,2.63,2.18,4.77,4.88,4.77ZM125.51,146.39c2.71,0,4.88-2.14,4.88-4.76s-2.18-4.77-4.88-4.77c-2.69,0-4.88,2.12-4.88,4.77,0,2.62,2.18,4.76,4.88,4.76ZM182.36,168.44h9.86V34.76h-9.86v133.68ZM177.66,42.06c-3.12-3.99-12.14-13.39-27.94-13.39,0,0-19.61.89-25.62,11.36,0,0,31.64,5.79,40.33,36.99,0,0-15.37,1.56-21.39-16.49,0,0-20.27,31.19,13.82,54.81,0,0-7.56,4.24-13.47-3.21,0,0-5.13-6.97-15.39-3.29,0,0,5.52,2.61,6.1,9.48,0,0-1.06,29.3,25.74,32.36,0,0-1.55,2-9.97.93,0,0,3.77,15.77,23.32,13.16,0,0-7.65-1.45-9.49-7.06,0,0,9.77-2.42,12.29-12.29,0,0-19.11,4.79-23.08-11.83,0,0,18.57-4.31,24.71-22.55,0,0-21.39,1.98-21.06-16.66,0,0,13.15,2.9,22.34-2.75,0,0-5.92-38.94-29.3-50.39,0,0,11.77-4.28,27.34,1.77.58.23,1.1-.45.72-.95Z"/>
</svg>