<?xml version="1.0" encoding="UTF-8"?>
<svg id="Capa_1" data-name="Capa 1" xmlns="http://www.w3.org/2000/svg" viewBox="0 0 200 200">
  <path d="M79.72,109.42c-14.29,0-25.87-11.58-25.87-25.87s11.58-25.87,25.87-25.87,25.87,11.58,25.87,25.87-11.58,25.87-25.87,25.87ZM96.94,177.49c4.41-2.96,5.59-8.99,2.63-13.4l-5.45-7.79c-.35.32-.71.62-1.08.89l-14.46,10.59,4.97,7.07c2.96,4.41,8.99,5.59,13.4,2.63ZM82.11,180.48c-2.99,0-5.42,2.43-5.42,5.42s2.43,5.42,5.42,5.42,5.42-2.43,5.42-5.42-2.43-5.42-5.42-5.42ZM89.05,155.85c3.51-2.7,5.79-6.92,5.79-11.66v-15.29c0-7.16-5.19-13.17-12-14.45-.12-.03-.24-.06-.37-.09l-30.3-6.85,2.59,15.56,10.65,1.77v3.96h-18.76c-3.67,0-6.68,3.01-6.68,6.68s3.01,6.68,6.68,6.68h18.76v2.03c0,1.69.3,3.31.84,4.83l-5.29,4.22c-.8.58-1.47,1.28-2.01,2.04-.98.88-1.8,1.97-2.37,3.25l-3.42,7.74c-2.15,4.86.07,10.59,4.93,12.73,4.86,2.15,10.59-.07,12.73-4.93l2.7-6.1,13.81-10.46c.66-.48,1.23-1.05,1.72-1.66ZM93.74,180.48c-2.99,0-5.42,2.43-5.42,5.42s2.43,5.42,5.42,5.42,5.42-2.43,5.42-5.42-2.43-5.42-5.42-5.42ZM47.25,180.48c-2.99,0-5.42,2.43-5.42,5.42s2.43,5.42,5.42,5.42,5.42-2.43,5.42-5.42-2.43-5.42-5.42-5.42ZM105.36,180.48c-2.99,0-5.42,2.43-5.42,5.42s2.43,5.42,5.42,5.42,5.42-2.43,5.42-5.42-2.43-5.42-5.42-5.42ZM52.16,156.26c1.68-.27,2.82-1.85,2.55-3.53l-.89-5.38h-6.25l1.05,6.36c.27,1.68,1.85,2.82,3.53,2.55ZM58.88,180.48c-2.99,0-5.42,2.43-5.42,5.42s2.43,5.42,5.42,5.42,5.42-2.43,5.42-5.42-2.43-5.42-5.42-5.42ZM70.51,180.48c-2.99,0-5.42,2.43-5.42,5.42s2.43,5.42,5.42,5.42,5.42-2.43,5.42-5.42-2.43-5.42-5.42-5.42ZM44.09,125.75h5.82L30.44,7.39c-.27-1.68-1.85-2.82-3.53-2.55-1.68.27-2.82,1.85-2.55,3.53l19.32,117.4c.14,0,.28-.02.42-.02ZM185.65,60.02c-19.27,8.46-51.45,4.36-68.44-3.21-33.48-14.93-63.28-1.29-72.76,3.84l-8.55-51.93C58.22,2.5,85.8-.78,101.8,5.3c24.79,9.42,47.53,14.8,76.99,8.57-9.05,18.53-.3,38.98,6.86,46.15ZM126.03,23.18c-.06-.08-.1-.16-.17-.24-1.82-2.57-4.26-4.11-7.34-4.63-2.41-.41-4.7-.07-6.88,1-2.16,1.08-3.81,2.66-4.96,4.76-.41-2.36-1.46-4.4-3.17-6.13-1.69-1.72-3.74-2.8-6.15-3.2-2.52-.43-4.86-.06-7.03,1.08-.48.25-.98.55-1.44.88-1.59,1.13-2.79,2.51-3.59,4.12-.48.99-.83,2.06-1.03,3.23-.37,2.19-.15,4.25.64,6.16.35.81.78,1.57,1.3,2.32.64.88,1.33,1.64,2.11,2.27.21.16.43.33.66.5,1.33.93,2.87,1.54,4.6,1.84.64.11,1.22.26,1.81.45,1.67.55,3.13,1.44,4.37,2.68,1.7,1.68,2.75,3.7,3.16,6.06,1.15-2.09,2.78-3.66,4.94-4.69,2.15-1.03,4.43-1.34,6.88-.93,3.07.52,5.89-.12,8.44-1.94.09-.05.16-.11.24-.17,2.43-1.79,3.88-4.19,4.39-7.2.5-2.98-.09-5.73-1.79-8.22ZM102.78,20.72c1.46,2,2.03,4.25,1.61,6.71-.46,2.74-2.52,5.11-3.59,5.89-2,1.46-4.24,1.98-6.68,1.59-2.48-.39-4.43-1.58-5.89-3.59-1.46-2.01-2-4.23-1.61-6.71.38-2.44,1.56-4.41,3.56-5.88,2.01-1.46,4.25-1.97,6.71-1.61,2.46.41,4.43,1.58,5.89,3.59ZM99.11,22.06c-.06.38.02.77.26,1.1.26.35.59.52.99.61.4.04.8-.04,1.12-.28.33-.24.53-.59.58-.97.07-.42-.02-.77-.28-1.12-.24-.33-.56-.54-.97-.58-.39-.09-.77.02-1.09.26-.33.24-.54.56-.61.98ZM95.57,19.54c-.07.42.02.77.26,1.1.26.35.56.54.98.61.4.04.8-.04,1.1-.26.35-.26.55-.61.61-.98.07-.42-.02-.77-.28-1.12-.24-.32-.54-.52-.96-.58-.39-.09-.77.02-1.12.28-.3.22-.52.54-.58.96ZM91.22,20.06c-.06.37.02.77.26,1.1.26.35.59.53.98.61.4.04.8-.04,1.12-.28.33-.24.52-.59.58-.97.07-.42-.02-.77-.28-1.12-.24-.33-.56-.55-.96-.58-.39-.09-.77.02-1.1.26-.33.24-.54.56-.61.99ZM88.43,24.21c.26.35.56.54.96.63.43.02.8-.04,1.12-.28.35-.26.52-.59.58-.96.09-.44,0-.79-.25-1.15-.24-.33-.56-.55-.99-.56-.39-.09-.74,0-1.1.26-.32.24-.52.54-.61.98-.06.38.05.75.29,1.08ZM90.28,28.79c.32-.24.52-.59.58-.97.07-.42-.02-.77-.28-1.12-.24-.33-.56-.55-.96-.58-.39-.09-.77.02-1.1.26-.32.24-.55.56-.61.99-.06.37.02.77.26,1.1.26.35.59.53.98.61.4.04.8-.04,1.12-.28ZM93.24,31.37c.07-.47-.02-.82-.25-1.14-.26-.35-.56-.54-1.01-.59-.4-.09-.75,0-1.1.26-.33.24-.52.54-.61.98-.04.4.05.75.31,1.1.24.33.54.52.96.63.43.02.8-.04,1.12-.28.35-.26.53-.59.59-.96ZM97.18,31.44c-.24-.33-.56-.55-.99-.56-.39-.09-.75,0-1.1.26-.33.24-.52.54-.61.99-.06.37.05.75.28,1.08.26.35.56.55.96.63.43.02.8-.04,1.12-.28.35-.26.52-.59.58-.96.09-.44,0-.79-.25-1.14ZM99.05,26.59c.15-.99-.09-1.89-.66-2.67-.59-.81-1.36-1.29-2.34-1.45-.99-.15-1.91.06-2.69.63-.79.57-1.27,1.38-1.43,2.37-.16.98.04,1.88.63,2.69.57.79,1.38,1.27,2.37,1.43.98.16,1.88-.09,2.67-.66.79-.57,1.29-1.36,1.45-2.34ZM100.99,29.66c-.24-.33-.55-.52-.97-.58-.42-.07-.77.02-1.12.28-.33.24-.52.54-.58.96-.07.42.02.77.26,1.09.26.35.56.55.98.61.4.04.77-.02,1.1-.26.35-.26.52-.59.61-.98.07-.42-.02-.77-.28-1.12ZM102.88,25.7c-.24-.32-.56-.54-.96-.58-.42-.07-.77.02-1.12.28-.32.24-.52.54-.58.96-.09.39.02.77.26,1.1.26.35.56.54.98.61.4.04.77-.02,1.1-.26.35-.26.52-.59.61-.98.07-.42-.02-.77-.28-1.12Z"/>
</svg>