<?xml version="1.0" encoding="UTF-8"?>
<svg id="Capa_1" data-name="Capa 1" xmlns="http://www.w3.org/2000/svg" viewBox="0 0 200 200">
  <path d="M169.65,115.98c-9.31-6.99-18.61-6.99-27.92,0-9.31-6.99-18.61-6.99-27.92,0-9.31-6.99-18.61-6.99-27.92,0-9.31-6.99-18.61-6.99-27.92,0-9.31-6.99-18.61-6.99-27.92,0h-.02c9.47-29.54,37.15-50.91,69.82-50.91s60.36,21.38,69.82,50.91M99.85,62.44c1.33,0,2.64.05,3.96.11v-2.26c0-2.18-1.77-3.96-3.96-3.96s-3.96,1.77-3.96,3.96v2.26c1.31-.07,2.63-.11,3.95-.11ZM95.9,113.9v30.54h7.91v-30.54c-2.64-.64-5.27-.64-7.91,0ZM105.13,168.02v-19.42c0-.59-.48-1.07-1.07-1.07h-8.42c-.59,0-1.07.48-1.07,1.07v19.42c0,2.46-2.12,4.44-4.63,4.19-2.19-.21-3.79-2.18-3.79-4.38v-3.37c0-3.14-2.75-5.65-5.97-5.23-2.66.34-4.58,2.73-4.58,5.42v2.98c0,8.26,6.76,15.3,15.02,15.16,8.03-.13,14.52-6.71,14.52-14.77ZM85.24,17.21s-6.69,9.5-6.69,13.2,3,6.69,6.69,6.69,6.69-3,6.69-6.69-6.69-13.2-6.69-13.2ZM55.71,17.21s-6.69,9.5-6.69,13.2,3,6.69,6.69,6.69,6.69-3,6.69-6.69-6.69-13.2-6.69-13.2ZM26.19,17.21s-6.69,9.5-6.69,13.2,3,6.69,6.69,6.69,6.69-3,6.69-6.69-6.69-13.2-6.69-13.2ZM108.07,30.4c0,3.7,3,6.69,6.69,6.69s6.69-3,6.69-6.69-6.69-13.2-6.69-13.2c0,0-6.69,9.5-6.69,13.2ZM137.59,30.4c0,3.7,3,6.69,6.69,6.69s6.69-3,6.69-6.69-6.69-13.2-6.69-13.2c0,0-6.69,9.5-6.69,13.2ZM167.12,30.4c0,3.7,3,6.69,6.69,6.69s6.69-3,6.69-6.69-6.69-13.2-6.69-13.2c0,0-6.69,9.5-6.69,13.2ZM26.19,69.9s-6.69,9.5-6.69,13.2,3,6.69,6.69,6.69,6.69-3,6.69-6.69-6.69-13.2-6.69-13.2ZM167.12,83.1c0,3.7,3,6.69,6.69,6.69s6.69-3,6.69-6.69-6.69-13.2-6.69-13.2c0,0-6.69,9.5-6.69,13.2ZM70.64,43.56s-6.69,9.5-6.69,13.2,3,6.69,6.69,6.69,6.69-3,6.69-6.69-6.69-13.2-6.69-13.2ZM41.12,43.56s-6.69,9.5-6.69,13.2,3,6.69,6.69,6.69,6.69-3,6.69-6.69-6.69-13.2-6.69-13.2ZM123,56.75c0,3.7,3,6.69,6.69,6.69s6.69-3,6.69-6.69-6.69-13.2-6.69-13.2c0,0-6.69,9.5-6.69,13.2ZM152.52,56.75c0,3.7,3,6.69,6.69,6.69s6.69-3,6.69-6.69-6.69-13.2-6.69-13.2c0,0-6.69,9.5-6.69,13.2Z"/>
</svg>