<?xml version="1.0" encoding="UTF-8"?>
<svg id="Capa_1" data-name="Capa 1" xmlns="http://www.w3.org/2000/svg" viewBox="0 0 200 200">
  <path d="M111.75,167.54v-17.62H35.39v-5.87h76.35v-11.75h-15.98c.99-2,1.98-4,3-5.87h12.98v-20.95c.99-1.45,1.99-2.94,2.94-4.33,1-1.45,1.97-2.87,2.93-4.29v70.68h-5.87ZM161.15,50.2c-.61-.06-1.23.14-1.69.56-.46.41-.73,1-.73,1.62v21.19h-28.04c-1.52,4-3.48,7.88-5.71,11.75h33.75v62.59c0,1.08.78,2,1.84,2.16,5.61.89,9.9,5.75,9.9,11.6,0,6.49-5.27,11.75-11.75,11.75H29.52v-88.1h10.25c-2.24-3.87-4.2-7.74-5.71-11.75h-4.54c-6.49,0-11.74,5.25-11.74,11.75v88.1c0,6.48,5.25,11.75,11.74,11.75h129.21c12.97,0,23.49-10.52,23.49-23.49v-88.1c0-12.16-9.24-22.16-21.08-23.37ZM129.37,91.2v76.35h5.87v-35.24h17.62v-5.87h-17.62v-11.75h17.62v-5.87h-17.62v-17.61h-5.87ZM35.39,132.3h33.6c-.99-2-1.97-4-2.99-5.87h-30.61v5.87ZM82.38,132.3c.96,0,1.85-.55,2.25-1.42,16.79-35.76,38.86-51.56,38.86-75.28S105.08,14.84,82.38,14.84s-41.11,18.26-41.11,40.77c0,23.71,22.08,39.52,38.86,75.28.4.87,1.29,1.42,2.25,1.42ZM58.89,55.94c0-12.97,10.52-23.49,23.49-23.49s23.49,10.52,23.49,23.49-10.52,23.49-23.49,23.49-23.49-10.52-23.49-23.49ZM94.66,43.5c-3.5-3.42-7.72-5.05-12.63-5.04-4.91.11-9.09,1.84-12.51,5.33-3.42,3.5-5.05,7.72-4.99,12.58.06,4.96,1.84,9.09,5.34,12.51,3.5,3.42,7.67,5.1,12.63,5.04,4.86-.06,9.05-1.79,12.46-5.29,1.83-1.87,5.05-7.15,5.05-12.63,0-4.91-1.84-9.09-5.34-12.51ZM88.84,45.2c.55-.57,1.25-.9,2.04-.86.8-.06,1.5.26,2.07.82.61.6.9,1.25.91,2.09.01.75-.26,1.5-.82,2.07-.55.57-1.3.86-2.09.91-.8-.04-1.5-.26-2.12-.86-.57-.56-.85-1.3-.86-2.05,0-.84.31-1.54.86-2.11ZM89.35,56.13c.02,1.96-.71,3.65-2.05,5.03-1.34,1.37-3.01,2.14-4.97,2.16-1.97.02-3.7-.66-5.07-2-1.42-1.38-2.09-3.06-2.11-5.02-.02-1.96.65-3.7,2-5.07,1.34-1.37,3.05-2.09,5.02-2.12,1.96-.02,3.6.66,5.02,2.05,1.37,1.34,2.13,3.01,2.16,4.97ZM81.09,41.5c.6-.61,1.29-.95,2.09-.91.85,0,1.5.27,2.07.82.62.6.9,1.25.92,2.09,0,.75-.26,1.5-.86,2.11-.5.52-1.25.81-2.05.87-.84,0-1.5-.26-2.11-.86-.57-.55-.86-1.2-.86-2.05-.01-.84.31-1.54.82-2.07ZM72.84,43.89c.55-.57,1.26-.9,2.05-.86.8-.06,1.5.26,2.07.82.62.6.9,1.25.92,2.09,0,.75-.26,1.5-.82,2.07-.56.57-1.3.85-2.09.91-.8-.04-1.5-.26-2.11-.86-.57-.55-.86-1.3-.86-2.05-.01-.84.3-1.55.86-2.11ZM67.02,52.97c.03-.89.31-1.55.86-2.11.61-.62,1.25-.9,2.05-.86.84-.11,1.54.21,2.11.77.62.6.9,1.25.87,2.14,0,.74-.22,1.45-.82,2.06-.56.57-1.25.81-2.09.91-.8-.04-1.45-.31-2.07-.91-.57-.55-.9-1.25-.91-2ZM70.93,64.19c-.8-.03-1.5-.26-2.11-.86-.57-.55-.86-1.3-.86-2.05-.02-.84.31-1.55.86-2.11.55-.57,1.25-.9,2.05-.86.8-.06,1.5.26,2.07.82.61.6.9,1.25.91,2.09.01.75-.26,1.5-.81,2.07-.56.57-1.3.86-2.09.91ZM78.79,69.38c-.55.57-1.25.81-2.09.92-.85-.09-1.5-.36-2.07-.91-.61-.6-.9-1.25-.96-2.05.04-.89.31-1.54.86-2.11.6-.61,1.25-.9,2.05-.86.89-.06,1.54.21,2.16.81.57.55.86,1.21.87,2.14,0,.75-.22,1.45-.82,2.07ZM87.36,70.36c-.55.57-1.25.81-2.09.91-.8-.03-1.45-.31-2.07-.91-.57-.55-.9-1.25-.9-2,.03-.89.3-1.55.86-2.11.6-.61,1.25-.9,2.05-.86.84-.1,1.54.22,2.11.77.62.6.9,1.25.87,2.14,0,.75-.22,1.45-.82,2.07ZM94.18,65.65c-.56.57-1.25.81-2.05.87-.84,0-1.5-.27-2.11-.87-.57-.55-.86-1.2-.86-2.04-.01-.84.26-1.5.82-2.07.6-.61,1.25-.9,2.09-.91.84-.01,1.5.26,2.07.82.61.6.9,1.25.9,2.09-.03.8-.26,1.5-.86,2.11ZM94.51,58.22c-.84,0-1.49-.27-2.11-.86-.57-.56-.9-1.25-.86-2.05-.01-.84.26-1.5.81-2.07.6-.62,1.25-.9,2.09-.91.8-.06,1.5.26,2.07.81.62.6.9,1.26.92,2.09-.04.79-.26,1.5-.86,2.11-.56.57-1.25.81-2.05.87Z"/>
</svg>