<?xml version="1.0" encoding="UTF-8"?>
<svg id="Capa_1" data-name="Capa 1" xmlns="http://www.w3.org/2000/svg" viewBox="0 0 200 200">
  <path d="M175.22,104.61l-4.62-2.62-12.51-19.31c-3.67-5.66-9.36-9.7-15.91-11.3l-17.21-4.19c-7.28-1.77-14.97-.37-21.15,3.86l-22.39,15.32c-2.1,1.44-3.92,3.26-5.36,5.36l-5.17,7.56c-2.57,3.76-2.41,8.59.06,12.17l-10.58,15.72-4.24-2.85c-6.79-4.57-16-2.77-20.57,4.02l-14.18,21.07c-4.38,6.51-2.66,15.33,3.85,19.72l4.03,2.71c-.8,4.85,1.19,9.94,5.53,12.86,5.93,3.99,13.97,2.42,17.96-3.51,3.01-4.47,2.85-10.14.05-14.37l16.19-24.05c2.5-3.72,1.52-8.76-2.2-11.26l10.53-15.65c4.28,1,8.96-.69,11.52-4.66l2.62-4.08,11.14-8.1-11.26,49.28-2.2,3.09c-4.63,6.5-3.22,15.5,3.18,20.27,6.57,4.89,15.87,3.46,20.65-3.18l2.76-3.83c1.7-2.36,2.86-5.05,3.4-7.91l2.51-13.17,9.21,12,.89,6.87c1.04,8.03,8.34,13.72,16.38,12.77,8.07-.96,13.85-8.25,12.93-16.33l-.85-7.46c-.38-3.35-1.52-6.57-3.33-9.42l-13.64-21.4,3.19-13.04,5.37,8.21c1.66,2.54,3.95,4.61,6.66,5.99l5.29,2.7c5.62,3.28,12.85,1.23,15.91-4.52,2.92-5.49.95-12.3-4.46-15.37M31.45,155.96c-.77,1.14-2.31,1.44-3.45.68-1.14-.77-1.44-2.31-.68-3.45l13.22-19.64c.77-1.14,2.31-1.44,3.46-.68,1.14.77,1.44,2.31.67,3.45l-13.22,19.64ZM47.55,177.69c-2.05,3.04-6.18,3.85-9.22,1.8-3.04-2.05-3.85-6.18-1.8-9.22,2.05-3.04,6.18-3.85,9.22-1.8,3.04,2.05,3.85,6.18,1.8,9.22M92.9,179.05c-1.25,2.42-4.61,3.58-6.95,2.14-2.54-1.11-3.51-4.53-2.21-6.95,1.34-2.51,4.46-3.5,7-2.19,2.38,1.23,3.5,4.39,2.17,6.99M102.74,184.15c-1.25,2.42-4.61,3.58-6.95,2.15-2.54-1.11-3.51-4.53-2.21-6.95,1.34-2.51,4.46-3.5,7-2.19,2.38,1.23,3.5,4.39,2.17,6.99M83.06,173.95c-1.25,2.42-4.61,3.58-6.95,2.15-2.54-1.11-3.51-4.53-2.21-6.95,1.35-2.51,4.46-3.5,7-2.19,2.38,1.23,3.5,4.39,2.17,6.99M141.66,181.58c-.02,2.73-2.49,5.28-5.23,5.06-2.77.16-5.18-2.45-5.12-5.19.06-2.85,2.39-5.14,5.25-5.12,2.68.02,5.11,2.33,5.1,5.25M163.83,181.78c-.02,2.73-2.49,5.28-5.23,5.06-2.77.16-5.18-2.45-5.12-5.2.06-2.85,2.39-5.14,5.25-5.12,2.68.02,5.11,2.33,5.1,5.25M152.74,181.68c-.02,2.72-2.49,5.28-5.23,5.06-2.77.16-5.18-2.45-5.12-5.2.06-2.85,2.39-5.14,5.25-5.12,2.68.02,5.11,2.33,5.1,5.25M118.1,40.91c0-15.37,12.46-27.83,27.83-27.83s27.83,12.46,27.83,27.83-12.46,27.83-27.83,27.83-27.83-12.46-27.83-27.83"/>
</svg>