<?xml version="1.0" encoding="UTF-8"?>
<svg id="Capa_1" data-name="Capa 1" xmlns="http://www.w3.org/2000/svg" viewBox="0 0 200 200">
  <path d="M131.37,29.8c0-7.11-5.78-12.88-12.88-12.88h-36.99c-7.1,0-12.88,5.78-12.88,12.88v8.17h-5.4v130.35h73.55V37.97h-5.4v-8.17ZM103.23,78.11l-25-8.9,4.84-13.59,25,8.9-4.84,13.59ZM119.25,37.97h-38.5v-8.17c0-.4.36-.76.76-.76h36.99c.4,0,.76.35.76.76v8.17ZM63.22,37.71h-13.85v-7.16h13.85v7.16ZM150.62,37.71h-13.85v-7.16h13.85v7.16ZM23.63,173.24h19.69c0,5.44-4.41,9.85-9.84,9.85s-9.84-4.41-9.84-9.85ZM157.47,173.24h19.69c0,5.44-4.41,9.85-9.85,9.85s-9.84-4.41-9.84-9.85ZM190.94,50.95v104.39c0,7.17-5.81,12.98-12.98,12.98h-27.33V37.97h27.33c7.17,0,12.98,5.81,12.98,12.98ZM22.04,37.97h27.33v130.35h-27.33c-7.17,0-12.98-5.81-12.98-12.98V50.95c0-7.17,5.81-12.98,12.98-12.98Z"/>
</svg>