<?xml version="1.0" encoding="UTF-8"?>
<svg id="Capa_1" data-name="Capa 1" xmlns="http://www.w3.org/2000/svg" viewBox="0 0 200 200">
  <path d="M107.99,17.38c.53-.49,1.12-.74,1.88-.74.71,0,1.35.25,1.83.74.53.61.77,1.23.77,1.96,0,.8-.24,1.41-.77,1.9-.47.61-1.12.86-1.83.86-.77,0-1.35-.24-1.88-.86-.47-.49-.76-1.11-.76-1.9,0-.74.29-1.35.76-1.96ZM102.22,12.47c.53-.49,1.12-.8,1.88-.8.71,0,1.35.31,1.82.8.53.55.77,1.23.77,1.96s-.23,1.41-.77,1.9c-.47.55-1.12.8-1.82.8-.77,0-1.35-.25-1.88-.8-.47-.49-.77-1.17-.77-1.9s.29-1.41.77-1.96ZM94.74,12.17c.59-.49,1.18-.74,1.88-.74.77,0,1.35.25,1.88.74.53.61.77,1.23.77,1.96,0,.8-.24,1.41-.77,1.9-.53.61-1.12.86-1.88.86-.71,0-1.29-.25-1.88-.86-.47-.49-.76-1.1-.76-1.9,0-.74.3-1.35.76-1.96ZM88.68,17.08c.53-.49,1.12-.74,1.88-.74.71,0,1.35.25,1.82.74.53.61.77,1.23.77,1.96,0,.8-.24,1.41-.77,1.9-.47.61-1.12.86-1.82.86-.77,0-1.35-.25-1.88-.86-.47-.49-.76-1.11-.76-1.9,0-.74.29-1.35.76-1.96ZM87.26,28.55c-.47-.55-.76-1.17-.76-1.96,0-.74.29-1.35.76-1.9.53-.55,1.12-.8,1.88-.8.71,0,1.3.25,1.82.8.53.55.77,1.17.77,1.9,0,.8-.24,1.41-.77,1.96-.53.55-1.12.8-1.82.8-.77,0-1.35-.25-1.88-.8ZM94.62,35.61c-.47.55-1.12.8-1.83.8-.77,0-1.35-.25-1.88-.8-.47-.55-.77-1.17-.77-1.96,0-.74.29-1.35.77-1.9.53-.55,1.12-.8,1.88-.8.71,0,1.35.25,1.83.8.53.55.77,1.17.77,1.9,0,.8-.24,1.41-.77,1.96ZM101.86,38.62c-.47.55-1.12.8-1.82.8-.77,0-1.35-.25-1.88-.8-.47-.49-.77-1.17-.77-1.9s.29-1.41.77-1.96c.53-.49,1.12-.8,1.88-.8.71,0,1.35.31,1.82.8.53.55.77,1.23.77,1.96s-.24,1.41-.77,1.9ZM99.98,31.68c-1.71,0-3.24-.61-4.47-1.9-1.24-1.29-1.83-2.88-1.83-4.67s.59-3.38,1.83-4.66c1.24-1.29,2.77-1.96,4.47-1.96s3.24.67,4.47,1.96c1.24,1.29,1.88,2.88,1.88,4.66s-.65,3.38-1.88,4.67c-1.24,1.29-2.71,1.9-4.47,1.9ZM109.11,36.1c-.53.55-1.12.8-1.83.8-.77,0-1.35-.25-1.88-.8-.47-.49-.76-1.17-.76-1.96,0-.68.29-1.35.76-1.9.53-.55,1.12-.8,1.88-.8.71,0,1.3.24,1.83.8.53.55.77,1.23.77,1.9,0,.8-.24,1.47-.77,1.96ZM111.05,29.9c-.77,0-1.35-.25-1.88-.8-.47-.49-.77-1.17-.77-1.9s.29-1.41.77-1.96c.53-.49,1.12-.8,1.88-.8.71,0,1.35.31,1.83.8.53.55.76,1.23.76,1.96s-.24,1.41-.76,1.9c-.47.55-1.12.8-1.83.8ZM114.86,12.41c-.38-.48-.79-.95-1.22-1.4-.33-.35-.68-.69-1.04-1.01-3.5-3.15-7.97-4.88-12.6-4.88-.2,0-.41,0-.61.01-3.21.1-6.37,1.05-9.13,2.74-1.42.87-2.73,1.92-3.9,3.14-.43.44-.84.91-1.22,1.4-2.86,3.59-4.43,8.15-4.43,12.82,0,2.47.6,5.21,1.78,8.12,1.54,3.81,4.08,7.95,7.53,12.32.34.43.7.87,1.05,1.3,1.33,1.61,2.77,3.24,4.28,4.83,2.58,2.72,4.5,4.42,4.52,4.44l.13.11.19-.17c.38-.34,3.79-3.43,7.58-7.84.4-.46.79-.92,1.16-1.38.35-.43.71-.87,1.05-1.3,3.45-4.37,5.99-8.52,7.53-12.32,1.18-2.92,1.78-5.65,1.78-8.12,0-4.68-1.57-9.23-4.43-12.82ZM100,41.05c-8.4,0-15.21-7.1-15.21-15.86s6.81-15.86,15.21-15.86,15.21,7.1,15.21,15.86-6.81,15.86-15.21,15.86ZM100,194.87c-4.4,0-8.8-.46-13.07-1.37-4.16-.89-8.25-2.21-12.16-3.93-3.84-1.69-7.54-3.79-11-6.22-3.43-2.42-6.65-5.19-9.57-8.23-2.92-3.05-5.58-6.4-7.89-9.97-2.33-3.59-4.33-7.44-5.95-11.42-1.65-4.06-2.91-8.3-3.75-12.61-.87-4.42-1.31-8.98-1.31-13.54s.44-9.11,1.31-13.54c.85-4.31,2.11-8.55,3.75-12.61,1.62-3.98,3.62-7.83,5.95-11.42,2.31-3.56,4.96-6.92,7.89-9.97,2.93-3.05,6.15-5.82,9.57-8.23,3.46-2.44,7.16-4.53,11-6.22,3.91-1.72,8-3.05,12.16-3.93,4.28-.91,8.67-1.37,13.07-1.37s8.8.46,13.07,1.37c4.16.89,8.25,2.21,12.16,3.94,3.84,1.69,7.54,3.79,11,6.22,3.43,2.41,6.65,5.18,9.57,8.23,2.92,3.05,5.58,6.4,7.89,9.97,2.33,3.59,4.33,7.44,5.95,11.42,1.65,4.06,2.91,8.3,3.75,12.61.87,4.42,1.31,8.98,1.31,13.54s-.44,9.12-1.31,13.54c-.85,4.31-2.11,8.55-3.75,12.61-1.62,3.99-3.62,7.83-5.95,11.42-2.31,3.56-4.96,6.92-7.89,9.97-2.92,3.05-6.14,5.82-9.57,8.23-3.46,2.44-7.16,4.53-11,6.22-3.91,1.72-8,3.05-12.16,3.93-4.27.91-8.67,1.37-13.07,1.37ZM84.85,152.83c3.48,18.13,10.08,27.58,15.16,27.58s11.68-9.46,15.16-27.58h-30.32ZM55.61,152.83c4.88,9.38,12.29,16.92,21.3,21.73-2.64-6.11-4.72-13.44-6.13-21.73h-15.16ZM129.27,152.83c-1.42,8.29-3.49,15.62-6.13,21.73,9-4.82,16.42-12.36,21.3-21.73h-15.16ZM149.37,138.64c.77-3.7,1.16-7.41,1.16-11.07s-.39-7.35-1.15-11.07h-18.45c.28,3.77.41,7.48.41,11.07s-.14,7.3-.41,11.07h18.44ZM117,138.64c.29-3.71.43-7.42.43-11.07s-.14-7.36-.43-11.07h-34.01c-.29,3.71-.43,7.42-.43,11.07s.14,7.36.43,11.07h34.01ZM69.08,138.64c-.27-3.83-.41-7.54-.41-11.07s.14-7.29.41-11.07h-18.46c-.78,3.77-1.17,7.41-1.17,11.07s.38,7.3,1.17,11.07h18.45ZM144.41,102.31c-4.88-9.38-12.29-16.92-21.3-21.73,2.64,6.11,4.72,13.44,6.14,21.73h15.16ZM115.17,102.31c-3.48-18.13-10.09-27.58-15.16-27.58s-11.68,9.46-15.16,27.58h30.32ZM70.77,102.31c1.4-8.29,3.47-15.62,6.12-21.73-9.01,4.82-16.42,12.36-21.28,21.73h15.16Z"/>
</svg>