<?xml version="1.0" encoding="UTF-8"?>
<svg id="Capa_1" data-name="Capa 1" xmlns="http://www.w3.org/2000/svg" viewBox="0 0 200 200">
  <path d="M135.28,69.62l-9.08-9.85h-33.09l-8.51,9.16c-8.08,8.69-12.57,20.12-12.56,31.99l.02,47.73c0,11.09,9,20.08,20.09,20.08h35.45c11.09,0,20.08-8.99,20.09-20.08l.03-47.16c0-11.81-4.43-23.2-12.44-31.88ZM110.05,147.13c-17.31.11-31.64-14.08-31.74-31.46-.1-17.43,13.98-31.71,31.35-31.76,17.43-.06,31.58,13.91,31.79,31.38.2,17.22-14.11,31.73-31.4,31.84ZM134.09,50.4v-8.98c0-5.71-4.63-10.35-10.35-10.35h-27.73c-5.71,0-10.35,4.63-10.35,10.35v8.98c0,2.15,1.75,3.9,3.9,3.9h40.63c2.15,0,3.9-1.75,3.9-3.9ZM113.34,124.28l-12.88,10.5,2.99-17.01-15.97-10.46h28.83l13,27.47-15.97-10.5ZM108.17,105.88c3.39,0,6.13-2.75,6.13-6.13s-2.75-6.13-6.13-6.13-6.13,2.75-6.13,6.13,2.75,6.13,6.13,6.13ZM102.37,137.42c.85,0,1.54-.69,1.54-1.54s-.69-1.54-1.54-1.54-1.54.69-1.54,1.54.69,1.54,1.54,1.54ZM105.29,135.05c.85,0,1.54-.69,1.54-1.54s-.69-1.54-1.54-1.54-1.54.69-1.54,1.54.69,1.54,1.54,1.54ZM108.22,132.69c.85,0,1.54-.69,1.54-1.54s-.69-1.54-1.54-1.54-1.54.69-1.54,1.54.69,1.54,1.54,1.54ZM132.12,133.57c.37-.76.06-1.69-.71-2.06s-1.69-.06-2.06.71c-.37.76-.06,1.69.71,2.06.76.37,1.69.06,2.06-.71ZM130.54,130.16c.37-.76.06-1.69-.71-2.06-.76-.37-1.69-.06-2.06.71-.37.76-.06,1.69.71,2.06.76.37,1.69.06,2.06-.71ZM128.94,126.76c.37-.76.06-1.69-.71-2.06-.76-.37-1.69-.06-2.06.71-.37.76-.06,1.69.71,2.06s1.69.06,2.06-.71ZM188.15,147.8l-6.85-15.08c-.67-1.47-2.4-2.12-3.87-1.45l-.44.2-5.16-11.36c-2.6-5.72-9.4-8.27-15.12-5.67-5.72,2.6-8.27,9.4-5.67,15.12l5.16,11.36-.44.2c-1.47.67-2.12,2.4-1.45,3.87l6.67,14.69c3.3,7.26,11.71,10.99,19.13,8.06,7.93-3.14,11.54-12.26,8.06-19.93ZM170.59,129.78c.25,0,.44.21.44.46,0,.25-.21.44-.46.44-.25,0-.44-.21-.44-.46,0-.25.21-.44.46-.44ZM169.75,129.06c.25,0,.44.21.44.46s-.21.44-.46.44c-.25,0-.44-.21-.44-.46,0-.25.21-.44.46-.44ZM168.92,128.35c.25,0,.44.21.44.46,0,.25-.21.44-.46.44-.25,0-.44-.21-.44-.46,0-.25.21-.44.46-.44ZM159.83,122.51c.9-.41,1.96-.01,2.37.89.41.9.01,1.96-.89,2.37s-1.96.01-2.37-.89c-.41-.9-.01-1.96.89-2.37ZM155.98,128.65l7.67-3.48,6.78,5.73-5.52-.86-2.16,4.35-1.26-4.88-5.51-.85ZM163.47,133.65c-.1-.23,0-.49.22-.6.23-.1.49,0,.6.22.1.23,0,.49-.22.6-.23.1-.49,0-.6-.22ZM163.58,134.86c-.23.1-.49,0-.6-.22-.1-.23,0-.49.22-.6s.49,0,.6.22c.1.23,0,.49-.22.6ZM163.97,132.67c-.1-.23,0-.49.22-.6.23-.1.49,0,.6.22.1.23,0,.49-.22.6-.23.1-.49,0-.6-.22ZM177.96,161.22c-4.02,1.83-8.77.04-10.6-3.98l-5.24-11.53,14.58-6.62,5.24,11.53c1.83,4.02.04,8.77-3.98,10.6ZM57.31,142.68h-12.47v-.49c0-1.62-1.31-2.93-2.93-2.93h-16.14c-7.98,0-14.85,6.12-15.24,14.08-.42,8.52,6.39,15.58,14.81,15.58h16.57c1.62,0,2.93-1.31,2.93-2.93v-.49h12.47c6.28,0,11.42-5.14,11.42-11.42s-5.14-11.42-11.42-11.42ZM38.02,162.1h-12.67c-4.41,0-8.01-3.59-8.01-8.01s3.59-8.01,8.01-8.01h12.67v16.01ZM47.3,151.9c0-.25.2-.45.45-.45s.45.2.45.45-.2.45-.45.45-.45-.2-.45-.45ZM48.44,152.31c.25,0,.45.2.45.45s-.2.45-.45.45-.45-.2-.45-.45.2-.45.45-.45ZM49.13,153.16c.25,0,.45.2.45.45s-.2.45-.45.45-.45-.2-.45-.45.2-.45.45-.45ZM49.02,160.38c-.11.22-.38.32-.6.21-.22-.11-.32-.38-.21-.6.11-.22.38-.32.6-.21.22.11.32.38.21.6ZM50.02,159.92c-.11.22-.38.32-.6.21-.22-.11-.32-.38-.21-.6.11-.22.38-.32.6-.21.22.11.32.38.21.6ZM51.01,159.46c-.11.22-.38.32-.6.21-.22-.11-.32-.38-.21-.6.11-.22.38-.32.6-.21.22.11.32.38.21.6ZM56.09,155.97l-8.02,3.8,3.07-4.67-3.07-3.76,4.97.87,3.06-4.67v8.42ZM58.3,155.39c-.99,0-1.79-.8-1.79-1.79s.8-1.79,1.79-1.79,1.79.8,1.79,1.79-.8,1.79-1.79,1.79Z"/>
</svg>