<?xml version="1.0" encoding="UTF-8"?>
<svg id="Capa_1" data-name="Capa 1" xmlns="http://www.w3.org/2000/svg" viewBox="0 0 200 200">
  <path d="M54.19,83.33c-16.85,0-30.5-13.97-30.5-31.21,0-17.25,13.65-31.24,30.5-31.24,16.85,0,30.52,13.99,30.52,31.24,0,17.24-13.66,31.21-30.52,31.21ZM37.57,172.16v5.05c0,1.05.83,1.91,1.86,1.91s1.87-.85,1.87-1.91v-5.05c0-1.04-.84-1.9-1.87-1.9-1.03,0-1.86.86-1.86,1.9ZM67.01,172.16v5.05c0,1.05.83,1.91,1.86,1.91s1.87-.85,1.87-1.91v-5.05c0-1.04-.84-1.9-1.87-1.9s-1.86.86-1.86,1.9ZM5.42,110.87v23.35c0,5.13,4.06,9.31,9.1,9.31s9.09-4.18,9.09-9.31v-23.35h3.8v45.49c0,6.88,5.44,12.45,12.16,12.45,6.72,0,12.16-5.58,12.16-12.45v-15.74h4.43v15.81c0,6.88,5.43,12.46,12.14,12.46,6.72,0,12.17-5.58,12.17-12.46v-45.67c2.5,0,4.89-.99,6.66-2.76l15.24-15.24h8.25c5.46,0,9.8-4.82,8.99-10.44-.41-2.87-2.21-5.21-4.64-6.55,1.44-1.03,2.17-3.69,1.69-7.28l-3.86.03.88,6.65c-.77-.28-1.58-.47-2.41-.56l-.82-6.33-13.09.12.8,6.18c-2.25.1-4.38,1.03-5.98,2.63l-9.48,9.48H27.41c-12.03,0-21.99,9.16-21.99,24.16ZM188.26,54.42c.08,9.57-2.94,18.45-8.12,25.68l1.85,3.38,1.46,2.67c7.03-8.67,11.21-19.75,11.11-31.78-.1-12.04-4.45-23.04-11.61-31.6l-1.42,2.69-1.8,3.41c5.29,7.15,8.45,15.97,8.52,25.55ZM98.31,66.1l20.03-.18-.19-21.94-20.03.18c-2.95.03-5.34,2.46-5.32,5.41l.1,11.21c.03,2.95,2.46,5.34,5.41,5.32ZM169.62,45.67l-4.37.04.16,17.68,4.37-.04c1.45-.01,2.62-1.21,2.61-2.65l-.11-12.42c-.01-1.45-1.21-2.62-2.65-2.61ZM158.9,21.84l-37.83,21.79.03,3.34,35.25-15.95.07,8.26-35.3,9.87.15,17.08,38.21,21.12c1.72.95,3.56-1.64,3.54-3.61l-.51-58.36c-.02-1.97-1.91-4.52-3.61-3.54ZM174.31,39.17c2.42,4.58,3.8,9.79,3.85,15.33.04,5.54-1.26,10.77-3.6,15.39l3.55,6.47c4.08-6.31,6.43-13.84,6.37-21.91-.06-8.07-2.53-15.57-6.72-21.81l-3.44,6.53Z"/>
</svg>