<?xml version="1.0" encoding="UTF-8"?>
<svg id="Capa_1" xmlns="http://www.w3.org/2000/svg" version="1.1" viewBox="0 0 200 200">
  <!-- Generator: Adobe Illustrator 29.0.0, SVG Export Plug-In . SVG Version: 2.1.0 Build 186)  -->
  <path d="M61.97,129.72h61.92l-3.18,17.26c-1.12,5.82-6.12,9.91-11.81,10.11l-.98,4.52c-.4,1.82-2.21,2.98-4.03,2.59-1.82-.4-2.98-2.21-2.59-4.03l1.02-4.68c-4.65-2.62-7.29-8.04-6.08-13.56l.49-1.9-11.44-2.33-5.24,23.8c-1.44,6.58-7.94,10.75-14.52,9.32-6.55-1.43-10.72-7.89-9.33-14.45l5.77-26.66ZM196.71,105.53v19.32H3.29v-19.32h193.43ZM55.1,109.88c0-.33-.21-.5-.63-.5h-8.95c-.41,0-.62.17-.63.5v10.64c0,.33.21.5.63.5h2.46c.41,0,.62-.16.62-.5v-3.39c0-.33.21-.5.62-.5h3.44c.41,0,.62-.16.63-.49v-1.86c0-.33-.21-.5-.63-.5h-3.44c-.41,0-.62-.16-.62-.49v-.54c0-.33.21-.5.62-.5h5.25c.41,0,.62-.17.63-.5v-1.86ZM70.29,109.88c0-.33-.21-.5-.63-.5h-2.28c-.41,0-.62.17-.63.5v10.64c0,.33.21.5.63.5h2.28c.41,0,.62-.16.63-.5v-10.64ZM93.86,109.88c0-.33-.21-.5-.63-.5h-2.33c-.41,0-.62.17-.62.5v5.37c0,.08-.03.12-.1.14-.07.02-.12-.01-.16-.09l-2.83-5.53c-.14-.25-.38-.38-.73-.39h-3.06c-.41,0-.62.17-.63.5v10.64c0,.33.21.5.63.5h2.33c.41,0,.62-.16.63-.5v-5.37c0-.08.03-.12.09-.14s.11.01.15.09l2.84,5.54c.14.25.38.38.72.38h3.06c.41,0,.62-.16.63-.5v-10.64ZM109.89,109.88c0-.33-.21-.5-.63-.5h-2.28c-.41,0-.62.17-.63.5v10.64c0,.33.21.5.63.5h2.28c.41,0,.62-.16.63-.5v-10.64ZM132.79,117.83c0-.6-.16-1.14-.49-1.62-.33-.48-.73-.85-1.23-1.12-.49-.27-1.03-.52-1.61-.76-.58-.23-1.13-.42-1.64-.56-.51-.14-.95-.3-1.31-.48-.36-.18-.56-.36-.6-.56,0-.03,0-.06,0-.09,0-.16.09-.31.3-.44.24-.16.55-.24.94-.24.49,0,.9.1,1.23.3.33.2.53.47.6.81.05.29.22.43.51.43.05,0,.11,0,.17-.02l2.38-.41c.37-.06.55-.25.54-.54-.03-.28-.09-.56-.2-.83-.11-.27-.29-.57-.54-.9-.26-.33-.57-.61-.95-.85-.37-.24-.88-.44-1.53-.6-.65-.17-1.38-.25-2.2-.25-.87,0-1.64.1-2.3.31-.66.21-1.15.46-1.48.75-.33.29-.6.61-.8.97-.2.35-.33.64-.37.86-.04.22-.06.4-.06.56,0,.71.21,1.32.64,1.83.43.51.96.9,1.59,1.16.63.27,1.26.49,1.91.68.64.18,1.21.38,1.69.58.49.21.76.43.83.67.01.04.02.08.02.11,0,.19-.14.37-.42.53-.33.19-.75.28-1.25.28s-.92-.11-1.26-.34c-.34-.23-.53-.53-.57-.93-.03-.3-.2-.45-.5-.45-.05,0-.12,0-.18.02l-2.36.41c-.36.06-.54.23-.54.51,0,.23.06.54.17.92.09.29.27.6.52.94.25.34.57.63.95.88.38.25.89.46,1.54.63.65.17,1.39.26,2.23.26.94,0,1.77-.1,2.49-.31.72-.21,1.27-.46,1.65-.75s.69-.61.94-.96c.24-.35.4-.63.47-.86.07-.22.1-.41.1-.56ZM155.11,109.88c0-.33-.21-.5-.62-.5h-2.33c-.41,0-.62.17-.63.5v4.16c0,.33-.21.5-.62.5h-2.01c-.41,0-.62-.17-.62-.5v-4.16c0-.33-.21-.5-.63-.5h-2.32c-.41,0-.62.17-.63.5v10.64c0,.33.21.5.63.5h2.32c.41,0,.62-.16.63-.5v-2.63c0-.33.21-.49.62-.49h2.01c.42,0,.62.17.62.49v2.63c0,.33.21.5.63.5h2.33c.41,0,.62-.16.62-.5v-10.64ZM35.89,27.33c-4.75,4.66-4.92,12.26-.36,17.11,3.97,4.23,15.82,16.38,24.54,25.31,6.32,6.46,9.17,15.54,7.69,24.45l-1.07,6.46,60.93.05.41-3.94c.38-3.65,2.61-6.85,5.9-8.47,11.18-5.51,37-18.23,46.95-23.18,6.06-3.01,8.52-10.37,5.49-16.42-3-6.01-10.29-8.47-16.33-5.52-5.58,2.73-12.66,6.23-19.72,9.79-.54,20.37-17.27,36.78-37.76,36.78s-37.79-16.95-37.79-37.79c0-.84.04-1.68.09-2.51-7-7.35-15.37-15.92-21.5-22.16-.84-.86-1.79-1.56-2.79-2.12l.81-9c.16-1.78-1.16-3.36-2.94-3.52s-3.36,1.16-3.52,2.94l-.72,8.05c-.26,0-.52.02-.78.04l-4.83-7.24c-.99-1.49-3.01-1.89-4.5-.9-1.48.99-1.89,3.01-.9,4.5l4.05,6.07c-.4.31-.8.63-1.17,1l-.2.2ZM112.58,85.75c18.66,0,33.79-15.13,33.79-33.79s-15.13-33.79-33.79-33.79-33.79,15.13-33.79,33.79,15.13,33.79,33.79,33.79ZM64.31,172.1c-1.82-.4-3.63.77-4.03,2.59l-1.86,8.55c-.4,1.82.77,3.63,2.59,4.03,1.82.4,3.63-.77,4.03-2.59l1.86-8.55c.4-1.82-.77-3.63-2.59-4.03Z"/>
</svg>