<?xml version="1.0" encoding="UTF-8"?>
<svg id="Capa_1" data-name="Capa 1" xmlns="http://www.w3.org/2000/svg" viewBox="0 0 200 200">
  <path d="M114.89,83.09h-29.77c-9.91,0-17.97,8.06-17.97,17.97v63.39c0,7.14,3.59,8.28,15.11,8.28h2.87s32.63,0,32.63,0c2.8,0,5.38-.04,7.59-.32,1.5-.19,2.84-.49,3.93-.98,1.77-.79,3.59-2.24,3.59-6.98v-63.39c0-4.39-1.59-8.42-4.22-11.55-3.3-3.92-8.24-6.42-13.75-6.42ZM121.61,150.86c-1.17,2.88-4.65,5.22-7.76,5.22-2.47,0-3.97-1.48-3.89-3.53-1.59,2.05-4.29,3.53-6.76,3.53s-3.97-1.48-3.89-3.53c-1.59,2.05-4.29,3.53-6.76,3.53s-3.97-1.48-3.89-3.53c-1.59,2.05-4.29,3.53-6.76,3.53-3.11,0-4.68-2.34-3.51-5.22,1.17-2.89,4.65-5.22,7.76-5.22,2.47,0,3.97,1.48,3.89,3.53,1.59-2.05,4.29-3.53,6.76-3.53s3.97,1.48,3.89,3.53c1.59-2.05,4.29-3.53,6.76-3.53s3.97,1.48,3.89,3.53c1.59-2.05,4.29-3.53,6.76-3.53,3.11,0,4.68,2.34,3.51,5.22ZM109.62,133.34l8.04,5.84c1.07.82,1.37,1.48,1,2.36,0,0-1.3,3.17-3.04,3.1h-24.81c-.12,0-.92,0-.92,0,0,0-1.43-.05-1.77-.15-.61-.18-1.04-.53-1.29-1.08-.24-.55-.16-1.47-.12-1.75.04-.28.29-1.01.51-1.38,1.06-1.86,16.28-17.55,16.28-17.55.5-.56,1.5-1.18,2.22-1.38l7.5-2.1c.72-.2,1.06.19.76.88l-4.91,11.18c-.3.68-.05,1.6.56,2.04ZM122.69,108.22c-.42.32-.94.52-1.51.52h-42.35c-.64,0-1.22-.25-1.67-.65-.5-.46-.83-1.11-.83-1.84,0-.84.42-1.58,1.05-2.03.02-.01.03-.03.04-.04.07-.05.14-.08.22-.12.07-.04.13-.08.21-.11.3-.13.63-.2.97-.2h42.35c1.38,0,2.49,1.12,2.49,2.49,0,.81-.39,1.52-.98,1.97ZM156.47,123.15c-.59-.22-1.23-.36-1.9-.36v-49.17c0-5.2-1.28-10.08-3.51-14.4-1.11-2.16-2.44-4.19-4-6.03l7.63-30.92.5-2.03c.08-.33.13-.65.14-.98.02-.49-.06-.96-.17-1.41-.44-1.67-1.73-3.07-3.53-3.51l-9.46-2.33h0c-.1-.02-.19-.02-.29-.04-2.51-.46-4.99,1.09-5.61,3.6l-4.46,18.07-2.24,9.09c-.46-.1-.93-.15-1.4-.22-1.69-.28-3.42-.48-5.19-.48h-3.9c-.23-5.71-2.66-10.8-6.4-14.36-3.37-3.2-7.8-5.17-12.67-5.17-10.08,0-18.3,8.34-19.02,18.9-.01.21-.05.42-.05.63h-3.9c-1.7,0-3.35.18-4.97.44-.54.09-1.09.15-1.62.26l-1.68-6.79-5.03-20.37c-.59-2.39-2.86-3.91-5.25-3.65-.22.02-.43.04-.65.09l-2.36.58-7.09,1.75c-2.61.64-4.21,3.29-3.56,5.9l8.14,32.95c-4.68,5.51-7.51,12.63-7.51,20.42v49.17c-.92,0-1.78.25-2.54.65-1.75.92-2.95,2.73-2.95,4.84h0v37.88h0c0,3.03,2.46,5.49,5.49,5.49,0,0,0,0,0,0h0c.09,17.27,14.19,16.46,31.58,16.46h45.96c17.39,0,31.49.81,31.58-16.46h0s0,0,0,0c3.03,0,5.49-2.46,5.49-5.49h0v-37.88h0c0-2.36-1.5-4.35-3.59-5.13ZM88.45,36.05c.04-.07.07-.14.12-.21.07-.11.14-.21.21-.32.39-.61.81-1.19,1.27-1.73.19-.22.4-.43.61-.64.09-.09.17-.19.26-.27.25-.24.51-.46.77-.68.06-.05.11-.1.17-.15,2.27-1.82,5.09-2.9,8.15-2.9,6.99,0,12.74,5.64,13.49,12.88h-26.98c.22-2.18.91-4.21,1.93-5.99ZM137.84,164.45c0,4.61-1.45,8-4.27,10.16-.69.53-1.43,1-2.28,1.38-3.6,1.6-8.26,1.73-13.54,1.73h-21.76s-10.88,0-10.88,0h-.96s-1.91,0-1.91,0c-8.95,0-20.09,0-20.09-13.27v-63.39c0-7.7,3.82-14.51,9.66-18.68,3.76-2.68,8.34-4.28,13.3-4.28h29.77c11.45,0,20.94,8.43,22.66,19.4.18,1.16.3,2.34.3,3.55v63.39ZM148.24,164.09c0,.46-.18.87-.48,1.17-.3.3-.72.49-1.18.49-.64,0-1.18-.37-1.46-.9-.12-.23-.21-.48-.21-.76v-83.52h0c0-.18-.02-.35-.03-.52-.03-1.56-.19-3.09-.49-4.57-.25-1.21-.61-2.37-1.02-3.51-2.12-5.84-6.31-10.7-11.71-13.64-3.58-1.95-7.69-3.06-12.05-3.06h-39.22c-5.23,0-10.1,1.6-14.13,4.33-6.73,4.55-11.16,12.25-11.16,20.97v83.52c0,.92-.74,1.66-1.66,1.66-.6,0-1.1-.33-1.39-.8-.16-.25-.27-.54-.27-.86v-83.52c0-15.78,12.84-28.62,28.62-28.62h39.22c15.78,0,28.62,12.84,28.62,28.62v83.52Z"/>
</svg>