<?xml version="1.0" encoding="UTF-8"?>
<svg id="Capa_1" data-name="Capa 1" xmlns="http://www.w3.org/2000/svg" viewBox="0 0 200 200">
  <path d="M174.75,70.95c-6.55-7.55-13.92-19.25-19.53-36.52-.41-1.25-1.56-2.11-2.88-2.11H61.18c-3.2,0-6.39.57-9.34,1.82-14.94,6.32-15.65,21.02-16.28,34.19-.55,11.57-1.08,22.49-9.66,29.29-15.54,12.3-19.18,32.83-15.89,47.72,2.55,11.57,9.28,19.72,17.99,21.81,1.41.34,2.98.55,4.71.55,6.92,0,16.33-3.39,27.8-15.58,1.89,1.92,4.52,3.12,7.43,3.12h76.18c2.69,0,5.13-1.03,6.98-2.7,3.57,3.94,8.86,6.26,14.95,6.26.19,0,.38,0,.56,0,9.48-.22,20-6.52,22.13-20.1,6.85-43.69-2.35-54.3-14-67.74ZM57.52,143.89c-10.35,11.97-20.13,17.55-27.71,15.74-5.77-1.38-10.35-7.35-12.25-15.96-2.68-12.13.29-29.82,13.14-39.99,11.34-8.98,12-22.79,12.59-34.98.74-15.39,1.84-24.76,14.24-28.4v103.6ZM60.95,43.33c0,.4-.32.72-.72.72s-.72-.32-.72-.72v-7.48c0-.8.65-1.45,1.45-1.45v8.93ZM142.86,34.4h2.89v8.93c0,.4-.32.72-.72.72h-1.44c-.4,0-.72-.32-.72-.72v-8.93ZM127.44,34.4h2.89v8.93c0,.4-.32.72-.72.72h-1.44c-.4,0-.72-.32-.72-.72v-8.93ZM130.36,110.28c-.41.83-1.41,1.18-2.24.77-.83-.4-1.18-1.41-.77-2.24s1.41-1.18,2.24-.77,1.18,1.41.77,2.24ZM125.62,105.11c.41-.83,1.41-1.18,2.24-.77s1.18,1.41.77,2.24-1.41,1.18-2.24.77-1.18-1.41-.77-2.24ZM119.73,34.4h2.89v8.93c0,.4-.32.72-.72.72h-1.44c-.4,0-.72-.32-.72-.72v-8.93ZM112.02,34.4h2.89v8.93c0,.4-.32.72-.72.72h-1.44c-.4,0-.72-.32-.72-.72v-8.93ZM104.31,34.4h2.89v8.93c0,.4-.32.72-.72.72h-1.44c-.4,0-.72-.32-.72-.72v-8.93ZM106.06,70.56c3.68,0,6.67,2.98,6.67,6.67s-2.98,6.67-6.67,6.67-6.67-2.98-6.67-6.67,2.98-6.67,6.67-6.67ZM96.6,34.4h2.89v8.93c0,.4-.32.72-.72.72h-1.44c-.4,0-.72-.32-.72-.72v-8.93ZM88.89,34.4h2.89v8.93c0,.4-.32.72-.72.72h-1.44c-.4,0-.72-.32-.72-.72v-8.93ZM65.77,34.4h2.89v8.93c0,.4-.32.72-.72.72h-1.44c-.4,0-.72-.32-.72-.72v-8.93ZM67,151.08c-2.47,0-4.47-2-4.47-4.47s2-4.47,4.47-4.47,4.47,2,4.47,4.47-2,4.47-4.47,4.47ZM76.37,43.33c0,.4-.32.72-.72.72h-1.44c-.4,0-.72-.32-.72-.72v-8.93h2.89v8.93ZM81.91,44.05c-.4,0-.72-.32-.72-.72v-8.93h2.89v8.93c0,.4-.32.72-.72.72h-1.44ZM99.75,118.17c-.92,0-1.67-.75-1.67-1.67s.75-1.67,1.67-1.67,1.67.75,1.67,1.67-.75,1.67-1.67,1.67ZM102.92,115.6c-.92,0-1.67-.75-1.67-1.67s.75-1.67,1.67-1.67,1.67.75,1.67,1.67-.75,1.67-1.67,1.67ZM106.1,113.03c-.92,0-1.67-.75-1.67-1.67s.75-1.67,1.67-1.67,1.67.75,1.67,1.67-.75,1.67-1.67,1.67ZM111.68,103.89l-14,11.42,3.25-18.48-17.36-11.37h31.33l14.13,29.85-17.36-11.42ZM132.08,113.98c-.4.83-1.41,1.18-2.24.77s-1.18-1.41-.77-2.24c.41-.83,1.41-1.18,2.24-.77s1.18,1.41.77,2.24ZM138.04,43.33c0,.4-.32.72-.72.72h-1.44c-.4,0-.72-.32-.72-.72v-8.93h2.89v8.93ZM145.33,151.08c-2.47,0-4.47-2-4.47-4.47s2-4.47,4.47-4.47,4.47,2,4.47,4.47-2,4.47-4.47,4.47ZM152.02,43.33c0,.4-.32.72-.72.72s-.72-.32-.72-.72v-8.93c.8,0,1.45.65,1.45,1.45v7.48ZM181.12,137.49c-1.54,9.8-8.87,13.44-14.68,13.57-4.51.09-10.18-1.92-11.88-7.86V52.58c4.75,8.88,9.9,18.28,14.36,23.43,10.74,12.39,18.5,21.34,12.2,61.48Z"/>
</svg>