<?xml version="1.0" encoding="UTF-8"?>
<svg id="Capa_1" data-name="Capa 1" xmlns="http://www.w3.org/2000/svg" viewBox="0 0 200 200">
  <path d="M55.53,11.88h95.44c5.83,0,10.61,4.77,10.61,10.6v152.9c0,5.83-4.78,10.6-10.61,10.6H55.53c-5.83,0-10.61-4.77-10.61-10.6V22.48c0-5.83,4.77-10.6,10.61-10.6M129.06,141.78c2.69-3.93,5.39-7.87,8.09-11.8,1.11-1.75.62-3.56-.98-5.41-4.38-4.39-8.76-8.77-13.13-13.16-2.12-1.79-3.9-2-5.47-1.11-2.86,1.7-5.71,3.4-8.57,5.1-12.3-13.1-16.54-24.93-16.52-37.48,2.9-1.63,5.8-3.25,8.7-4.87,1.56-.91,2.27-2.57,1.78-5.29-1.61-5.99-3.22-11.97-4.83-17.96-.8-2.31-2.12-3.64-4.2-3.55-4.76.37-9.51.73-14.27,1.1-4.21.25-4.98,1.72-5.03,4.81-.82,43.91,15.66,68.16,47.75,91.57,2.7,1.5,4.36,1.56,6.68-1.96M87.95,23.14h32.26v-3.76h-32.26v3.76ZM59.8,159.47h86.99V30.44H59.8v129.03Z"/>
</svg>