<?xml version="1.0" encoding="UTF-8"?>
<svg id="Capa_1" xmlns="http://www.w3.org/2000/svg" version="1.1" viewBox="0 0 200 200">
  <!-- Generator: Adobe Illustrator 29.0.0, SVG Export Plug-In . SVG Version: 2.1.0 Build 186)  -->
  <defs>
    <style>
      .st0 {
        fill-rule: evenodd;
      }
    </style>
  </defs>
  <path class="st0" d="M71.02,67.28h71.57c6.36,0,11.57,5.21,11.57,11.57v105.55c0,6.36-5.21,11.57-11.57,11.57h-71.57c-6.36,0-11.57-5.21-11.57-11.57v-105.55c0-6.36,5.21-11.57,11.57-11.57h0ZM89.86,177.17v10.48h32.35v-10.48h-32.35ZM77.41,121.83c-2.82,4.91-4.44,10.6-4.44,16.66s1.63,11.81,4.47,16.73l-8.8,12.36,5.06,5.06,12.87-7.19c5.57,4.11,12.43,6.53,19.86,6.53,7.82,0,15-2.68,20.7-7.17l14.02,7.83,5.05-5.06-9.91-13.92c2.31-4.55,3.62-9.7,3.62-15.16,0-4.7-.97-9.18-2.72-13.25l10.11-14.18-5.05-5.05-13.5,7.52c-5.92-5.29-13.74-8.51-22.31-8.51-7.78,0-14.95,2.66-20.65,7.13l-10.99-6.14-5.06,5.05,7.68,10.77h0ZM106.44,127.42c-3.05,0-5.81,1.25-7.82,3.25-2,2-3.24,4.76-3.24,7.82s1.24,5.83,3.24,7.83c2,2,4.76,3.24,7.82,3.24s5.83-1.24,7.82-3.24c2.01-2,3.25-4.77,3.25-7.83s-1.24-5.81-3.25-7.82c-1.99-2-4.76-3.25-7.82-3.25h0ZM111.72,133.22c-1.34-1.34-3.22-2.18-5.27-2.18s-3.92.83-5.26,2.18c-1.36,1.35-2.19,3.22-2.19,5.27s.83,3.92,2.19,5.27c1.34,1.34,3.21,2.18,5.26,2.18s3.93-.83,5.27-2.18c1.34-1.36,2.18-3.21,2.18-5.27s-.83-3.92-2.18-5.27h0ZM122.4,122.55c-4.09-4.07-9.73-6.6-15.96-6.6s-11.87,2.52-15.94,6.6c-4.08,4.07-6.61,9.71-6.61,15.94s2.53,11.86,6.61,15.95c4.07,4.09,9.72,6.61,15.94,6.61s11.87-2.52,15.96-6.61c4.08-4.08,6.6-9.72,6.6-15.95s-2.52-11.87-6.6-15.94h0ZM75.56,168.56c1.48,0,2.67-1.2,2.67-2.67s-1.19-2.68-2.67-2.68-2.67,1.2-2.67,2.68,1.2,2.67,2.67,2.67h0ZM139.29,168.56c1.47,0,2.67-1.2,2.67-2.67s-1.2-2.68-2.67-2.68-2.68,1.2-2.68,2.68,1.2,2.67,2.68,2.67h0ZM140.38,110.07c-1.48,0-2.67,1.2-2.67,2.68s1.19,2.67,2.67,2.67,2.67-1.2,2.67-2.67-1.2-2.68-2.67-2.68h0ZM76.66,110.07c-1.47,0-2.67,1.2-2.67,2.68s1.2,2.67,2.67,2.67,2.67-1.2,2.67-2.67-1.19-2.68-2.67-2.68h0ZM106.44,76c-3.46,0-6.59,1.4-8.85,3.67-2.27,2.26-3.67,5.39-3.67,8.85s1.4,6.58,3.67,8.85c2.26,2.27,5.39,3.67,8.85,3.67s6.59-1.4,8.85-3.67c2.27-2.27,3.67-5.4,3.67-8.85s-1.4-6.59-3.67-8.85c-2.26-2.27-5.39-3.67-8.85-3.67h0ZM112.41,82.56c-1.53-1.52-3.64-2.47-5.97-2.47s-4.43.95-5.96,2.47c-1.52,1.52-2.47,3.64-2.47,5.96s.95,4.44,2.47,5.96c1.53,1.52,3.64,2.47,5.96,2.47s4.44-.95,5.97-2.47c1.51-1.52,2.46-3.64,2.46-5.96s-.95-4.44-2.46-5.96ZM23.17,131.75c-3.84-4.88-14.17-3.31-15.68,1.74-2.09,6.96,2.08,11.84,8.71,11.84s10.79-4.52,10.79-8.71v-28.56c6.61,0,12.19,12.54,12.19,15.33s-4.87,11.84-1.39,8.01c7.63-8.39,5.58-18.11-1.04-24.38-6.62-6.27-10.81-10.45-10.81-10.45h-2.87l.09,35.18ZM162.86,4.03l-11.22,39.92c-2.98-7.26-16.08-8.92-19.67-3.29-4.95,7.76-1.55,15.13,6.5,17.42,8.06,2.28,14.71-1.79,16.15-6.87l7.61-26.83,21.41,13.06-6.32,22.51c-2.98-7.26-16.09-8.91-19.68-3.3-4.95,7.76-1.54,15.14,6.51,17.42,8.05,2.28,14.7-1.78,16.15-6.87l12.74-44.89-30.19-18.28ZM164.25,17.31l1.09-3.82,21.38,13.05-1.08,3.82-21.39-13.05ZM26.21,43.49l10.17,20.38c-3.9-1.85-9.84,2.31-9.22,5.92.84,4.98,4.95,6.73,9.07,4.69,4.12-2.04,5.32-6.15,4.04-8.75l-6.8-13.73,13.52-2.59,1.78,3.55c-3.89-1.85-9.83,2.31-9.22,5.92.85,4.98,4.96,6.73,9.08,4.68,4.12-2.04,5.32-6.15,4.03-8.75l-7.42-15.03-19.04,3.7ZM170.77,94.98l-7.42,15.03c-1.29,2.6-.08,6.71,4.03,8.75,4.12,2.04,8.23.29,9.08-4.68.62-3.61-5.33-7.78-9.23-5.92l1.78-3.56,13.52,2.59-6.8,13.73c-1.29,2.6-.09,6.71,4.04,8.75,4.12,2.04,8.22.3,9.07-4.68.62-3.61-5.32-7.77-9.22-5.92l10.17-20.38-19.03-3.7Z"/>
</svg>