<?xml version="1.0" encoding="UTF-8"?>
<svg id="Capa_1" data-name="Capa 1" xmlns="http://www.w3.org/2000/svg" viewBox="0 0 200 200">
  <path d="M183.77,89.52c.02.72-.01,1.46-.19,2.19l-2.45,9.64c-.74,3.1-3.12,5.4-6,6.19h-.02s-10.85,2.9-10.85,2.9c-4.79,1.21-7.1,4.04-7.1,10.91,0,5.78,8.4,5.66,10.79,25.12,0,0-3.34,1.26-6.58,2.21v19.78c0,6.11-5.5,11.03-11.79,10.03-4.99-.79-8.54-5.31-8.54-10.36v-15.63c-5.43.46-10.6.43-15.34-.05l-2.2,7.61.98,2.64c4.24,15.57-16.62,16.28-19.46,5.89l-1.57-8.26c-.31-1.23-.18-2.54.37-3.69l3.56-8.98-3.44-2.52s13.32-15.28,13.89-22.41c.62-7.91-2.74-12.09-2.71-18.89.05-9.79,3.21-8.93,1.99-14.37-.38-1.69-2.73-10.05-4.09-14.65-.58-1.95-.25-4.05.89-5.73l3.94-6.05c2.45-3.78,7.42-4.97,11.32-2.72h0c4.19,2.43,5.49,7.87,2.84,11.92l-3.47,5.3s5.66,7.68,7.13,9.14c4.81,8.84,14.18,14.86,24.93,14.86,9.56,0,18.02-4.77,23.15-12.05ZM160.62,48.21c-13.81,0-25,11.19-25,25s11.19,25,25,25,25-11.19,25-25-11.19-25-25-25h0ZM106.49,8.51l6.32,12.8c1.1,2.21.07,5.72-3.43,7.45-3.51,1.74-7.01.25-7.73-3.99-.52-3.07,4.54-6.62,7.85-5.04l-1.51-3.03-11.52,2.2,5.79,11.69c1.1,2.22.07,5.72-3.44,7.46-3.51,1.74-7.01.25-7.73-3.99-.53-3.08,4.53-6.62,7.85-5.04l-8.66-17.36,16.21-3.15ZM127.88,28.15l2.33,6.37-5.56.89,2.9,6.16c.88,1.78.06,4.59-2.76,5.99-2.82,1.4-5.64.2-6.21-3.21-.42-2.47,3.64-5.32,6.31-4.05l-5.21-10.71,8.2-1.43ZM117.25,187.1c2.41-2.24,2.56-5.99.32-8.41-2.24-2.41-6-2.53-8.4-.3-2.41,2.24-2.55,5.99-.31,8.39,2.24,2.41,5.98,2.55,8.4.31M130.13,184.46c2.42-2.25,2.57-5.99.31-8.42-2.25-2.43-6-2.56-8.42-.31-2.42,2.25-2.54,5.97-.29,8.4,2.25,2.43,5.97,2.58,8.39.33M147.69,190.58c2.81-1.7,3.73-5.35,2.03-8.16s-5.35-3.71-8.17-2.01c-2.82,1.7-3.72,5.34-2.02,8.15,1.7,2.82,5.34,3.72,8.16,2.02M160.84,190.63c2.83-1.71,3.73-5.34,2.02-8.18-1.71-2.84-5.35-3.73-8.18-2.02-2.83,1.71-3.71,5.32-2,8.16,1.71,2.84,5.32,3.74,8.15,2.04M23.65,173.55c-2.62,0-4.74,2.12-4.74,4.74s2.12,4.74,4.74,4.74,4.74-2.12,4.74-4.74-2.12-4.74-4.74-4.74ZM33.77,173.55c-2.62,0-4.74,2.12-4.74,4.74s2.12,4.74,4.74,4.74,4.74-2.12,4.74-4.74-2.12-4.74-4.74-4.74ZM43.9,173.55c-2.62,0-4.74,2.12-4.74,4.74s2.12,4.74,4.74,4.74,4.74-2.12,4.74-4.74-2.12-4.74-4.74-4.74ZM67.81,178c-2.62,0-4.74,2.12-4.74,4.74s2.12,4.74,4.74,4.74,4.74-2.12,4.74-4.74-2.12-4.74-4.74-4.74ZM77.94,178c-2.62,0-4.74,2.12-4.74,4.74s2.12,4.74,4.74,4.74,4.74-2.12,4.74-4.74-2.12-4.74-4.74-4.74ZM88.07,178c-2.62,0-4.74,2.12-4.74,4.74s2.12,4.74,4.74,4.74,4.74-2.12,4.74-4.74-2.12-4.74-4.74-4.74ZM55.49,87.81c14.72,0,26.64-11.93,26.64-26.64s-11.93-26.64-26.64-26.64-26.64,11.93-26.64,26.64,11.93,26.64,26.64,26.64ZM101.17,78.04c2.53-4.1,1.11-9.48-3.12-11.8l-.19-.1c-.33-.18-.66-.33-1-.46l1.66-2.52c.92-1.39.83-3.28-.35-4.45-1.59-1.57-4.14-1.23-5.31.54l-18.92,28.92-33.46,4.46c-1.4.19-2.75.67-3.96,1.41l-15.91,9.73c-4.6,2.83-6.98,8.19-6.01,13.5l2.01,10.97c.74,4.72,5.28,7.92,10.04,6.94,4.66-.96,7.47-5.78,6.43-10.43l-1.89-8.4,7.16-3.53v24.24l-11.22,19.26c-2.49,6.09.43,13.04,6.51,15.53,6.09,2.5,13.06-.42,15.55-6.52l12.94-23.47,7.56,7.62-2.46,14.55c-1.12,6.63,3.86,12.74,10.58,12.97h.3c6.12.22,10.54-4.44,11.83-10.36l3.71-17.12c.74-3.42.11-7-1.77-9.95l-5.31-8.37v-29.47l14.61-23.68Z"/>
</svg>