<?xml version="1.0" encoding="UTF-8"?>
<svg id="Capa_1" data-name="Capa 1" xmlns="http://www.w3.org/2000/svg" viewBox="0 0 200 200">
  <path d="M134.64,64.72c0-15.57,12.62-28.19,28.19-28.19s28.19,12.62,28.19,28.19-12.62,28.19-28.19,28.19-28.19-12.62-28.19-28.19ZM39.96,83.16c-4,4-4.67,10.06-2.03,14.77,5.06.83,8.41,2.58,11.03,3.96,2.52,1.32,3.78,1.99,7.26,1.99s4.74-.66,7.26-1.99c2.27-1.19,5.08-2.66,9.07-3.58l-15.15-15.15c-4.82-4.82-12.64-4.82-17.46,0ZM83.15,81.12l8.26-4.95,8.42,7.95-18.57,13.32c8.45.1,13.23,2.6,16.73,4.44,2.52,1.32,3.78,1.99,7.26,1.99s4.75-.66,7.26-1.99c3.58-1.88,8.47-4.45,17.25-4.45s13.67,2.57,17.25,4.45c2.52,1.32,3.79,1.99,7.27,1.99,1.52,0,2.6-.13,3.56-.38-12.82-11.28-51.36-45.19-56.78-49.81-2.57-2.17-4.19-1.95-6.77-.42-5.27,3.12-14.06,8.25-20.44,11.83-4.8,2.69-6.2,8.94-3.03,13.43,2.8,3.96,8.17,5.09,12.33,2.6ZM30.39,91.23c2.2-2.23,2.18-5.81-.04-8.02-2.23-2.2-5.81-2.18-8.02.04-2.2,2.23-2.18,5.81.04,8.02,2.23,2.2,5.81,2.18,8.02-.04ZM47.74,73.7c2.2-2.23,2.18-5.81-.04-8.02-2.23-2.2-5.81-2.18-8.02.04-2.2,2.23-2.18,5.81.04,8.02,2.23,2.2,5.81,2.18,8.02-.04ZM39.07,82.47c2.2-2.23,2.18-5.81-.04-8.02-2.23-2.2-5.81-2.18-8.02.04-2.2,2.23-2.18,5.81.04,8.02,2.23,2.2,5.81,2.18,8.02-.04ZM163.54,106.76c-2.74,1.44-4.72,2.48-9.26,2.48s-6.52-1.04-9.26-2.48c-3.36-1.76-7.53-3.96-15.25-3.96s-11.89,2.19-15.25,3.96c-2.74,1.44-4.72,2.48-9.26,2.48s-6.52-1.04-9.26-2.48c-3.36-1.76-7.53-3.96-15.25-3.96s-11.89,2.19-15.25,3.96c-2.74,1.44-4.72,2.48-9.26,2.48s-6.52-1.04-9.26-2.48c-3.36-1.76-7.53-3.96-15.25-3.96s-11.89,2.19-15.25,3.96c-2.35,1.24-4.16,2.17-7.49,2.42v12.9c6.6-.31,10.39-2.29,13.48-3.91,2.74-1.44,4.72-2.48,9.26-2.48s6.52,1.04,9.26,2.48c3.36,1.76,7.53,3.96,15.25,3.96s11.89-2.19,15.25-3.96c2.74-1.44,4.72-2.48,9.26-2.48s6.52,1.04,9.26,2.48c3.36,1.76,7.53,3.96,15.25,3.96s11.89-2.19,15.25-3.96c2.74-1.44,4.72-2.48,9.26-2.48s6.52,1.04,9.26,2.48c3.36,1.76,7.53,3.96,15.25,3.96s11.9-2.19,15.25-3.96c2.74-1.44,4.72-2.48,9.26-2.48v-12.88c-7.72,0-11.89,2.19-15.25,3.96ZM83.24,149.79c-4.04.05-7.8,1.32-10.91,3.45-5.83-4.48-13.12-7.15-21.04-7.15-8.38,0-16.06,2.99-22.04,7.95-.47.39-.47,1.1,0,1.49,5.98,4.96,13.66,7.95,22.04,7.95,7.92,0,15.21-2.67,21.04-7.15,3.11,2.13,6.86,3.4,10.91,3.45-.48-1.58-.73-3.25-.73-4.99s.25-3.41.73-4.99ZM39.86,156.1c-.53,0-.96-.43-.96-.96,0-.79-.64-1.43-1.43-1.43s-1.43.64-1.43,1.43c0,.53-.43.96-.96.96s-.96-.43-.96-.96c0-1.85,1.5-3.35,3.35-3.35s3.35,1.5,3.35,3.35c0,.53-.43.96-.96.96ZM170.72,142.19c0,1.74.25,3.41.73,4.99-4.04-.05-7.79-1.32-10.91-3.45-5.83,4.49-13.12,7.15-21.04,7.15-3.7,0-7.25-.58-10.59-1.66v-4.22c.86-.66,1.4-1.69,1.4-2.81,0-1.95-1.58-3.53-3.53-3.53s-3.53,1.58-3.53,3.53c0,1.12.53,2.15,1.4,2.81v2.53c-2.59-1.24-5-2.78-7.18-4.6-.47-.39-.47-1.1,0-1.49,5.98-4.96,13.66-7.95,22.04-7.95,7.92,0,15.21,2.67,21.04,7.15,3.11-2.13,6.87-3.4,10.91-3.45-.48,1.58-.73,3.25-.73,4.99ZM128.87,142.19c0-1.15-.93-2.09-2.09-2.09s-2.09.93-2.09,2.09c0,.91.58,1.68,1.4,1.97v6.43c0,.38.31.69.69.69s.69-.31.69-.69v-6.43c.81-.29,1.4-1.06,1.4-1.97Z"/>
</svg>