<?xml version="1.0" encoding="UTF-8"?>
<svg id="Capa_1" data-name="Capa 1" xmlns="http://www.w3.org/2000/svg" viewBox="0 0 200 200">
  <path d="M160.07,51.83v119.84c0,12.52-10.19,22.71-22.71,22.71H62.64c-12.52,0-22.71-10.19-22.71-22.71V51.83c0-12.52,10.19-22.71,22.71-22.71h5.49v12.46h-5.49c-5.65,0-10.25,4.6-10.25,10.25v119.84c0,5.65,4.6,10.25,10.25,10.25h74.71c5.65,0,10.25-4.6,10.25-10.25V51.83c0-5.65-4.6-10.25-10.25-10.25h-5.49v-12.46h5.49c12.52,0,22.71,10.19,22.71,22.71ZM74.81,43.01v-17.25c0-2.42,1.98-4.4,4.4-4.4h4.51c.3-8.75,7.46-15.76,16.28-15.76s15.99,7.01,16.28,15.76h4.51c2.42,0,4.4,1.98,4.4,4.4v17.25c0,2.42-1.98,4.4-4.4,4.4h-41.59c-2.42,0-4.4-1.98-4.4-4.4ZM93.1,19.73c0,3.81,3.09,6.9,6.9,6.9s6.9-3.09,6.9-6.9-3.09-6.9-6.9-6.9-6.9,3.09-6.9,6.9ZM88.93,127.9c0,2.7-2.21,4.91-4.91,4.91h-17.2c-2.7,0-4.91-2.21-4.91-4.91v-17.2c0-2.7,2.21-4.91,4.91-4.91h17.2c2.7,0,4.91,2.21,4.91,4.91v17.2ZM82.7,112.01h-14.57v14.57h14.57v-14.57ZM88.93,147.55v17.2c0,2.7-2.21,4.91-4.91,4.91h-17.2c-2.7,0-4.91-2.21-4.91-4.91v-17.2c0-2.7,2.21-4.91,4.91-4.91h17.2c2.7,0,4.91,2.21,4.91,4.91ZM82.7,148.87h-14.57v14.57h14.57v-14.57ZM102.41,79.8l-2.44-4.07-2.44,4.07-4.63,1.06,3.12,3.58-.42,4.73,4.37-1.86,4.37,1.86-.42-4.73,3.12-3.58-4.63-1.06ZM120.51,79.8l-2.44-4.07-2.44,4.07-4.63,1.06,3.12,3.58-.42,4.73,4.37-1.86,4.37,1.86-.42-4.73,3.12-3.58-4.63-1.06ZM138.61,79.8l-2.44-4.07-2.44,4.07-4.63,1.06,3.12,3.58-.42,4.73,4.37-1.86,4.37,1.86-.42-4.73,3.12-3.58-4.63-1.06ZM102.41,116.65l-2.44-4.07-2.44,4.07-4.63,1.06,3.12,3.58-.42,4.73,4.37-1.86,4.37,1.86-.42-4.73,3.12-3.58-4.63-1.06ZM120.51,116.65l-2.44-4.07-2.44,4.07-4.63,1.06,3.12,3.58-.42,4.73,4.37-1.86,4.37,1.86-.42-4.73,3.12-3.58-4.63-1.06ZM102.41,153.5l-2.44-4.07-2.44,4.07-4.63,1.06,3.12,3.58-.42,4.73,4.37-1.86,4.37,1.86-.42-4.73,3.12-3.58-4.63-1.06ZM88.93,91.04c0,2.7-2.21,4.91-4.91,4.91h-17.2c-2.7,0-4.91-2.21-4.91-4.91v-17.2c0-2.7,2.21-4.91,4.91-4.91h15.57l-6.23,6.23h-2.25l-4.32-4.32c-.21-.21-.5-.32-.78-.32s-.56.11-.78.32l-5.05,5.05c-.14.14-.22.32-.27.5-.02.09-.05.18-.05.28,0,.28.11.56.32.78l5.15,5.15v7.13h14.57v-7.89l6.23-6.23v15.44ZM62.67,76.68s.02-.07.02-.1c0,.03-.02.07-.02.1ZM87.85,67.88l-1.61,1.61h0l-1.96,1.96-7.04,7.04-2.2,2.2-2.2-2.2-4.01-4.01-2.2,2.2,1.52,1.52h0l6.9,6.9,7.83-7.83,5.56-5.56h0l1.63-1.63-2.2-2.2Z"/>
</svg>