<?xml version="1.0" encoding="UTF-8"?>
<svg id="Capa_1" data-name="Capa 1" xmlns="http://www.w3.org/2000/svg" viewBox="0 0 200 200">
  <path d="M144.06,114.8v-21.47c0-1.77,1.44-3.21,3.21-3.21h0c1.77,0,3.21,1.44,3.21,3.21v21.47c0,1.77-1.44,3.21-3.21,3.21h0c-1.77,0-3.21-1.44-3.21-3.21ZM160.89,118.01h0c1.77,0,3.21-1.44,3.21-3.21v-21.47c0-1.77-1.44-3.21-3.21-3.21h0c-1.77,0-3.21,1.44-3.21,3.21v21.47c0,1.77,1.44,3.21,3.21,3.21ZM165.14,52.37c-2.7-7.06-17.08-6.14-18.65,1.45-8.5-10.1-29.96,2.4-18.55,17.75h51.53c11.02-13.64-5.08-26.81-14.33-19.2ZM184.22,78.71c-.54,0-1.07.05-1.59.16v15.55c.51.1,1.04.16,1.59.16,4.38,0,7.94-3.55,7.94-7.94,0-4.38-3.55-7.93-7.94-7.93ZM183.3,101.37c-.23,0-.46.02-.67.06v7.45c.22.04.44.06.67.06,2.09,0,3.79-1.7,3.79-3.79s-1.7-3.79-3.79-3.79ZM175.68,75.72h3.79s0,3.79,0,3.79v44.4c0,2.68-1.1,5.11-2.87,6.89h0s0,.02,0,.02c-1.78,1.77-4.22,2.87-6.89,2.87h-31.99c-2.68,0-5.12-1.1-6.9-2.87h0c-1.77-1.76-2.87-4.21-2.87-6.9v-1.79h-2.72c-3.3,0-6.3-1.35-8.47-3.52-1.31-1.31-2.32-2.94-2.92-4.74l-8.84,1.73c-2.52.49-5.12.06-7.19-1.4l-8.69-5.86,6.33,32.39c1.42,7.28-3.32,14.33-10.6,15.75l-6.3,1.32-4.19-21.41-3.44.58,5.31,27.16c1.48,7.55-3.16,15.18-10.68,16.8-7.66,1.65-15.16-3.31-16.66-10.98l-1.02-5.21c-6.19-.38-11.73-4.63-13.08-10.91-1.42-6.57,2.04-13.01,7.89-15.66l-3.67-18.75,16.24-3.18c9.36-1.84,15.56-10.96,13.82-20.34-1.01-5.45-4.49-9.9-9.14-12.31l7.93-1.55c7.28-1.42,14.52-.18,20.61,3.03.56.16,2.93,1.64,3.38,2,7.19,4.82,8.42,5.58,13.37,8.92l8.06-1.58c.28-2.83,1.55-5.37,3.46-7.28,2.17-2.17,5.17-3.52,8.47-3.52h2.72v-4.08s0-3.79,0-3.79h47.74ZM127.94,93.89h-2.72c-.46,0-.88.19-1.19.5-.3.31-.5.73-.5,1.19v1.57c1.15,1.26,1.98,2.84,2.34,4.65.6,3.04-.37,6.04-2.34,8.19v.13c0,.46.2.89.5,1.19.31.31.74.5,1.19.5h2.72v-17.93ZM171.89,83.3h-36.38v40.61c0,.6.25,1.15.65,1.55v.02c.39.39.94.63,1.55.63h31.99c.61,0,1.16-.24,1.54-.63l.02-.02c.39-.39.63-.94.63-1.55v-40.61ZM28.11,159.32c-3.12,0-5.64,2.45-5.64,5.51,0,3.03,2.52,5.5,5.64,5.5s5.63-2.47,5.63-5.5c0-3.06-2.52-5.51-5.63-5.51ZM30.15,117.28l24.36-4.78c7.36-1.44,12.19-8.55,10.82-15.93h0c-1.39-7.48-8.62-12.39-16.09-10.93l-24.35,4.78c-7.42,1.45-12.25,8.64-10.8,16.06h0c1.45,7.42,8.64,12.25,16.06,10.8ZM53.71,82.26c20.85-4.08,34.45-24.29,30.37-45.14C80,16.27,59.79,2.67,38.94,6.75,18.09,10.83,4.49,31.04,8.57,51.89c4.08,20.85,24.29,34.45,45.14,30.37ZM28.11,147.85c-3.12,0-5.64,2.45-5.64,5.5s2.52,5.49,5.64,5.49c3.11,0,5.63-2.46,5.63-5.49,0-3.05-2.52-5.5-5.63-5.5ZM62.45,182.71c-3.05,0-5.5,2.52-5.5,5.63,0,3.12,2.45,5.64,5.5,5.64s5.49-2.52,5.49-5.64-2.46-5.63-5.49-5.63ZM73.92,182.71c-3.06,0-5.51,2.52-5.51,5.63,0,3.12,2.45,5.64,5.51,5.64s5.5-2.52,5.5-5.64c0-3.11-2.47-5.63-5.5-5.63ZM50.97,182.71c-3.03,0-5.5,2.52-5.5,5.63,0,3.12,2.47,5.64,5.5,5.64,3.03,0,5.5-2.52,5.5-5.64,0-3.11-2.46-5.63-5.5-5.63ZM28.11,136.38c-3.12,0-5.64,2.47-5.64,5.5,0,3.03,2.52,5.5,5.64,5.5s5.63-2.46,5.63-5.5-2.52-5.5-5.63-5.5Z"/>
</svg>