<?xml version="1.0" encoding="UTF-8"?>
<svg id="Capa_1" data-name="Capa 1" xmlns="http://www.w3.org/2000/svg" viewBox="0 0 200 200">
  <path d="M165.65,77.27c0,1.73-.75,3.29-2.26,4.67-1.51,1.38-3.29,2.07-5.36,2.07h-9.61v-29.32c0-35.3-65.6-35.3-65.6,0v29.32h-9.89c-2.08,0-3.82-.65-5.22-1.94-1.42-1.29-2.12-2.89-2.12-4.8v-15.56c0-1.9.66-3.54,2-4.92,1.34-1.38,3.15-2.07,5.44-2.07h6.02c0-40.24,73.15-40.24,73.15,0h5.73c2.1,0,3.91.69,5.44,2.07,1.52,1.39,2.29,3.03,2.29,4.92v15.56ZM146.73,66.68c0-17.58-13.95-31.84-31.12-31.84s-31.11,14.26-31.11,31.84,13.94,31.85,31.11,31.85,31.12-14.26,31.12-31.85M130.94,188.08c0-2.02-1.6-3.67-3.58-3.67s-3.58,1.65-3.58,3.67,1.61,3.67,3.58,3.67,3.58-1.64,3.58-3.67M123.67,188.08c0-2.02-1.6-3.67-3.59-3.67s-3.59,1.65-3.59,3.67,1.62,3.67,3.59,3.67,3.59-1.64,3.59-3.67M138.23,188.08c0-2.02-1.61-3.67-3.57-3.67s-3.61,1.65-3.61,3.67,1.6,3.67,3.61,3.67,3.57-1.64,3.57-3.67M107.45,188.08c0-2.02-1.62-3.67-3.59-3.67s-3.58,1.65-3.58,3.67,1.6,3.67,3.58,3.67,3.59-1.64,3.59-3.67M100.16,188.08c0-2.02-1.62-3.67-3.59-3.67s-3.58,1.65-3.58,3.67,1.58,3.67,3.58,3.67,3.59-1.64,3.59-3.67M114.72,188.08c0-2.02-1.59-3.67-3.57-3.67s-3.58,1.65-3.58,3.67,1.6,3.67,3.58,3.67,3.57-1.64,3.57-3.67M165.48,140.04s1.51,2.95-14.07-27.66c-2.27-4.48-7.79-11.59-19.31-11.59h-32.98c-11.51,0-17.05,7.14-19.32,11.62-15.57,30.6-14.06,27.63-14.06,27.63-2.2,4.36-.54,9.73,3.73,12,4.25,2.26,9.51.57,11.73-3.81l11.69-23.07.02.03h3.67l-17.69,34.96h15.31v13.77c0,5.55,4.39,10.05,9.82,10.05s9.81-4.5,9.81-10.05v-13.77h3.56v13.77c0,5.55,4.38,10.05,9.8,10.05s9.81-4.5,9.81-10.05v-13.77h15.33l-17.69-34.96h3.68l.03-.03,11.69,23.07c2.22,4.38,7.46,6.07,11.73,3.81,4.27-2.27,5.94-7.64,3.72-12M76.46,29.7c0,3.91-1.06,7.65-3,10.92l.79,8.32-8.33-.79c-3.27,1.94-7.01,3-10.92,3h-.01c-5.73,0-11.12-2.23-15.16-6.29-4.05-4.05-6.29-9.43-6.29-15.17s2.23-11.13,6.29-15.17c4.04-4.05,9.43-6.29,15.17-6.29s11.13,2.23,15.18,6.29c4.06,4.05,6.29,9.44,6.28,15.17M55,16.96c-1.86,0-3.66.39-5.3,1.15l16.9,16.9c.76-1.65,1.15-3.44,1.15-5.3,0-3.4-1.33-6.6-3.74-9.01-2.41-2.41-5.61-3.73-9.01-3.73M55,42.45c1.86,0,3.65-.4,5.3-1.15l-16.9-16.9c-.76,1.65-1.15,3.45-1.15,5.3,0,3.4,1.33,6.6,3.73,9.01,2.41,2.4,5.61,3.73,9.01,3.73"/>
</svg>