<?xml version="1.0" encoding="UTF-8"?>
<svg id="Capa_1" data-name="Capa 1" xmlns="http://www.w3.org/2000/svg" viewBox="0 0 200 200">
  <path d="M182.68,16.14c-3.47-3.47-8.26-5.62-13.56-5.62s-10.09,2.14-13.56,5.62c-3.47,3.47-5.62,8.26-5.62,13.56s2.15,10.09,5.62,13.56c3.47,3.47,8.26,5.62,13.56,5.62s10.09-2.15,13.56-5.62c3.47-3.47,5.62-8.27,5.62-13.56,0-5.3-2.14-10.09-5.62-13.56ZM169.56,36.17c-2.53,0-4.59-2.05-4.59-4.59,0-1.05.35-2.01.94-2.79l-1.06-10.32,5.72,8.63c2.05.46,3.57,2.29,3.57,4.47,0,2.53-2.05,4.59-4.59,4.59ZM180.82,36.84l-2.87-1.66,1.53-2.65,2.49,1.44c.47-1.39.85-2.88.88-4.1h-3.02v-3.06h2.71c-.29-1.36-.78-2.64-1.44-3.82l-2.3,1.33-1.53-2.65,2.03-1.17c-.15-.17-.31-.33-.47-.49-.76-.76-1.61-1.43-2.53-2l-1.17,2.02-2.65-1.53,1.04-1.79c-1.17-.4-2.41-.64-3.7-.71v2.14s-3.06,0-3.06,0v-1.96c-1.25.22-2.44.6-3.55,1.14l1.07,1.85-2.65,1.53-1.01-1.75c-.41.33-.81.68-1.18,1.06-.52.52-1,1.09-1.43,1.68l1.99,1.15-1.53,2.65-1.96-1.13c-.5,1.19-.84,2.47-.99,3.8h2.6v3.06h-2.59c.17,1.33.56,2.7,1.06,3.96l2.56-1.48,1.53,2.65-2.69,1.55-2.5,1.48c-1.81-2.67-3.01-6.22-3.01-9.68,0-4.6,1.87-8.77,4.88-11.79,3.02-3.02,7.19-4.88,11.79-4.88,4.61,0,8.77,1.87,11.79,4.88,3.02,3.02,4.88,7.19,4.88,11.79,0,2.86-1.13,6.28-2.4,8.63l-2.57-1.49ZM171.87,31.58c0,1.28-1.04,2.31-2.31,2.31s-2.31-1.04-2.31-2.31c0-1.28,1.04-2.31,2.31-2.31s2.31,1.03,2.31,2.31ZM169.12,2.56c-14.99,0-27.14,12.15-27.14,27.13s12.15,27.14,27.14,27.14,27.14-12.15,27.14-27.14c0-14.99-12.15-27.13-27.14-27.13ZM185.6,46.17c-4.22,4.22-10.04,6.82-16.47,6.82-6.43,0-12.26-2.61-16.47-6.82-4.22-4.22-6.82-10.04-6.82-16.47s2.61-12.26,6.82-16.47c4.22-4.21,10.04-6.82,16.47-6.82s12.26,2.61,16.47,6.82c4.22,4.22,6.82,10.04,6.82,16.47,0,6.43-2.61,12.26-6.82,16.47Z"/>
  <path d="M64.28,143.4h58.17l-2.99,16.22c-1.05,5.47-5.75,9.31-11.09,9.5l-.92,4.25c-.37,1.71-2.07,2.8-3.78,2.43-1.71-.37-2.8-2.07-2.43-3.78l.96-4.39c-4.37-2.46-6.85-7.56-5.71-12.73l.46-1.78-10.75-2.19-4.92,22.36c-1.35,6.18-7.46,10.1-13.64,8.75-6.16-1.34-10.07-7.41-8.77-13.57l5.42-25.05ZM190.85,120.68v18.15H9.15v-18.15h181.71ZM57.82,124.76c0-.31-.2-.47-.59-.47h-8.41c-.39,0-.59.16-.59.47v10c0,.31.2.47.59.47h2.31c.39,0,.58-.15.58-.47v-3.19c0-.31.19-.47.58-.47h3.23c.39,0,.59-.15.59-.46v-1.75c0-.31-.2-.47-.59-.47h-3.23c-.39,0-.58-.15-.58-.46v-.5c0-.31.19-.47.58-.47h4.93c.39,0,.59-.16.59-.47v-1.75ZM72.09,124.76c0-.31-.2-.47-.59-.47h-2.14c-.39,0-.58.16-.59.47v10c0,.31.2.47.59.47h2.14c.39,0,.58-.15.59-.47v-10ZM94.23,124.76c0-.31-.2-.47-.59-.47h-2.19c-.39,0-.58.16-.58.47v5.04c0,.07-.03.11-.09.13-.06.02-.11-.01-.15-.09l-2.65-5.19c-.13-.24-.36-.36-.69-.37h-2.88c-.39,0-.59.16-.59.47v10c0,.31.2.47.59.47h2.19c.39,0,.58-.15.59-.47v-5.05c0-.07.03-.11.09-.13.06-.02.1.01.14.08l2.67,5.2c.13.24.35.36.68.36h2.87c.39,0,.59-.15.59-.47v-10ZM109.29,124.76c0-.31-.2-.47-.59-.47h-2.14c-.39,0-.58.16-.59.47v10c0,.31.2.47.59.47h2.14c.39,0,.58-.15.59-.47v-10ZM130.8,132.23c0-.56-.15-1.07-.46-1.52-.31-.45-.69-.8-1.15-1.05-.46-.26-.97-.49-1.51-.71-.55-.22-1.06-.39-1.54-.53-.48-.13-.89-.28-1.23-.45-.34-.17-.53-.34-.57-.53,0-.03,0-.06,0-.08,0-.15.09-.29.28-.41.22-.15.52-.22.88-.22.46,0,.85.09,1.16.28.31.19.5.44.56.76.05.27.21.4.48.4.05,0,.1,0,.16-.02l2.23-.39c.35-.06.52-.23.51-.51-.03-.26-.09-.52-.19-.78-.1-.25-.27-.53-.51-.84-.24-.31-.54-.57-.89-.8-.35-.22-.83-.41-1.44-.57-.61-.16-1.3-.23-2.07-.23-.82,0-1.54.1-2.16.29-.62.2-1.08.43-1.39.7-.31.27-.56.57-.75.91-.19.33-.31.6-.34.8-.04.2-.06.38-.06.53,0,.67.2,1.24.6,1.72.4.48.9.84,1.49,1.09.59.25,1.19.46,1.79.63.6.17,1.13.36,1.59.55.46.19.72.4.78.63.01.04.02.07.02.11,0,.18-.13.34-.39.5-.31.18-.7.27-1.17.27s-.86-.11-1.18-.32c-.32-.21-.5-.5-.54-.87-.03-.28-.19-.42-.47-.42-.05,0-.11,0-.17.02l-2.22.39c-.34.06-.51.22-.51.48,0,.22.05.51.16.86.09.27.25.56.49.88.24.32.53.59.89.83.35.23.84.43,1.45.59.61.16,1.31.24,2.09.24.88,0,1.66-.1,2.34-.3.68-.2,1.2-.43,1.55-.7.36-.27.65-.57.88-.9.23-.33.38-.6.44-.81.06-.21.1-.38.1-.52ZM151.77,124.76c0-.31-.19-.47-.58-.47h-2.19c-.39,0-.59.16-.59.47v3.9c0,.31-.19.47-.58.47h-1.89c-.39,0-.58-.16-.58-.47v-3.9c0-.31-.2-.47-.59-.47h-2.18c-.39,0-.58.16-.59.47v10c0,.31.2.47.59.47h2.18c.39,0,.58-.15.59-.47v-2.47c0-.31.19-.46.58-.46h1.89c.39,0,.58.16.58.46v2.47c0,.31.2.47.59.47h2.19c.39,0,.58-.15.58-.47v-10ZM39.78,47.21c-4.47,4.38-4.62,11.51-.34,16.07,3.73,3.98,14.86,15.39,23.06,23.77,5.93,6.07,8.61,14.59,7.23,22.97l-1,6.07,57.24.05.39-3.7c.36-3.43,2.45-6.43,5.54-7.96,10.5-5.17,34.76-17.13,44.11-21.77,5.69-2.83,8-9.74,5.16-15.43-2.82-5.65-9.67-7.96-15.34-5.18-5.24,2.57-11.9,5.86-18.52,9.19-.51,19.14-16.22,34.55-35.47,34.55s-35.5-15.92-35.5-35.5c0-.79.04-1.57.09-2.35-6.58-6.91-14.43-14.95-20.19-20.81-.79-.81-1.68-1.47-2.62-1.99l.76-8.45c.15-1.67-1.09-3.16-2.76-3.31-1.67-.15-3.16,1.09-3.31,2.76l-.68,7.57c-.24,0-.49.02-.73.04l-4.53-6.8c-.93-1.39-2.83-1.78-4.23-.85-1.39.93-1.78,2.83-.85,4.23l3.8,5.71c-.38.29-.75.59-1.1.94l-.19.19ZM111.82,102.09c17.53,0,31.74-14.21,31.74-31.74s-14.21-31.74-31.74-31.74-31.74,14.21-31.74,31.74,14.21,31.74,31.74,31.74ZM66.47,183.21c-1.71-.37-3.41.72-3.78,2.43l-1.75,8.03c-.37,1.71.72,3.41,2.43,3.78,1.71.37,3.41-.72,3.78-2.43l1.75-8.03c.37-1.71-.72-3.41-2.43-3.78Z"/>
</svg>