<?xml version="1.0" encoding="UTF-8"?>
<svg id="Capa_1" data-name="Capa 1" xmlns="http://www.w3.org/2000/svg" viewBox="0 0 200 200">
  <path d="M53.32,127.99c-11.73,0-21.24,9.51-21.24,21.24,0,11.73,9.51,21.24,21.24,21.24s21.24-9.51,21.24-21.24-9.51-21.24-21.24-21.24ZM53.32,158.2c-4.95,0-8.97-4.02-8.97-8.97,0-4.95,4.02-8.97,8.97-8.97s8.97,4.02,8.97,8.97c0,4.94-4.02,8.97-8.97,8.97ZM92.91,114.47l-4.88-4.88c0-38.38-19.66-55.85-19.66-55.85l3.3-3.3c-10.29-1.98-39.63-3.48-65.54-2.43v8.58c4.99-.23,10.33-.37,15.98-.42l-9.15,32.11c-2.25.08-4.54.17-6.83.25v46.85s22.93,0,22.93,0c4.82-8.42,13.89-14.1,24.26-14.1,10.37,0,19.44,5.69,24.26,14.1h20.54c.89-12.89-5.22-20.92-5.22-20.92ZM25.16,87.83l8.99-31.57c4.25.13,6.96.38,12.24.7,4.64.84,7.79,5.34,9.28,9.67l8.5,19.76s-17.04.64-39.02,1.45ZM73.71,102.87l8.95-15.51c1.11,4.62,1.94,9.78,2.31,15.51h-11.26ZM26.6,141.05c-.8,2.59-1.22,5.33-1.22,8.18,0,.32.01.63.02.94H6.13v-9.12h20.47ZM107.03,59.34c0-16.46,13.35-29.81,29.81-29.81s29.81,13.35,29.81,29.81c0,16.46-13.35,29.81-29.81,29.81-16.46,0-29.81-13.35-29.81-29.81ZM159.84,94.3h17.9c1.07,0,1.94.87,1.94,1.94v1.05c0,1.07-.87,1.94-1.94,1.94h-17.9c-1.07,0-1.94-.87-1.94-1.94v-1.05c0-1.07.87-1.94,1.94-1.94ZM182.51,138.83v1.05c0,1.07-.87,1.94-1.94,1.94h-26.41c-1.07,0-1.94-.87-1.94-1.94v-1.05c0-1.07.87-1.94,1.94-1.94h26.41c1.07,0,1.94.87,1.94,1.94ZM193.87,124.63v1.05c0,1.07-.87,1.94-1.94,1.94h-32.09c-1.07,0-1.94-.87-1.94-1.94v-1.05c0-1.07.87-1.94,1.94-1.94h32.09c1.07,0,1.94.87,1.94,1.94ZM152.45,105.66l-4.39,24.32c-1.47,8.22-4.95,13.93-14.96,13.93h-8.55l-1.84,6.68c-3.84,11.41-23.1,9.14-18.97-6.85,0,0,1.77-6.83,4.56-16.74,1.21-5.4,3.26-7.29,8.18-7.36h4.27l2.1-11.63h-21.01c-11.61,0-11.94-15.89,0-15.89,19.28,0,17.33,0,36.62,0,7.33-.49,14.63,5.97,13.99,13.54ZM81.25,150.17c.01-.31.02-.63.02-.94,0-2.85-.43-5.59-1.22-8.18h17.26c-.63,2.87-1.61,5.92-3.07,9.12h-12.99ZM103.52,164.71c0,3.19-2.51,5.76-5.62,5.76s-5.6-2.56-5.6-5.76,2.49-5.75,5.6-5.75,5.62,2.58,5.62,5.75ZM126.35,164.71c0,3.19-2.48,5.76-5.61,5.76s-5.62-2.56-5.62-5.76c0-3.17,2.53-5.75,5.62-5.75,3.12,0,5.61,2.58,5.61,5.75ZM114.94,164.71c0,3.19-2.51,5.76-5.61,5.76s-5.62-2.56-5.62-5.76c0-3.17,2.53-5.75,5.62-5.75,3.1,0,5.61,2.58,5.61,5.75Z"/>
</svg>