<?xml version="1.0" encoding="UTF-8"?>
<svg id="Capa_1" data-name="Capa 1" xmlns="http://www.w3.org/2000/svg" viewBox="0 0 200 200">
  <path d="M42.61,180.51c-2.22,0-4.32-1.35-5.15-3.55-2.3-6.03-3.46-12.47-3.46-19.14,0-7.65,1.6-15.23,4.62-21.94,1.25-2.78,4.52-4.01,7.29-2.76,2.78,1.25,4.01,4.52,2.76,7.29-2.39,5.29-3.65,11.31-3.65,17.4,0,5.32.92,10.44,2.74,15.22,1.08,2.85-.35,6.03-3.19,7.11-.65.25-1.31.36-1.96.36ZM22.48,196.92c-1.63,0-3.25-.72-4.34-2.11-6.66-8.47-10.64-22.99-10.64-38.84,0-14.81,3.57-28.78,9.55-37.37,1.74-2.5,5.18-3.11,7.68-1.37,2.5,1.74,3.11,5.18,1.37,7.68-4.67,6.71-7.57,18.61-7.57,31.07,0,13.26,3.17,25.53,8.28,32.03,1.88,2.39,1.47,5.86-.93,7.74-1.01.79-2.21,1.18-3.4,1.18ZM157.39,180.51c-.65,0-1.31-.12-1.96-.36-2.85-1.08-4.28-4.27-3.19-7.11,1.82-4.78,2.74-9.9,2.74-15.22,0-6.09-1.26-12.11-3.65-17.4-1.25-2.78-.02-6.04,2.76-7.29,2.78-1.25,6.04-.02,7.29,2.76,3.02,6.7,4.62,14.29,4.62,21.94,0,6.67-1.16,13.11-3.46,19.14-.84,2.2-2.93,3.55-5.15,3.55ZM177.52,196.92c-1.19,0-2.39-.39-3.4-1.18-2.39-1.88-2.81-5.35-.93-7.74,5.11-6.5,8.28-18.77,8.28-32.03,0-12.46-2.9-24.36-7.57-31.07-1.74-2.5-1.13-5.94,1.37-7.68,2.5-1.74,5.94-1.13,7.68,1.37,5.98,8.59,9.55,22.56,9.55,37.37,0,15.85-3.98,30.37-10.64,38.84-1.09,1.38-2.7,2.11-4.34,2.11ZM108.78,142.26l-22.81,22.81c-1.6-2.55-2.52-5.56-2.52-8.78,0-4.57,1.85-8.71,4.85-11.7,2.99-2.99,7.13-4.85,11.7-4.85,3.23,0,6.24.92,8.78,2.52ZM135.18,37.74c0,26.95,0,115.75,0,142.95,0,5.34-4.37,9.71-9.71,9.71h-50.94c-5.34,0-9.71-4.37-9.71-9.71v-98.42c0-7.14,6.69-13.57,12.87-17.13,13.63-7.87,17.69-8.32,28.94-13.84,8.17-4.01,10.71-12.53,8.34-19.43-1.91-5.56-7.03-10.45-14.98-10.68-8.08-.24-14.44,3.64-15.81,8.7-3.66,13.39-18.41,9.79-18-1.06.1-2.72.77-5.35,2.09-7.82,15.67-29.19,66.9-22.13,66.9,16.73ZM123.97,156.29c0-6.62-2.68-12.61-7.02-16.95-4.34-4.34-10.33-7.02-16.95-7.02s-12.61,2.68-16.95,7.02c-4.34,4.34-7.02,10.33-7.02,16.95s2.68,12.61,7.02,16.95c4.33,4.33,10.32,7.01,16.95,7.01,6.63,0,12.62-2.68,16.95-7.01,4.34-4.34,7.02-10.33,7.02-16.95ZM91.21,170.32c2.55,1.6,5.56,2.53,8.79,2.53,4.56,0,8.7-1.86,11.7-4.86,3-2.99,4.85-7.13,4.85-11.7,0-3.23-.92-6.24-2.52-8.78l-22.82,22.82Z"/>
</svg>