<?xml version="1.0" encoding="UTF-8"?>
<svg id="Capa_1" data-name="Capa 1" xmlns="http://www.w3.org/2000/svg" viewBox="0 0 200 200">
  <path d="M132.63,16.42h0s27.16,0,27.16,0v8.85h-3.34c-2.63,7.64-12.46,30.69-12.46,30.69h-11.36v8.31s-65.73,0-65.73,0v-8.31h-10.9s-9.83-23.05-12.45-30.69h-3.34v-8.85s26.7,0,26.7,0h0c0-5.79,4.7-10.49,10.49-10.49h44.75c5.79,0,10.49,4.7,10.49,10.49ZM66.9,135.73h65.73v10.49h27.16s0,8.85,0,8.85h-3.34c-2.63,7.64-12.46,30.69-12.46,30.69h-11.36v8.31h-65.73v-8.31h-10.9s-9.83-23.05-12.45-30.69h-3.34s0-8.85,0-8.85h26.7v-10.49h0ZM100.6,145.23c-11.22,0-20.32,9.1-20.32,20.32,0,11.22,9.1,20.32,20.32,20.32s20.32-9.1,20.32-20.32c0-11.23-9.1-20.32-20.32-20.32h0ZM66.9,71.16h65.73v10.49s27.16,0,27.16,0v8.85h-3.34c-2.63,7.64-12.46,30.69-12.46,30.69h-11.36s0,8.32,0,8.32h-65.73v-8.32h-10.9s-9.83-23.05-12.45-30.69h-3.34v-8.85s26.7,0,26.7,0v-10.49h0ZM100.6,80.66c-11.22,0-20.32,9.1-20.32,20.32s9.1,20.32,20.32,20.32,20.32-9.1,20.32-20.32-9.1-20.32-20.32-20.32h0ZM100.6,15.44c-11.22,0-20.32,9.1-20.32,20.32,0,11.22,9.1,20.32,20.32,20.32s20.32-9.1,20.32-20.32c0-11.22-9.1-20.32-20.32-20.32Z"/>
</svg>