<?xml version="1.0" encoding="UTF-8"?>
<svg id="Capa_1" xmlns="http://www.w3.org/2000/svg" version="1.1" viewBox="0 0 200 200">
  <!-- Generator: Adobe Illustrator 29.0.0, SVG Export Plug-In . SVG Version: 2.1.0 Build 186)  -->
  <path d="M134.47,44.73c-9.62-9.62-21.04-14.33-34.47-14.33s-24.85,4.72-34.47,14.33c-9.43,9.43-14.33,20.86-14.33,34.29s4.9,24.85,14.33,34.47c9.62,9.43,21.04,14.33,34.47,14.33s24.85-4.9,34.47-14.33c9.43-9.62,14.33-21.04,14.33-34.47s-4.9-24.85-14.33-34.29ZM124.67,56.15c1.63-1.45,3.45-2.18,5.81-2.18,2.18,0,4.17.73,5.62,2.18,1.63,1.82,2.36,3.63,2.36,5.81,0,2.36-.73,4.17-2.36,5.62-1.45,1.82-3.45,2.54-5.62,2.54-2.36,0-4.17-.72-5.81-2.54-1.45-1.45-2.36-3.27-2.36-5.62,0-2.18.91-3.99,2.36-5.81ZM106.89,41.64c1.63-1.45,3.45-2.36,5.81-2.36,2.18,0,4.17.91,5.62,2.36,1.63,1.63,2.36,3.63,2.36,5.81s-.72,4.17-2.36,5.62c-1.45,1.63-3.45,2.36-5.62,2.36-2.36,0-4.17-.72-5.81-2.36-1.45-1.45-2.36-3.45-2.36-5.62s.91-4.17,2.36-5.81ZM83.85,40.74c1.81-1.45,3.63-2.18,5.8-2.18,2.36,0,4.17.73,5.81,2.18,1.63,1.81,2.36,3.63,2.36,5.81,0,2.36-.73,4.17-2.36,5.62-1.63,1.82-3.45,2.54-5.81,2.54-2.17,0-3.99-.73-5.8-2.54-1.45-1.45-2.36-3.26-2.36-5.62,0-2.18.91-3.99,2.36-5.81ZM65.17,55.25c1.63-1.45,3.45-2.18,5.81-2.18,2.18,0,4.17.73,5.62,2.18,1.63,1.81,2.36,3.63,2.36,5.81,0,2.36-.72,4.17-2.36,5.63-1.45,1.81-3.45,2.54-5.62,2.54-2.36,0-4.17-.73-5.81-2.54-1.45-1.45-2.36-3.27-2.36-5.63,0-2.18.91-3.99,2.36-5.81ZM60.81,89.17c-1.45-1.63-2.36-3.45-2.36-5.8,0-2.18.91-3.99,2.36-5.62,1.63-1.63,3.45-2.36,5.81-2.36,2.18,0,3.99.73,5.62,2.36,1.63,1.63,2.36,3.45,2.36,5.62,0,2.36-.73,4.17-2.36,5.8-1.63,1.63-3.45,2.36-5.62,2.36-2.36,0-4.17-.73-5.81-2.36ZM83.49,110.04c-1.45,1.63-3.45,2.36-5.62,2.36-2.36,0-4.17-.73-5.81-2.36-1.45-1.63-2.36-3.45-2.36-5.81,0-2.18.91-3.99,2.36-5.62,1.63-1.63,3.45-2.36,5.81-2.36,2.18,0,4.17.73,5.62,2.36,1.63,1.63,2.36,3.45,2.36,5.62,0,2.36-.73,4.17-2.36,5.81ZM105.81,118.93c-1.45,1.63-3.45,2.36-5.62,2.36-2.36,0-4.17-.73-5.8-2.36-1.45-1.45-2.36-3.45-2.36-5.63s.91-4.17,2.36-5.81c1.63-1.45,3.45-2.36,5.8-2.36,2.18,0,4.17.91,5.62,2.36,1.63,1.63,2.36,3.63,2.36,5.81s-.72,4.17-2.36,5.63ZM100,98.43c-5.26,0-9.98-1.82-13.79-5.62-3.81-3.81-5.62-8.53-5.62-13.79s1.82-9.98,5.62-13.79c3.81-3.81,8.53-5.8,13.79-5.8s9.98,2,13.79,5.8c3.81,3.81,5.81,8.53,5.81,13.79s-2,9.98-5.81,13.79c-3.81,3.81-8.35,5.62-13.79,5.62ZM128.12,111.49c-1.63,1.63-3.45,2.36-5.62,2.36-2.36,0-4.17-.73-5.81-2.36-1.45-1.45-2.36-3.45-2.36-5.81,0-1.99.91-3.99,2.36-5.62,1.63-1.63,3.45-2.36,5.81-2.36,2.18,0,3.99.72,5.62,2.36,1.63,1.63,2.36,3.63,2.36,5.62,0,2.36-.73,4.35-2.36,5.81ZM139.73,90.81c-1.45,1.63-3.45,2.36-5.62,2.36-2.36,0-4.17-.72-5.81-2.36-1.45-1.45-2.36-3.45-2.36-5.63s.91-4.17,2.36-5.8c1.63-1.45,3.45-2.36,5.81-2.36,2.18,0,4.17.91,5.62,2.36,1.63,1.63,2.36,3.63,2.36,5.8s-.73,4.18-2.36,5.63ZM158.43,30.85c-1.51-1.82-3.12-3.59-4.8-5.27-1.31-1.31-2.69-2.59-4.1-3.81-13.75-11.87-31.34-18.41-49.53-18.41-.8,0-1.6.01-2.4.04-12.63.39-25.05,3.97-35.91,10.34-5.58,3.27-10.73,7.26-15.32,11.84-1.68,1.68-3.29,3.45-4.8,5.27-11.23,13.56-17.42,30.73-17.42,48.37,0,9.33,2.36,19.64,7.01,30.64,6.07,14.36,16.03,29.99,29.61,46.47,1.35,1.64,2.75,3.29,4.14,4.91,5.23,6.08,10.88,12.21,16.81,18.2,10.14,10.25,17.68,16.68,17.76,16.74l.51.43.74-.63c1.48-1.27,14.89-12.93,29.79-29.56,1.56-1.74,3.09-3.48,4.56-5.19,1.39-1.62,2.78-3.27,4.14-4.91,13.58-16.49,23.55-32.12,29.61-46.47,4.65-11.01,7.01-21.32,7.01-30.64,0-17.63-6.19-34.81-17.42-48.37ZM100,138.84c-33.03,0-59.81-26.78-59.81-59.81s26.78-59.81,59.81-59.81,59.81,26.78,59.81,59.81-26.78,59.81-59.81,59.81Z"/>
</svg>