<?xml version="1.0" encoding="UTF-8"?>
<svg id="Capa_1" xmlns="http://www.w3.org/2000/svg" version="1.1" viewBox="0 0 200 200">
  <!-- Generator: Adobe Illustrator 29.0.0, SVG Export Plug-In . SVG Version: 2.1.0 Build 186)  -->
  <path d="M43.01,120.69c-1.05-2.36-.69-6.38-.51-7.6.18-1.21,1.26-4.36,2.19-5.99,4.61-8.07,70.49-76.02,70.49-76.02,2.17-2.41,6.49-5.09,9.61-5.96l32.49-9.09c3.12-.87,4.61.84,3.31,3.81l-21.25,48.43c-1.3,2.97-.22,6.95,2.41,8.84l34.8,25.28c4.65,3.56,5.94,6.4,4.31,10.21,0,0-5.64,13.73-13.17,13.42H60.24c-.54,0-3.99,0-3.99,0,0,0-6.18-.2-7.66-.64-2.63-.77-4.52-2.31-5.57-4.68ZM6.5,152.95c5.09-12.49,20.13-22.62,33.61-22.62,10.71,0,17.17,6.41,16.84,15.31,6.91-8.9,18.59-15.31,29.3-15.31s17.18,6.41,16.84,15.31c6.91-8.9,18.59-15.31,29.3-15.31s17.17,6.41,16.84,15.31c6.91-8.9,18.59-15.31,29.3-15.31,13.47,0,20.27,10.13,15.19,22.62-5.09,12.49-20.13,22.62-33.61,22.62-10.71,0-17.17-6.41-16.84-15.31-6.91,8.9-18.59,15.31-29.3,15.31s-17.17-6.41-16.84-15.31c-6.9,8.9-18.59,15.31-29.3,15.31s-17.17-6.41-16.84-15.31c-6.91,8.9-18.59,15.31-29.3,15.31-13.47,0-20.27-10.13-15.19-22.62Z"/>
</svg>