<?xml version="1.0" encoding="UTF-8"?>
<svg id="Capa_1" xmlns="http://www.w3.org/2000/svg" version="1.1" viewBox="0 0 200 200">
  <!-- Generator: Adobe Illustrator 29.0.0, SVG Export Plug-In . SVG Version: 2.1.0 Build 186)  -->
  <path d="M81.17,157.42c-.45,1.65-.7,3.38-.7,5.16,0,10.77,8.76,19.53,19.53,19.53s19.53-8.76,19.53-19.53c0-1.79-.25-3.52-.7-5.16h3.89c.38,1.66.58,3.39.58,5.16,0,12.85-10.45,23.3-23.3,23.3s-23.3-10.45-23.3-23.3c0-1.77.21-3.5.58-5.16h3.89ZM91.45,23.99c1.44,1.32,2.27,3.2,2.27,5.16v8.41c.23.13.45.27.68.41l5.4,3.32,1.11-22.02c.04-2-1.19-3.8-3.06-4.49-1.61-.59-3.71-.78-4.96-.81-3.13-.05-7.66.22-12.49.86-.96.13-1.87.42-2.71.85,3.33.27,6.5,1.65,8.97,3.91l4.8,4.4ZM55.76,91.69c0,1.77-1.44,3.21-3.21,3.21s-3.21-1.44-3.21-3.21,1.44-3.21,3.21-3.21,3.21,1.44,3.21,3.21ZM53.84,91.69l-.64-1.12h-1.29l-.64,1.12.64,1.12h1.29l.64-1.12ZM57.29,159.97c.09.86.15,1.73.15,2.62,0,13.16-10.7,23.86-23.86,23.86s-23.86-10.7-23.86-23.86,10.7-23.86,23.86-23.86c.54,0,1.08.02,1.61.06l2.22-4.41c-1.26-.17-2.54-.26-3.84-.26-15.72,0-28.47,12.75-28.47,28.47s12.75,28.47,28.47,28.47,28.47-12.75,28.47-28.47c0-1.55-.13-3.06-.36-4.54l-4.39,1.93ZM108.86,126.17l6.46-10.63c.51-.84,1.42-1.34,2.38-1.34.18,0,.35.02.53.05l27.41,5.29c1.32.26,2.12,1.62,1.7,2.9l-1.65,4.95c-.37,1.11-1.39,1.87-2.56,1.91l-31.86,1.02s-.06,0-.09,0c-.67,0-1.31-.24-1.81-.69-.98-.87-1.2-2.33-.52-3.45ZM138.93,123.51c0,1.46,1.19,2.65,2.65,2.65s2.65-1.19,2.65-2.65-1.19-2.65-2.65-2.65-2.65,1.19-2.65,2.65ZM116.05,123.51c0,1.46,1.19,2.65,2.65,2.65s2.65-1.19,2.65-2.65-1.19-2.65-2.65-2.65-2.65,1.19-2.65,2.65ZM43.91,35.78l-3.69-4.44c-1.52,1.8-2.59,3.95-3.09,6.26,2.24-.58,4.91-1.29,6.4-1.69.13-.03.26-.08.38-.13ZM22.8,112.77c-1.07-2.73-1.25-5.72-.53-8.56l4.3-16.77c.09-.37.43-.63.81-.63h1.3l1.06-4.33,16.49,16.92c1.62,1.66,3.88,2.62,6.2,2.62.65,0,1.3-.07,1.93-.22l2.15-.49c2.95-.67,5.29-2.78,6.27-5.65l6.79-19.92,3.12-5.97c1.35-2.59,4.01-4.2,6.93-4.2.68,0,1.37.09,2.03.27l7.66,2.06c.12.27.27.52.46.76l3.27,3.99-12.92,10.05h-.01s-.01.02-.01.02l-7.16,5.83c-.61.5-.97,1.23-1,2.02l-12.78,12.56c-1.05,1.03-1.49,2.5-1.19,3.94.3,1.44,1.3,2.6,2.68,3.12l6.27,2.37c.72.27,1.48.41,2.25.41,1.42,0,2.81-.48,3.93-1.36l8.61-6.76.07.05.79-.21,9.85-2.65c1.03-.28,1.97-.89,2.63-1.73l10.29-13.04,22.7,9.02,17.02,4.74,5.58.84,1.67-.56,17.01,9.57c.51.29.79.87.69,1.45l-2.05,12.29c-.18,1.1-1,1.99-2.09,2.25l-13.01,3.19-2.74,3.77h-38.14l-36.42-6.28-36.52.5c-2.75.04-5.46-.75-7.76-2.26l-.84-.55c-2.42-1.59-4.29-3.88-5.34-6.58l-2.31-5.9ZM135.01,103.94c.46.94,1.4,1.48,2.38,1.48.39,0,.79-.09,1.16-.27,1.31-.64,1.86-2.24,1.21-3.55-.64-1.31-2.24-1.86-3.55-1.21-1.31.64-1.86,2.24-1.21,3.55ZM118.31,97.86c.06.71.39,1.35.93,1.81.48.41,1.08.63,1.71.63.07,0,.15,0,.22,0,1.46-.12,2.55-1.4,2.43-2.86-.12-1.46-1.41-2.55-2.86-2.43-.71.06-1.35.39-1.81.93-.46.54-.68,1.23-.62,1.93ZM113.89,114.67l-6.46,10.63c-1.1,1.82-.75,4.16.84,5.58.81.72,1.84,1.11,2.92,1.11.05,0,.09,0,.14,0l31.86-1.02c1.86-.06,3.51-1.29,4.09-3.05l1.65-4.95c.36-1.07.23-2.24-.33-3.21-.57-.97-1.53-1.65-2.63-1.86l-27.41-5.29c-.28-.05-.56-.08-.85-.08h0c-1.55,0-3.01.82-3.82,2.15ZM105.36,94.25c.28.1.57.14.86.14.4,0,.8-.09,1.17-.27.64-.31,1.11-.85,1.34-1.52.23-.67.18-1.39-.13-2.03-.31-.64-.85-1.11-1.52-1.34-1.38-.47-2.89.27-3.37,1.65-.47,1.38.27,2.89,1.65,3.37ZM84.61,75.58c1.09.37,2.28-.21,2.66-1.3.37-1.09-.21-2.28-1.3-2.66-1.09-.37-2.28.21-2.66,1.3-.37,1.09.21,2.28,1.3,2.66ZM28.64,105.31l9.65.03.73-.68-2.29-1.65,2.38-3.58-2.86.84-7.62,5.04ZM26.75,107.48c.2.44,1.07.54,1.94.21.28-.1.51-.23.71-.38,0,.06.02.12.04.17.21.43,1.08.53,1.94.21.28-.1.52-.24.72-.39,0,.06.02.12.04.17.2.44,1.08.54,1.94.21.28-.1.53-.24.72-.39,0,.06.01.13.04.19.2.44,1.07.53,1.94.21.87-.32,1.41-.93,1.2-1.37-.21-.44-1.07-.53-1.94-.22-.28.1-.53.24-.73.39,0-.07-.01-.13-.04-.19-.21-.44-1.08-.53-1.94-.22-.28.1-.52.24-.72.39,0-.06-.02-.12-.04-.17-.21-.44-1.07-.53-1.94-.22-.28.1-.51.23-.71.38,0-.06-.02-.11-.04-.17-.2-.44-1.07-.53-1.94-.21-.87.32-1.4.93-1.2,1.37ZM36.83,39.69l1.58.34c.08.02.16.02.23.02.17,0,.34-.04.49-.11l4.14-2.23c-1.67.45-4.35,1.15-6.42,1.69,0,.1-.01.19-.02.29ZM100.68,43.8c.7.43,1.16,1.15,1.28,1.95l1.45.23.48.08.37.33,1.09.97.68.61-.14.9-.79,4.99-.05.3-.79,4.99-.14.9-.84.37-1.34.59-.45.2-.34-.05-.36,6.41c-.02.29-.13.56-.3.77-.34.06-.67.17-.97.33l-.29.15s-.09-.02-.13-.03l-17.01-4.57c-4.3-1.15-8.82.83-10.88,4.77l-3.18,6.09-6.84,20.04c-.78,2.29-2.69,4.01-5.05,4.55l-2.15.49c-2.37.54-4.86-.19-6.56-1.93l-18.11-18.58c-.74-.75-.99-1.85-.66-2.84l5.88-17.63v-9.77l-2.27-5.89c-.29-.74.11-1.57.86-1.82l1.6-.53c.24-.08.49-.09.73-.04l2.57.55c.62.13,1.28.05,1.84-.24l17.53-9.43c3.07-1.56,6.59-2,9.95-1.26l13.38,3.5c4.51.99,8.82,2.73,12.75,5.15l7.16,4.41ZM74.55,43.02l2.27.36.14-.85c.02-.15-.08-.3-.23-.32l-1.72-.27c-.15-.02-.3.08-.32.23l-.14.85ZM66.07,41.26l2.09.18.06-.71c.01-.15-.1-.29-.25-.3l-1.53-.13c-.15-.01-.29.1-.3.25l-.06.71ZM48.56,48.7l.49.27,1.28-8.06-.55.11c-.58.11-1.02.57-1.12,1.15l-.81,5.09c-.09.58.19,1.16.71,1.44ZM58.83,91.69c0-3.47-2.81-6.28-6.28-6.28s-6.28,2.81-6.28,6.28,2.81,6.28,6.28,6.28,6.28-2.81,6.28-6.28ZM66.25,54.59l-2.04-.47-.16.69c-.03.15.06.3.21.33l1.5.35c.15.03.3-.06.33-.21l.16-.69ZM74.82,55.39l-2.27-.36-.14.85c-.02.15.08.3.23.32l1.72.27c.15.02.3-.08.32-.23l.14-.85ZM75.76,54.14l-4.55-2.18-10.08-1.6c-.3-.05-.51-.33-.46-.64l.85-5.35c.05-.3.33-.51.64-.46l10.08,1.6,5-.67.13-.8-4.75-.72.04-.25c.05-.31-.17-.6-.48-.64l-8.75-.87-4.93-2.35c-.26-.14-.55-.19-.84-.16l-4.83.34c-.49.06-.88.44-.96.93l-1.62,10.24c-.08.49.18.97.63,1.18l4.49,1.82c.26.12.56.16.84.11l5.41-.71,8.59,1.88c.31.06.61-.15.66-.46l.04-.25,4.74.79.13-.8ZM84.2,56.84l1.89-11.95.12-.75-6.97-1.22c-.31-.05-.6.15-.65.46l-.35,2.23-5.87.8-9.27-1.31c-.15-.02-.29.08-.31.23l-.62,3.89c-.02.15.08.29.23.32l9.22,1.62,5.33,2.58-.35,2.23c-.05.31.16.6.47.64l7,.99.12-.75ZM87.74,45.15l-1.89,11.95,15.42,2.39,1.34-.59.79-4.99.05-.3.79-4.99-1.09-.97-15.41-2.49ZM164.05,162.58c0-1.31,1.06-2.37,2.37-2.37s2.37,1.06,2.37,2.37-1.06,2.37-2.37,2.37-2.37-1.06-2.37-2.37ZM165.3,162.58l.56.98h1.13l.56-.98-.56-.98h-1.13l-.56.98ZM88.36,31.67l3.68.24v-2.77c0-1.49-.63-2.91-1.72-3.92l-4.8-4.4c-2.28-2.09-5.21-3.32-8.29-3.5l-4.45-.14c-3.28-.11-6.54.19-9.7.87.7.77,1.44,1.59,2.2,2.44,5.98,6.63,14.17,10.6,23.08,11.18ZM67.28,105.22l-.49.49-.49-.49-.49.49.49.49-.49.49.49.49.49-.49.49.49.49-.49-.49-.49.49-.49-.49-.49ZM34.92,139.32c-.44-.03-.89-.04-1.34-.04-12.85,0-23.3,10.45-23.3,23.3s10.45,23.3,23.3,23.3,23.3-10.45,23.3-23.3c0-.8-.04-1.6-.12-2.38l-3.67,1.61c0,.25.02.51.02.77,0,10.77-8.76,19.53-19.53,19.53s-19.53-8.76-19.53-19.53,8.46-19.22,18.98-19.51l1.89-3.75ZM77.65,100.25l-.44,1.17,1,.76,2.14,1.62-8.26,6.49c-1.29,1.01-3.02,1.28-4.55.7l-6.27-2.37c-1.78-.67-2.26-2.96-.91-4.3l8.13-7.99.7.4,1.36.78,1.04.6h0s2.36,3,2.36,3h1.34s2.89-2.26,2.89-2.26l-.53,1.39ZM69.44,106.21c0-1.46-1.19-2.65-2.65-2.65s-2.65,1.19-2.65,2.65,1.19,2.65,2.65,2.65,2.65-1.19,2.65-2.65ZM91.99,100.43c.69-.19,1.31-.59,1.75-1.15l12.49-15.82c.16-.2-.02-.5-.28-.44l-3.6.75-.65,4.23c-.05.3-.45.35-.58.08l-.64-1.47c-.18-.41-.7-.55-1.06-.28l-.3.22s0,.04,0,.05c-.07.59-.37,1.12-.84,1.49l-3.68,2.89-.07.06-.08.04-1.89,1.03c-.01.08-.02.16-.02.24v4.91c0,.65-.74,1.02-1.26.63l-2.78-2.09-13.86-4.11c-.49-.15-1.02-.01-1.38.35l-3.25,3.25,1.36.78,1.8-1.58,7.16,3.43-1.11,2.93,2.93,2.22,9.85-2.65ZM104.51,69.55l-.57-.07-.78-.09-.57-.07-.45.36-.48.37c-.43-.14-.91-.12-1.34.11l-4.02,2.12c.1-.02.19-.03.29-.03h0c.52,0,1,.23,1.32.64l.4.51c.18.23.29.5.34.79l4.35-3.41.78.09,3.5,4.46-.09.78-4.3,3.37c.21.11.41.26.56.46l.4.51c.28.36.39.79.35,1.21l1.43-.3c.13-.03.27-.04.4-.04.55,0,1.06.23,1.42.62l1.48-1.27c.57-.49.69-1.31.3-1.95l-1.23-1.48.05-.04.45-.36.07-.57.09-.78.07-.57-.36-.45-3.5-4.46-.36-.45ZM107.55,84.49l-1.11,1.41,22.15,8.81,16.84,4.69,2.94.44-17.8-7.45-19.3-11.68c-.1-.06-.19-.12-.29-.18-.18.53-.5,1.03-.96,1.42l-2.1,1.8c-.07.27-.19.52-.37.75ZM123.29,157.42c.37,1.66.57,3.39.57,5.16,0,13.16-10.7,23.86-23.86,23.86s-23.86-10.7-23.86-23.86c0-1.77.2-3.5.57-5.16h-4.71c-.31,1.67-.47,3.4-.47,5.16,0,15.72,12.75,28.47,28.47,28.47s28.47-12.75,28.47-28.47c0-1.76-.16-3.49-.47-5.16h-4.71ZM95.45,70.81l1.59-.84-5.15-1.38,2.48,3.03.83-.65.12-.09.13-.07ZM166.42,134.11c-4,0-7.81.83-11.26,2.32l3.06,3.74c2.56-.94,5.32-1.45,8.2-1.45,13.16,0,23.86,10.7,23.86,23.86s-10.7,23.86-23.86,23.86-23.86-10.7-23.86-23.86c0-1.13.08-2.23.24-3.32l-3.4-1.59c-.3-.14-.64-.22-.97-.25-.31,1.67-.47,3.39-.47,5.15,0,15.72,12.75,28.47,28.47,28.47s28.47-12.75,28.47-28.47-12.75-28.47-28.47-28.47ZM82.99,158.39c-.16.64-.28,1.28-.36,1.94l2.39-.12,6.45,5.83-8.55.43c.74,3.26,2.38,6.18,4.66,8.47l5.36-7.56.98.88c1.61,1.46,3.7,2.26,5.87,2.26s4.35-.84,5.97-2.35l4.95-4.62,6.45,2.64c.24-1.16.37-2.36.37-3.6,0-1.64-.23-3.23-.65-4.74.33-.21.7-.35,1.09-.4.47,1.63.72,3.36.72,5.14,0,10.31-8.38,18.69-18.69,18.69s-18.69-8.38-18.69-18.69c0-1.75.25-3.43.7-5.04.07.04.14.08.2.14l.79.71ZM105.17,169.25l2.51,9.08c2.95-1.44,5.44-3.69,7.18-6.46l-8.67-3.55c-.31.34-.65.64-1.01.93ZM92.6,178.47c2.25,1.05,4.76,1.64,7.4,1.64.6,0,1.19-.03,1.77-.09l-2.49-9.03c-.42-.04-.84-.1-1.24-.2l-5.44,7.67ZM74.01,89.85s-.09.08-.12.13c.12-.01.25-.02.37-.02.3,0,.59.04.87.13l2.36.7,3.67-2.88c-.15-.28-.22-.59-.2-.92l.17-2.27c.02-.31.15-.61.36-.84l.37-.4-.7.54-7.16,5.83ZM88.43,94.02h-.03s.58.17.58.17l.29.09.24.18,1.36,1.02v-2.46l-1.55.85c-.2.11-.44.17-.67.17-.08,0-.15,0-.23-.02ZM157.4,166.07l-8.06.4c.74,3.26,2.38,6.18,4.66,8.47l5.42-7.64c-.09-.13-.16-.27-.24-.4l4.61,2.15c.87.41,1.81.61,2.77.61,1.99,0,3.85-.89,5.11-2.44l.96-1.19c1.94-2.4,1.93-5.88-.03-8.28l-7.12-8.7.6-3.98c-1.21.02-2.38.17-3.52.42l-.82-1c1.49-.39,3.06-.59,4.67-.59,10.31,0,18.69,8.38,18.69,18.69s-8.38,18.69-18.69,18.69-18.69-8.38-18.69-18.69c0-.34.01-.67.03-1.01l9.64,4.49ZM182.82,156.39l-8.06,4.83c.07.44.11.9.11,1.36,0,.01,0,.02,0,.04l8.71,3.56c.24-1.16.37-2.36.37-3.6,0-2.18-.4-4.27-1.13-6.19ZM179.67,151.12c-2-2.3-4.58-4.08-7.52-5.1l-1.41,9.31c.31.18.6.39.88.61l8.04-4.82ZM171.59,169.25l2.51,9.08c2.95-1.44,5.44-3.69,7.18-6.46l-8.67-3.55c-.31.34-.65.64-1.01.93ZM159.02,178.47c2.25,1.05,4.76,1.64,7.4,1.64.6,0,1.19-.03,1.77-.09l-2.49-9.03c-.42-.04-.84-.1-1.24-.2l-5.44,7.67ZM28.2,14.22c-.5-.6-.41-1.49.2-1.98l3.68-2.98c.6-.48,1.48-.39,1.96.21l18.18,22.4c.11.13.07.32-.07.41l-5.67,3.61c-.12.08-.28.05-.36-.06L28.2,14.22ZM43.87,28.54h0c-.11-.13-.3-.15-.43-.04-.13.11-.15.3-.04.43.11.13.3.15.43.04.13-.11.15-.3.04-.43ZM42.1,25.68c-.71.59-.37,1.14-.28,1.25l.95,1.15.78-.07-1.1-1.29c-.13-.15-.05-.32.13-.46l.99,1.2.71-.1-1.1-1.33c.27-.03.53.01.69.2l.91,1.1.71-.08-1.08-1.3c-.72-.87-1.79-.7-2.32-.27ZM41.64,22.6l-2.73.82,1.38,1.67c.73.88,1.77.54,2.3.1.45-.37.52-.82.12-1.31l-1.07-1.29ZM39.94,20.54l-3.19.27.58.71.21-.04.92,1.12-.11.17.5.61,1.57-2.22-.5-.6ZM38.01,18.21l-2.76.78,1.32,1.6.75-.07-.89-1.07,2.09-.61-.52-.63ZM35.82,15.56l-2.74.8,1.58,1.91c.53.64,1.09.32,1.21.22.12-.1.27-.26.25-.42.1.04.5.25.92-.1.42-.35.11-.81-.04-.99l-1.17-1.42ZM33.81,13.16l-2.8.71.49.59.85-.2.22.26-.19.99.6.73.18-1.03c.55.66,1.26.51,1.61.22.43-.36.38-.68.03-1.09l-.99-1.19ZM29.81,12.42l.95,1.15.78-.07-1.1-1.29c-.13-.15-.05-.32.13-.46l.99,1.2.71-.1-1.1-1.33c.27-.03.53.01.69.2l.91,1.1.71-.08-1.08-1.3c-.72-.87-1.79-.7-2.32-.27-.71.59-.37,1.14-.28,1.25ZM86,143.28c.7-.51,1.44-.99,2.2-1.42h-2.27c-.32,0-.46.22-.52.34-.05.13-.11.38.12.61l.47.47ZM136.9,104.22c.39.13.8.11,1.17-.07.37-.18.64-.49.78-.88.13-.39.11-.8-.07-1.17-.18-.37-.49-.64-.88-.78-.16-.06-.33-.08-.5-.08-.23,0-.46.05-.67.16-.37.18-.64.49-.78.88-.13.39-.11.8.07,1.17.18.37.49.64.88.78ZM102.37,162.58c0,1.31-1.06,2.37-2.37,2.37s-2.37-1.06-2.37-2.37,1.06-2.37,2.37-2.37,2.37,1.06,2.37,2.37ZM101.13,162.58l-.56-.98h-1.13l-.56.98.56.98h1.13l.56-.98ZM89.1,146.38c3.11-2.1,6.87-3.33,10.9-3.33s7.74,1.22,10.85,3.3l2.74-2.69c-.93-.67-1.92-1.28-2.95-1.81h-21.28c-1.04.53-2.03,1.14-2.96,1.82l2.71,2.71ZM34.26,14.93c.1-.09.09-.22,0-.33l-.56-.68-.68.17.59.71c.25.3.5.25.65.12ZM121.07,99.17c.84-.07,1.47-.81,1.4-1.66-.07-.8-.74-1.41-1.53-1.41-.04,0-.08,0-.13,0-.41.03-.78.22-1.04.54-.27.31-.39.71-.36,1.12s.22.78.54,1.05c.31.27.71.39,1.12.36ZM53.52,30.81c.27.33.42.74.43,1.16l2.69-1.44h.02s.02-.02.02-.02c2.31-1.17,4.91-1.79,7.5-1.79,1.2,0,2.4.13,3.57.39h.03s.03.02.03.02l13.35,3.49c3.81.84,7.46,2.18,10.89,4.01v-3.03l-3.79-.25c-9.29-.61-17.98-4.82-24.21-11.73-.99-1.1-1.95-2.16-2.82-3.11-2.59.68-5.1,1.63-7.5,2.81l.74,3.93c.35,1.89-.07,3.81-1.12,5.34l.18.22ZM118.21,124.5l.49-.49.49.49.49-.49-.49-.49.49-.49-.49-.49-.49.49-.49-.49-.49.49.49.49-.49.49.49.49ZM89.71,146.99l4.25,4.25c.13.13.27.24.42.34l-3.55-3.93c2.58-1.59,5.6-2.52,8.83-2.58l-1.04,6.91h5.46c.26,0,.52-.04.77-.12l.88-5.84c1.29.45,2.52,1.04,3.66,1.77l.85-.83c-2.94-1.93-6.46-3.06-10.23-3.06s-7.34,1.14-10.29,3.1ZM141.09,124.5l.49-.49.49.49.49-.49-.49-.49.49-.49-.49-.49-.49.49-.49-.49-.49.49.49.49-.49.49.49.49ZM114.46,142.82c.23-.23.18-.48.13-.61-.05-.13-.19-.35-.52-.35h-2.26c.75.43,1.48.9,2.18,1.41l.46-.45ZM105.72,93.19c.39.13.8.11,1.17-.07.37-.18.64-.49.78-.88h0c.13-.39.11-.8-.07-1.17s-.49-.64-.88-.78c-.16-.06-.33-.08-.5-.08-.64,0-1.24.4-1.45,1.04-.27.8.16,1.68.96,1.95ZM31.98,145.13c-2.76.25-5.34,1.13-7.58,2.51l4.05,4.49-2.75,5.46c-.07.14-.14.29-.2.44l-5.68-6.3c-1.92,2.43-3.21,5.38-3.62,8.6l8.86-.44c-.14,1.72.43,3.46,1.64,4.77l2.74,2.95c1.18,1.27,2.85,2,4.59,2,.87,0,1.72-.18,2.51-.53l10.27-4.51,3.93,1.61c.24-1.13.36-2.3.37-3.49l1.16-.51c0,.13.01.27.01.4,0,10.31-8.38,18.69-18.69,18.69s-18.69-8.38-18.69-18.69,7.86-18.16,17.71-18.67l-.61,1.22ZM38.75,169.25l2.51,9.08c2.95-1.44,5.44-3.69,7.18-6.46l-8.67-3.55c-.31.34-.65.64-1.01.93ZM26.17,178.47c2.25,1.05,4.76,1.64,7.4,1.64.6,0,1.19-.03,1.77-.09l-2.49-9.03c-.42-.04-.84-.1-1.24-.2l-5.44,7.67ZM16.49,166.47c.74,3.26,2.38,6.18,4.66,8.47l5.42-7.64c-.27-.41-.51-.84-.71-1.29l-9.37.47ZM43.83,28.57c.09.1.07.26-.04.36-.11.09-.27.08-.36-.02-.09-.1-.07-.26.04-.36.11-.09.27-.08.36.02h0ZM43.8,28.71s-.01-.06-.05-.1c-.03-.03-.05-.05-.07-.07l-.26.22.03.04.11-.09.02.03s.03.06,0,.09c-.03.03-.05.06-.05.07l.04.04s.02-.03.05-.07c.03-.04.04-.07.03-.1h0s.07.03.11,0c.03-.02.04-.04.03-.07ZM143.33,159.51c-.13,1.01-.21,2.03-.21,3.07,0,12.85,10.45,23.3,23.3,23.3s23.3-10.45,23.3-23.3-10.45-23.3-23.3-23.3c-2.74,0-5.38.48-7.82,1.35l2.57,3.14c1.67-.47,3.43-.72,5.25-.72,10.77,0,19.53,8.76,19.53,19.53s-8.76,19.53-19.53,19.53-19.53-8.76-19.53-19.53c0-.47.02-.93.05-1.38l-3.62-1.69ZM81.52,155.74h-18.19c-.39,0-.77.08-1.13.24l-26.34,11.57c-1.79.78-3.87.35-5.2-1.08l-2.74-2.95c-1.3-1.4-1.59-3.47-.73-5.18l13.29-26.35c.55-1.09,1.67-1.78,2.9-1.78h17.11c.47,0,.93.11,1.34.31l10.09,4.92c.47.23.98.35,1.51.35h77.75c.81,0,1.57.36,2.08.98l18.03,22.04c1.47,1.79,1.47,4.36.02,6.16l-.96,1.19c-1.41,1.75-3.83,2.31-5.87,1.36l-24.39-11.37c-.59-.27-1.22-.41-1.87-.41h-19.94c-1.09,0-2.13.41-2.93,1.15l-10.76,10.04c-2.69,2.51-6.85,2.54-9.58.08l-11.71-10.58c-.49-.45-1.14-.69-1.8-.69ZM163.49,162.58c0,1.62,1.31,2.93,2.93,2.93s2.93-1.31,2.93-2.93-1.31-2.93-2.93-2.93-2.93,1.31-2.93,2.93ZM128.11,146.67h11.69c.74,0,1.45-.29,1.97-.82l1.86-1.86c1.41-1.41.41-3.81-1.58-3.81h-11.67c-.73,0-1.44.29-1.96.81l-1.88,1.86c-1.42,1.4-.42,3.82,1.57,3.82ZM102.93,162.58c0-1.62-1.31-2.93-2.93-2.93s-2.93,1.31-2.93,2.93,1.31,2.93,2.93,2.93,2.93-1.31,2.93-2.93ZM84.35,144l8.43,8.43c.79.79,1.85,1.23,2.96,1.23h8.35c1.1,0,2.15-.43,2.93-1.2l8.62-8.44c1.43-1.4.44-3.83-1.56-3.83h-28.14c-1.99,0-2.99,2.4-1.58,3.81ZM36.51,162.58c0-1.62-1.31-2.93-2.93-2.93s-2.93,1.31-2.93,2.93,1.31,2.93,2.93,2.93,2.93-1.31,2.93-2.93ZM73.25,142.85l-1.88-1.86c-.52-.52-1.23-.81-1.96-.81h-13.07c-1.99,0-2.99,2.4-1.58,3.81l1.86,1.86c.52.52,1.23.82,1.97.82h13.09c1.99,0,2.99-2.42,1.57-3.82ZM43.69,28.6l-.09.07.03.03s.07.05.1.03c.02-.02.03-.05,0-.1-.01-.01-.02-.02-.03-.03ZM52.81,25.55l-.64-3.44c-1.3.72-2.57,1.51-3.79,2.37l3.84,4.73c.6-1.1.83-2.39.6-3.66ZM39.33,21.33l-1.01.09.52.63.48-.72ZM35.95,162.58c0,1.31-1.06,2.37-2.37,2.37s-2.37-1.06-2.37-2.37,1.06-2.37,2.37-2.37,2.37,1.06,2.37,2.37ZM34.7,162.58l-.56-.98h-1.13l-.56.98.56.98h1.13l.56-.98ZM36.37,17.51c.1-.08.1-.17.02-.27l-.7-.85-.46.12.77.93c.09.11.28.16.38.07ZM40.82,24.68c.17.21.8.35,1.24-.01.21-.17.16-.35.03-.51l-.59-.72-1.36.4.69.84ZM35.05,17.83c.09.11.28.15.38.07.1-.08.1-.17.02-.27l-.78-.94-.46.12.84,1.02ZM84.85,74.86c.7.24,1.46-.13,1.7-.83.24-.7-.13-1.46-.83-1.7s-1.46.13-1.7.83.13,1.46.83,1.7ZM97.79,85.63c.38.49.3,1.19-.19,1.57l-3.68,2.89-5.13,2.8c-.05.03-.12.04-.18.03l-2.24-.37c-.14-.02-.26-.1-.35-.21l-3.84-4.89c-.09-.11-.13-.25-.12-.39l.17-2.27c0-.06.03-.12.07-.17l3.94-4.31,3.68-2.89c.49-.38,1.19-.3,1.57.19l.75.95c.19.24.54.28.78.09l2.91-2.28,4.1,5.23-2.91,2.28c-.24.19-.28.54-.09.78l.75.95ZM95.48,84.04l-2.97-3.79c-.67-.85-1.89-1-2.74-.33l-1.26.99c-.85.67-1,1.89-.33,2.74l2.97,3.79c.67.85,1.89,1,2.74.33l1.26-.99c.85-.67,1-1.89.33-2.74ZM94.89,85.1l-3.55-4.53c-.11-.14-.32-.17-.47-.06l-1.23.97c-.14.11-.17.32-.06.47l3.55,4.53c.11.14.32.17.47.06l1.23-.97c.14-.11.17-.32.06-.47ZM102.74,81.32l-.4-.51c-.1-.12-.27-.14-.39-.05h0l-4.79-6.11h0c.12-.1.14-.27.05-.39l-.4-.51c-.1-.12-.27-.14-.39-.05l-3.84,3.01c-.12.1-.14.27-.05.39l.4.51c.1.12.27.14.39.05l3.15-2.47,4.79,6.11-3.15,2.47c-.12.1-.14.27-.05.39l.4.51c.1.12.27.14.39.05l3.84-3.01c.12-.1.14-.27.05-.39Z"/>
</svg>