<?xml version="1.0" encoding="UTF-8"?>
<svg id="Capa_1" data-name="Capa 1" xmlns="http://www.w3.org/2000/svg" viewBox="0 0 200 200">
  <path d="M78.32,20.95h-33.45l-.22-2.46c-.32-3.51,2.45-6.54,5.97-6.54h21.95c3.53,0,6.29,3.03,5.97,6.54l-.22,2.46ZM44.38,12.24s.06-.06.09-.1c-.43-.65-.67-1.42-.67-2.25,0-2.37-1.92-4.3-4.3-4.3h-.83c-2.74,0-5,2.15-5.12,4.89l.42,10.45h8.44l-.2-2.24c-.21-2.36.58-4.72,2.18-6.46ZM52.27,147.31h-4.09v28.5h4.09v-1.64h1.26v-6.68h-1.26v-20.19ZM54.62,156.48v30.94c0,3.84,3.14,6.98,6.98,6.98s6.98-3.14,6.98-6.98v-30.94c0-3.84-3.14-6.98-6.98-6.98s-6.98,3.14-6.98,6.98ZM50.28,52.99l6.3-1.39,5.68-1.26,8.04-1.78,3.9-.86c.39-.08.71-.29.95-.57.34-.4.49-.95.37-1.5-.18-.82-.92-1.37-1.72-1.36-.12,0-.23.02-.35.04l-5.52,1.22-5.67,1.26-8.04,1.78-5.39,1.19-.89.2-.43.1-5.37,1.19c-.94.21-1.53,1.14-1.32,2.07.18.81.9,1.36,1.7,1.36.12,0,.25-.01.38-.04l1.42-.31,5.98-1.32ZM89.18,20.96l.43-11.26c-.11-2.29-2-4.1-4.29-4.1h-1.63c-2.37,0-4.3,1.92-4.3,4.3,0,.83-.25,1.6-.67,2.25.03.03.06.06.09.1,1.6,1.75,2.39,4.11,2.18,6.46l-.2,2.24h8.12c.09,0,.18,0,.27.01ZM70.92,167.49h-1.26v6.68h1.26v1.64h4.09v-28.5h-4.09v20.19ZM48.2,42.63h-1.37l.13,1.44c.3-.57.72-1.06,1.24-1.44ZM61.59,54.29c3.79,0,7.57.31,11.27.91l-10.6-2.35-8.48,1.88c2.58-.29,5.19-.43,7.81-.43ZM34.83,42.63l.6,15.14-.08,1.62c2.16-.88,4.37-1.65,6.62-2.31-1.72-.23-3.17-1.52-3.56-3.25-.24-1.09-.04-2.22.56-3.16.6-.94,1.54-1.6,2.63-1.84l3.26-.72-.5-5.48h-9.54ZM49,45.62c-.12.55.03,1.1.37,1.5l7.22-1.6-5.52-1.22c-.94-.21-1.87.38-2.07,1.32ZM87.84,59.39l-.07-1.41.58-15.35h-9.53l-.47,5.19,4.57,1.01c1.09.24,2.03.9,2.63,1.84.6.95.8,2.07.56,3.16-.42,1.9-2.14,3.29-4.09,3.29-.3,0-.61-.03-.91-.1l-.43-.09c2.44.69,4.83,1.51,7.16,2.46ZM69.61,42.63h-14.71l7.35,1.63,7.35-1.63ZM76.31,42.63s.03.02.04.03v-.03s-.04,0-.04,0ZM75.39,53.24l6.24,1.38c.13.03.25.04.38.04.8,0,1.52-.55,1.7-1.36.21-.94-.38-1.87-1.32-2.07l-4.26-.94-2.42-.54h0s0,0,0,0c-.3.15-.63.26-.97.34l-6.79,1.51,2.44.54,5.01,1.11ZM82.39,98.9l-.67-.15-6.02-1.33c-.3.15-.63.26-.97.34l-6.79,1.51,13.69,3.03c.13.03.25.04.38.04.05,0,.1,0,.15,0,.02,0,.04,0,.06,0,.03,0,.06,0,.09-.01.03,0,.05-.01.08-.02.02,0,.04,0,.06-.01.03,0,.06-.02.09-.03.01,0,.03,0,.04-.01.03-.01.07-.03.1-.04.01,0,.02,0,.03-.01.04-.02.07-.03.11-.05,0,0,.01,0,.02,0,.04-.02.08-.04.11-.07,0,0,0,0,0,0,.04-.03.08-.05.12-.08h0c.3-.24.53-.57.62-.97h0s0-.01,0-.02c.21-.94-.38-1.87-1.32-2.07ZM82.39,90.71l-6.69-1.48c-.3.15-.62.26-.96.34,0,0,0,0-.01,0l-.17.04-6.5,1.44-.12.03,1.44.32h0s9.98,2.21,9.98,2.21h0l2.28.5c.13.03.25.04.38.04.8,0,1.52-.55,1.7-1.36.21-.94-.38-1.87-1.32-2.07ZM75.32,81.21c-.19.07-.38.13-.58.18,0,0,0,0-.01,0l-6.79,1.51,13.69,3.03c.13.03.25.04.38.04.8,0,1.52-.55,1.7-1.36.21-.94-.38-1.87-1.32-2.07l-6.69-1.48c-.12.06-.25.11-.38.16ZM80.06,142.53h-36.93v2.66c0,.11.09.2.2.2h36.52c.11,0,.2-.09.2-.2v-2.66ZM29.68,66.03v9.45c0,1.62,1.78,2.59,3.15,1.72,8.09-5.14,18.03-8.18,28.76-8.18s20.68,3.04,28.76,8.18c1.36.87,3.15-.1,3.15-1.72v-9.45c0-.76-.42-1.46-1.1-1.81-9.06-4.75-19.58-7.47-30.82-7.47s-21.76,2.72-30.82,7.47c-.67.35-1.1,1.05-1.1,1.81ZM40.8,75.74c-.04.22-.04.45.01.68.18.81.9,1.36,1.7,1.36.12,0,.25-.01.38-.04l4.58-1.01,18.17-4.02,3.3-.73c-2.41-.33-4.86-.5-7.34-.5-7.31,0-14.38,1.46-20.8,4.26ZM73.56,73.47l-5.62,1.25,13.69,3.03c.13.03.25.04.38.04.8,0,1.52-.55,1.7-1.36,0-.03,0-.05.01-.08-2.81-1.33-5.76-2.39-8.81-3.18-.06.02-.11.03-.17.04,0,0,0,0-.01,0l-1.17.26ZM42.51,85.97c.12,0,.25-.01.38-.04l5.3-1.17,2.42-.54,6.2-1.37,17.4-3.85c.21-.05.41-.13.59-.25l-1.67-.37-6.1-1.35-16.73,3.7-2.42.54-5.74,1.27c-.94.21-1.53,1.14-1.32,2.07.18.81.9,1.36,1.7,1.36ZM33.54,79.6c.28.13.55.25.83.38l-1.31,27.33c.08-.21.17-.42.26-.63,1.55-3.65,3.77-6.93,6.59-9.76.25-.25.51-.5.77-.74-1.12-.55-1.99-1.59-2.27-2.86-.24-1.09-.04-2.22.56-3.16.6-.94,1.53-1.6,2.62-1.84-1.55-.35-2.83-1.58-3.18-3.18-.24-1.09-.04-2.22.56-3.16.6-.94,1.53-1.6,2.62-1.84-1.55-.35-2.83-1.58-3.18-3.18,0-.03,0-.06-.01-.09-1.46.73-2.88,1.53-4.25,2.41-.2.12-.4.23-.61.32ZM40.81,100.97c.18.81.9,1.36,1.7,1.36.12,0,.25-.01.38-.04l31.32-6.94c.21-.05.41-.13.59-.25l-7.78-1.72-24.88,5.51c-.94.21-1.53,1.14-1.32,2.07ZM30.7,113.07v14.32c0,7.01,5.68,12.68,12.68,12.68h36.42c7.01,0,12.68-5.68,12.68-12.68v-14.32c0-1.13-.92-2.05-2.05-2.05,0,5.87-4.77,10.64-10.64,10.64h-36.42c-5.87,0-10.64-4.77-10.64-10.64-1.13,0-2.05.92-2.05,2.05ZM90.13,107.31l-1.31-27.33c.28-.12.55-.25.83-.38-.21-.09-.41-.2-.61-.32-1.01-.64-2.04-1.24-3.09-1.81-.49,1.35-1.65,2.36-3.03,2.67,1.09.24,2.02.9,2.62,1.84.6.95.8,2.07.56,3.16-.35,1.6-1.63,2.83-3.18,3.18,1.09.24,2.02.9,2.62,1.84.6.95.8,2.07.56,3.16-.35,1.6-1.63,2.83-3.18,3.18,1.09.24,2.02.9,2.62,1.84.38.6.6,1.26.65,1.95,1.47,1.97,2.7,4.11,3.67,6.39.09.21.17.42.26.63ZM40.81,92.79c.18.81.9,1.36,1.7,1.36.12,0,.25-.01.38-.04l.37-.08,15.93-3.53.63-.14,14.38-3.18c.21-.05.41-.13.59-.25l-7.78-1.72-24.88,5.51c-.94.21-1.53,1.14-1.32,2.07ZM87.98,111.03v-2.45h.07c-.73-1.9-1.66-3.7-2.76-5.39-.78.98-1.98,1.6-3.28,1.6-.3,0-.61-.03-.91-.1l-18.84-4.17-18.84,4.17c-.3.07-.61.1-.91.1-1.73,0-3.27-1.08-3.9-2.65-1.42,1.97-2.6,4.13-3.48,6.44h.07v2.45c0,4.51,3.67,8.18,8.18,8.18h36.42c4.51,0,8.18-3.67,8.18-8.18ZM33.06,23.4h55.85c.79,0,1.43.64,1.43,1.43v13.91c0,.79-.64,1.43-1.43,1.43h-55.85c-.79,0-1.43-.64-1.43-1.43v-13.91c0-.79.64-1.43,1.43-1.43ZM37.53,35.81c.81.34,1.63.24,1.83-.22.03-.06.04-.13.04-.19.18.16.41.3.67.41.81.34,1.63.24,1.83-.22.02-.06.04-.12.04-.18.18.16.41.3.67.41.81.34,1.63.24,1.83-.22.02-.06.04-.11.04-.17.18.16.41.3.66.4.81.34,1.63.24,1.83-.22.2-.47-.29-1.13-1.11-1.47-.81-.34-1.63-.24-1.83.22-.02.06-.04.11-.04.17-.18-.16-.41-.3-.66-.4-.81-.34-1.63-.24-1.83.22-.02.06-.04.12-.04.18-.18-.16-.41-.3-.67-.41-.81-.34-1.63-.24-1.83.22-.03.06-.04.13-.04.19-.18-.16-.41-.3-.67-.42-.81-.34-1.63-.24-1.83.22-.2.47.29,1.13,1.11,1.47ZM35.53,32.73l.68.73h9.08s-.46-.38-.46-.38l-5.19-3.95-1.44-1.08c-.9-.31-1.79-.6-2.68-.91l.04.12,2.14,3.71c-.69.62-1.47,1.15-2.18,1.76ZM121.46,18.48c-.32-3.51,2.45-6.54,5.97-6.54h21.95c3.53,0,6.29,3.03,5.97,6.54l-.22,2.46h-33.45s-.22-2.46-.22-2.46ZM157.8,18.71l-.2,2.24h8.44s.42-10.45.42-10.45c-.13-2.74-2.38-4.89-5.12-4.89h-.83c-2.37,0-4.3,1.92-4.3,4.3,0,.83-.25,1.6-.67,2.25.03.03.06.06.09.1,1.6,1.75,2.39,4.11,2.18,6.46ZM147.73,167.49h-1.26s0,6.68,0,6.68h1.26v1.64s4.09,0,4.09,0v-28.5s-4.09,0-4.09,0v20.19ZM138.41,149.5c-3.84,0-6.98,3.14-6.98,6.98v30.94c0,3.84,3.14,6.98,6.98,6.98s6.98-3.14,6.98-6.98v-30.94c0-3.84-3.14-6.98-6.98-6.98ZM155.7,54.31l1.42.31c.13.03.25.04.38.04.8,0,1.52-.55,1.7-1.36.21-.94-.38-1.87-1.32-2.07l-5.37-1.19-.43-.1-.89-.2-5.39-1.19-8.04-1.78-5.67-1.26-5.52-1.22c-.12-.03-.23-.04-.35-.04-.81-.01-1.54.54-1.72,1.36-.12.55.03,1.1.37,1.5.24.28.56.49.95.57l3.9.86,8.04,1.78,5.68,1.26,6.3,1.39,5.98,1.32ZM111.09,20.95h8.12s-.2-2.24-.2-2.24c-.21-2.36.58-4.72,2.18-6.46.03-.03.06-.06.09-.1-.43-.65-.67-1.42-.67-2.25,0-2.37-1.92-4.3-4.3-4.3h-1.63c-2.3,0-4.19,1.81-4.29,4.1l.43,11.26c.09,0,.18-.01.27-.01ZM129.08,147.31h-4.09s0,28.5,0,28.5h4.09s0-1.64,0-1.64h1.26s0-6.68,0-6.68h-1.26v-20.19ZM153.04,44.08l.13-1.44h-1.37c.51.38.94.87,1.24,1.44ZM146.22,54.73l-8.48-1.88-10.6,2.35c3.7-.6,7.48-.91,11.27-.91,2.62,0,5.23.15,7.81.43ZM155.63,42.63l-.5,5.48,3.26.72c1.09.24,2.03.9,2.63,1.84.6.95.8,2.07.56,3.16-.38,1.73-1.84,3.02-3.56,3.25,2.25.66,4.46,1.43,6.62,2.31l-.08-1.62.6-15.14h-9.54ZM148.93,44.29l-5.52,1.22,7.22,1.6c.34-.4.49-.95.37-1.5-.21-.94-1.14-1.53-2.07-1.32ZM119.32,56.93l-.43.09c-.3.07-.6.1-.91.1-1.95,0-3.67-1.38-4.09-3.29-.24-1.09-.05-2.22.56-3.16.6-.94,1.54-1.6,2.63-1.84l4.57-1.01-.47-5.19h-9.53s.58,15.35.58,15.35l-.07,1.41c2.33-.95,4.72-1.77,7.16-2.46ZM137.74,44.26l7.35-1.63h-14.71s7.35,1.63,7.35,1.63ZM123.65,42.63v.03s.03-.02.04-.03h-.04ZM129.62,52.14l2.44-.54-6.79-1.51c-.34-.08-.66-.19-.97-.34h0s-2.42.54-2.42.54l-4.26.94c-.94.21-1.53,1.14-1.32,2.07.18.81.9,1.36,1.7,1.36.12,0,.25-.01.38-.04l6.24-1.38,5.01-1.11ZM116.29,100.97s0,.01,0,.02h0c.09.4.32.74.62.97h0s.08.06.12.08c0,0,0,0,0,0,.04.02.07.05.11.07,0,0,.01,0,.02,0,.04.02.07.04.11.05.01,0,.02,0,.03.01.03.01.07.03.1.04.01,0,.03,0,.04.01.03,0,.06.02.09.03.02,0,.04,0,.06.01.03,0,.05.01.08.02.03,0,.06,0,.09.01.02,0,.04,0,.06,0,.05,0,.1,0,.15,0,.12,0,.25-.01.38-.04l13.69-3.03-6.79-1.51c-.34-.08-.66-.19-.97-.34l-6.02,1.33-.67.15c-.94.21-1.53,1.14-1.32,2.07ZM116.29,92.79c.18.81.9,1.36,1.7,1.36.12,0,.25-.01.38-.04l2.28-.5h0l9.98-2.21h0s1.44-.32,1.44-.32l-.12-.03-6.5-1.44-.17-.04s0,0-.01,0c-.34-.08-.65-.19-.96-.34l-6.69,1.48c-.94.21-1.53,1.14-1.32,2.07ZM124.3,81.05l-6.69,1.48c-.94.21-1.53,1.14-1.32,2.07.18.81.9,1.36,1.7,1.36.12,0,.25-.01.38-.04l13.69-3.03-6.79-1.51s0,0-.01,0c-.2-.04-.39-.1-.58-.18-.13-.05-.25-.1-.38-.16ZM119.94,145.19c0,.11.09.2.2.2h36.52c.11,0,.2-.09.2-.2v-2.66s-36.93,0-36.93,0v2.66ZM169.22,64.22c-9.06-4.75-19.58-7.47-30.82-7.47-11.23,0-21.76,2.72-30.82,7.47-.67.35-1.1,1.05-1.1,1.81v9.45c0,1.62,1.78,2.59,3.15,1.72,8.09-5.14,18.03-8.18,28.76-8.18,10.74,0,20.68,3.04,28.76,8.18,1.36.87,3.15-.1,3.15-1.72v-9.45c0-.76-.42-1.46-1.1-1.81ZM138.41,71.48c-2.48,0-4.93.17-7.34.5l3.3.73,18.17,4.02,4.58,1.01c.13.03.25.04.38.04.8,0,1.52-.55,1.7-1.36.05-.23.05-.46.01-.68-6.42-2.8-13.49-4.26-20.8-4.26ZM125.27,73.21s0,0-.01,0c-.06-.01-.11-.03-.17-.04-3.05.79-5.99,1.86-8.81,3.18,0,.03,0,.05.01.08.18.81.9,1.36,1.7,1.36.12,0,.25-.01.38-.04l13.69-3.03-5.62-1.25-1.17-.26ZM159.19,84.6c.21-.94-.38-1.87-1.32-2.07l-5.74-1.27-2.42-.54-16.73-3.7-6.1,1.35-1.67.37c.17.12.37.2.59.25l17.4,3.85,6.2,1.37,2.42.54,5.3,1.17c.13.03.25.04.38.04.8,0,1.52-.55,1.7-1.36ZM165.85,79.28c-1.38-.88-2.8-1.68-4.25-2.41,0,.03,0,.06-.01.09-.35,1.6-1.63,2.83-3.18,3.18,1.09.24,2.02.9,2.62,1.84.6.95.8,2.07.56,3.16-.35,1.6-1.63,2.83-3.18,3.18,1.09.24,2.02.9,2.62,1.84.6.95.8,2.07.56,3.16-.28,1.27-1.15,2.31-2.27,2.86.26.24.52.49.77.74,2.82,2.82,5.04,6.11,6.59,9.76.09.21.17.42.26.63l-1.31-27.33c.28-.12.55-.25.83-.38-.21-.09-.41-.2-.61-.32ZM157.87,98.9l-24.88-5.51-7.78,1.72c.17.12.37.2.59.25l31.32,6.94c.13.03.25.04.38.04.8,0,1.52-.55,1.7-1.36.21-.94-.38-1.87-1.32-2.07ZM167.25,111.03c0,5.87-4.77,10.64-10.64,10.64h-36.42c-5.87,0-10.64-4.77-10.64-10.64-1.13,0-2.05.92-2.05,2.05v14.32c0,7.01,5.68,12.68,12.68,12.68h36.42c7.01,0,12.68-5.68,12.68-12.68v-14.32c0-1.13-.92-2.05-2.05-2.05ZM110.13,106.68c.97-2.28,2.2-4.42,3.67-6.39.05-.69.27-1.35.65-1.95.6-.94,1.53-1.6,2.62-1.84-1.55-.35-2.83-1.58-3.18-3.18-.24-1.09-.05-2.22.56-3.16.6-.94,1.53-1.6,2.62-1.84-1.55-.35-2.83-1.58-3.18-3.18-.24-1.09-.05-2.22.56-3.16.6-.94,1.53-1.6,2.62-1.84-1.38-.31-2.54-1.32-3.03-2.67-1.05.56-2.08,1.17-3.09,1.81-.2.12-.4.23-.61.32.28.13.55.25.83.38l-1.31,27.33c.08-.21.17-.42.26-.63ZM157.87,90.71l-24.88-5.51-7.78,1.72c.17.12.37.2.59.25l14.38,3.18.63.14,15.93,3.53.37.08c.13.03.25.04.38.04.8,0,1.52-.55,1.7-1.36.21-.94-.38-1.87-1.32-2.07ZM120.2,119.21h36.42c4.51,0,8.18-3.67,8.18-8.18v-2.45h.07c-.88-2.3-2.05-4.46-3.48-6.44-.62,1.57-2.17,2.65-3.9,2.65-.3,0-.61-.03-.91-.1l-18.84-4.17-18.84,4.17c-.3.07-.6.1-.91.1-1.31,0-2.51-.62-3.28-1.6-1.1,1.68-2.03,3.48-2.76,5.39h.07v2.45c0,4.51,3.67,8.18,8.18,8.18ZM168.38,24.83v13.91c0,.79-.64,1.43-1.43,1.43h-55.85c-.79,0-1.43-.64-1.43-1.43v-13.91c0-.79.64-1.43,1.43-1.43h55.85c.79,0,1.43.64,1.43,1.43ZM163.58,34.34c-.2-.47-1.02-.57-1.83-.22-.26.11-.49.26-.67.42,0-.07-.02-.13-.04-.19-.2-.47-1.02-.57-1.83-.22-.26.11-.49.25-.67.41,0-.06-.02-.12-.04-.18-.2-.47-1.02-.57-1.83-.22-.26.11-.48.25-.66.4,0-.06-.02-.12-.04-.17-.2-.47-1.02-.57-1.83-.22-.81.34-1.31,1-1.11,1.47.2.47,1.02.57,1.83.22.26-.11.48-.25.66-.4,0,.06.02.12.04.17.2.47,1.02.57,1.83.22.26-.11.49-.25.67-.41,0,.06.02.12.04.18.2.47,1.02.57,1.83.22.26-.11.49-.26.67-.41,0,.07.02.13.04.19.2.47,1.02.57,1.83.22.81-.34,1.31-1,1.11-1.47ZM162.29,30.97l2.14-3.71.04-.12c-.88.31-1.78.6-2.68.91l-1.44,1.08-5.19,3.95-.46.37h9.08s.68-.72.68-.72c-.71-.61-1.5-1.14-2.18-1.76Z"/>
</svg>