<?xml version="1.0" encoding="UTF-8"?>
<svg id="Capa_1" xmlns="http://www.w3.org/2000/svg" version="1.1" viewBox="0 0 200 200">
  <!-- Generator: Adobe Illustrator 29.0.0, SVG Export Plug-In . SVG Version: 2.1.0 Build 186)  -->
  <defs>
    <style>
      .st0 {
        fill: #8e8370;
      }
    </style>
  </defs>
  <path class="st0" d="M111,151.7l-7.9-9.7-7.6,10.1-24.4-5,14.1,26.7,36.9,3.6,13.6-28.6,3.9-4.9-5.8,1.1-22.8,6.8ZM131.8,147.7l-17.2,8.4-2-2.5,19.2-6ZM104,148.5l7.9,8.8-8.7,4.6.7-13.4ZM102.4,146.3l-2,15.8-6.3-3.4,8.3-12.4ZM93.9,154.3l-2.3,3-11.8-5.6,14.1,2.6ZM77.6,152.9l20.9,11.3-11.9,6.3-9.1-17.6ZM91.1,171.3l10.4-5.5,12.1,7-22.5-1.5ZM120.2,172.8l-15.7-8.5,27.8-15.1-12.1,23.6Z"/>
  <path class="st0" d="M73.3,82.6l-7.9.9-51.4,12,12.7,8.2,6.1,17.2,8.6-8.9,6.6,4.2,18.7-28,6.5-5.6ZM29.2,103.2l23.4-9.6-17.9,11.9-2.1,8.2-3.5-10.5ZM34.2,116.2l2.3-7.4,2.9,1.9-5.2,5.5ZM37.9,107.2l23-18.3-34.2,11.9-6-4,46.4-11.3-2.2,1.6-17.6,25.6-9.5-5.5Z"/>
  <path class="st0" d="M180,109.3l5.8-5.6-5.2-19.7-5.2-.4-5.7-4.1-3.7,2.2.4,10.5-8.2,5.3-.3-1-8,5.4-.8,7,30.9.6ZM152.7,103.4l3.3-2.2,1.7,5.2h-5.3s.3-2.9.3-2.9ZM159.1,100.3l7.7-4.8,10.9,10.8h-17.8s-.8-6-.8-6ZM172.8,85.2l-3.8,4.2-.4-5.9,1-.6,3.2,2.3ZM169,93.6l6.6-7.2h2.9s4.8,15.5,4.8,15.5l-3.3,3.7-11-12ZM148.1,117.2l3.4,6.1,7.4.4,2.1-3.6,1.7,3.9,7.9-.4,2.1-3.6,2.1,3.6h7.5s3.8-6.5,3.8-6.5l-4.1-6.1-7.1-.4-2.1,3.6-2.1-3.6h-7.5s-2.1,3.6-2.1,3.6l-2.1-3.6h-7.5s-3.3,6.5-3.3,6.5ZM174.3,117.2l2.1-3.6,4.1.4,2.1,3.2-2.1,3.6h-4.1s-2.1-3.6-2.1-3.6ZM162.7,117.2l2.1-3.6h4.1s2.1,3.6,2.1,3.6l-2.1,3.6-4.5.3-1.7-3.8ZM151.1,117.2l2.1-3.6h4.1s2.1,3.6,2.1,3.6l-2.1,3.6-4.1-.4-2.1-3.2Z"/>
  <path class="st0" d="M128.4,60.2c.5-.4,1-1,1.3-1.7.5-1.1.5-2.3,0-3.4-.2-.5-.6-1-1-1.4,0-.5-.1-1-.3-1.4-.2-.5-.6-1-1-1.4,0-.5-.1-1-.3-1.4-.4-1-1.3-1.7-2.3-2.1-.4-.1-.8-.2-1.2-.2s-.9,0-1.3.2l-7.1-14.1-1.3.2c.5-1.1.8-2.4.8-3.6,0-4.2-3.1-7.3-7.1-7.3s-.9,0-1.4.1c-4.2.7-7.6,4.7-7.6,9.1s.4,3,1.2,4.2l-19.7,3.5,19.4,9.7-3.7,22.1,3.7-3.7c.5.3,1.2.5,1.9.5s.5,0,.7,0c1.5-.3,2.8-1.4,3.3-2.8,1.2-.4,2.1-1.4,2.5-2.5,1.6-.6,2.8-2.3,2.8-4.1s-.2-1.3-.5-1.9l1.4-1.4,19.4,9.7-2.4-4.9ZM124.8,52.8c.1,0,.2,0,.4,0,.7.2.9,1,.6,1.7-.3.6-.9,1-1.4,1s-.2,0-.4,0c-.7-.2-.9-1-.6-1.7.3-.6.9-1,1.4-1ZM122,51c.3-.6.9-1,1.4-1s.2,0,.4,0c.7.2.9,1,.6,1.7-.3.6-.9,1-1.4,1s-.2,0-.4,0c-.7-.2-.9-1-.6-1.7ZM102.4,47.7l11.1-11.3h0s-2.5,15.4-2.5,15.4l-8.6-4.2ZM106.4,25.5c.3,0,.6,0,.9,0,2.5,0,4.4,1.9,4.4,4.6s-2.4,5.9-5.3,6.4c-.3,0-.6,0-.9,0-2.5,0-4.4-1.9-4.4-4.6s2.4-5.9,5.3-6.4ZM88.6,40.8l20.2-3.6-9,9.2-11.2-5.6ZM101.9,50.5l7.1,3.4-9.2,9.4,2.1-12.8ZM101.4,65.4c0,0-.2,0-.2,0-.6,0-1.1-.5-1.1-1.2s.6-1.5,1.3-1.6c0,0,.2,0,.2,0,.6,0,1.1.5,1.1,1.2s-.6,1.5-1.3,1.6ZM104,62.8c0,0-.2,0-.2,0-.6,0-1.1-.5-1.1-1.2s.6-1.5,1.3-1.6c0,0,.2,0,.2,0,.6,0,1.1.5,1.1,1.2s-.6,1.5-1.3,1.6ZM106.5,60.3c0,0-.2,0-.2,0-.6,0-1.1-.5-1.1-1.2s.6-1.5,1.3-1.6c0,0,.2,0,.2,0,.6,0,1.1.5,1.1,1.2s-.6,1.5-1.3,1.6ZM113.5,53.3l.2-1,1.9-11.6,9.1,18.3-11.1-5.6ZM127.1,57.4c-.3.6-.9,1-1.4,1s-.2,0-.4,0c-.7-.2-.9-1-.6-1.7.3-.6.9-1,1.4-1s.2,0,.4,0c.7.2.9,1,.6,1.7Z"/>
</svg>