<?xml version="1.0" encoding="UTF-8"?>
<svg id="Capa_1" xmlns="http://www.w3.org/2000/svg" version="1.1" xmlns:xlink="http://www.w3.org/1999/xlink" viewBox="0 0 122.7 122.7">
  <!-- Generator: Adobe Illustrator 29.0.0, SVG Export Plug-In . SVG Version: 2.1.0 Build 186)  -->
  <defs>
    <style>
      .st0 {
        fill: #8e8370;
      }

      .st1 {
        fill: url(#Nueva_muestra_de_motivo_1);
      }

      .st2 {
        fill: none;
      }

      .st3 {
        clip-path: url(#clippath-1);
      }

      .st4 {
        clip-path: url(#clippath);
      }
    </style>
    <clipPath id="clippath-1">
      <rect class="st2" x="0" y="0" width="122.7" height="122.7"/>
    </clipPath>
    <pattern id="Nueva_muestra_de_motivo_1" data-name="Nueva muestra de motivo 1" x="0" y="0" width="122.7" height="122.7" patternTransform="translate(3326 -1071.3)" patternUnits="userSpaceOnUse" viewBox="0 0 122.7 122.7">
      <g>
        <rect class="st2" x="0" width="122.7" height="122.7"/>
        <g class="st3">
          <g>
            <path class="st0" d="M69,85.2l5.8-1.1-3.9,4.9-13.6,28.6-36.9-3.6-14.1-26.7,24.4,5,7.6-10.1,7.9,9.7,22.8-6.8ZM47.8,94l2,2.5,17.2-8.4-19.2,6ZM38.5,102.1l8.7-4.6-7.9-8.8-.7,13.4ZM29.3,98.9l6.3,3.4,2-15.8-8.3,12.4ZM15,92l11.8,5.6,2.3-3-14.1-2.6ZM21.9,110.8l11.9-6.3-20.9-11.3,9.1,17.6ZM48.9,113.2l-12.1-7-10.4,5.5,22.5,1.5ZM67.5,89.5l-27.8,15.1,15.7,8.5,12.1-23.6Z"/>
            <path class="st0" d="M31.9,22.8l-18.7,28-6.6-4.2-8.6,8.9-6.1-17.2-12.7-8.2,51.4-12,7.9-.9-6.5,5.6ZM-2.3,48.2L-.2,40l17.9-11.9-23.4,9.6,3.5,10.5ZM4.4,45.2l-2.9-1.9-2.3,7.4,5.2-5.5ZM12.4,47.2l17.6-25.6,2.2-1.6L-14.2,31.3l6,4,34.2-11.9L3,41.7l9.5,5.5Z"/>
            <path class="st0" d="M51.1,53.9l.8-7,8-5.4.3,1,8.2-5.3-.4-10.5,3.7-2.2,5.7,4.1,5.2.4,5.2,19.7-5.8,5.6-30.9-.6ZM54.4,51.5h5.3s-1.7-5.2-1.7-5.2l-3.3,2.2-.3,2.9ZM61.8,51.5h17.8s-10.9-10.8-10.9-10.8l-7.7,4.8.8,6ZM71.6,28.1l-1,.6.4,5.9,3.8-4.2-3.2-2.3ZM82,50.8l3.3-3.7-4.8-15.5h-2.9s-6.6,7.2-6.6,7.2l11,12ZM53.5,55.8h7.5s2.1,3.6,2.1,3.6l2.1-3.6h7.5s2.1,3.6,2.1,3.6l2.1-3.6,7.1.4,4.1,6.1-3.8,6.5h-7.5s-2.1-3.6-2.1-3.6l-2.1,3.6-7.9.4-1.7-3.9-2.1,3.6-7.4-.4-3.4-6.1,3.3-6.5ZM78.4,65.9h4.1s2.1-3.6,2.1-3.6l-2.1-3.2-4.1-.4-2.1,3.6,2.1,3.6ZM66.4,66.2l4.5-.3,2.1-3.6-2.1-3.6h-4.1s-2.1,3.6-2.1,3.6l1.7,3.8ZM55.2,65.5l4.1.4,2.1-3.6-2.1-3.6h-4.1s-2.1,3.6-2.1,3.6l2.1,3.2Z"/>
            <path class="st0" d="M121.2,13.6l-19.4-9.7-1.4,1.4c.3.6.5,1.2.5,1.9,0,1.8-1.2,3.5-2.8,4.1-.4,1.1-1.4,2.1-2.5,2.5-.5,1.4-1.8,2.5-3.3,2.8-.2,0-.5,0-.7,0-.7,0-1.3-.2-1.9-.5l-3.7,3.7,3.7-22.1-19.4-9.7,19.7-3.5c-.8-1.2-1.2-2.6-1.2-4.2,0-4.4,3.3-8.3,7.6-9.1.5,0,.9-.1,1.4-.1,4.1,0,7.1,3.2,7.1,7.3s-.3,2.5-.8,3.6l1.3-.2,7.1,14.1c.4-.1.9-.2,1.3-.2s.8,0,1.2.2c1,.3,1.8,1.1,2.3,2.1.2.4.3.9.3,1.4.4.4.8.8,1,1.4.2.5.3.9.3,1.4.4.4.8.8,1,1.4.5,1,.5,2.3,0,3.4-.3.7-.7,1.2-1.3,1.7l2.4,4.9ZM113.8,2.3c-.3.7,0,1.5.6,1.7.1,0,.2,0,.4,0,.6,0,1.2-.4,1.4-1,.3-.7,0-1.5-.6-1.7-.1,0-.2,0-.4,0-.6,0-1.2.4-1.4,1ZM113,1.3c.1,0,.2,0,.4,0,.6,0,1.2-.4,1.4-1,.3-.7,0-1.5-.6-1.7-.1,0-.2,0-.4,0-.6,0-1.2.4-1.4,1-.3.7,0,1.5.6,1.7ZM101.4.4l2.5-15.4h0s-11.1,11.3-11.1,11.3L101.4.4ZM91.5-19.6c0,2.7,1.9,4.6,4.4,4.6s.6,0,.9,0c2.9-.5,5.3-3.4,5.3-6.4s-1.9-4.6-4.4-4.6-.6,0-.9,0c-2.9.5-5.3,3.4-5.3,6.4ZM90.2-5.1l9-9.2-20.2,3.6,11.2,5.6ZM90.2,11.8l9.2-9.4-7.1-3.4-2.1,12.8ZM93.2,12.3c0-.7-.5-1.2-1.1-1.2s-.1,0-.2,0c-.7.1-1.3.8-1.3,1.6s.5,1.2,1.1,1.2.1,0,.2,0c.7-.1,1.3-.8,1.3-1.6ZM95.7,9.7c0-.7-.5-1.2-1.1-1.2s-.1,0-.2,0c-.7.1-1.3.8-1.3,1.6s.5,1.2,1.1,1.2.1,0,.2,0c.7-.1,1.3-.8,1.3-1.6ZM98.2,7.2c0-.7-.5-1.2-1.1-1.2s-.1,0-.2,0c-.7.1-1.3.8-1.3,1.6s.5,1.2,1.1,1.2.1,0,.2,0c.7-.1,1.3-.8,1.3-1.6ZM115.1,7.4l-9.1-18.3-1.9,11.6-.2,1,11.1,5.6ZM116.9,4.2c-.1,0-.2,0-.4,0-.6,0-1.2.4-1.4,1-.3.7,0,1.5.6,1.7.1,0,.2,0,.4,0,.6,0,1.2-.4,1.4-1,.3-.7,0-1.5-.6-1.7Z"/>
            <path class="st0" d="M121.2,136.3l-19.4-9.7-1.4,1.4c.3.6.5,1.2.5,1.9,0,1.8-1.2,3.5-2.8,4.1-.4,1.1-1.4,2.1-2.5,2.5-.5,1.4-1.8,2.5-3.3,2.8-.2,0-.5,0-.7,0-.7,0-1.3-.2-1.9-.5l-3.7,3.7,3.7-22.1-19.4-9.7,19.7-3.5c-.8-1.2-1.2-2.6-1.2-4.2,0-4.4,3.3-8.3,7.6-9.1.5,0,.9-.1,1.4-.1,4.1,0,7.1,3.2,7.1,7.3s-.3,2.5-.8,3.6l1.3-.2,7.1,14.1c.4-.1.9-.2,1.3-.2s.8,0,1.2.2c1,.3,1.8,1.1,2.3,2.1.2.4.3.9.3,1.4.4.4.8.8,1,1.4.2.5.3.9.3,1.4.4.4.8.8,1,1.4.5,1,.5,2.3,0,3.4-.3.7-.7,1.2-1.3,1.7l2.4,4.9ZM113.8,125c-.3.7,0,1.5.6,1.7.1,0,.2,0,.4,0,.6,0,1.2-.4,1.4-1,.3-.7,0-1.5-.6-1.7-.1,0-.2,0-.4,0-.6,0-1.2.4-1.4,1ZM113,124c.1,0,.2,0,.4,0,.6,0,1.2-.4,1.4-1,.3-.7,0-1.5-.6-1.7-.1,0-.2,0-.4,0-.6,0-1.2.4-1.4,1-.3.7,0,1.5.6,1.7ZM101.4,123.1l2.5-15.4h0s-11.1,11.3-11.1,11.3l8.6,4.2ZM91.5,103.1c0,2.7,1.9,4.6,4.4,4.6s.6,0,.9,0c2.9-.5,5.3-3.4,5.3-6.4s-1.9-4.6-4.4-4.6-.6,0-.9,0c-2.9.5-5.3,3.4-5.3,6.4ZM90.2,117.6l9-9.2-20.2,3.6,11.2,5.6ZM90.2,134.5l9.2-9.4-7.1-3.4-2.1,12.8ZM93.2,135c0-.7-.5-1.2-1.1-1.2s-.1,0-.2,0c-.7.1-1.3.8-1.3,1.6s.5,1.2,1.1,1.2.1,0,.2,0c.7-.1,1.3-.8,1.3-1.6ZM95.7,132.4c0-.7-.5-1.2-1.1-1.2s-.1,0-.2,0c-.7.1-1.3.8-1.3,1.6s.5,1.2,1.1,1.2.1,0,.2,0c.7-.1,1.3-.8,1.3-1.6ZM98.2,129.9c0-.7-.5-1.2-1.1-1.2s-.1,0-.2,0c-.7.1-1.3.8-1.3,1.6s.5,1.2,1.1,1.2.1,0,.2,0c.7-.1,1.3-.8,1.3-1.6ZM115.1,130.1l-9.1-18.3-1.9,11.6-.2,1,11.1,5.6ZM116.9,126.9c-.1,0-.2,0-.4,0-.6,0-1.2.4-1.4,1-.3.7,0,1.5.6,1.7.1,0,.2,0,.4,0,.6,0,1.2-.4,1.4-1,.3-.7,0-1.5-.6-1.7Z"/>
            <path class="st0" d="M154.6,22.8l-18.7,28-6.6-4.2-8.6,8.9-6.1-17.2-12.7-8.2,51.4-12,7.9-.9-6.5,5.6ZM120.4,48.2l2.1-8.2,17.9-11.9-23.4,9.6,3.5,10.5ZM127.1,45.2l-2.9-1.9-2.3,7.4,5.2-5.5ZM135.2,47.2l17.6-25.6,2.2-1.6-46.4,11.3,6,4,34.2-11.9-23,18.3,9.5,5.5Z"/>
          </g>
        </g>
      </g>
    </pattern>
    <clipPath id="clippath">
      <rect class="st1" width="122.7" height="122.7"/>
    </clipPath>
  </defs>
  <rect class="st1" width="122.7" height="122.7"/>
  <g class="st4">
    <g>
      <path class="st1" d="M46.2,92l-7.9-9.7-7.6,10.1-24.4-5,14.1,26.7,36.9,3.6,13.6-28.6,3.9-4.9-5.8,1.1-22.8,6.8ZM67,88l-17.2,8.4-2-2.5,19.2-6ZM39.2,88.8l7.9,8.8-8.7,4.6.7-13.4ZM37.6,86.6l-2,15.8-6.3-3.4,8.3-12.4ZM29.1,94.6l-2.3,3-11.8-5.6,14.1,2.6ZM12.8,93.2l20.9,11.3-11.9,6.3-9.1-17.6ZM26.4,111.6l10.4-5.5,12.1,7-22.5-1.5ZM55.4,113.1l-15.7-8.5,27.8-15.1-12.1,23.6Z"/>
      <path class="st1" d="M38.4,17.1l-7.9.9-51.4,12,12.7,8.2,6.1,17.2,8.6-8.9,6.6,4.2,18.7-28,6.5-5.6ZM-5.7,37.8l23.4-9.6L-.2,40l-2.1,8.2-3.5-10.5ZM-.8,50.7l2.3-7.4,2.9,1.9-5.2,5.5ZM3,41.7l23-18.3-34.2,11.9-6-4,46.4-11.3-2.2,1.6-17.6,25.6-9.5-5.5Z"/>
      <path class="st1" d="M82,54.5l5.8-5.6-5.2-19.7-5.2-.4-5.7-4.1-3.7,2.2.4,10.5-8.2,5.3-.3-1-8,5.4-.8,7,30.9.6ZM54.7,48.6l3.3-2.2,1.7,5.2h-5.3s.3-2.9.3-2.9ZM61.1,45.5l7.7-4.8,10.9,10.8h-17.8s-.8-6-.8-6ZM74.8,30.4l-3.8,4.2-.4-5.9,1-.6,3.2,2.3ZM71,38.8l6.6-7.2h2.9s4.8,15.5,4.8,15.5l-3.3,3.7-11-12ZM50.2,62.3l3.4,6.1,7.4.4,2.1-3.6,1.7,3.9,7.9-.4,2.1-3.6,2.1,3.6h7.5s3.8-6.5,3.8-6.5l-4.1-6.1-7.1-.4-2.1,3.6-2.1-3.6h-7.5s-2.1,3.6-2.1,3.6l-2.1-3.6h-7.5s-3.3,6.5-3.3,6.5ZM76.3,62.3l2.1-3.6,4.1.4,2.1,3.2-2.1,3.6h-4.1s-2.1-3.6-2.1-3.6ZM64.7,62.3l2.1-3.6h4.1s2.1,3.6,2.1,3.6l-2.1,3.6-4.5.3-1.7-3.8ZM53.1,62.3l2.1-3.6h4.1s2.1,3.6,2.1,3.6l-2.1,3.6-4.1-.4-2.1-3.2Z"/>
      <path class="st1" d="M118.8,8.7c.5-.4,1-1,1.3-1.7.5-1.1.5-2.3,0-3.4-.2-.5-.6-1-1-1.4,0-.5-.1-1-.3-1.4-.2-.5-.6-1-1-1.4,0-.5-.1-1-.3-1.4-.4-1-1.3-1.7-2.3-2.1-.4-.1-.8-.2-1.2-.2s-.9,0-1.3.2l-7.1-14.1-1.3.2c.5-1.1.8-2.4.8-3.6,0-4.2-3.1-7.3-7.1-7.3s-.9,0-1.4.1c-4.2.7-7.6,4.7-7.6,9.1s.4,3,1.2,4.2l-19.7,3.5,19.4,9.7-3.7,22.1,3.7-3.7c.5.3,1.2.5,1.9.5s.5,0,.7,0c1.5-.3,2.8-1.4,3.3-2.8,1.2-.4,2.1-1.4,2.5-2.5,1.6-.6,2.8-2.3,2.8-4.1s-.2-1.3-.5-1.9l1.4-1.4,19.4,9.7-2.4-4.9ZM115.2,1.3c.1,0,.2,0,.4,0,.7.2.9,1,.6,1.7-.3.6-.9,1-1.4,1s-.2,0-.4,0c-.7-.2-.9-1-.6-1.7.3-.6.9-1,1.4-1ZM112.4-.4c.3-.6.9-1,1.4-1s.2,0,.4,0c.7.2.9,1,.6,1.7-.3.6-.9,1-1.4,1s-.2,0-.4,0c-.7-.2-.9-1-.6-1.7ZM92.8-3.8l11.1-11.3h0s-2.5,15.4-2.5,15.4l-8.6-4.2ZM96.8-26c.3,0,.6,0,.9,0,2.5,0,4.4,1.9,4.4,4.6s-2.4,5.9-5.3,6.4c-.3,0-.6,0-.9,0-2.5,0-4.4-1.9-4.4-4.6s2.4-5.9,5.3-6.4ZM79-10.7l20.2-3.6-9,9.2-11.2-5.6ZM92.3-1l7.1,3.4-9.2,9.4,2.1-12.8ZM91.8,13.9c0,0-.2,0-.2,0-.6,0-1.1-.5-1.1-1.2s.6-1.5,1.3-1.6c0,0,.2,0,.2,0,.6,0,1.1.5,1.1,1.2s-.6,1.5-1.3,1.6ZM94.3,11.3c0,0-.2,0-.2,0-.6,0-1.1-.5-1.1-1.2s.6-1.5,1.3-1.6c0,0,.2,0,.2,0,.6,0,1.1.5,1.1,1.2s-.6,1.5-1.3,1.6ZM96.9,8.8c0,0-.2,0-.2,0-.6,0-1.1-.5-1.1-1.2s.6-1.5,1.3-1.6c0,0,.2,0,.2,0,.6,0,1.1.5,1.1,1.2s-.6,1.5-1.3,1.6ZM103.9,1.8l.2-1,1.9-11.6,9.1,18.3-11.1-5.6ZM117.5,5.9c-.3.6-.9,1-1.4,1s-.2,0-.4,0c-.7-.2-.9-1-.6-1.7.3-.6.9-1,1.4-1s.2,0,.4,0c.7.2.9,1,.6,1.7Z"/>
      <path class="st1" d="M118.8,131.4c.5-.4,1-1,1.3-1.7.5-1.1.5-2.3,0-3.4-.2-.5-.6-1-1-1.4,0-.5-.1-1-.3-1.4-.2-.5-.6-1-1-1.4,0-.5-.1-1-.3-1.4-.4-1-1.3-1.7-2.3-2.1-.4-.1-.8-.2-1.2-.2s-.9,0-1.3.2l-7.1-14.1-1.3.2c.5-1.1.8-2.4.8-3.6,0-4.2-3.1-7.3-7.1-7.3s-.9,0-1.4.1c-4.2.7-7.6,4.7-7.6,9.1s.4,3,1.2,4.2l-19.7,3.5,19.4,9.7-3.7,22.1,3.7-3.7c.5.3,1.2.5,1.9.5s.5,0,.7,0c1.5-.3,2.8-1.4,3.3-2.8,1.2-.4,2.1-1.4,2.5-2.5,1.6-.6,2.8-2.3,2.8-4.1s-.2-1.3-.5-1.9l1.4-1.4,19.4,9.7-2.4-4.9ZM115.2,124c.1,0,.2,0,.4,0,.7.2.9,1,.6,1.7-.3.6-.9,1-1.4,1s-.2,0-.4,0c-.7-.2-.9-1-.6-1.7.3-.6.9-1,1.4-1ZM112.4,122.2c.3-.6.9-1,1.4-1s.2,0,.4,0c.7.2.9,1,.6,1.7-.3.6-.9,1-1.4,1s-.2,0-.4,0c-.7-.2-.9-1-.6-1.7ZM92.8,118.9l11.1-11.3h0s-2.5,15.4-2.5,15.4l-8.6-4.2ZM96.8,96.7c.3,0,.6,0,.9,0,2.5,0,4.4,1.9,4.4,4.6s-2.4,5.9-5.3,6.4c-.3,0-.6,0-.9,0-2.5,0-4.4-1.9-4.4-4.6s2.4-5.9,5.3-6.4ZM79,112l20.2-3.6-9,9.2-11.2-5.6ZM92.3,121.7l7.1,3.4-9.2,9.4,2.1-12.8ZM91.8,136.6c0,0-.2,0-.2,0-.6,0-1.1-.5-1.1-1.2s.6-1.5,1.3-1.6c0,0,.2,0,.2,0,.6,0,1.1.5,1.1,1.2s-.6,1.5-1.3,1.6ZM94.3,134c0,0-.2,0-.2,0-.6,0-1.1-.5-1.1-1.2s.6-1.5,1.3-1.6c0,0,.2,0,.2,0,.6,0,1.1.5,1.1,1.2s-.6,1.5-1.3,1.6ZM96.9,131.5c0,0-.2,0-.2,0-.6,0-1.1-.5-1.1-1.2s.6-1.5,1.3-1.6c0,0,.2,0,.2,0,.6,0,1.1.5,1.1,1.2s-.6,1.5-1.3,1.6ZM103.9,124.5l.2-1,1.9-11.6,9.1,18.3-11.1-5.6ZM117.5,128.6c-.3.6-.9,1-1.4,1s-.2,0-.4,0c-.7-.2-.9-1-.6-1.7.3-.6.9-1,1.4-1s.2,0,.4,0c.7.2.9,1,.6,1.7Z"/>
      <path class="st1" d="M161.1,17.1l-7.9.9-51.4,12,12.7,8.2,6.1,17.2,8.6-8.9,6.6,4.2,18.7-28,6.5-5.6ZM117,37.8l23.4-9.6-17.9,11.9-2.1,8.2-3.5-10.5ZM122,50.7l2.3-7.4,2.9,1.9-5.2,5.5ZM125.7,41.7l23-18.3-34.2,11.9-6-4,46.4-11.3-2.2,1.6-17.6,25.6-9.5-5.5Z"/>
    </g>
  </g>
</svg>