<?xml version="1.0" encoding="UTF-8"?>
<svg id="Capa_1" xmlns="http://www.w3.org/2000/svg" version="1.1" viewBox="0 0 200 200">
  <!-- Generator: Adobe Illustrator 29.0.0, SVG Export Plug-In . SVG Version: 2.1.0 Build 186)  -->
  <path d="M76.09,93.51s-4.1-4.85-14.33-16.69c-5.01-5.8-7.28-12.04-4.02-19.22,3.44-7.55,10-10.17,17.98-10.12l13.04.02-11.1-15.71c-3.03-4.28-2.03-10.21,2.23-13.26h0c4.3-3.08,10.28-2.09,13.34,2.22,5.19,7.29,12.83,18.02,17.6,24.64,1.25,1.74,2.81,3.41,4.57,4.62,6.86,4.73,9.72,10.93,7.89,17.81-1.97,7.39-7.84,12.44-16,12.74-9.87.36-17.18.09-17.18.09,0,0,1.39,1.48,4.61,5.44,4.27,5.26,4.48,9.63.24,14.76-1.77,2.13-3.77,4.43-6.66,7.83-3.39,3.97-9.34,4.49-13.36,1.16h0c-4.06-3.36-4.62-9.38-1.26-13.44l2.39-2.87ZM107.4,136.87c1.12,0,2.03-.91,2.03-2.03v-5.64c0-1.12-.91-2.03-2.03-2.03H6.08v9.71h101.32ZM148.35,41.86c-12.54,0-22.71,10.17-22.71,22.71s10.17,22.71,22.71,22.71,22.71-10.17,22.71-22.71-10.17-22.71-22.71-22.71ZM52.66,139.44H6.08v22.54h46.59v-22.54ZM195.61,178.93c0-1.53-1.13-2.81-2.65-3.04-6.99-1.04-12.92-6.11-14.9-13.05,0-.02-.01-.03-.02-.04-.04-.12-.09-.23-.14-.34-.03-.07-.06-.15-.1-.22-.05-.1-.12-.19-.18-.28-.05-.07-.09-.15-.15-.21-.08-.09-.17-.17-.25-.26-.05-.05-.1-.11-.16-.16-.1-.08-.2-.14-.31-.21-.06-.04-.12-.09-.18-.12-.09-.05-.19-.09-.29-.13-.09-.04-.18-.08-.27-.11-.02,0-.04-.02-.06-.02-.08-.02-.15-.02-.23-.04-.11-.02-.21-.05-.32-.06-.1,0-.2,0-.3,0s-.2,0-.3,0c-.12.01-.23.04-.34.06-.07.01-.13.02-.2.04-.02,0-.03.01-.05.02-.12.04-.23.09-.34.14-.07.03-.15.06-.22.1-.1.05-.19.12-.28.18-.07.05-.15.09-.21.15-.09.07-.17.16-.25.24-.06.06-.12.11-.17.17-.07.09-.13.18-.19.28-.05.07-.1.14-.14.22-.05.08-.08.17-.11.26-.04.1-.09.2-.12.3,0,.02-.02.03-.02.05-2.23,7.8-9.45,13.24-17.55,13.24s-15.32-5.45-17.55-13.24c0-.02-.01-.03-.02-.05-.03-.11-.08-.21-.12-.31-.04-.08-.07-.17-.11-.25-.05-.09-.11-.16-.16-.25-.06-.08-.11-.17-.17-.25-.07-.08-.14-.15-.22-.22-.07-.06-.13-.13-.2-.19-.08-.07-.18-.12-.27-.18-.08-.05-.15-.1-.23-.15-.08-.04-.17-.08-.26-.11-.1-.04-.2-.09-.3-.12-.02,0-.03-.02-.05-.02-.07-.02-.14-.02-.21-.04-.11-.02-.22-.05-.34-.06-.09,0-.19,0-.28,0-.11,0-.21,0-.32,0-.11.01-.21.03-.31.06-.08.02-.15.02-.23.04-.02,0-.04.02-.05.02-.1.03-.2.08-.3.12-.09.04-.18.07-.27.12-.08.04-.15.1-.23.15-.09.06-.18.11-.26.18-.08.06-.14.14-.21.21-.07.07-.14.13-.2.21-.07.08-.12.17-.18.26-.05.08-.11.15-.16.24-.04.08-.07.17-.11.25-.04.1-.09.2-.12.31,0,.02-.02.03-.02.05-2.23,7.8-9.45,13.24-17.55,13.24s-15.32-5.45-17.55-13.24c0-.02-.01-.03-.02-.04-.04-.12-.09-.23-.14-.35-.03-.07-.06-.15-.09-.22-.05-.1-.12-.19-.19-.29-.05-.07-.09-.14-.14-.2-.08-.1-.17-.18-.26-.27-.05-.05-.1-.1-.15-.15-.1-.08-.2-.14-.31-.21-.06-.04-.12-.09-.18-.12-.09-.05-.19-.09-.29-.13-.09-.04-.18-.08-.27-.11-.02,0-.04-.02-.05-.02-.07-.02-.15-.02-.23-.04-.11-.02-.21-.05-.32-.06-.1,0-.2,0-.3,0s-.2,0-.3,0c-.12.01-.23.04-.34.06-.07.01-.13.02-.2.04-.02,0-.03.01-.05.02-.12.04-.23.09-.34.13-.08.03-.15.06-.23.1-.1.05-.18.12-.27.18-.07.05-.15.09-.22.15-.09.07-.16.15-.24.23-.06.06-.12.12-.18.18-.07.08-.13.18-.19.27-.05.07-.1.14-.14.22-.04.08-.08.17-.11.26-.04.1-.09.2-.12.3,0,.02-.02.03-.02.05-2.22,7.75-9.36,13.18-17.4,13.24-1.64.01-3.11,1.23-3.21,2.87-.11,1.79,1.3,3.27,3.06,3.27,8.41,0,16.09-4.4,20.5-11.24,4.42,6.84,12.09,11.24,20.5,11.24s16.09-4.4,20.5-11.23c4.42,6.84,12.09,11.23,20.5,11.23s16.09-4.4,20.5-11.24c3.8,5.88,10.02,9.96,17.03,10.98,1.83.27,3.47-1.2,3.47-3.05h0ZM78.12,113.45c-3.16,0-5.7,2.61-5.7,5.83s2.54,5.84,5.7,5.84,5.69-2.61,5.69-5.84-2.55-5.83-5.69-5.83ZM65.23,113.45c-3.14,0-5.7,2.61-5.7,5.83s2.56,5.84,5.7,5.84,5.69-2.61,5.69-5.84-2.55-5.83-5.69-5.83ZM91,113.45c-3.17,0-5.7,2.61-5.7,5.83s2.54,5.84,5.7,5.84,5.69-2.61,5.69-5.84-2.56-5.83-5.69-5.83Z"/>
</svg>