<?xml version="1.0" encoding="UTF-8"?>
<svg id="Capa_1" data-name="Capa 1" xmlns="http://www.w3.org/2000/svg" viewBox="0 0 200 200">
  <path d="M36.38,28.56h7.5v18.02c0,6.85,5.61,12.46,12.46,12.46h.73c6.85,0,12.46-5.61,12.46-12.46v-18.02h60.94v18.02c0,6.85,5.61,12.46,12.46,12.46h.73c6.85,0,12.46-5.61,12.46-12.46v-18.02h7.5c5.74,0,10.96,2.35,14.74,6.12,3.78,3.78,6.12,9,6.12,14.74v111.97c0,5.74-2.35,10.96-6.12,14.74h-.02c-3.78,3.78-8.99,6.12-14.72,6.12H36.38c-5.73,0-10.94-2.35-14.72-6.12l-.02-.02c-3.78-3.78-6.12-8.99-6.12-14.72V49.43c0-5.73,2.35-10.94,6.12-14.72v-.02c3.78-3.78,9-6.12,14.74-6.12h0ZM136.13,86.31h21.57v17.7h-21.57v-17.7h0ZM105.4,86.31h21.57v17.7h-21.57v-17.7h0ZM74.67,86.31h21.57v17.7h-21.57v-17.7h0ZM136.13,112.35h21.57v17.7h-21.57v-17.7h0ZM105.4,112.35h21.57v17.7h-21.57v-17.7h0ZM74.67,112.35h21.57v17.7h-21.57v-17.7h0ZM43.93,112.35h21.57v17.7h-21.57v-17.7h0ZM105.4,138.39h21.57v17.7h-21.57v-17.7h0ZM74.67,138.39h21.57v17.7h-21.57v-17.7h0ZM43.93,138.39h21.57v17.7h-21.57v-17.7h0ZM143.29,17.74h0c3.61,0,6.56,2.97,6.56,6.56v20.87c0,3.59-2.97,6.56-6.56,6.56h0c-3.59,0-6.56-2.95-6.56-6.56v-20.87c0-3.61,2.95-6.56,6.56-6.56h0ZM56.71,17.74h0c3.61,0,6.56,2.97,6.56,6.56v20.87c0,3.59-2.97,6.56-6.56,6.56h0c-3.59,0-6.56-2.95-6.56-6.56v-20.87c0-3.61,2.95-6.56,6.56-6.56h0ZM173.53,73.92H26.47v87.89c0,4.35,5.15,9.5,9.5,9.5h128.04c4.34,0,9.5-5.16,9.5-9.5v-87.89h0Z"/>
</svg>