<?xml version="1.0" encoding="UTF-8"?>
<svg id="Capa_1" xmlns="http://www.w3.org/2000/svg" version="1.1" viewBox="0 0 200 200">
  <!-- Generator: Adobe Illustrator 29.0.0, SVG Export Plug-In . SVG Version: 2.1.0 Build 186)  -->
  <g>
    <path d="M38.58,94.48l3.22,3.55,3.22-3.55,3.22,3.55,3.22-3.55,3.22,3.55,3.22-3.55,3.22,3.55,3.22-3.55,3.22,3.55,3.22-3.55,3.22,3.55,3.22-3.55,3.22,3.55,3.7-4.09v-9.26c-.75.09-1.51.11-2.29.04-5.87-.48-10.27-5.62-10.27-11.51v-4.09c0-1.16.92-2.09,2.06-2.14-.02.14-.04.28-.04.43v5.84c0,4.58,3.23,8.67,7.75,9.37,5.7.89,10.66-3.55,10.66-9.09v-4.54h-6.54c-1.15,0-2.07-.89-2.15-2.02h17.34c1.72,0,2.94-1.69,2.38-3.33l-.18-.52c-1.43-4.2-4.17-7.68-7.66-10.06-.98-.67-1.8-1.57-2.23-2.67-.23-.59-.43-1.4-.43-3.07v-12.15c0-1.4-.94-2.69-2.31-2.96-1.84-.37-3.47,1.05-3.47,2.83v1.69c-.44-.58-.91-1.14-1.39-1.7v-10.33c0-1.99-1.63-3.61-3.61-3.61h-.19c-1.99,0-3.61,1.63-3.61,3.61v3.79c-.46-.3-.92-.6-1.39-.88v-8.63c0-1.99-1.63-3.61-3.61-3.61h-.36c-1.99,0-3.61,1.63-3.61,3.61v5.19l-1.39-.41v-8.11c0-2.52-1.83-4.79-4.34-5.04-2.88-.29-5.33,1.99-5.33,4.81v11.47h0c0,1.96,1.47,3.58,3.41,3.82,10.86,1.31,19.83,8.82,23.3,18.86-.23,0-.45-.03-.68-.03-.86,0-1.65-.49-2-1.27-4.06-9.25-13.32-15.75-24.03-15.75h0c-14.43,0-26.23,11.8-26.23,26.23v35.16l3.7,4.09,3.22-3.55ZM59.07,46.45c5.39,0,9.76,4.37,9.76,9.76s-4.37,9.76-9.76,9.76-9.76-4.37-9.76-9.76,4.37-9.76,9.76-9.76Z"/>
    <rect x="69.84" y="175.21" width="6.05" height="11.01" rx="2.55" ry="2.55"/>
    <rect x="37.71" y="175.21" width="6.05" height="11.01" rx="2.55" ry="2.55"/>
    <path d="M122.41,95.74h-36.63v.03s-.07,0-.11,0l-5.26,5.81-3.22-3.56-3.22,3.56-3.22-3.56-3.22,3.55-3.22-3.55-3.22,3.56-3.22-3.55-3.22,3.55-3.22-3.55-3.22,3.55-3.22-3.56-3.22,3.55-3.22-3.55-3.22,3.56-5.34-5.9h-.87s-.72,0-.72,0h-2.59v-34.83c0-1.89-1.55-3.44-3.44-3.44s-3.44,1.55-3.44,3.44v5.62c-.85-.25-1.75-.39-2.69-.39-5.29,0-9.57,4.29-9.57,9.57v27.42c0,7.75,6.12,20.62,21.64,20.62v36.79c0,7,5.67,12.67,12.67,12.67s12.67-5.67,12.67-12.67v-12.47h5.56v12.47c0,7,5.67,12.67,12.67,12.67h1.12c6.99,0,12.66-5.66,12.67-12.65l.07-39.22h36.63c7.02,0,12.77-5.74,12.77-12.77s-5.74-12.77-12.77-12.77Z"/>
  </g>
  <path d="M174.6,162.94c-6.03,0-10.92,4.89-10.92,10.92s4.89,10.92,10.92,10.92,10.92-4.89,10.92-10.92-4.89-10.92-10.92-10.92ZM174.6,178.37c-2.49,0-4.51-2.02-4.51-4.51s2.02-4.51,4.51-4.51,4.51,2.02,4.51,4.51-2.02,4.51-4.51,4.51ZM187.94,124.27h-60.49c-1.35,0-2.45,1.1-2.45,2.45s1.09,2.45,2.45,2.45h.82c.17,1.91.53,3.76,1.04,5.55h-9.18c-1.23,0-2.23,1-2.23,2.23s1,2.23,2.23,2.23h10.47c.13,0,.26-.01.39-.04,3.1,6.52,8.5,11.73,15.17,14.56l-13.1,25.77c-.91,1.8-.2,4,1.6,4.91.53.27,1.09.4,1.65.4,1.33,0,2.61-.73,3.26-2l2.11-4.16h20.68c-.58-1.48-.9-3.08-.9-4.76,0-.87.09-1.72.25-2.55h-16.32l7.92-15.59c1.42.21,2.88.32,4.36.32s2.94-.11,4.36-.32l4.11,8.1c1.86-1.56,4.17-2.62,6.69-2.96l-3.64-7.16c9.8-4.16,16.9-13.46,17.89-24.53h.82c1.35,0,2.45-1.1,2.45-2.45s-1.09-2.45-2.45-2.45ZM145.4,145.66c-.36.82-1.16,1.31-2.01,1.31-.29,0-.59-.06-.88-.18-8.55-3.75-8.97-11.52-8.98-11.84-.05-1.21.89-2.23,2.1-2.28,1.2-.04,2.22.88,2.28,2.08.02.26.4,5.41,6.36,8.03,1.11.49,1.61,1.78,1.13,2.89ZM158.65,78.35c-.21-1.05-.2-2.18-.02-3.26.21-1.08.59-2.12,1.11-3.05,1.05-1.87,2.51-3.33,4.05-4.53.19-.15.39-.3.59-.44l.57-.4c.19-.14.32-.23.49-.36l.49-.36c.64-.49,1.23-1.01,1.75-1.53.51-.53.95-1.07,1.22-1.59.27-.53.41-.99.38-1.51-.01-.51-.23-1.11-.61-1.71-.38-.61-.91-1.21-1.5-1.79-1.2-1.15-2.64-2.19-4.14-3.22l.08-.26c.93.07,1.85.24,2.75.5.9.26,1.8.59,2.66,1.04.87.45,1.72,1.01,2.49,1.77.38.38.74.82,1.05,1.32.31.51.56,1.08.71,1.7.32,1.25.15,2.62-.29,3.72-.44,1.12-1.07,2.03-1.76,2.82-.68.8-1.44,1.46-2.2,2.07-.19.15-.39.3-.58.44-.18.14-.42.3-.59.42l-.53.36c-.17.11-.33.23-.49.35-1.29.96-2.45,2.02-3.26,3.21-.4.59-.73,1.21-.93,1.87-.22.65-.32,1.34-.31,2.06.02,1.44.51,2.99,1.29,4.48.77,1.49,1.79,2.94,2.94,4.32l-.16.22c-.84-.39-1.63-.89-2.38-1.44-.75-.56-1.45-1.19-2.1-1.9-.33-.35-.63-.73-.92-1.13-.28-.4-.56-.81-.8-1.26-.24-.44-.46-.91-.64-1.4-.18-.49-.32-1-.42-1.52ZM170.34,54.58l.1-.26c1.4.22,2.77.73,3.98,1.62.6.44,1.15.99,1.59,1.65.44.65.76,1.4.93,2.17.34,1.56.07,3.15-.52,4.5-.29.68-.67,1.31-1.1,1.88-.43.58-.92,1.11-1.5,1.55l-.22-.17c.52-1.29.98-2.54,1.28-3.78.3-1.24.42-2.46.2-3.59-.21-1.14-.8-2.17-1.66-3.09-.86-.92-1.95-1.7-3.1-2.48ZM153.96,80.29c-.3-.71-.51-1.49-.53-2.31-.02-.82.16-1.66.54-2.38.37-.72.91-1.31,1.5-1.77.6-.46,1.25-.79,1.94-1.01l.14.23c-.48.52-.94,1.01-1.32,1.54-.38.53-.67,1.07-.84,1.62-.34,1.1-.18,2.23.28,3.37.47,1.13,1.19,2.22,1.99,3.28.8,1.06,1.69,2.09,2.6,3.16l-.16.22c-1.32-.58-2.48-1.41-3.55-2.38-1.05-.99-1.99-2.15-2.6-3.57Z"/>
  <path d="M176.72,99.14c-.26-.03-.53-.07-.8-.1-.78-.09-1.62-.15-2.51-.18-2.45-.06-5.15.2-7.3,1.29.36-.6.85-1.19,1.46-1.75,2.39-2.17,7.25-1.56,8.22-1.42-2.17-4.04-5.49-7.09-9.7-6.91-10.69.44-15.02,11.9-18.65,13.39-2.21.91-3.81.27-4.86-.07-.37-.12-.77,0-1,.31-.65.82-1.95,2.46-2.15,2.7-.27.31-.32.79-.15,1.21,1.04,2.46,5.37,10.5,18.12,11.65,15.09,1.37,18.54-2.99,20.21-5.97.85-1.53,1.18-3.78,1.03-6.29.46-1.5.75-2.97.94-4.2l2.26-1.68-1.87-2.51-.91-1.22-2.28,1.7-.07.05ZM190.28,94.34c-.44-.6-1.08-.97-1.76-1.09.07-.69-.1-1.4-.55-1.99-.94-1.26-2.72-1.52-3.98-.58-.92.69-1.31,1.83-1.08,2.89.06.26.15.52.28.76l-2.07,1.54.91,1.22,1.87,2.51,2.07-1.54c.98.99,2.57,1.14,3.72.28,1.26-.94,1.52-2.72.58-3.99Z"/>
</svg>