<?xml version="1.0" encoding="UTF-8"?>
<svg id="Capa_1" xmlns="http://www.w3.org/2000/svg" version="1.1" viewBox="0 0 200 200">
  <!-- Generator: Adobe Illustrator 29.0.0, SVG Export Plug-In . SVG Version: 2.1.0 Build 186)  -->
  <path d="M9.25,51.67c-2.65-7.18,3.4-12.69,8.37-16.69,2.88-2.31,5.24-4.78,6.97-8.08.54-1.06,1.73-1.57,2.85-1.31l.79-1.73c.46-.98.26-2.1-.5-2.87-.69-.7-1.11-1.66-1.11-2.71,0-2.13,1.71-3.85,3.85-3.85,1.77,0,3.25,1.21,3.71,2.84.43-.17.91-.27,1.41-.27,2.13,0,3.85,1.73,3.85,3.85s-1.73,3.85-3.85,3.85c-.1,0-.19,0-.27-.01-1.09-.07-2.06.5-2.51,1.48l-.66,1.43.11.06c1.14.5,1.74,1.69,1.49,2.88-.4,1.9.26,5.1,1.2,6.99-3.45,2.35-6.32,5.78-8.55,9.12-2.7,4.08-5.04,7.77-6.72,11.96-4.08.01-8.76-2.51-10.42-6.95ZM29.66,177.28c-1.12,0-2.04.93-2.04,2.08v3.99c0,1.15.92,2.08,2.04,2.08s2.03-.93,2.03-2.08v-3.99c0-1.14-.91-2.08-2.03-2.08ZM8.16,92.28c4.14,3.46,10.39.93,12.56-3.28-3.6-5.82-4.65-13.53-3.46-21.52-.83-2.66-2.33-5.34-5.05-7.05-.43-.26-.91-.26-1.34,0-.43.24-.66.68-.63,1.17.41,7.45-5.2,15.39-5.45,22.14-.14,3.67,1.26,6.78,3.37,8.55ZM29.75,49.98c-2.97,4.47-6.14,9.2-7.52,15.91-2.9,14.21,2.44,27.72,18.49,27.72s21.33-13.75,18.47-27.72c-1.37-6.71-4.54-11.43-7.52-15.91-2.88-4.34-6.5-8-10.59-9.38-.26-.09-.49-.09-.75,0-4.09,1.38-7.71,5.04-10.6,9.38ZM45.85,24.7c.1,0,.2,0,.29-.01,1.08-.07,2.05.5,2.51,1.48l.66,1.43-.13.06c-1.13.5-1.74,1.69-1.48,2.88.41,1.9-.24,5.1-1.2,6.99,3.45,2.35,6.32,5.78,8.55,9.12,2.71,4.08,5.04,7.77,6.74,11.96,4.4.01,8.85-2.77,10.41-6.95,2.67-7.18-3.38-12.69-8.37-16.69-2.88-2.31-5.24-4.78-6.95-8.08-.54-1.06-1.74-1.57-2.85-1.31l-.8-1.73c-.46-.98-.26-2.1.51-2.87.69-.7,1.11-1.66,1.11-2.71,0-2.13-1.73-3.85-3.85-3.85-1.77,0-3.27,1.21-3.71,2.84-.44-.17-.91-.27-1.43-.27-2.11,0-3.85,1.73-3.85,3.85s1.74,3.85,3.85,3.85ZM73.28,92.28c2.11-1.77,3.51-4.88,3.37-8.55-.26-6.75-5.88-14.69-5.45-22.14.03-.48-.2-.93-.63-1.17-.43-.26-.91-.26-1.34,0-2.74,1.71-4.22,4.4-5.07,7.05,1.21,7.99.16,15.7-3.44,21.52,2.23,4.35,8.52,6.67,12.56,3.28ZM195.2,48.96c-2.65-2.65-6.33-4.31-10.36-4.31h-73.34c-4.04,0-7.71,1.66-10.36,4.31h.01c-2.66,2.68-4.32,6.35-4.32,10.36v44.16l11.63-1.5v-42.66c0-.84.34-1.59.88-2.13h.02c.56-.55,1.31-.9,2.14-.9h73.34c.83,0,1.58.34,2.14.9s.89,1.3.89,2.13v54.66c0,.83-.34,1.58-.89,2.14v.02c-.54.54-1.3.88-2.14.88h-73.34c-.84,0-1.59-.34-2.14-.88l-.02-.02c-.54-.54-.88-1.29-.88-2.14v-1.42l-11.6,2.08c.17,3.76,1.77,7.17,4.27,9.69h.01s.01.03.01.03c2.66,2.65,6.33,4.3,10.34,4.3h73.34c4.02,0,7.69-1.66,10.35-4.32v.02c2.66-2.66,4.32-6.33,4.32-10.37v-54.66c0-4.04-1.66-7.71-4.31-10.36ZM175.84,72.67l-6.82-6.9-27.75,27.42-8.48-10.32-7.49,6.16,15.23,18.53,35.31-34.89ZM186.95,144.67v-12.72h-74.98v12.72h12.34l-11.64,40.91h14.94l11.64-40.91h22.33l11.64,40.91h14.94l-11.64-40.91h10.42ZM89.23,112.66c0,.1-.01.2-.02.31l39.25-7.02-.53-3.45-39.78,5.14c.69,1.54,1.08,3.24,1.08,5.03ZM76.88,103.31h-4.3l-8.39-4.73c-1.58-.89-3.36-1.36-5.18-1.36H17.11c-9.15,0-16.62,7.48-16.62,16.62v21.3c0,4.66,3.78,8.44,8.44,8.44s8.44-3.78,8.44-8.44v-17.14h2.88v48.66c0,5.24,4.25,9.49,9.49,9.49s9.49-4.25,9.49-9.49v-16.55h3.99v16.75c0,5.13,4.16,9.29,9.29,9.29h0c5.13,0,9.29-4.16,9.29-9.29v-49.83l8.65,3.98c1.42.65,2.96.99,4.52.99h1.93c5.16,0,9.35-4.18,9.35-9.35s-4.18-9.35-9.35-9.35ZM52.59,177.28c-1.12,0-2.04.93-2.04,2.08v3.99c0,1.15.92,2.08,2.04,2.08s2.03-.93,2.03-2.08v-3.99c0-1.14-.91-2.08-2.03-2.08Z"/>
</svg>