<?xml version="1.0" encoding="UTF-8"?>
<svg id="Capa_1" data-name="Capa 1" xmlns="http://www.w3.org/2000/svg" viewBox="0 0 200 200">
  <path d="M91.22,36.25c3.23,0,5.77,2.77,5.49,6l-1.58,13.67h-9.92v-18.76c0-.3-.02-.6-.05-.9h6.06ZM13.35,36.25h6.06c-.03.29-.05.59-.05.9v18.76h-9.92l-1.58-13.67c-.29-3.22,2.25-6,5.49-6ZM82.66,166.53H21.9c-2.52,0-4.51-1.97-4.28-4.25l1.13-11.54c2.37,1.32,5.06,2.08,7.88,2.08h51.3c2.82,0,5.52-.76,7.88-2.08l1.13,11.54c.22,2.28-1.76,4.25-4.28,4.25ZM95.12,59.77H9.45c-5.1,31.34-3.03,49.7,6.06,80.13h0c1.47,4.92,5.99,8.29,11.13,8.29h51.3c5.13,0,9.66-3.37,11.13-8.29h0c9.09-30.43,11.17-48.78,6.06-80.13ZM89.27,99.72l-2.59,20.62c-1.43,15.86-16.41,22.35-34.4,22.35s-32.97-6.5-34.4-22.35l-2.59-20.62c-1.6-17.75,14.26-32.94,34.4-32.94h5.18c20.14,0,36,15.19,34.4,32.94ZM24.29,118.27c-2.2,0-3.99-1.79-3.99-3.99s1.79-3.99,3.99-3.99,3.99,1.79,3.99,3.99-1.79,3.99-3.99,3.99ZM33.54,82.62c-2.2,0-3.99-1.79-3.99-3.99s1.79-3.99,3.99-3.99,3.99,1.79,3.99,3.99-1.79,3.99-3.99,3.99ZM71.03,82.62c-2.2,0-3.99-1.79-3.99-3.99s1.79-3.99,3.99-3.99,3.99,1.79,3.99,3.99-1.79,3.99-3.99,3.99ZM84.26,114.28c0,2.2-1.79,3.99-3.99,3.99s-3.99-1.79-3.99-3.99,1.79-3.99,3.99-3.99,3.99,1.79,3.99,3.99ZM76.9,33.47H27.67c-2.03,0-3.68,1.65-3.68,3.68v18.77h56.58v-18.77c0-2.03-1.65-3.68-3.68-3.68ZM67.04,44.69c0,2.84-2.3,5.14-5.14,5.14h-19.24c-2.84,0-5.14-2.3-5.14-5.14h0c0-2.84,2.3-5.14,5.14-5.14h19.24c2.84,0,5.14,2.3,5.14,5.14h0ZM186.65,36.25c3.23,0,5.77,2.77,5.49,6l-1.58,13.67h-9.92v-18.76c0-.3-.02-.6-.05-.9h6.06ZM108.78,36.25h6.06c-.03.29-.05.59-.05.9v18.76h-9.92l-1.58-13.67c-.29-3.22,2.25-6,5.49-6ZM178.1,166.53h-60.76c-2.52,0-4.51-1.97-4.28-4.25l1.13-11.54c2.37,1.32,5.06,2.08,7.88,2.08h51.3c2.82,0,5.52-.76,7.88-2.08l1.13,11.54c.22,2.28-1.76,4.25-4.28,4.25ZM190.55,59.77h-85.68c-5.1,31.34-3.03,49.7,6.06,80.13h0c1.47,4.92,5.99,8.29,11.13,8.29h51.3c5.13,0,9.66-3.37,11.13-8.29h0c9.09-30.43,11.17-48.78,6.06-80.13ZM184.7,99.72l-2.59,20.62c-1.43,15.86-16.41,22.35-34.4,22.35s-32.97-6.5-34.4-22.35l-2.59-20.62c-1.6-17.75,14.26-32.94,34.4-32.94h5.18c20.14,0,36,15.19,34.4,32.94ZM119.72,118.27c-2.2,0-3.99-1.79-3.99-3.99s1.79-3.99,3.99-3.99,3.99,1.79,3.99,3.99-1.79,3.99-3.99,3.99ZM128.97,82.62c-2.2,0-3.99-1.79-3.99-3.99s1.79-3.99,3.99-3.99,3.99,1.79,3.99,3.99-1.79,3.99-3.99,3.99ZM166.46,82.62c-2.2,0-3.99-1.79-3.99-3.99s1.79-3.99,3.99-3.99,3.99,1.79,3.99,3.99-1.79,3.99-3.99,3.99ZM179.7,114.28c0,2.2-1.79,3.99-3.99,3.99s-3.99-1.79-3.99-3.99,1.79-3.99,3.99-3.99,3.99,1.79,3.99,3.99ZM172.33,33.47h-49.23c-2.03,0-3.68,1.65-3.68,3.68v18.77h56.58v-18.77c0-2.03-1.65-3.68-3.68-3.68ZM162.47,44.69c0,2.84-2.3,5.14-5.14,5.14h-19.24c-2.84,0-5.14-2.3-5.14-5.14h0c0-2.84,2.3-5.14,5.14-5.14h19.24c2.84,0,5.14,2.3,5.14,5.14h0Z"/>
</svg>