<?xml version="1.0" encoding="UTF-8"?>
<svg id="Capa_1" data-name="Capa 1" xmlns="http://www.w3.org/2000/svg" viewBox="0 0 200 200">
  <path d="M105.82,99.95c-.69-.98-2.1-1.09-2.94-.25l-6.5,6.5c-.67.67-.75,1.72-.21,2.49l18.25,25.67c.69.98,2.09,1.09,2.94.25l6.5-6.5c.67-.67.76-1.72.21-2.49l-18.25-25.67ZM89.62,116.15c-.69-.98-2.1-1.09-2.94-.25l-6.5,6.5c-.67.67-.75,1.72-.21,2.49l18.25,25.67c.69.97,2.1,1.09,2.94.24l6.5-6.5c.67-.67.76-1.72.21-2.49l-18.25-25.67ZM181.56,89.32l-43.36-43.36c-1.41-1.41-3.69-1.41-5.1,0l-16.11,16.11c-.9.9-1.26,2.2-.95,3.43l3.36,13.35c.16.63.49,1.21.95,1.67l.85.85-8.63,8.63c-.67.67-.76,1.72-.21,2.49l18.25,25.67c.69.98,2.09,1.09,2.94.25l12.34-12.34,1.1,1.1c.46.46,1.03.79,1.67.95l13.35,3.36c1.23.31,2.53-.05,3.43-.95l16.11-16.11c1.41-1.41,1.41-3.69,0-5.1M73.42,132.35c-.69-.97-2.1-1.09-2.94-.25l-18.35,18.35c-.67.67-1.01,1.61-.91,2.56l1.94,19.38c.09.91.81,1.64,1.73,1.73l19.38,1.94c.95.09,1.89-.24,2.56-.91l14.64-14.64c.67-.67.75-1.72.21-2.49l-18.25-25.67ZM99.07,58.1l-18.62-32.24c-.69-1.2-1.96-1.93-3.35-1.93h-37.23c-1.38,0-2.66.74-3.35,1.93l-18.62,32.24c-.69,1.2-.69,2.67,0,3.87l18.62,32.24c.69,1.2,1.96,1.93,3.35,1.93h37.23c1.38,0,2.66-.73,3.35-1.93l18.62-32.24c.69-1.2.69-2.67,0-3.87M58.48,77.89c-9.86,0-17.85-7.99-17.85-17.85s7.99-17.85,17.85-17.85,17.85,7.99,17.85,17.85-7.99,17.85-17.85,17.85"/>
</svg>