<?xml version="1.0" encoding="UTF-8"?>
<svg id="Capa_1" data-name="Capa 1" xmlns="http://www.w3.org/2000/svg" viewBox="0 0 200 200">
  <path d="M82.41,33.5l-58.79,39.55c-.1-.12-.17-.24-.26-.36-9.89-14.7-7.29-34.15,5.34-45.81l-3.62-9.69,6.36-3.89,8.12,6.72c15.2-6.11,33.1-1.02,42.61,13.12.07.12.16.25.24.37ZM168.01,127.37c-2.33,9.17-5.97,17.84-11.37,25.37l4.45,33.97h-9.98l-12.6-16.39c-9.06,6.07-19.69,10.14-31.28,11.45l-.36.04h-.02c-16.4,1.77-32.11-2.23-45.09-10.41l-11.75,15.31h-9.99l4.08-31.1c-7.97-10.01-13.33-22.32-14.88-35.98l-.05-.36h0c-4.14-38.33,23.9-73.3,62.18-77.65,19.34-2.2,37.74,3.66,51.87,14.9,12.21,9.72,21.18,23.48,24.82,39.53,2.04,7.53,2.29,22.12-.04,31.32ZM154.98,105.36c-1.75-15.36-9.56-28.57-20.78-37.5-11.22-8.94-25.86-13.59-41.24-11.84-15.36,1.74-28.56,9.55-37.5,20.77-8.93,11.23-13.59,25.86-11.84,41.24h0c1.75,15.37,9.56,28.58,20.78,37.5,11.22,8.94,25.86,13.59,41.24,11.84h.01c15.36-1.75,28.55-9.56,37.49-20.78,8.94-11.22,13.59-25.85,11.84-41.23ZM173.96,75.78c11.78-13.51,11.47-33.45,0-46.58l4.65-10.14-5.42-5.13-9.82,6.99c-14.14-7.24-31.93-4.23-42.84,8.28-.09.11-.19.22-.28.34l53.43,46.56c.1-.11.2-.21.28-.32ZM128.09,82.55c-2.33-2.33-6.14-2.33-8.47,0l-16.96,16.96c-1.52-.42-3.14-.58-4.8-.39-2.01.23-3.82.95-5.41,1.98l-24.85-24.85c-.99-.99-2.61-.99-3.6,0-.99.99-.99,2.61,0,3.6l24.83,24.83c-1.61,2.41-2.46,5.34-2.11,8.45h0c.39,3.47,2.16,6.46,4.69,8.47,2.53,2.02,5.84,3.07,9.32,2.67h0c3.47-.4,6.45-2.16,8.47-4.69,2.02-2.53,3.07-5.84,2.67-9.32-.1-.86-.28-1.69-.54-2.49l16.76-16.76c2.33-2.33,2.33-6.14,0-8.47Z"/>
</svg>