<?xml version="1.0" encoding="UTF-8"?>
<svg id="Capa_1" data-name="Capa 1" xmlns="http://www.w3.org/2000/svg" viewBox="0 0 200 200">
  <path d="M42.45,173.52c-3.39,0-6.12-2.73-6.12-6.12,0-3.39,2.73-6.13,6.12-6.13s6.14,2.73,6.14,6.13c0,3.39-2.75,6.12-6.14,6.12M54.04,180.57c3.39,0,6.14-2.72,6.14-6.14,0-3.41-2.74-6.13-6.14-6.13s-6.11,2.72-6.11,6.13c0,3.42,2.7,6.14,6.11,6.14M11.23,163.6c3.39,0,6.14-2.73,6.14-6.12,0-3.39-2.75-6.12-6.14-6.12-3.39,0-6.12,2.73-6.12,6.12s2.73,6.12,6.12,6.12M22.81,170.65c3.4,0,6.14-2.72,6.14-6.14,0-3.41-2.74-6.14-6.14-6.14s-6.11,2.72-6.11,6.14c0,3.41,2.7,6.14,6.11,6.14M60.17,77.93c16.18,0,29.29-13.15,29.29-29.3s-13.11-29.19-29.29-29.19c-16.17,0-29.31,13.04-29.31,29.19,0,16.16,13.14,29.3,29.31,29.3M17.05,142.36c-.78,1.44-1.23,3.08-1.23,4.86,0,5.71,4.66,10.36,10.43,10.36,4.13,0,7.67-2.4,9.34-5.86l7-13.93-14.72-14.73-10.82,19.3ZM75.88,144.11s5.46-9.13-2.97-17.23l-12.93-12.69,9.5-16.1h17.64c4.72,0,8.49-3.79,8.49-8.49,0-4.7-3.76-8.54-8.49-8.54H16.54c-4.78,0-8.54,3.84-8.54,8.49s3.76,8.54,8.54,8.54l15.41-.04-2.02,3.22s-8.25,12.58,3.3,24.2l18.93,18.79-4.49,8.18c-.78,1.45-1.21,3.06-1.21,4.84,0,5.72,4.64,10.36,10.36,10.36,4.13,0,7.68-2.38,9.36-5.83l9.7-17.7ZM113.68,96.94c6.01-7.76,20.46-7.51,25.25,1.47l9.88,22.36s9.26,5.03,9.83,5.28c9.97,4.41,3.04,18.45-7.19,13.17l-15.06-7.85-3.9-8.49-10.39,12.49,2.83,7.56c3.27,7.19,3.5,12.37.56,19.49l-3.32,9.8c-2.07,5.79-8.44,8.82-14.23,6.76h0c-5.88-2.09-8.91-8.59-6.72-14.43l3.56-10.33-9.08-20.33c-3.31-7.17-.9-15.87,4.13-21.61l13.86-15.33h0ZM153.2,143.01v35.13c0,1.32,1.06,2.4,2.38,2.43h0c1.36.02,2.47-1.07,2.47-2.43v-35.21s-4.85.08-4.85.08ZM165.44,39.27l-32.74,32.74c0,7.44,2.55,14.82,8.22,20.51,16.75,19.93,54.77,5.87,53.88-20.34,1.33-16.75-13.27-32-29.36-32.91ZM157.32,38.46s-9.86-5.25-20.56,5.45c-10.7,10.7-4.92,20.03-4.92,20.03l25.48-25.48ZM104.53,59.08c.8,0,1.56.15,2.26.44.7.29,1.34.72,1.91,1.29.57.57,1.01,1.21,1.3,1.91.29.71.44,1.47.44,2.27s-.15,1.56-.44,2.26c-.29.7-.72,1.33-1.3,1.91-.57.57-1.2,1-1.91,1.29-.71.29-1.46.44-2.26.44s-1.55-.15-2.26-.44c-.7-.29-1.34-.72-1.91-1.29h0c-.57-.58-1-1.22-1.29-1.91-.29-.7-.44-1.46-.44-2.26,0-.79.15-1.55.44-2.26.29-.7.71-1.34,1.28-1.91h0c.57-.58,1.21-1.02,1.91-1.31.71-.3,1.47-.44,2.28-.44ZM101.84,54.58l-2.81-18.92c-.25-1.68.28-3.37,1.44-4.61l.05-.05c2.18-2.32,5.86-2.34,8.06-.04h0c1.18,1.24,1.72,2.95,1.47,4.64l-2.81,18.97c-.2,1.34-1.35,2.33-2.7,2.33h0c-1.35,0-2.5-.99-2.7-2.33Z"/>
</svg>