<?xml version="1.0" encoding="UTF-8"?>
<svg id="Capa_1" xmlns="http://www.w3.org/2000/svg" version="1.1" viewBox="0 0 200 200">
  <!-- Generator: Adobe Illustrator 29.0.0, SVG Export Plug-In . SVG Version: 2.1.0 Build 186)  -->
  <path d="M34.81,124.06c-3.56-3.56-7.79-5.3-12.75-5.3s-9.19,1.75-12.75,5.3c-3.49,3.49-5.3,7.72-5.3,12.68s1.81,9.19,5.3,12.75c3.56,3.49,7.79,5.3,12.75,5.3s9.19-1.81,12.75-5.3c3.49-3.56,5.3-7.78,5.3-12.75s-1.81-9.19-5.3-12.68ZM31.18,128.29c.6-.54,1.28-.81,2.15-.81.8,0,1.54.27,2.08.81.6.67.87,1.34.87,2.15,0,.87-.27,1.54-.87,2.08-.54.67-1.28.94-2.08.94-.87,0-1.54-.27-2.15-.94-.54-.54-.87-1.21-.87-2.08,0-.81.34-1.48.87-2.15ZM24.6,122.92c.6-.54,1.28-.87,2.15-.87.81,0,1.54.34,2.08.87.6.6.87,1.34.87,2.15s-.27,1.54-.87,2.08c-.54.6-1.28.87-2.08.87-.87,0-1.54-.27-2.15-.87-.54-.54-.87-1.28-.87-2.08s.34-1.54.87-2.15ZM16.08,122.58c.67-.54,1.34-.81,2.15-.81.87,0,1.54.27,2.15.81.6.67.87,1.34.87,2.15,0,.87-.27,1.54-.87,2.08-.6.67-1.28.94-2.15.94-.8,0-1.48-.27-2.15-.94-.54-.54-.87-1.21-.87-2.08,0-.81.34-1.48.87-2.15ZM9.17,127.95c.6-.54,1.28-.8,2.15-.8.81,0,1.54.27,2.08.8.6.67.87,1.34.87,2.15,0,.87-.27,1.54-.87,2.08-.54.67-1.28.94-2.08.94-.87,0-1.54-.27-2.15-.94-.54-.54-.87-1.21-.87-2.08,0-.8.34-1.48.87-2.15ZM7.56,140.5c-.54-.6-.87-1.27-.87-2.15,0-.81.33-1.48.87-2.08.6-.6,1.28-.87,2.15-.87.81,0,1.48.27,2.08.87.6.6.87,1.28.87,2.08,0,.87-.27,1.54-.87,2.15-.6.6-1.27.87-2.08.87-.87,0-1.54-.27-2.15-.87ZM15.95,148.22c-.54.6-1.28.87-2.08.87-.87,0-1.54-.27-2.15-.87-.54-.6-.87-1.28-.87-2.15,0-.81.34-1.48.87-2.08.6-.6,1.28-.87,2.15-.87.81,0,1.54.27,2.08.87.6.6.87,1.28.87,2.08,0,.87-.27,1.54-.87,2.15ZM24.2,151.51c-.54.6-1.28.87-2.08.87-.87,0-1.54-.27-2.15-.87-.54-.54-.87-1.28-.87-2.08s.34-1.54.87-2.15c.6-.54,1.27-.87,2.15-.87.81,0,1.54.34,2.08.87.6.6.87,1.34.87,2.15s-.27,1.54-.87,2.08ZM22.05,143.93c-1.95,0-3.69-.67-5.1-2.08-1.41-1.41-2.08-3.15-2.08-5.1s.67-3.69,2.08-5.1c1.41-1.41,3.16-2.15,5.1-2.15s3.69.74,5.1,2.15c1.41,1.41,2.15,3.15,2.15,5.1s-.74,3.69-2.15,5.1c-1.41,1.41-3.09,2.08-5.1,2.08ZM32.46,148.76c-.6.6-1.28.87-2.08.87-.87,0-1.54-.27-2.15-.87-.54-.54-.87-1.28-.87-2.15,0-.74.34-1.48.87-2.08.6-.6,1.28-.87,2.15-.87.81,0,1.48.27,2.08.87.6.6.87,1.34.87,2.08,0,.87-.27,1.61-.87,2.15ZM36.75,141.11c-.54.6-1.27.87-2.08.87-.87,0-1.54-.27-2.15-.87-.54-.54-.87-1.27-.87-2.08s.34-1.54.87-2.15c.6-.54,1.28-.87,2.15-.87.81,0,1.54.34,2.08.87.6.6.87,1.34.87,2.15s-.27,1.54-.87,2.08ZM34.81,165.26c-3.56-3.56-7.79-5.3-12.75-5.3s-9.19,1.75-12.75,5.3c-3.49,3.49-5.3,7.72-5.3,12.68s1.81,9.19,5.3,12.75c3.56,3.49,7.79,5.3,12.75,5.3s9.19-1.81,12.75-5.3c3.49-3.56,5.3-7.78,5.3-12.75s-1.81-9.19-5.3-12.68ZM31.18,169.49c.6-.54,1.28-.81,2.15-.81.8,0,1.54.27,2.08.81.6.67.87,1.34.87,2.15,0,.87-.27,1.54-.87,2.08-.54.67-1.28.94-2.08.94-.87,0-1.54-.27-2.15-.94-.54-.54-.87-1.21-.87-2.08,0-.81.34-1.48.87-2.15ZM24.6,164.12c.6-.54,1.28-.87,2.15-.87.81,0,1.54.34,2.08.87.6.6.87,1.34.87,2.15s-.27,1.54-.87,2.08c-.54.6-1.28.87-2.08.87-.87,0-1.54-.27-2.15-.87-.54-.54-.87-1.28-.87-2.08s.34-1.54.87-2.15ZM16.08,163.78c.67-.54,1.34-.81,2.15-.81.87,0,1.54.27,2.15.81.6.67.87,1.34.87,2.15,0,.87-.27,1.54-.87,2.08-.6.67-1.28.94-2.15.94-.8,0-1.48-.27-2.15-.94-.54-.54-.87-1.21-.87-2.08,0-.81.34-1.48.87-2.15ZM9.17,169.15c.6-.54,1.28-.8,2.15-.8.81,0,1.54.27,2.08.8.6.67.87,1.34.87,2.15,0,.87-.27,1.54-.87,2.08-.54.67-1.28.94-2.08.94-.87,0-1.54-.27-2.15-.94-.54-.54-.87-1.21-.87-2.08,0-.8.34-1.48.87-2.15ZM7.56,181.7c-.54-.6-.87-1.27-.87-2.15,0-.81.33-1.48.87-2.08.6-.6,1.28-.87,2.15-.87.81,0,1.48.27,2.08.87.6.6.87,1.28.87,2.08,0,.87-.27,1.54-.87,2.15-.6.6-1.27.87-2.08.87-.87,0-1.54-.27-2.15-.87ZM15.95,189.42c-.54.6-1.28.87-2.08.87-.87,0-1.54-.27-2.15-.87-.54-.6-.87-1.28-.87-2.15,0-.81.34-1.48.87-2.08.6-.6,1.28-.87,2.15-.87.81,0,1.54.27,2.08.87.6.6.87,1.28.87,2.08,0,.87-.27,1.54-.87,2.15ZM24.2,192.71c-.54.6-1.28.87-2.08.87-.87,0-1.54-.27-2.15-.87-.54-.54-.87-1.28-.87-2.08s.34-1.54.87-2.15c.6-.54,1.27-.87,2.15-.87.81,0,1.54.34,2.08.87.6.6.87,1.34.87,2.15s-.27,1.54-.87,2.08ZM22.05,185.13c-1.95,0-3.69-.67-5.1-2.08-1.41-1.41-2.08-3.15-2.08-5.1s.67-3.69,2.08-5.1c1.41-1.41,3.16-2.15,5.1-2.15s3.69.74,5.1,2.15c1.41,1.41,2.15,3.15,2.15,5.1s-.74,3.69-2.15,5.1c-1.41,1.41-3.09,2.08-5.1,2.08ZM32.46,189.96c-.6.6-1.28.87-2.08.87-.87,0-1.54-.27-2.15-.87-.54-.54-.87-1.28-.87-2.15,0-.74.34-1.48.87-2.08.6-.6,1.28-.87,2.15-.87.81,0,1.48.27,2.08.87.6.6.87,1.34.87,2.08,0,.87-.27,1.61-.87,2.15ZM36.75,182.31c-.54.6-1.27.87-2.08.87-.87,0-1.54-.27-2.15-.87-.54-.54-.87-1.27-.87-2.08s.34-1.54.87-2.15c.6-.54,1.28-.87,2.15-.87.81,0,1.54.34,2.08.87.6.6.87,1.34.87,2.15s-.27,1.54-.87,2.08Z"/>
  <path d="M80.91,124.06c-3.56-3.56-7.79-5.3-12.75-5.3s-9.19,1.75-12.75,5.3c-3.49,3.49-5.3,7.72-5.3,12.68s1.81,9.19,5.3,12.75c3.56,3.49,7.79,5.3,12.75,5.3s9.19-1.81,12.75-5.3c3.49-3.56,5.3-7.78,5.3-12.75s-1.81-9.19-5.3-12.68ZM77.29,128.29c.6-.54,1.28-.81,2.15-.81.8,0,1.54.27,2.08.81.6.67.87,1.34.87,2.15,0,.87-.27,1.54-.87,2.08-.54.67-1.28.94-2.08.94-.87,0-1.54-.27-2.15-.94-.54-.54-.87-1.21-.87-2.08,0-.81.34-1.48.87-2.15ZM70.71,122.92c.6-.54,1.28-.87,2.15-.87.81,0,1.54.34,2.08.87.6.6.87,1.34.87,2.15s-.27,1.54-.87,2.08c-.54.6-1.28.87-2.08.87-.87,0-1.54-.27-2.15-.87-.54-.54-.87-1.28-.87-2.08s.34-1.54.87-2.15ZM62.19,122.58c.67-.54,1.34-.81,2.15-.81.87,0,1.54.27,2.15.81.6.67.87,1.34.87,2.15,0,.87-.27,1.54-.87,2.08-.6.67-1.28.94-2.15.94-.8,0-1.48-.27-2.15-.94-.54-.54-.87-1.21-.87-2.08,0-.81.34-1.48.87-2.15ZM55.28,127.95c.6-.54,1.28-.8,2.15-.8.81,0,1.54.27,2.08.8.6.67.87,1.34.87,2.15,0,.87-.27,1.54-.87,2.08-.54.67-1.28.94-2.08.94-.87,0-1.54-.27-2.15-.94-.54-.54-.87-1.21-.87-2.08,0-.8.34-1.48.87-2.15ZM53.66,140.5c-.54-.6-.87-1.27-.87-2.15,0-.81.33-1.48.87-2.08.6-.6,1.28-.87,2.15-.87.81,0,1.48.27,2.08.87.6.6.87,1.28.87,2.08,0,.87-.27,1.54-.87,2.15-.6.6-1.27.87-2.08.87-.87,0-1.54-.27-2.15-.87ZM62.05,148.22c-.54.6-1.28.87-2.08.87-.87,0-1.54-.27-2.15-.87-.54-.6-.87-1.28-.87-2.15,0-.81.34-1.48.87-2.08.6-.6,1.28-.87,2.15-.87.81,0,1.54.27,2.08.87.6.6.87,1.28.87,2.08,0,.87-.27,1.54-.87,2.15ZM70.31,151.51c-.54.6-1.28.87-2.08.87-.87,0-1.54-.27-2.15-.87-.54-.54-.87-1.28-.87-2.08s.34-1.54.87-2.15c.6-.54,1.27-.87,2.15-.87.81,0,1.54.34,2.08.87.6.6.87,1.34.87,2.15s-.27,1.54-.87,2.08ZM68.16,143.93c-1.95,0-3.69-.67-5.1-2.08-1.41-1.41-2.08-3.15-2.08-5.1s.67-3.69,2.08-5.1c1.41-1.41,3.16-2.15,5.1-2.15s3.69.74,5.1,2.15c1.41,1.41,2.15,3.15,2.15,5.1s-.74,3.69-2.15,5.1c-1.41,1.41-3.09,2.08-5.1,2.08ZM78.56,148.76c-.6.6-1.28.87-2.08.87-.87,0-1.54-.27-2.15-.87-.54-.54-.87-1.28-.87-2.15,0-.74.34-1.48.87-2.08.6-.6,1.28-.87,2.15-.87.81,0,1.48.27,2.08.87.6.6.87,1.34.87,2.08,0,.87-.27,1.61-.87,2.15ZM82.86,141.11c-.54.6-1.27.87-2.08.87-.87,0-1.54-.27-2.15-.87-.54-.54-.87-1.27-.87-2.08s.34-1.54.87-2.15c.6-.54,1.28-.87,2.15-.87.81,0,1.54.34,2.08.87.6.6.87,1.34.87,2.15s-.27,1.54-.87,2.08ZM80.91,165.26c-3.56-3.56-7.79-5.3-12.75-5.3s-9.19,1.75-12.75,5.3c-3.49,3.49-5.3,7.72-5.3,12.68s1.81,9.19,5.3,12.75c3.56,3.49,7.79,5.3,12.75,5.3s9.19-1.81,12.75-5.3c3.49-3.56,5.3-7.78,5.3-12.75s-1.81-9.19-5.3-12.68ZM77.29,169.49c.6-.54,1.28-.81,2.15-.81.8,0,1.54.27,2.08.81.6.67.87,1.34.87,2.15,0,.87-.27,1.54-.87,2.08-.54.67-1.28.94-2.08.94-.87,0-1.54-.27-2.15-.94-.54-.54-.87-1.21-.87-2.08,0-.81.34-1.48.87-2.15ZM70.71,164.12c.6-.54,1.28-.87,2.15-.87.81,0,1.54.34,2.08.87.6.6.87,1.34.87,2.15s-.27,1.54-.87,2.08c-.54.6-1.28.87-2.08.87-.87,0-1.54-.27-2.15-.87-.54-.54-.87-1.28-.87-2.08s.34-1.54.87-2.15ZM62.19,163.78c.67-.54,1.34-.81,2.15-.81.87,0,1.54.27,2.15.81.6.67.87,1.34.87,2.15,0,.87-.27,1.54-.87,2.08-.6.67-1.28.94-2.15.94-.8,0-1.48-.27-2.15-.94-.54-.54-.87-1.21-.87-2.08,0-.81.34-1.48.87-2.15ZM55.28,169.15c.6-.54,1.28-.8,2.15-.8.81,0,1.54.27,2.08.8.6.67.87,1.34.87,2.15,0,.87-.27,1.54-.87,2.08-.54.67-1.28.94-2.08.94-.87,0-1.54-.27-2.15-.94-.54-.54-.87-1.21-.87-2.08,0-.8.34-1.48.87-2.15ZM53.66,181.7c-.54-.6-.87-1.27-.87-2.15,0-.81.33-1.48.87-2.08.6-.6,1.28-.87,2.15-.87.81,0,1.48.27,2.08.87.6.6.87,1.28.87,2.08,0,.87-.27,1.54-.87,2.15-.6.6-1.27.87-2.08.87-.87,0-1.54-.27-2.15-.87ZM62.05,189.42c-.54.6-1.28.87-2.08.87-.87,0-1.54-.27-2.15-.87-.54-.6-.87-1.28-.87-2.15,0-.81.34-1.48.87-2.08.6-.6,1.28-.87,2.15-.87.81,0,1.54.27,2.08.87.6.6.87,1.28.87,2.08,0,.87-.27,1.54-.87,2.15ZM70.31,192.71c-.54.6-1.28.87-2.08.87-.87,0-1.54-.27-2.15-.87-.54-.54-.87-1.28-.87-2.08s.34-1.54.87-2.15c.6-.54,1.27-.87,2.15-.87.81,0,1.54.34,2.08.87.6.6.87,1.34.87,2.15s-.27,1.54-.87,2.08ZM68.16,185.13c-1.95,0-3.69-.67-5.1-2.08-1.41-1.41-2.08-3.15-2.08-5.1s.67-3.69,2.08-5.1c1.41-1.41,3.16-2.15,5.1-2.15s3.69.74,5.1,2.15c1.41,1.41,2.15,3.15,2.15,5.1s-.74,3.69-2.15,5.1c-1.41,1.41-3.09,2.08-5.1,2.08ZM78.56,189.96c-.6.6-1.28.87-2.08.87-.87,0-1.54-.27-2.15-.87-.54-.54-.87-1.28-.87-2.15,0-.74.34-1.48.87-2.08.6-.6,1.28-.87,2.15-.87.81,0,1.48.27,2.08.87.6.6.87,1.34.87,2.08,0,.87-.27,1.61-.87,2.15ZM82.86,182.31c-.54.6-1.27.87-2.08.87-.87,0-1.54-.27-2.15-.87-.54-.54-.87-1.27-.87-2.08s.34-1.54.87-2.15c.6-.54,1.28-.87,2.15-.87.81,0,1.54.34,2.08.87.6.6.87,1.34.87,2.15s-.27,1.54-.87,2.08Z"/>
  <path d="M144.59,124.06c-3.56-3.56-7.79-5.3-12.75-5.3s-9.19,1.75-12.75,5.3c-3.49,3.49-5.3,7.72-5.3,12.68s1.81,9.19,5.3,12.75c3.56,3.49,7.79,5.3,12.75,5.3s9.19-1.81,12.75-5.3c3.49-3.56,5.3-7.78,5.3-12.75s-1.81-9.19-5.3-12.68ZM140.97,128.29c.6-.54,1.28-.81,2.15-.81.8,0,1.54.27,2.08.81.6.67.87,1.34.87,2.15,0,.87-.27,1.54-.87,2.08-.54.67-1.28.94-2.08.94-.87,0-1.54-.27-2.15-.94-.54-.54-.87-1.21-.87-2.08,0-.81.34-1.48.87-2.15ZM134.39,122.92c.6-.54,1.28-.87,2.15-.87.81,0,1.54.34,2.08.87.6.6.87,1.34.87,2.15s-.27,1.54-.87,2.08c-.54.6-1.28.87-2.08.87-.87,0-1.54-.27-2.15-.87-.54-.54-.87-1.28-.87-2.08s.34-1.54.87-2.15ZM125.87,122.58c.67-.54,1.34-.81,2.15-.81.87,0,1.54.27,2.15.81.6.67.87,1.34.87,2.15,0,.87-.27,1.54-.87,2.08-.6.67-1.28.94-2.15.94-.8,0-1.48-.27-2.15-.94-.54-.54-.87-1.21-.87-2.08,0-.81.34-1.48.87-2.15ZM118.95,127.95c.6-.54,1.28-.8,2.15-.8.81,0,1.54.27,2.08.8.6.67.87,1.34.87,2.15,0,.87-.27,1.54-.87,2.08-.54.67-1.28.94-2.08.94-.87,0-1.54-.27-2.15-.94-.54-.54-.87-1.21-.87-2.08,0-.8.34-1.48.87-2.15ZM117.34,140.5c-.54-.6-.87-1.27-.87-2.15,0-.81.33-1.48.87-2.08.6-.6,1.28-.87,2.15-.87.81,0,1.48.27,2.08.87.6.6.87,1.28.87,2.08,0,.87-.27,1.54-.87,2.15-.6.6-1.27.87-2.08.87-.87,0-1.54-.27-2.15-.87ZM125.73,148.22c-.54.6-1.28.87-2.08.87-.87,0-1.54-.27-2.15-.87-.54-.6-.87-1.28-.87-2.15,0-.81.34-1.48.87-2.08.6-.6,1.28-.87,2.15-.87.81,0,1.54.27,2.08.87.6.6.87,1.28.87,2.08,0,.87-.27,1.54-.87,2.15ZM133.99,151.51c-.54.6-1.28.87-2.08.87-.87,0-1.54-.27-2.15-.87-.54-.54-.87-1.28-.87-2.08s.34-1.54.87-2.15c.6-.54,1.27-.87,2.15-.87.81,0,1.54.34,2.08.87.6.6.87,1.34.87,2.15s-.27,1.54-.87,2.08ZM131.84,143.93c-1.95,0-3.69-.67-5.1-2.08-1.41-1.41-2.08-3.15-2.08-5.1s.67-3.69,2.08-5.1c1.41-1.41,3.16-2.15,5.1-2.15s3.69.74,5.1,2.15c1.41,1.41,2.15,3.15,2.15,5.1s-.74,3.69-2.15,5.1c-1.41,1.41-3.09,2.08-5.1,2.08ZM142.24,148.76c-.6.6-1.28.87-2.08.87-.87,0-1.54-.27-2.15-.87-.54-.54-.87-1.28-.87-2.15,0-.74.34-1.48.87-2.08.6-.6,1.28-.87,2.15-.87.81,0,1.48.27,2.08.87.6.6.87,1.34.87,2.08,0,.87-.27,1.61-.87,2.15ZM146.54,141.11c-.54.6-1.27.87-2.08.87-.87,0-1.54-.27-2.15-.87-.54-.54-.87-1.27-.87-2.08s.34-1.54.87-2.15c.6-.54,1.28-.87,2.15-.87.81,0,1.54.34,2.08.87.6.6.87,1.34.87,2.15s-.27,1.54-.87,2.08ZM144.59,165.26c-3.56-3.56-7.79-5.3-12.75-5.3s-9.19,1.75-12.75,5.3c-3.49,3.49-5.3,7.72-5.3,12.68s1.81,9.19,5.3,12.75c3.56,3.49,7.79,5.3,12.75,5.3s9.19-1.81,12.75-5.3c3.49-3.56,5.3-7.78,5.3-12.75s-1.81-9.19-5.3-12.68ZM140.97,169.49c.6-.54,1.28-.81,2.15-.81.8,0,1.54.27,2.08.81.6.67.87,1.34.87,2.15,0,.87-.27,1.54-.87,2.08-.54.67-1.28.94-2.08.94-.87,0-1.54-.27-2.15-.94-.54-.54-.87-1.21-.87-2.08,0-.81.34-1.48.87-2.15ZM134.39,164.12c.6-.54,1.28-.87,2.15-.87.81,0,1.54.34,2.08.87.6.6.87,1.34.87,2.15s-.27,1.54-.87,2.08c-.54.6-1.28.87-2.08.87-.87,0-1.54-.27-2.15-.87-.54-.54-.87-1.28-.87-2.08s.34-1.54.87-2.15ZM125.87,163.78c.67-.54,1.34-.81,2.15-.81.87,0,1.54.27,2.15.81.6.67.87,1.34.87,2.15,0,.87-.27,1.54-.87,2.08-.6.67-1.28.94-2.15.94-.8,0-1.48-.27-2.15-.94-.54-.54-.87-1.21-.87-2.08,0-.81.34-1.48.87-2.15ZM118.95,169.15c.6-.54,1.28-.8,2.15-.8.81,0,1.54.27,2.08.8.6.67.87,1.34.87,2.15,0,.87-.27,1.54-.87,2.08-.54.67-1.28.94-2.08.94-.87,0-1.54-.27-2.15-.94-.54-.54-.87-1.21-.87-2.08,0-.8.34-1.48.87-2.15ZM117.34,181.7c-.54-.6-.87-1.27-.87-2.15,0-.81.33-1.48.87-2.08.6-.6,1.28-.87,2.15-.87.81,0,1.48.27,2.08.87.6.6.87,1.28.87,2.08,0,.87-.27,1.54-.87,2.15-.6.6-1.27.87-2.08.87-.87,0-1.54-.27-2.15-.87ZM125.73,189.42c-.54.6-1.28.87-2.08.87-.87,0-1.54-.27-2.15-.87-.54-.6-.87-1.28-.87-2.15,0-.81.34-1.48.87-2.08.6-.6,1.28-.87,2.15-.87.81,0,1.54.27,2.08.87.6.6.87,1.28.87,2.08,0,.87-.27,1.54-.87,2.15ZM133.99,192.71c-.54.6-1.28.87-2.08.87-.87,0-1.54-.27-2.15-.87-.54-.54-.87-1.28-.87-2.08s.34-1.54.87-2.15c.6-.54,1.27-.87,2.15-.87.81,0,1.54.34,2.08.87.6.6.87,1.34.87,2.15s-.27,1.54-.87,2.08ZM131.84,185.13c-1.95,0-3.69-.67-5.1-2.08-1.41-1.41-2.08-3.15-2.08-5.1s.67-3.69,2.08-5.1c1.41-1.41,3.16-2.15,5.1-2.15s3.69.74,5.1,2.15c1.41,1.41,2.15,3.15,2.15,5.1s-.74,3.69-2.15,5.1c-1.41,1.41-3.09,2.08-5.1,2.08ZM142.24,189.96c-.6.6-1.28.87-2.08.87-.87,0-1.54-.27-2.15-.87-.54-.54-.87-1.28-.87-2.15,0-.74.34-1.48.87-2.08.6-.6,1.28-.87,2.15-.87.81,0,1.48.27,2.08.87.6.6.87,1.34.87,2.08,0,.87-.27,1.61-.87,2.15ZM146.54,182.31c-.54.6-1.27.87-2.08.87-.87,0-1.54-.27-2.15-.87-.54-.54-.87-1.27-.87-2.08s.34-1.54.87-2.15c.6-.54,1.28-.87,2.15-.87.81,0,1.54.34,2.08.87.6.6.87,1.34.87,2.15s-.27,1.54-.87,2.08Z"/>
  <path d="M190.7,124.06c-3.56-3.56-7.79-5.3-12.75-5.3s-9.19,1.75-12.75,5.3c-3.49,3.49-5.3,7.72-5.3,12.68s1.81,9.19,5.3,12.75c3.56,3.49,7.79,5.3,12.75,5.3s9.19-1.81,12.75-5.3c3.49-3.56,5.3-7.78,5.3-12.75s-1.81-9.19-5.3-12.68ZM187.07,128.29c.6-.54,1.28-.81,2.15-.81.8,0,1.54.27,2.08.81.6.67.87,1.34.87,2.15,0,.87-.27,1.54-.87,2.08-.54.67-1.28.94-2.08.94-.87,0-1.54-.27-2.15-.94-.54-.54-.87-1.21-.87-2.08,0-.81.34-1.48.87-2.15ZM180.5,122.92c.6-.54,1.28-.87,2.15-.87.81,0,1.54.34,2.08.87.6.6.87,1.34.87,2.15s-.27,1.54-.87,2.08c-.54.6-1.28.87-2.08.87-.87,0-1.54-.27-2.15-.87-.54-.54-.87-1.28-.87-2.08s.34-1.54.87-2.15ZM171.97,122.58c.67-.54,1.34-.81,2.15-.81.87,0,1.54.27,2.15.81.6.67.87,1.34.87,2.15,0,.87-.27,1.54-.87,2.08-.6.67-1.28.94-2.15.94-.8,0-1.48-.27-2.15-.94-.54-.54-.87-1.21-.87-2.08,0-.81.34-1.48.87-2.15ZM165.06,127.95c.6-.54,1.28-.8,2.15-.8.81,0,1.54.27,2.08.8.6.67.87,1.34.87,2.15,0,.87-.27,1.54-.87,2.08-.54.67-1.28.94-2.08.94-.87,0-1.54-.27-2.15-.94-.54-.54-.87-1.21-.87-2.08,0-.8.34-1.48.87-2.15ZM163.45,140.5c-.54-.6-.87-1.27-.87-2.15,0-.81.33-1.48.87-2.08.6-.6,1.28-.87,2.15-.87.81,0,1.48.27,2.08.87.6.6.87,1.28.87,2.08,0,.87-.27,1.54-.87,2.15-.6.6-1.27.87-2.08.87-.87,0-1.54-.27-2.15-.87ZM171.84,148.22c-.54.6-1.28.87-2.08.87-.87,0-1.54-.27-2.15-.87-.54-.6-.87-1.28-.87-2.15,0-.81.34-1.48.87-2.08.6-.6,1.28-.87,2.15-.87.81,0,1.54.27,2.08.87.6.6.87,1.28.87,2.08,0,.87-.27,1.54-.87,2.15ZM180.09,151.51c-.54.6-1.28.87-2.08.87-.87,0-1.54-.27-2.15-.87-.54-.54-.87-1.28-.87-2.08s.34-1.54.87-2.15c.6-.54,1.27-.87,2.15-.87.81,0,1.54.34,2.08.87.6.6.87,1.34.87,2.15s-.27,1.54-.87,2.08ZM177.95,143.93c-1.95,0-3.69-.67-5.1-2.08-1.41-1.41-2.08-3.15-2.08-5.1s.67-3.69,2.08-5.1c1.41-1.41,3.16-2.15,5.1-2.15s3.69.74,5.1,2.15c1.41,1.41,2.15,3.15,2.15,5.1s-.74,3.69-2.15,5.1c-1.41,1.41-3.09,2.08-5.1,2.08ZM188.35,148.76c-.6.6-1.28.87-2.08.87-.87,0-1.54-.27-2.15-.87-.54-.54-.87-1.28-.87-2.15,0-.74.34-1.48.87-2.08.6-.6,1.28-.87,2.15-.87.81,0,1.48.27,2.08.87.6.6.87,1.34.87,2.08,0,.87-.27,1.61-.87,2.15ZM192.64,141.11c-.54.6-1.27.87-2.08.87-.87,0-1.54-.27-2.15-.87-.54-.54-.87-1.27-.87-2.08s.34-1.54.87-2.15c.6-.54,1.28-.87,2.15-.87.81,0,1.54.34,2.08.87.6.6.87,1.34.87,2.15s-.27,1.54-.87,2.08ZM190.7,165.26c-3.56-3.56-7.79-5.3-12.75-5.3s-9.19,1.75-12.75,5.3c-3.49,3.49-5.3,7.72-5.3,12.68s1.81,9.19,5.3,12.75c3.56,3.49,7.79,5.3,12.75,5.3s9.19-1.81,12.75-5.3c3.49-3.56,5.3-7.78,5.3-12.75s-1.81-9.19-5.3-12.68ZM187.07,169.49c.6-.54,1.28-.81,2.15-.81.8,0,1.54.27,2.08.81.6.67.87,1.34.87,2.15,0,.87-.27,1.54-.87,2.08-.54.67-1.28.94-2.08.94-.87,0-1.54-.27-2.15-.94-.54-.54-.87-1.21-.87-2.08,0-.81.34-1.48.87-2.15ZM180.5,164.12c.6-.54,1.28-.87,2.15-.87.81,0,1.54.34,2.08.87.6.6.87,1.34.87,2.15s-.27,1.54-.87,2.08c-.54.6-1.28.87-2.08.87-.87,0-1.54-.27-2.15-.87-.54-.54-.87-1.28-.87-2.08s.34-1.54.87-2.15ZM171.97,163.78c.67-.54,1.34-.81,2.15-.81.87,0,1.54.27,2.15.81.6.67.87,1.34.87,2.15,0,.87-.27,1.54-.87,2.08-.6.67-1.28.94-2.15.94-.8,0-1.48-.27-2.15-.94-.54-.54-.87-1.21-.87-2.08,0-.81.34-1.48.87-2.15ZM165.06,169.15c.6-.54,1.28-.8,2.15-.8.81,0,1.54.27,2.08.8.6.67.87,1.34.87,2.15,0,.87-.27,1.54-.87,2.08-.54.67-1.28.94-2.08.94-.87,0-1.54-.27-2.15-.94-.54-.54-.87-1.21-.87-2.08,0-.8.34-1.48.87-2.15ZM163.45,181.7c-.54-.6-.87-1.27-.87-2.15,0-.81.33-1.48.87-2.08.6-.6,1.28-.87,2.15-.87.81,0,1.48.27,2.08.87.6.6.87,1.28.87,2.08,0,.87-.27,1.54-.87,2.15-.6.6-1.27.87-2.08.87-.87,0-1.54-.27-2.15-.87ZM171.84,189.42c-.54.6-1.28.87-2.08.87-.87,0-1.54-.27-2.15-.87-.54-.6-.87-1.28-.87-2.15,0-.81.34-1.48.87-2.08.6-.6,1.28-.87,2.15-.87.81,0,1.54.27,2.08.87.6.6.87,1.28.87,2.08,0,.87-.27,1.54-.87,2.15ZM180.09,192.71c-.54.6-1.28.87-2.08.87-.87,0-1.54-.27-2.15-.87-.54-.54-.87-1.28-.87-2.08s.34-1.54.87-2.15c.6-.54,1.27-.87,2.15-.87.81,0,1.54.34,2.08.87.6.6.87,1.34.87,2.15s-.27,1.54-.87,2.08ZM177.95,185.13c-1.95,0-3.69-.67-5.1-2.08-1.41-1.41-2.08-3.15-2.08-5.1s.67-3.69,2.08-5.1c1.41-1.41,3.16-2.15,5.1-2.15s3.69.74,5.1,2.15c1.41,1.41,2.15,3.15,2.15,5.1s-.74,3.69-2.15,5.1c-1.41,1.41-3.09,2.08-5.1,2.08ZM188.35,189.96c-.6.6-1.28.87-2.08.87-.87,0-1.54-.27-2.15-.87-.54-.54-.87-1.28-.87-2.15,0-.74.34-1.48.87-2.08.6-.6,1.28-.87,2.15-.87.81,0,1.48.27,2.08.87.6.6.87,1.34.87,2.08,0,.87-.27,1.61-.87,2.15ZM192.64,182.31c-.54.6-1.27.87-2.08.87-.87,0-1.54-.27-2.15-.87-.54-.54-.87-1.27-.87-2.08s.34-1.54.87-2.15c.6-.54,1.28-.87,2.15-.87.81,0,1.54.34,2.08.87.6.6.87,1.34.87,2.15s-.27,1.54-.87,2.08Z"/>
  <path d="M74.12,71.51c-1.91,1.9-4.02,2.75-6.56,2.75-2.75,0-4.87-.85-6.77-2.75-1.69-1.91-2.75-4.02-2.75-6.77,0-2.54,1.06-4.66,2.75-6.56,1.91-1.91,4.02-2.75,6.77-2.75,2.54,0,4.66.85,6.56,2.75,1.9,1.9,2.75,4.02,2.75,6.56,0,2.75-.85,4.87-2.75,6.77ZM71.79,52.57c2.54,0,4.87-.85,6.56-2.96,1.91-1.69,2.75-3.81,2.75-6.56,0-2.54-.85-4.66-2.75-6.77-1.69-1.69-4.02-2.54-6.56-2.54-2.75,0-4.87.85-6.77,2.54-1.69,2.12-2.75,4.23-2.75,6.77,0,2.75,1.06,4.87,2.75,6.56,1.91,2.12,4.02,2.96,6.77,2.96ZM78.5,75.71c-2.75,0-4.87.85-6.77,2.75-1.69,1.91-2.75,4.02-2.75,6.56,0,2.75,1.06,4.87,2.75,6.77,1.91,1.91,4.02,2.75,6.77,2.75,2.54,0,4.87-.85,6.56-2.75,1.9-1.9,2.75-4.02,2.75-6.77,0-2.54-.85-4.66-2.75-6.56-1.69-1.9-4.02-2.75-6.56-2.75ZM129.65,53.45c2.54,0,4.87-.85,6.56-2.96,1.91-1.69,2.75-3.81,2.75-6.56,0-2.54-.85-4.66-2.75-6.77-1.69-1.69-4.02-2.54-6.56-2.54-2.75,0-4.87.85-6.77,2.54-1.69,2.12-2.75,4.23-2.75,6.77,0,2.75,1.06,4.87,2.75,6.56,1.91,2.12,4.02,2.96,6.77,2.96ZM112.37,39.16c2.54,0,4.87-.85,6.56-2.75,1.91-1.69,2.75-4.02,2.75-6.56s-.85-4.87-2.75-6.77c-1.69-1.69-4.02-2.75-6.56-2.75-2.75,0-4.87,1.06-6.77,2.75-1.69,1.91-2.75,4.23-2.75,6.77s1.06,4.87,2.75,6.56c1.91,1.91,4.02,2.75,6.77,2.75ZM89.94,38.45c2.75,0,4.87-.85,6.77-2.96,1.91-1.69,2.75-3.81,2.75-6.56,0-2.54-.85-4.66-2.75-6.77-1.91-1.69-4.02-2.54-6.77-2.54-2.54,0-4.66.85-6.77,2.54-1.69,2.12-2.75,4.23-2.75,6.77,0,2.75,1.06,4.87,2.75,6.56,2.12,2.12,4.23,2.96,6.77,2.96ZM121.89,77.12c-2.75,0-4.87.85-6.77,2.75-1.69,1.91-2.75,4.23-2.75,6.56,0,2.75,1.06,5.08,2.75,6.77,1.91,1.91,4.02,2.75,6.77,2.75,2.54,0,4.66-.85,6.56-2.75,1.91-1.69,2.75-4.02,2.75-6.77,0-2.33-.85-4.66-2.75-6.56-1.9-1.91-4.02-2.75-6.56-2.75ZM156.64,60.61c0,31.28-25.36,56.64-56.64,56.64s-56.64-25.36-56.64-56.64S68.72,3.97,100,3.97s56.64,25.36,56.64,56.64ZM147.45,60.52c0-13.05-4.76-24.17-13.94-33.34-9.35-9.35-20.46-13.94-33.52-13.94s-24.17,4.59-33.52,13.94c-9.17,9.17-13.94,20.29-13.94,33.34s4.76,24.17,13.94,33.52c9.35,9.17,20.46,13.94,33.52,13.94s24.17-4.76,33.52-13.94c9.17-9.35,13.94-20.46,13.94-33.52ZM100.19,84.35c-2.75,0-4.87,1.06-6.77,2.75-1.69,1.91-2.75,4.23-2.75,6.77s1.06,4.87,2.75,6.56c1.91,1.91,4.02,2.75,6.77,2.75,2.54,0,4.87-.85,6.56-2.75,1.91-1.69,2.75-4.02,2.75-6.56s-.85-4.87-2.75-6.77c-1.69-1.69-4.02-2.75-6.56-2.75ZM139.75,59.76c-1.69-1.69-4.02-2.75-6.56-2.75-2.75,0-4.87,1.06-6.77,2.75-1.69,1.91-2.75,4.23-2.75,6.77s1.06,4.87,2.75,6.56c1.91,1.91,4.02,2.75,6.77,2.75,2.54,0,4.87-.85,6.56-2.75,1.9-1.69,2.75-4.02,2.75-6.56s-.85-4.87-2.75-6.77ZM119.05,60.52c0,5.12-1.94,9.7-5.65,13.41-3.7,3.71-8.11,5.47-13.41,5.47s-9.7-1.76-13.41-5.47c-3.7-3.7-5.47-8.29-5.47-13.41s1.76-9.7,5.47-13.41c3.7-3.7,8.29-5.65,13.41-5.65s9.7,1.94,13.41,5.65c3.7,3.7,5.65,8.29,5.65,13.41ZM111.99,60.61c0-6.62-5.37-11.99-11.99-11.99s-11.99,5.37-11.99,11.99,5.37,11.99,11.99,11.99,11.99-5.37,11.99-11.99Z"/>
</svg>