<?xml version="1.0" encoding="UTF-8"?>
<svg id="Capa_1" data-name="Capa 1" xmlns="http://www.w3.org/2000/svg" viewBox="0 0 200 200">
  <path d="M91.26,47.54c-1.93,0-3.5-1.56-3.5-3.5s1.57-3.5,3.5-3.5h17.49c1.93,0,3.5,1.56,3.5,3.5s-1.57,3.5-3.5,3.5h-17.49M172.7,63.29c1.43,1,1.9,2.89,1.12,4.44l-13.87,27.45c-.85,1.68-2.88,2.39-4.59,1.6l-8.15-3.77v62.95c0,1.93-1.57,3.5-3.5,3.5H56.29c-1.93,0-3.5-1.57-3.5-3.5v-62.95l-8.15,3.77c-1.71.79-3.74.08-4.59-1.6l-13.87-27.45c-.78-1.55-.31-3.45,1.12-4.44l31.59-22.11c.59-.41,1.29-.63,2.01-.63h16.53c.91,0,1.63.71,1.73,1.62,1.07,10.58,9.99,18.84,20.85,18.84s19.78-8.26,20.85-18.84c.09-.91.81-1.62,1.73-1.62h16.53c.72,0,1.42.22,2.01.63l31.59,22.11M124.65,115.55c-.94-.46-2.08-.07-2.54.88-.46.94-.07,2.08.88,2.54.94.46,2.08.07,2.54-.88.46-.94.07-2.08-.88-2.54M120.14,112.22c-.46.94-.07,2.08.88,2.54.94.46,2.08.07,2.54-.88.46-.94.07-2.08-.88-2.54-.94-.46-2.08-.07-2.54.88M97.89,72.93c-4.19,0-7.58,3.39-7.58,7.58s3.39,7.58,7.58,7.58,7.58-3.39,7.58-7.58-3.39-7.58-7.58-7.58M90.73,127.07c1.05,0,1.9-.85,1.9-1.9s-.85-1.9-1.9-1.9-1.9.85-1.9,1.9.85,1.9,1.9,1.9M94.33,124.14c1.05,0,1.9-.85,1.9-1.9s-.85-1.9-1.9-1.9-1.9.85-1.9,1.9.85,1.9,1.9,1.9M97.95,121.23c1.05,0,1.9-.85,1.9-1.9s-.85-1.9-1.9-1.9-1.9.85-1.9,1.9.85,1.9,1.9,1.9M124.02,123.81l-16.07-33.94h-35.63l19.74,12.93-3.7,21.02,15.92-12.98,19.74,12.98ZM127.48,122.31c.46-.94.07-2.08-.87-2.54-.94-.46-2.08-.07-2.54.88-.46.94-.07,2.08.87,2.54.94.46,2.08.07,2.54-.88"/>
</svg>