<?xml version="1.0" encoding="UTF-8"?>
<svg id="Capa_1" data-name="Capa 1" xmlns="http://www.w3.org/2000/svg" viewBox="0 0 200 200">
  <path d="M15.9,175.89c-2.85-2.2-3.37-6.29-1.17-9.14,2.2-2.85,6.29-3.37,9.14-1.17,2.85,2.2,3.37,6.29,1.17,9.14-2.2,2.85-6.29,3.37-9.14,1.17ZM68.9,153.28c-9.2-.16-17.28-5.1-21.61-12.76l-7.76,10.65-3.71,3.58c-5.7,5.5-5.05,14.81,1.36,19.46h0c5.11,3.71,12.17,3.11,16.58-1.41l6.86-7.02c3.51-3.6,6.61-7.57,9.25-11.85l.4-.64h-1.37ZM18,125.26c3.9,3.03,9.46,2.58,12.82-1.04l6.41-6.9,2.2-1.56-1.41-4.91-1.48.31-8.27,3.58c-1.71.74-3.52,1.12-5.38,1.12-2.75,0-5.38-.83-7.58-2.32-1.95,3.94-.97,8.88,2.69,11.73ZM35.94,183.13c2.2-2.85,1.67-6.94-1.17-9.14-2.85-2.2-6.94-1.67-9.14,1.17-2.2,2.85-1.67,6.94,1.17,9.14,2.85,2.2,6.94,1.67,9.14-1.17ZM45.67,182.41c-2.85-2.2-6.94-1.67-9.14,1.17-2.2,2.85-1.67,6.94,1.17,9.14s6.94,1.67,9.14-1.17c2.2-2.85,1.67-6.94-1.17-9.14ZM81.79,5.91c-21.09,0-38.18,17.09-38.18,38.18s17.09,38.18,38.18,38.18,38.18-17.09,38.18-38.18S102.87,5.91,81.79,5.91ZM125.47,157.34c-1.02,3.45.95,7.08,4.4,8.1,3.45,1.02,7.08-.95,8.1-4.4,1.02-3.45-.95-7.08-4.4-8.1-3.45-1.02-7.08.95-8.1,4.4ZM137.48,139.73c3.45,1.02,5.42,4.65,4.4,8.1-1.02,3.45-4.65,5.42-8.1,4.4-3.45-1.02-5.42-4.65-4.4-8.1,1.02-3.45,4.65-5.42,8.1-4.4ZM141.39,126.52c3.45,1.02,5.42,4.65,4.4,8.1-1.02,3.45-4.65,5.42-8.1,4.4-3.45-1.02-5.42-4.65-4.4-8.1s4.65-5.42,8.1-4.4ZM118.61,126.23l-9.85-2.51c-1.24-.32-2.5-.52-3.78-.6l-17-1.09-5.05-20.02c-3.19-12.65-13.92-21.98-26.89-23.38h0c-6.87-.74-12.86,2.86-15.84,8.25l-9.66,2.05c-1.23.26-2.43.65-3.59,1.16l-7.91,3.49c-5.09,2.25-7.18,8.36-4.53,13.25,2.35,4.34,7.63,6.16,12.16,4.2l8.65-3.75,5.54-1.15,7.99,27.75c2.58,8.97,10.72,15.2,20.05,15.37l33.91-.09,8.99,2.4c6.75,1.8,13.74-2.01,15.87-8.66h0c2.29-7.12-1.84-14.71-9.05-16.67ZM186.48,108.84c-.68,5.81-3.58,11.36-8.53,15.27-4.95,3.91-11.02,5.45-16.83,4.76-5.81-.68-11.36-3.58-15.27-8.53-3.91-4.95-5.45-11.02-4.76-16.83.68-5.81,3.58-11.36,8.53-15.27,4.95-3.91,11.02-5.45,16.83-4.76,5.81.68,11.36,3.58,15.27,8.53,3.91,4.95,5.45,11.02,4.76,16.83ZM183.22,104.02c-.38-3.46-1.69-6.85-3.97-9.8v.41s.03,2.54.03,2.54c0,.34-.27.62-.61.62-.05,0-.1,0-.14-.02l-3.78-.86-3.78-.86c-.16-.04-.28-.13-.37-.25l-2.34-3.05-2.36-3.07c-.21-.27-.16-.66.11-.87.04-.03.08-.05.12-.07h0s2.32-1.04,2.32-1.04l.72-.32c-1.02-.29-2.05-.5-3.1-.62-2.74-.32-5.56-.07-8.24.79l.07.02,2.42.79c.32.1.5.45.4.78-.02.05-.04.1-.07.15l-2,3.3-2.01,3.31c-.08.13-.19.22-.33.26l-3.66,1.26-3.66,1.26c-.32.11-.68-.06-.79-.38-.02-.05-.03-.09-.03-.14h0l-.25-2.53-.07-.75c-1.91,2.7-3.08,5.82-3.45,9.02-.12,1.05-.16,2.11-.11,3.16l.35-.53,1.41-2.12c.19-.28.57-.36.86-.17.04.03.08.06.11.09h0l2.65,2.83,2.65,2.83c.1.11.16.25.17.39l.23,3.86.23,3.87c.02.34-.24.63-.58.66-.07,0-.13,0-.19-.02l-2.46-.43-1.42-.25c.06.08.12.15.18.23,2.84,3.59,6.68,5.92,10.82,6.9l-.87-1.18-1.51-2.05c-.2-.27-.15-.66.13-.86.04-.03.08-.05.12-.07h0l3.57-1.52,3.56-1.52c.15-.06.3-.06.44-.02l3.7,1.1,3.71,1.11c.33.1.51.44.42.77-.02.06-.04.11-.07.15l-1.26,2.18-.73,1.27c1.91-.7,3.74-1.7,5.42-3.03,1.92-1.52,3.48-3.33,4.67-5.31l-.62.21-2.41.81c-.32.11-.67-.06-.78-.39-.02-.05-.03-.09-.03-.14l-.35-3.86-.35-3.86c-.01-.15.03-.29.11-.41l2.2-3.19,2.2-3.19c.19-.28.58-.35.86-.16.04.03.08.06.11.09l1.71,1.89.02.02ZM159.24,99.3c-.27,0-.51.18-.58.45l-1.22,4.34-1.22,4.34c-.07.25.02.53.25.68l3.75,2.5,3.72,2.48c.22.17.53.17.76,0l3.53-2.79,3.54-2.79h0c.2-.16.29-.44.2-.7l-1.56-4.23-1.56-4.21c-.08-.25-.33-.43-.61-.42l-4.5.18-4.49.18Z"/>
</svg>