<?xml version="1.0" encoding="UTF-8"?>
<svg id="Capa_1" data-name="Capa 1" xmlns="http://www.w3.org/2000/svg" viewBox="0 0 200 200">
  <path d="M26.42,106.05h37.7c.57,0,1.12-.22,1.52-.62,5.14-5.25,8.58-12.32,8.58-20.1,0-2.6-.56-5.12-1.44-7.52v-14.25c0-1.52-1.23-2.75-2.75-2.75h-2.75c-1.52,0-2.75,1.23-2.75,2.75v7.19c-8.56,1.48-16.11,7.04-19.26,14.58-3.15-7.54-10.7-13.11-19.26-14.58v-7.19c0-1.52-1.23-2.75-2.75-2.75h-2.75c-1.52,0-2.75,1.23-2.75,2.75v14.25c-.88,2.4-1.44,4.92-1.44,7.52,0,7.78,3.44,14.86,8.58,20.1.4.4.95.62,1.52.62M68.42,114.11c-.5-.66-1.29-1.04-2.13-1.04H24.26c-.83,0-1.63.37-2.13,1.04-8.1,10.71-13.94,26.55-14.47,44.35-.02.75.59,1.38,1.35,1.38h72.54c.75,0,1.37-.63,1.35-1.38-.53-17.81-6.37-33.64-14.47-44.35M57.59,62.15c1.34.73,1.83,2.4,1.1,3.73-.5.92-1.44,1.44-2.42,1.44-.44,0-.89-.11-1.31-.33-5.68-3.09-13.57-3.28-19.51-.42-1.37.66-3.01.08-3.67-1.29-.66-1.37-.08-3.02,1.29-3.67,2.9-1.39,6.14-2.2,9.45-2.45v-3.08c0-2.28,1.44-4.27,3.68-5.07,1.15-.41,2.11-1.66,1.74-3.28-.22-.95-1.03-1.77-1.99-1.99-1.18-.26-2.01.21-2.4.52-.66.53-1.04,1.31-1.04,2.16,0,1.52-1.23,2.75-2.75,2.75s-2.75-1.23-2.75-2.75c0-2.53,1.13-4.88,3.11-6.46,1.98-1.58,4.55-2.16,7.05-1.58,3.03.69,5.44,3.1,6.13,6.13.94,4.12-1.32,8.28-5.26,9.69l-.02,3.07c3.39.38,6.69,1.33,9.57,2.89M146.55,67.79c1.7,1.93,2.74,4.44,2.74,7.22,0,1.71-.4,3.33-1.11,4.77-.49,1.01-1.75,1.38-2.73.83l-4.56-2.59v18.32c0,1.46-1.18,2.64-2.64,2.64s-2.64-1.18-2.64-2.64v-18.08l-4.36,2.62c-.96.58-2.22.23-2.75-.75-.82-1.52-1.29-3.25-1.29-5.1,0-2.65.95-5.06,2.51-6.95.61-.74,1.67-.95,2.5-.48l4.9,2.79c.61.35,1.36.34,1.96-.02l4.95-2.97c.82-.5,1.88-.31,2.51.41M184.2,70.48l-14.41-8.01c-.78-.44-1.67-.66-2.56-.66h-1.32c-.23-.52-.5-1.02-.82-1.5-1.88-2.77-5-4.43-8.35-4.43h-36.96c-3.35,0-6.47,1.66-8.35,4.43-.32.48-.59.98-.82,1.5h-1.33c-.9,0-1.78.23-2.56.66l-14.41,8.01c-5.03,2.79-8.14,8.09-8.14,13.84v56.65c0,1.46,1.18,2.64,2.64,2.64h15.83v-42.22c0-1.46,1.18-2.64,2.64-2.64s2.64,1.18,2.64,2.64v47.5c0,1.46,1.18,2.64,2.64,2.64h55.41c1.46,0,2.64-1.18,2.64-2.64v-47.5c0-1.46,1.18-2.64,2.64-2.64s2.64,1.18,2.64,2.64v42.22h15.83c1.46,0,2.64-1.18,2.64-2.64v-56.65c0-5.75-3.12-11.05-8.14-13.84M158.75,66.77l-18.48,46.2c-.36.91-1.19,1.36-2.01,1.36s-1.65-.45-2.01-1.36l-18.48-46.2c-.57-1.42.48-2.97,2.01-2.97h36.96c1.53,0,2.58,1.55,2.01,2.97"/>
</svg>