<?xml version="1.0" encoding="UTF-8"?>
<svg id="Capa_1" xmlns="http://www.w3.org/2000/svg" version="1.1" viewBox="0 0 200 200">
  <!-- Generator: Adobe Illustrator 29.0.0, SVG Export Plug-In . SVG Version: 2.1.0 Build 186)  -->
  <path d="M100,12.19C51.5,12.19,12.19,51.5,12.19,100s39.31,87.81,87.81,87.81,87.81-39.31,87.81-87.81S148.5,12.19,100,12.19ZM44.52,100c0-30.64,24.84-55.48,55.48-55.48s55.48,24.84,55.48,55.48-24.84,55.48-55.48,55.48-55.48-24.84-55.48-55.48ZM100,47.8c-28.83,0-52.2,23.37-52.2,52.2s23.37,52.2,52.2,52.2,52.2-23.37,52.2-52.2-23.37-52.2-52.2-52.2ZM125.52,68.02c1.72-1.73,4.51-1.74,6.24-.02,2.92,2.9,5.43,6.17,7.46,9.74,1.2,2.12.47,4.81-1.65,6.01-.69.39-1.44.58-2.18.58-1.53,0-3.03-.8-3.84-2.23-1.64-2.87-3.66-5.51-6-7.84-1.73-1.72-1.74-4.51-.02-6.24ZM99.87,54.91c.05,0,.25,0,.3,0,3.93,0,7.96.54,11.85,1.62,2.35.65,3.73,3.08,3.08,5.42-.54,1.96-2.31,3.24-4.25,3.24-.39,0-.78-.05-1.18-.16-3.13-.86-6.39-1.3-9.67-1.3-2.44,0-4.48-1.98-4.48-4.41s1.91-4.41,4.35-4.41ZM68.03,68.2c2.9-2.92,6.18-5.42,9.75-7.45,2.12-1.2,4.81-.46,6.01,1.66,1.2,2.12.46,4.81-1.66,6.01-2.87,1.63-5.51,3.65-7.85,5.99-.86.87-1.99,1.3-3.13,1.3s-2.25-.43-3.11-1.28c-1.73-1.72-1.74-4.51-.02-6.24ZM54.91,100.09v-.09c0-4.09.55-8.15,1.63-12.06.65-2.35,3.08-3.72,5.43-3.07,2.35.65,3.72,3.08,3.07,5.43-.87,3.14-1.31,6.41-1.31,9.71,0,2.44-1.97,4.46-4.41,4.46s-4.41-1.93-4.41-4.37ZM74.41,131.92c-.86.86-1.99,1.3-3.12,1.3s-2.25-.43-3.11-1.29c-2.91-2.9-5.41-6.19-7.44-9.76-1.2-2.12-.45-4.81,1.67-6.01,2.12-1.2,4.81-.45,6.01,1.67,1.63,2.88,3.64,5.52,5.99,7.86,1.72,1.72,1.73,4.51.01,6.24ZM72.7,100c0-15.08,12.22-27.3,27.3-27.3s27.3,12.22,27.3,27.3-12.22,27.3-27.3,27.3-27.3-12.22-27.3-27.3ZM100.04,145.09h-.04c-4.11,0-8.18-.55-12.11-1.64-2.35-.65-3.72-3.08-3.07-5.43.65-2.35,3.09-3.71,5.43-3.07,3.16.88,6.44,1.32,9.75,1.32,2.44,0,4.43,1.97,4.43,4.41s-1.95,4.41-4.39,4.41ZM131.9,131.86c-2.91,2.91-6.19,5.41-9.77,7.43-.68.39-1.43.57-2.16.57-1.54,0-3.04-.81-3.85-2.24-1.2-2.12-.45-4.81,1.67-6.01,2.88-1.62,5.52-3.64,7.86-5.98,1.72-1.72,4.51-1.73,6.24,0,1.72,1.72,1.72,4.51,0,6.24ZM143.43,112.15c-.54,1.95-2.32,3.23-4.25,3.23-.39,0-.79-.05-1.19-.16-2.35-.66-3.72-3.09-3.06-5.43.89-3.17,1.33-6.46,1.33-9.78v-.17c0-2.44,1.97-4.41,4.41-4.41s4.41,1.97,4.41,4.41v.17c0,4.12-.56,8.22-1.66,12.16Z"/>
</svg>