<?xml version="1.0" encoding="UTF-8"?>
<svg id="Capa_1" data-name="Capa 1" xmlns="http://www.w3.org/2000/svg" viewBox="0 0 200 200">
  <path d="M38.76,115.8c-1.52-1.65-2.98-3.25-4.31-4.76-10.78-14.26-17.52-28.51-17.52-42.77,0-37.48,56.18-57.19,83.01-11.48,26.83-45.71,83.01-26,83.01,11.48,0,14.26-6.75,28.51-17.52,42.77l-3.91,4.76h-32.07l-16.5-39.13-13.58,40.22-18.39-73.28-15.46,56.51-4.18-8.19-12.58,23.87h-10ZM124.84,122.75l-11.17-26.49-15.29,45.26-17.69-70.52-13.2,48.25-6.25-12.23-8.29,15.73h-7.65c16.12,16.76,38.14,37.55,54.63,51.6,20.19-17.2,40.34-34.4,55.76-51.6h-30.86Z"/>
</svg>