<?xml version="1.0" encoding="UTF-8"?>
<svg id="Capa_1" data-name="Capa 1" xmlns="http://www.w3.org/2000/svg" viewBox="0 0 200 200">
  <path d="M121.45,102.56l16.68,16.68h4.86v-16.68h-21.54ZM38.71,102.56v16.68h61.66l-16.68-16.68h-44.98ZM165.87,34.14c-16.83-16.85-40.17-27.3-65.87-27.3-25.68,0-49.04,10.45-65.86,27.3C17.29,50.96,6.84,74.31,6.84,100s10.46,49.04,27.3,65.86c16.82,16.85,40.17,27.3,65.86,27.29h.03c25.68,0,49.03-10.44,65.85-27.29,16.84-16.82,27.3-40.16,27.28-65.86.01-25.69-10.44-49.04-27.29-65.86M151.18,48.82c13.13,13.14,21.2,31.17,21.21,51.18-.01,16.11-5.24,30.93-14.12,42.94L57.05,41.74c12.02-8.88,26.84-14.11,42.95-14.12,20.02,0,38.05,8.09,51.18,21.21M100,172.39c-20.01-.01-38.05-8.09-51.18-21.21-13.12-13.13-21.2-31.17-21.2-51.18,0-16.11,5.24-30.93,14.11-42.95l101.22,101.21c-12.02,8.87-26.84,14.11-42.96,14.12M151.77,99.56h-5.58v-7.68c0-1.35-.22-2.51-.6-3.46-.37-.96-.89-1.73-1.6-2.37-1.39-1.3-3.66-2.21-7.19-2.22h-15.02c-4.07.03-7.51-1.81-9.67-4.46-2.17-2.65-3.22-6.01-3.22-9.35,0-1.08.11-2.17.35-3.23-4.52-.55-8.24-2.47-10.85-5.16-3.13-3.21-4.73-7.4-4.74-11.51,0-2.7.53-5.64,1.85-8.41,1.3-2.75,3.49-5.35,6.69-6.94,2.11-1.06,4.64-1.63,7.49-1.63,1.55,0,2.8,1.24,2.8,2.79s-1.24,2.79-2.8,2.79c-2.1,0-3.72.42-5,1.06-1.28.65-2.29,1.53-3.08,2.61-1.61,2.12-2.36,5.14-2.35,7.74,0,2.65,1.07,5.48,3.15,7.59,2.09,2.12,5.15,3.63,9.56,3.64l1.12-.04c1.04-.05,2.02.45,2.55,1.34.55.88.55,1.99.02,2.88-.76,1.28-1.16,2.87-1.16,4.49,0,2.15.72,4.31,1.95,5.79,1.26,1.49,2.88,2.41,5.35,2.43h15.02c3.37,0,6.33.66,8.77,2.07,2.44,1.39,4.26,3.54,5.24,6.09.66,1.7.96,3.54.96,5.49v7.68ZM160.5,99.55h-5.59v-10.31c0-4.72-1.72-9.48-4.78-12.97-3.08-3.47-7.37-5.75-13.04-5.77h-8.87c-1.07,0-2.02-.58-2.49-1.52-.48-.93-.39-2.06.22-2.91,2.18-2.99,3.26-6.54,3.23-9.16,0-3.64-1.25-6.79-3.45-9.05-2.21-2.24-5.39-3.7-9.78-3.72-1.54,0-2.79-1.25-2.79-2.79s1.25-2.8,2.79-2.8c5.68-.01,10.5,2.03,13.78,5.42,3.31,3.39,5.05,8.02,5.04,12.95-.01,2.55-.6,5.31-1.76,8.01h4.08c7.25-.02,13.25,3.08,17.25,7.68,4.02,4.59,6.16,10.6,6.17,16.64v10.31Z"/>
</svg>