<?xml version="1.0" encoding="UTF-8"?>
<svg id="Capa_1" xmlns="http://www.w3.org/2000/svg" version="1.1" viewBox="0 0 200 200">
  <!-- Generator: Adobe Illustrator 29.0.0, SVG Export Plug-In . SVG Version: 2.1.0 Build 186)  -->
  <g>
    <path d="M53.21,188.71l-4.23,4.23c-.96.96-.96,2.53,0,3.49.96.96,2.53.96,3.49,0l4.23-4.23c.96-.96.96-2.53,0-3.49-.96-.96-2.53-.96-3.49,0Z"/>
    <path d="M91.51,96.19c-3.53-4.61-6.08-9.66-6.74-15.47-.67-5.89.57-11.33,4.32-16.32,1.9,5.95,2.59,7.38,4.27,8.75.61-5.95,3.43-10.87,6.55-15.67,2.89-4.44,6.19-8.7,6.55-14.61.57.53.93.82,1.23,1.16,6.01,6.75,10.2,14.49,12.27,23.29,1.73,7.35,1.98,14.72-1.37,21.72-1.31,2.74-3.33,5.14-4.93,7.55.04-.01.4-.07.74-.2,11.98-4.53,19.48-13.09,22.23-25.53,2.41-10.9-.07-21.21-5.09-30.93-7.51-14.55-18.9-25.65-32-35.15-.85-.62-1.73-1.18-2.83-1.93.07,6.1-2.32,11.01-5.32,15.68-1.33,2.07-2.77,4.06-4.13,6.1,2.3,2.75,7.1,9.26,7.1,15.67s-5.33,11.88-11.88,11.88c-3.93,0-7.41-1.93-9.57-4.87-3.07,6.73-4.33,13.96-3.21,21.54,1.96,13.26,9.75,22.01,21.79,27.35Z"/>
    <path d="M151.02,192.93l-4.23-4.23c-.96-.96-2.53-.96-3.49,0-.96.96-.96,2.53,0,3.49l4.23,4.23c.96.96,2.53.96,3.49,0,.96-.96.96-2.53,0-3.49Z"/>
    <path d="M142.15,167.91l-14.37-14.37v-26.88h3.94v24.22c0,5.33,4.23,9.66,9.43,9.66s9.43-4.33,9.43-9.66v-24.22c0-15.56-10.33-25.07-22.81-25.07h-55.04c-14.07,0-23.33,11.56-23.33,25.07v24.22c0,5.33,4.22,9.66,9.43,9.66s9.43-4.33,9.43-9.66v-24.22h4.46v26.37l-14.89,14.89c-5.14,5.14-5.14,13.47,0,18.61,5.14,5.14,13.47,5.14,18.61,0l22.52-22.52h2.04l22.52,22.52c5.14,5.14,13.48,5.14,18.61,0,5.14-5.14,5.14-13.48,0-18.61ZM112.18,132.76l-12.23,12.23-11.65-11.65h3.22c.47,0,.87-.33.97-.78l1.48-5.8,3.56,11.96h0c.16.52.71.82,1.23.67.36-.11.61-.4.68-.74l2.98-10.03,1.07,4.02h0c.12.45.52.74.96.74h3.54c.55,0,.99-.44.99-.99s-.44-.99-.99-.99h-2.78l-1.76-6.61c-.07-.35-.32-.65-.69-.76-.52-.16-1.08.14-1.23.67h0s-3.05,10.29-3.05,10.29l-3.62-12.15c-.08-.35-.35-.64-.72-.73-.53-.14-1.07.19-1.21.72h0s-2.18,8.55-2.18,8.55h-4.33c-1.11-1.5-1.77-3.39-1.77-5.45,0-4.86,3.68-8.79,8.22-8.79,3.02,0,5.65,1.74,7.08,4.32,1.43-2.59,4.07-4.32,7.08-4.32,4.54,0,8.22,3.94,8.22,8.79,0,2.77-1.2,5.25-3.08,6.86Z"/>
  </g>
  <path d="M82.5,48.18c-4.34,0-7.88-3.53-7.88-7.88,0-6.52,6.85-13.91,7.15-14.22l.73-.78.73.78c.29.31,7.15,7.7,7.15,14.22,0,4.34-3.53,7.88-7.88,7.88Z"/>
</svg>