<?xml version="1.0" encoding="UTF-8"?>
<svg id="Capa_1" data-name="Capa 1" xmlns="http://www.w3.org/2000/svg" viewBox="0 0 200 200">
  <path d="M150.53,90.42h-26.47c-1.3,0-2,.7-2,2v.7c-.14-.05-.28-.05-.42-.05h-.05c-1.3,0-2.37,1.16-2.37,2.61v1.21h-1.91v4.79h1.91v1.35c0,1.44,1.07,2.51,2.37,2.51h.05c.14,0,.28-.05.42-.05v.7c0,.88.33,1.86.98,2.33.28.23.61.37,1.02.37h26.47c.14,0,.28-.05.37-.05,1.21-.23,2.33-1.49,2.33-2.65v-13.77c0-1.3-1.4-2-2.7-2ZM136.94,99.95v4.09l-2.14-1.67-.7-.51-.65-.51-1.72-1.35-3.07-2.42,5.54,1.58.6.19v-4.09l1.12.88,5.21,4,.6.51,1.35,1.07-6.14-1.77ZM20.82,71.37l3.54,2.54v52.19l-3.54,2.52-5.45,3.89-6.81.04v-65.09h6.81l5.45,3.91ZM196.49,74.71l-2.72,3.61,2.72,3.61-2.72,3.61,2.72,3.61-2.72,3.61,2.72,3.61-2.72,3.61,2.72,3.61-2.72,3.61,2.72,3.61-2.72,3.61,2.72,3.61-2.72,3.62,2.72,3.61-2.72,3.61,2.72,3.61h-2.94v-65.06l2.94.04-2.72,3.61,2.72,3.61ZM184.63,67.46h6.81v65.09l-6.81-.04-5.46-3.9-3.52-2.51v-52.19l3.52-2.54,5.46-3.91ZM27.5,126.1h144.99v-52.2H27.5v52.2ZM39.5,85.69h117.89v27.92H39.5v-27.92ZM39.5,118.13h36.2v1.75h-36.2v-1.75ZM39.5,121.36h22.56v1.75h-22.56v-1.75ZM3.51,67.49l2.94-.04v65.06h-2.94l2.72-3.61-2.72-3.61,2.72-3.61-2.72-3.62,2.72-3.61-2.72-3.61,2.72-3.61-2.72-3.61,2.72-3.61-2.72-3.61,2.72-3.61-2.72-3.61,2.72-3.61-2.72-3.61,2.72-3.61-2.72-3.61,2.72-3.61-2.72-3.61ZM113.09,100.74c.74-.53,1.09-1.41,1.09-2.63v-1.68c0-2.67-1.47-3.95-4.06-3.95h-2.04c-.93,0-1.58.65-1.58,1.58v11.67c0,.93.65,1.58,1.58,1.58s1.58-.65,1.58-1.58v-3.89h.69l1.05,4.08c.25.93.78,1.39,1.56,1.39.9,0,1.54-.61,1.54-1.47,0-.27-.06-.61-.19-1.01l-1.22-4.08ZM111.02,98.15c0,.69-.31,1.05-.95,1.05h-.42v-3.79h.42c.63,0,.95.36.95,1.05v1.68ZM49.69,98.78c1.68,1.62,2.42,3.05,2.42,4.8,0,1.14-.38,2.06-1.14,2.78-.76.69-1.68,1.05-2.8,1.05s-1.96-.34-2.67-.99c-.72-.65-1.07-1.53-1.07-2.65v-.21c0-.9.63-1.51,1.53-1.51s1.52.65,1.52,1.51v.06c0,.63.25.95.74.95.44,0,.74-.36.74-.86,0-.42-.13-.84-.38-1.26-.25-.42-.8-1.03-1.62-1.83-1.62-1.58-2.42-3.11-2.42-4.63,0-1.11.38-2,1.11-2.69.74-.69,1.64-1.03,2.71-1.03s1.89.32,2.59.97c.69.63,1.05,1.45,1.05,2.46v.08c0,.9-.61,1.53-1.51,1.53s-1.54-.65-1.54-1.43v-.04c0-.42-.23-.74-.63-.74-.42,0-.63.25-.63.76,0,.36.13.74.38,1.14.27.4.8,1.01,1.62,1.79ZM61.26,93.71v11.97c0,.99-.61,1.62-1.53,1.62-.78,0-1.3-.44-1.58-1.33l-2.04-6.65v6.6c0,.78-.55,1.37-1.37,1.37s-1.37-.59-1.37-1.37v-11.88c0-1.01.65-1.68,1.64-1.68.84,0,1.41.44,1.68,1.35l1.83,5.95v-5.95c0-.78.59-1.35,1.37-1.35s1.37.57,1.37,1.35ZM103.22,94c-.21-1.09-.82-1.64-1.83-1.64s-1.58.55-1.79,1.64l-2.21,11.27c-.04.21-.06.4-.06.59,0,.84.59,1.43,1.43,1.43s1.37-.53,1.52-1.56l.13-.97h1.79l.13.97c.13,1.03.65,1.56,1.58,1.56s1.56-.65,1.56-1.49c0-.21-.02-.44-.08-.72l-2.15-11.08ZM100.74,102.25l.55-4.25.57,4.25h-1.12ZM95.21,99.47c.93-.63,1.39-1.62,1.39-2.94v-.53c0-2.27-1.43-3.53-3.64-3.53h-2.36c-.93,0-1.58.65-1.58,1.58v11.57c0,.93.65,1.58,1.58,1.58h2.48c2.21,0,3.72-1.35,3.72-3.62v-1.05c0-1.45-.53-2.46-1.6-3.05ZM92.18,95.1h.32c.63,0,.95.36.95,1.05v1.26c0,.69-.32,1.05-.95,1.05h-.32v-3.37ZM93.65,103.51c0,.69-.32,1.05-.95,1.05h-.53v-3.68h.53c.63,0,.95.36.95,1.05v1.58ZM68.2,94c-.21-1.09-.82-1.64-1.83-1.64s-1.58.55-1.79,1.64l-2.21,11.27c-.04.21-.06.4-.06.59,0,.84.59,1.43,1.43,1.43s1.37-.53,1.52-1.56l.13-.97h1.79l.13.97c.13,1.03.65,1.56,1.58,1.56s1.56-.65,1.56-1.49c0-.21-.02-.44-.08-.72l-2.15-11.08ZM65.72,102.25l.55-4.25.57,4.25h-1.12ZM87.8,104.82c.11.34.17.63.17.88,0,.95-.65,1.6-1.58,1.6-.82,0-1.35-.44-1.6-1.3l-1.64-5.68v5.41c0,.93-.65,1.58-1.58,1.58s-1.58-.65-1.58-1.58v-11.78c0-.93.65-1.58,1.58-1.58s1.58.65,1.58,1.58v4.94l1.43-5.22c.23-.86.78-1.3,1.6-1.3.93,0,1.58.65,1.58,1.58,0,.23-.06.53-.17.86l-1.6,4.61,1.81,5.41ZM77.48,93.23c.69.63,1.05,1.49,1.05,2.57v1.14c0,.9-.61,1.54-1.52,1.54s-1.54-.63-1.54-1.54v-.99c0-.48-.21-.74-.63-.74s-.63.25-.63.74v7.78c0,.48.21.74.63.74s.63-.25.63-.74v-1.22c0-.9.63-1.51,1.54-1.51s1.52.65,1.52,1.51v1.28c0,1.07-.36,1.96-1.09,2.63-.72.65-1.6.99-2.63.99s-1.96-.34-2.67-.99c-.72-.65-1.07-1.53-1.07-2.65v-7.78c0-1.11.38-2,1.11-2.69.74-.69,1.64-1.03,2.71-1.03s1.89.32,2.59.97Z"/>
</svg>