<?xml version="1.0" encoding="UTF-8"?>
<svg id="Capa_1" data-name="Capa 1" xmlns="http://www.w3.org/2000/svg" viewBox="0 0 200 200">
  <path d="M192.29,71.02c0,1.71-1.38,3.09-3.09,3.09h-1.83v19.14c.02,4.72-3.81,8.55-8.53,8.55h-16.08c-4.72,0-8.54-3.82-8.54-8.54v-19.15h-9.64c-.38,1.7-1.19,3.33-2.46,4.72l-19.65,21.41-.22,15.03,8.65-7.22c7.91-6.6,20.01-2.46,22.2,7.61,1.99,9.11,3.99,18.32,4.71,21.71,1.26,5.96-2.39,11.86-8.29,13.4h0c-6.21,1.63-12.55-2.18-14.02-8.43l-1.52-6.44-2.69,3.23c-1.91,2.3-4.75,3.63-7.74,3.63h-47.08c-2.99,0-5.83-1.33-7.74-3.63l-2.69-3.23-1.52,6.44c-1.48,6.25-7.81,10.06-14.02,8.43h0c-5.89-1.55-9.54-7.44-8.29-13.4.71-3.39,2.72-12.6,4.71-21.71,2.2-10.07,14.29-14.21,22.2-7.61l8.65,7.22-.22-15.03-19.65-21.41c-1.27-1.38-2.08-3.01-2.46-4.72h-8.91v19.15c0,4.72-3.82,8.54-8.54,8.54h-16.81c-4.72,0-8.54-3.82-8.54-8.54v-19.15h-1.82c-1.71,0-3.09-1.38-3.09-3.09s1.38-3.09,3.09-3.09h1.82v-21.46c0-4.72,3.82-8.54,8.54-8.54h16.81c4.72,0,8.54,3.82,8.54,8.54v21.46h9.45c.61-1.47,1.55-2.83,2.85-3.93,4.15-3.52,10.33-3.2,14.1.73l.96,1.01c-1.79,3.76-2.82,7.95-2.82,12.39,0,15.96,12.98,28.94,28.94,28.94s28.95-12.98,28.95-28.94c0-4.44-1.03-8.63-2.82-12.39l.96-1.01c3.77-3.93,9.95-4.25,14.1-.73,1.3,1.1,2.25,2.46,2.85,3.93h10.17v-21.46c0-4.72,3.82-8.54,8.54-8.54h16.05c4.71,0,8.54,3.82,8.54,8.54v21.47h1.85c1.71,0,3.09,1.38,3.09,3.09ZM100,55.28c-12.61,0-22.83,10.22-22.83,22.83s10.22,22.83,22.83,22.83,22.83-10.22,22.83-22.83-10.22-22.83-22.83-22.83ZM62.19,162.07h.96c2.39,0,4.35-1.96,4.35-4.35v-.96c0-2.39-1.96-4.35-4.35-4.35h-.96c-2.39,0-4.35,1.96-4.35,4.35v.96c0,2.39,1.96,4.35,4.35,4.35ZM51.75,162.07h.96c2.39,0,4.35-1.96,4.35-4.35v-.96c0-2.39-1.96-4.35-4.35-4.35h-.96c-2.39,0-4.35,1.96-4.35,4.35v.96c0,2.39,1.96,4.35,4.35,4.35ZM41.32,162.07h.96c2.39,0,4.35-1.96,4.35-4.35v-.96c0-2.39-1.96-4.35-4.35-4.35h-.96c-2.39,0-4.35,1.96-4.35,4.35v.96c0,2.39,1.96,4.35,4.35,4.35ZM156.86,162.07h.96c2.39,0,4.35-1.96,4.35-4.35v-.96c0-2.39-1.96-4.35-4.35-4.35h-.96c-2.39,0-4.35,1.96-4.35,4.35v.96c0,2.39,1.96,4.35,4.35,4.35ZM146.42,162.07h.96c2.39,0,4.35-1.96,4.35-4.35v-.96c0-2.39-1.96-4.35-4.35-4.35h-.96c-2.39,0-4.35,1.96-4.35,4.35v.96c0,2.39,1.96,4.35,4.35,4.35ZM135.99,162.07h.96c2.39,0,4.35-1.96,4.35-4.35v-.96c0-2.39-1.96-4.35-4.35-4.35h-.96c-2.39,0-4.35,1.96-4.35,4.35v.96c0,2.39,1.96,4.35,4.35,4.35Z"/>
</svg>