<?xml version="1.0" encoding="UTF-8"?>
<svg id="Capa_1" xmlns="http://www.w3.org/2000/svg" version="1.1" viewBox="0 0 200 200">
  <!-- Generator: Adobe Illustrator 29.0.0, SVG Export Plug-In . SVG Version: 2.1.0 Build 186)  -->
  <g id="temperature">
    <path d="M35.59,107.11c-2.47,0-4.47,2-4.47,4.48v15.92l-.66.5c-2.17,1.64-3.42,4.12-3.42,6.83,0,4.72,3.84,8.55,8.55,8.55s8.55-3.83,8.55-8.55c0-2.7-1.25-5.19-3.42-6.83l-.66-.5v-15.92c0-2.47-2.01-4.48-4.47-4.48Z"/>
    <path d="M35.59,156.52c-12.03,0-21.81-9.78-21.81-21.81,0-6.38,2.71-12.28,7.5-16.43v-26.26c0-7.89,6.42-14.31,14.31-14.31s14.31,6.42,14.31,14.31v26.26c4.78,4.15,7.5,10.05,7.5,16.43,0,12.03-9.78,21.81-21.81,21.81ZM35.59,83.81c-4.53,0-8.22,3.68-8.22,8.21v29.24l-1.21.91c-3.99,3.01-6.28,7.58-6.28,12.54,0,8.66,7.05,15.71,15.71,15.71s15.71-7.05,15.71-15.71c0-4.96-2.29-9.54-6.28-12.54l-1.21-.91v-29.24c0-4.53-3.69-8.21-8.22-8.21Z"/>
    <g>
      <rect x="48.79" y="94.05" width="2.48" height="4.32"/>
      <rect x="48.79" y="102.79" width="2.48" height="4.32"/>
      <rect x="48.79" y="111.53" width="2.48" height="4.32"/>
    </g>
  </g>
  <path d="M176.15,81.47c-.14-.3-.29-.6-.43-.9-.11-.23-.22-.45-.33-.68-.09-.19-.19-.38-.28-.57-.11-.21-.21-.43-.32-.64-.1-.2-.2-.4-.3-.6-.12-.23-.23-.46-.35-.69-.1-.2-.2-.39-.3-.59-.16-.31-.33-.63-.49-.95-.12-.23-.25-.47-.37-.71-.17-.31-.33-.63-.51-.95-.11-.2-.22-.4-.33-.61-.15-.27-.29-.53-.44-.8-.12-.21-.24-.43-.36-.65-.16-.28-.32-.56-.48-.85-.12-.2-.23-.41-.35-.61-.27-.47-.54-.94-.82-1.42-.08-.14-.16-.28-.24-.41-.22-.37-.43-.73-.66-1.1-.12-.21-.25-.41-.38-.62-.19-.31-.38-.63-.58-.94-.13-.22-.27-.43-.4-.65-.21-.34-.42-.67-.64-1.01-.12-.19-.24-.38-.36-.57-.33-.51-.66-1.03-1-1.54-.1-.15-.2-.29-.29-.44-.26-.39-.52-.78-.78-1.17-.14-.21-.29-.42-.43-.63-.23-.34-.47-.68-.7-1.02-.15-.22-.3-.43-.45-.65-.26-.37-.53-.74-.79-1.11-.13-.18-.25-.35-.38-.53-.39-.54-.78-1.07-1.19-1.61-.11-.14-.21-.28-.32-.42-.31-.41-.62-.82-.93-1.22-.15-.2-.31-.4-.46-.59-.28-.36-.57-.72-.86-1.08-.16-.2-.32-.4-.48-.59-.33-.41-.67-.82-1.01-1.22-.12-.14-.23-.28-.34-.42-.45-.54-.91-1.07-1.37-1.61-.12-.14-.25-.28-.37-.42-.35-.4-.71-.8-1.07-1.2-.17-.18-.33-.37-.5-.55-.33-.36-.67-.73-1.01-1.09-.17-.18-.34-.36-.51-.54-.41-.43-.82-.85-1.23-1.27-.08-.08-.16-.17-.25-.25,24.3,17.67,40.1,41.5,45.72,50.82l-15.95-4.66c-.16-.39-.37-.91-.62-1.52-.01-.03-.02-.06-.04-.08-.07-.16-.14-.33-.22-.51-.02-.05-.05-.11-.07-.16-.08-.18-.16-.36-.24-.56-.02-.04-.03-.08-.05-.11-.17-.38-.34-.79-.54-1.21-.03-.07-.06-.14-.09-.21-.08-.18-.16-.36-.25-.54-.06-.13-.12-.26-.18-.4-.08-.18-.17-.37-.26-.56-.07-.15-.14-.3-.21-.46-.09-.19-.17-.37-.27-.57-.09-.18-.18-.37-.27-.56ZM191.42,96.32l-10.32-3.02h0s-1.8-.53-1.8-.53l-1.25,4.27c-.68,2.31.66,4.74,2.97,5.42l13.52,3.95,2.47-8.46-5.59-1.63ZM134.47,58.51c.09.62.17,1.23.25,1.83,0,.07.02.15.03.22.09.67.17,1.32.24,1.96.02.2.05.4.07.6.05.47.11.93.15,1.39.02.19.04.38.06.56.06.59.12,1.17.17,1.73.02.16.03.32.04.48.04.42.07.83.11,1.23.02.2.03.4.05.6.03.38.06.75.09,1.11.01.15.02.3.03.45.03.46.06.89.09,1.31.01.2.02.39.04.58.01.24.03.48.04.7.01.2.02.39.03.57.01.21.02.39.03.59.02.34.03.65.04.94,0,.09,0,.19.01.28,0,.21.02.39.02.57,0,0,0,.02,0,.03l.49.14,12.37,3.61,25.85,7.56s-.02-.04-.03-.07c-.14-.31-.28-.63-.44-.98-.02-.05-.05-.1-.07-.15-.14-.31-.29-.64-.45-.98-.03-.07-.06-.13-.09-.2-.18-.38-.36-.78-.56-1.19-.03-.07-.07-.14-.1-.21-.18-.37-.36-.76-.56-1.16-.03-.07-.07-.13-.1-.2-.22-.44-.44-.89-.67-1.36-.05-.1-.1-.2-.15-.3-.2-.41-.42-.82-.63-1.24-.05-.09-.09-.18-.14-.27-.25-.49-.51-.98-.78-1.49-.06-.12-.13-.24-.19-.36-.24-.45-.49-.91-.74-1.37-.05-.09-.1-.18-.15-.27-.29-.53-.59-1.06-.89-1.6-.08-.14-.16-.29-.24-.43-.27-.48-.55-.97-.84-1.46-.05-.09-.11-.18-.16-.28-.32-.56-.66-1.12-1-1.69-.1-.16-.2-.33-.3-.49-.31-.52-.63-1.04-.95-1.56-.05-.08-.1-.17-.15-.25-.36-.58-.73-1.16-1.11-1.75-.11-.18-.23-.36-.34-.53-.36-.55-.72-1.11-1.1-1.67-.06-.09-.12-.18-.18-.27-.38-.57-.77-1.13-1.16-1.7-.13-.19-.26-.38-.39-.56-.42-.6-.84-1.19-1.27-1.79-.07-.1-.14-.19-.21-.29-.39-.54-.78-1.07-1.18-1.61-.14-.19-.28-.38-.43-.57-.45-.6-.91-1.2-1.38-1.81-.09-.12-.19-.23-.28-.35-.41-.52-.82-1.03-1.24-1.55-.15-.18-.3-.37-.45-.55-.49-.6-.99-1.19-1.5-1.78-.11-.13-.23-.26-.35-.4-.43-.5-.86-.99-1.3-1.48-.16-.18-.32-.36-.48-.53-.53-.58-1.06-1.17-1.61-1.74-.13-.14-.27-.28-.4-.42-.46-.48-.92-.95-1.39-1.43-.16-.16-.32-.33-.49-.49-.57-.57-1.14-1.13-1.73-1.68-.14-.14-.29-.27-.44-.41-.5-.46-1-.92-1.5-1.38-.16-.14-.32-.29-.48-.43-.61-.54-1.23-1.07-1.85-1.6-.16-.13-.32-.26-.48-.4-.53-.44-1.08-.88-1.62-1.31-.15-.12-.3-.24-.46-.36-.65-.51-1.32-1-1.99-1.49-.17-.12-.33-.24-.5-.36-.58-.42-1.17-.83-1.77-1.23-.14-.09-.28-.19-.42-.29-.7-.46-1.41-.91-2.12-1.35-.17-.11-.35-.21-.52-.32-.64-.39-1.29-.77-1.95-1.13-.12-.06-.23-.13-.35-.2-.75-.41-1.5-.81-2.27-1.19-.07-.04-.15-.07-.22-.11.21.33.42.68.63,1.02.04.07.08.13.13.2.33.56.64,1.14.95,1.74.08.15.15.3.23.45.24.48.47.96.7,1.46.07.16.14.31.21.47.28.63.55,1.27.81,1.93.03.07.05.14.08.21.23.59.45,1.2.67,1.81.07.19.13.38.2.57.2.57.39,1.14.57,1.73.04.13.08.25.12.38.22.7.42,1.41.62,2.12.05.17.09.34.14.5.16.57.31,1.14.45,1.72.05.2.1.39.15.58.18.72.35,1.45.51,2.18,0,.01,0,.03,0,.04.16.72.31,1.43.46,2.15.04.21.08.41.12.62.11.58.22,1.15.33,1.72.03.16.06.33.09.49.13.71.25,1.42.36,2.13.03.17.05.33.08.49.09.56.17,1.11.26,1.66.03.21.06.42.09.62ZM118.11,26.84c-.14-.1-.28-.21-.43-.3-.24-.15-.49-.28-.74-.4-.13-.06-.25-.14-.38-.2-.38-.17-.77-.32-1.17-.44-.04-.01-.09-.02-.13-.03-.36-.1-.73-.18-1.1-.23-.13-.02-.26-.02-.39-.03-.29-.03-.58-.06-.88-.06-.15,0-.29.01-.44.02-.29,0-.58.02-.88.05-.15.02-.3.04-.45.06-.3.04-.61.09-.92.15-.14.03-.29.07-.43.1-.32.08-.65.16-.97.26-.13.04-.27.09-.4.13-.35.12-.69.24-1.04.38-.12.05-.24.1-.36.15-.37.15-.75.32-1.13.5-.1.05-.2.1-.3.14-.4.2-.81.41-1.22.63-.08.04-.15.08-.23.12-.44.25-.89.51-1.33.78-.04.03-.09.05-.13.08-.49.3-.98.62-1.47.96,0,0,0,0,0,0-8.17,5.57-16.72,15.25-22.71,23.02,0,0,0,.01-.01.02-.36.46-.7.92-1.04,1.36-.02.03-.05.06-.07.1-.32.42-.62.83-.92,1.23-.04.05-.08.11-.12.16-.28.38-.54.74-.8,1.1-.05.07-.11.15-.16.22-.24.34-.47.66-.7.98-.06.08-.12.17-.18.25-.02.03-.04.06-.07.1l57.92,16.93c0-.06,0-.11,0-.17,0,0,0-.01,0-.02-.02-.47-.05-.96-.07-1.46,0-.09-.01-.18-.02-.27-.02-.42-.05-.85-.08-1.3,0-.15-.02-.3-.03-.45-.03-.4-.06-.8-.09-1.2-.01-.19-.03-.37-.04-.56-.03-.38-.06-.77-.1-1.16-.02-.22-.04-.43-.06-.65-.03-.38-.07-.77-.11-1.15-.02-.23-.05-.47-.07-.71-.04-.38-.08-.76-.12-1.14-.03-.26-.06-.52-.09-.78-.04-.37-.09-.75-.13-1.13-.03-.27-.07-.55-.1-.82-.05-.38-.1-.75-.15-1.13-.04-.28-.07-.56-.11-.85-.05-.38-.11-.77-.16-1.15-.04-.28-.08-.56-.12-.85-.06-.39-.12-.79-.19-1.18-.04-.28-.09-.56-.13-.84-.07-.4-.14-.81-.21-1.21-.05-.27-.09-.55-.14-.82-.08-.42-.16-.84-.24-1.25-.05-.26-.1-.52-.15-.78-.09-.47-.19-.93-.29-1.4-.04-.21-.08-.41-.13-.62-.29-1.34-.6-2.68-.94-3.99-.05-.19-.1-.38-.15-.58-.12-.46-.24-.91-.37-1.36-.07-.24-.14-.47-.21-.71-.12-.4-.23-.8-.35-1.19-.08-.25-.16-.5-.24-.75-.12-.36-.23-.73-.36-1.08-.09-.26-.18-.51-.27-.77-.12-.34-.24-.68-.37-1.01-.1-.26-.2-.51-.3-.76-.13-.32-.25-.64-.38-.95-.1-.25-.21-.49-.32-.74-.13-.3-.27-.6-.4-.89-.11-.24-.23-.47-.34-.71-.14-.28-.28-.56-.43-.84-.12-.22-.24-.45-.36-.66-.15-.27-.3-.53-.45-.78-.13-.21-.25-.42-.38-.62-.16-.25-.32-.48-.48-.72-.13-.19-.26-.38-.4-.57-.17-.23-.34-.44-.51-.66-.14-.17-.28-.35-.42-.51-.18-.21-.36-.4-.54-.59-.14-.15-.29-.31-.43-.45-.19-.19-.39-.35-.58-.53-.15-.13-.29-.26-.44-.38-.21-.17-.42-.31-.64-.46ZM137.25,89.67l31.8,9.3c1.12.32,2.3.2,3.32-.36,1.02-.56,1.77-1.49,2.1-2.61l1.25-4.27-39.54-11.56h0s-.65-.19-.65-.19l-1.25,4.27c-.67,2.31.66,4.74,2.97,5.42ZM94.95,29.71s.08-.07.13-.1c.42-.34.85-.68,1.27-1,.06-.05.13-.1.19-.14.84-.64,1.68-1.25,2.53-1.82.03-.02.07-.05.1-.07.37-.25.73-.48,1.1-.71.19-.12.37-.23.56-.35.35-.21.69-.42,1.04-.62.22-.13.44-.24.66-.36.53-.29,1.06-.56,1.59-.81.19-.09.37-.19.56-.27-.15-.02-.3-.04-.45-.06-.3-.03-.6-.05-.9-.08-.89-.08-1.78-.14-2.67-.18-.32-.01-.65-.03-.97-.04-1.03-.03-2.06-.05-3.09-.03-.12,0-.25,0-.37,0-1.2.02-2.39.07-3.58.14-.18.01-.37.03-.55.04-1.01.07-2.01.16-3.01.26-.24.03-.49.05-.73.08-1.09.12-2.17.27-3.25.43-.07.01-.13.02-.2.03-2.42.37-4.81.84-7.16,1.39-.12.03-.24.06-.36.09-20.72,4.88-38.48,15.66-45.46,20.3l18.09,5.29,20.62,6.03c2.85-4.12,12.99-18.2,24.34-27.41ZM128.6,85.81c1.02-.56,1.77-1.49,2.09-2.6l1.25-4.27-59.29-17.33-1.25,4.27c-.33,1.12-.2,2.3.36,3.32.56,1.02,1.49,1.77,2.61,2.1l50.9,14.88c1.12.33,2.3.2,3.32-.36ZM96.34,81.6l-26.61,97.12,6.7.47,26.23-95.74-6.32-1.85ZM116.41,21.92s.01,0,.02,0h.01c.07.03.15.05.22.07.88.26,1.73.55,2.6.84l4.2-15.35c.48-1.75-.55-3.56-2.3-4.04s-3.56.55-4.04,2.3l-4.18,15.25c1.16.29,2.31.58,3.46.92ZM7.59,42.59l-2.47,8.46,13.52,3.95c2.31.68,4.74-.66,5.42-2.97l1.25-4.27-1.8-.53h0s-15.91-4.65-15.91-4.65ZM26.35,44.18l.91.27s.01,0,.02-.01c.08-.06.16-.12.25-.18.13-.09.28-.2.43-.31.1-.07.18-.13.29-.2.24-.16.5-.35.78-.54.12-.08.24-.17.37-.25.27-.19.56-.38.87-.59.14-.09.28-.19.42-.28.3-.2.62-.41.95-.62.16-.1.32-.21.49-.32.42-.27.85-.55,1.31-.84.16-.1.33-.2.49-.31.37-.23.76-.47,1.16-.72.18-.11.36-.22.54-.33.51-.31,1.05-.63,1.6-.96.22-.13.44-.26.66-.39.48-.28.98-.57,1.49-.86.23-.13.46-.26.7-.39.54-.31,1.1-.61,1.67-.93.25-.14.5-.27.75-.41.66-.36,1.34-.72,2.03-1.08.22-.12.45-.23.68-.35.57-.29,1.14-.59,1.73-.88.26-.13.51-.26.77-.39.74-.37,1.49-.73,2.26-1.1.28-.13.56-.26.84-.4.66-.31,1.34-.62,2.02-.93.24-.11.47-.21.71-.32.79-.35,1.6-.7,2.42-1.05.3-.13.61-.26.92-.39.86-.36,1.73-.71,2.62-1.06.24-.09.48-.18.72-.28.74-.29,1.49-.57,2.25-.84.3-.11.6-.22.9-.33.92-.33,1.85-.65,2.78-.96.3-.1.6-.2.9-.29.81-.26,1.63-.52,2.46-.77.23-.07.47-.14.7-.21.98-.29,1.97-.56,2.97-.83.32-.09.64-.17.96-.25,1.01-.26,2.02-.51,3.04-.74-29.99,1.8-56.14,13.36-65.89,18.19l15.04,4.4h0ZM30.61,58.5l31.8,9.3c2.31.68,4.74-.66,5.42-2.97l1.25-4.27-.65-.19h0s-9.13-2.67-9.13-2.67l-30.4-8.89-1.25,4.27c-.68,2.31.66,4.74,2.97,5.42Z"/>
  <path d="M150.35,116.27c0,11.34-9.19,20.53-20.53,20.53s-20.53-9.19-20.53-20.53,9.19-20.53,20.53-20.53,20.53,9.19,20.53,20.53ZM159.27,172.28h0c-3.99,1.33-8.3-.86-9.56-4.87l-1.36-4.19-6.82-4.67-.02,3.1-14.48,4.93-14.48-4.93v-.5s-.02-2.59-.02-2.59l-.76.52h0l-6.06,4.15-1.36,4.19c-1.27,4.01-5.58,6.2-9.56,4.87-4.03-1.35-6.14-5.76-4.67-9.74l2.99-7.63c.71-1.92,1.97-3.58,3.63-4.77l10.03-7.46c3.9-2.8,8.59-4.31,13.39-4.31h13.75c4.81,0,9.49,1.51,13.39,4.31l10.03,7.46c1.66,1.19,2.92,2.85,3.63,4.77l2.99,7.63c1.47,3.98-.65,8.39-4.67,9.74ZM109.85,163l-2.31,1.58-1.14,3.5c-1.02,3.22-3.6,5.6-6.76,6.43.94,1.46,2.36,2.63,4.13,3.23l6.15,2.08c.14-.07.28-.14.43-.2l3.73-1.39c.37-.14.75-.2,1.14-.22-.1-4.29,2.55-8.28,6.83-9.74l1.63-.56-13.85-4.71ZM112.14,184.41l3.73-1.39c.77-.29,1.16-1.14.87-1.91h0c-.29-.77-1.14-1.16-1.91-.87l-3.73,1.39c-.77.29-1.16,1.14-.87,1.91h0c.29.77,1.14,1.16,1.91.87ZM147.66,168.06l-1.13-3.48-2.31-1.58-21.46,7.3c-4.06,1.38-6.29,5.75-5.02,9.85,1.32,4.26,5.89,6.59,10.11,5.17l22.44-7.58c1.77-.6,3.19-1.76,4.13-3.23-3.16-.82-5.74-3.21-6.76-6.44Z"/>
</svg>