<?xml version="1.0" encoding="UTF-8"?>
<svg id="Capa_1" data-name="Capa 1" xmlns="http://www.w3.org/2000/svg" viewBox="0 0 200 200">
  <path d="M177.97,50.7h-7.58c0,14.23-11.57,25.8-25.8,25.8s-25.8-11.57-25.8-25.8H22.03c-5.67,0-10.26,4.59-10.26,10.26v98.04c0,5.67,4.59,10.26,10.26,10.26h155.94c5.67,0,10.26-4.59,10.26-10.26V60.97c0-5.67-4.59-10.26-10.26-10.26ZM91.52,92.31l1.27-3.69,1.27,3.69,3.9.06-3.12,2.35,1.15,3.73-3.2-2.24-3.2,2.24,1.15-3.73-3.12-2.35,3.9-.06ZM63.18,75.95l1.27-3.69,1.27,3.69,3.9.06-3.12,2.35,1.15,3.73-3.2-2.24-3.2,2.24,1.15-3.73-3.12-2.35,3.9-.06ZM46.77,80.52l1.27-3.69,1.27,3.69,3.9.06-3.12,2.35,1.15,3.73-3.2-2.24-3.2,2.24,1.15-3.73-3.12-2.35,3.9-.06ZM26.64,109.01l3.9-.06,1.27-3.69,1.27,3.69,3.9.06-3.12,2.35,1.15,3.73-3.2-2.24-3.2,2.24,1.15-3.73-3.12-2.35ZM39.24,131.4l-3.2-2.24-3.2,2.24,1.15-3.73-3.12-2.35,3.9-.06,1.27-3.69,1.27,3.69,3.9.06-3.12,2.35,1.15,3.73ZM38.1,94.72l1.15,3.73-3.2-2.24-3.2,2.24,1.15-3.73-3.12-2.35,3.9-.06,1.27-3.69,1.27,3.69,3.9.06-3.12,2.35ZM51.24,143.19l-3.2-2.24-3.2,2.24,1.15-3.73-3.12-2.35,3.9-.06,1.27-3.69,1.27,3.69,3.9.06-3.12,2.35,1.15,3.73ZM67.64,147.72l-3.2-2.24-3.2,2.24,1.15-3.73-3.12-2.35,3.9-.06,1.27-3.69,1.27,3.69,3.9.06-3.12,2.35,1.15,3.73ZM71.45,128.57h-13.78v-11.7h-11.7v-13.78h11.7v-11.7h13.78v11.7h11.7v13.78h-11.7v11.7ZM83.99,143.19l-3.2-2.24-3.2,2.24,1.15-3.73-3.12-2.35,3.9-.06,1.27-3.69,1.27,3.69,3.9.06-3.12,2.35,1.15,3.73ZM82.84,82.93l1.15,3.73-3.2-2.24-3.2,2.24,1.15-3.73-3.12-2.35,3.9-.06,1.27-3.69,1.27,3.69,3.9.06-3.12,2.35ZM95.98,131.4l-3.2-2.24-3.2,2.24,1.15-3.73-3.12-2.35,3.9-.06,1.27-3.69,1.27,3.69,3.9.06-3.12,2.35,1.15,3.73ZM100.5,115.09l-3.2-2.24-3.2,2.24,1.15-3.73-3.12-2.35,3.9-.06,1.27-3.69,1.27,3.69,3.9.06-3.12,2.35,1.15,3.73ZM177.03,134.74c0,2.5-2.05,4.55-4.55,4.55h-54.46c-2.5,0-4.55-2.05-4.55-4.55v-.2c0-2.5,2.05-4.55,4.55-4.55h54.46c2.5,0,4.55,2.05,4.55,4.55v.2ZM177.03,110.09c0,2.5-2.05,4.55-4.55,4.55h-54.46c-2.5,0-4.55-2.05-4.55-4.55v-.2c0-2.5,2.05-4.55,4.55-4.55h54.46c2.5,0,4.55,2.05,4.55,4.55v.2ZM177.03,85.43c0,2.5-2.05,4.55-4.55,4.55h-54.46c-2.5,0-4.55-2.05-4.55-4.55v-.2c0-2.5,2.05-4.55,4.55-4.55h54.46c2.5,0,4.55,2.05,4.55,4.55v.2ZM144.59,70.68c11.03,0,19.97-8.94,19.97-19.97s-8.94-19.97-19.97-19.97-19.97,8.94-19.97,19.97,8.94,19.97,19.97,19.97ZM132.28,49.51c.14-1.23.75-2.32,1.72-3.09.81-.65,1.83-1,2.87-1,1.42,0,2.74.64,3.62,1.75l2.67,3.22,7.36-9.7c.87-1.14,2.24-1.83,3.68-1.83,1.01,0,1.98.32,2.79.94,2.03,1.54,2.43,4.44.89,6.47l-10.95,14.44c-.86,1.13-2.15,1.79-3.56,1.83h-.12c-1.42,0-2.74-.64-3.62-1.75l-6.37-7.89c-.77-.97-1.11-2.17-.97-3.4Z"/>
</svg>