<?xml version="1.0" encoding="UTF-8"?>
<svg id="Capa_1" data-name="Capa 1" xmlns="http://www.w3.org/2000/svg" viewBox="0 0 200 200">
  <path d="M120.92,121.97V52.76c0-12.05-9.37-21.81-20.92-21.81s-20.92,9.77-20.92,21.81v69.2c-7.35,6.15-12.2,15.47-12.54,26.06-.61,19.26,13.87,35.4,32.35,36.03,18.48.64,33.95-14.46,34.56-33.73.36-11.42-4.6-21.7-12.54-28.35ZM91.32,52.76c0-4.99,3.9-9.05,8.68-9.05s8.68,4.06,8.68,9.05v46.24h-.17c-.43-.33-.85-.66-1.29-.97l-1.35-.93c-2.34-1.68-5.06-2.52-7.79-2.52-2.34,0-4.66.7-6.77,1.95v-43.77ZM120.94,150.64c-.99,10.04-8.14,16.48-14.12,18.36,2.59-2.47,4.28-5.22,4.73-8.68.51-3.92-2.12-7.91-5.8-8.79.22,1.02.48,2.02.64,3.03.08.5.04,1.05-.05,1.56-.35,2.1-2,3.11-3.79,2.09-1.08-.61-2.08-1.57-2.8-2.62-1.85-2.67-2.35-5.84-2.62-9.04-.14-1.71-.19-3.43-.15-5.14.03-1.67.22-3.34.35-5.01-.06-.01-.15-.05-.16-.03-3.2,4.38-5.9,9.03-7.2,14.43-1.68,6.96-.03,12.94,4.94,17.92.28.28.57.56.77,1.01-.35-.07-.7-.12-1.04-.23-8.37-2.64-13.5-8.4-15.31-17.34-1.19-5.9.44-11.17,3.72-15.83,2.78-3.94,6-7.53,8.99-11.31,1.51-1.92,3.06-3.82,4.38-5.88,2.05-3.21,2.27-5.06,1.67-8.98,1.69,1.21,3.47,2.3,5.04,3.66,5.04,4.37,6.77,9.89,5.07,16.55-.35,1.38-.59,2.81-.67,4.23-.08,1.44.48,2.71,1.84,3.34,1.4.65,2.72.21,3.69-.86.85-.94,1.45-2.14,2.23-3.34,4.5,4.59,6.31,10.29,5.65,16.9ZM145.85,39.1c0,5.59-4.36,10.13-9.72,10.13s-9.72-4.55-9.72-10.13v-13.03c0-5.59,4.36-10.14,9.72-10.14s9.72,4.55,9.72,10.14c0,2-1.56,3.62-3.47,3.62s-3.47-1.62-3.47-3.62c0-1.6-1.25-2.9-2.78-2.9s-2.78,1.3-2.78,2.9v13.03c0,1.6,1.25,2.9,2.78,2.9s2.78-1.3,2.78-2.9c0-2,1.55-3.62,3.47-3.62s3.47,1.62,3.47,3.62ZM122.93,21.72c0,3.2-2.49,5.79-5.55,5.79s-5.55-2.59-5.55-5.79,2.49-5.79,5.55-5.79,5.55,2.59,5.55,5.79ZM167.05,119.1c-.22.36-.65.54-1.3.54h-14.52c-.65,0-1.21-.24-1.68-.7-.47-.47-.7-1.03-.7-1.68v-1.08c0-2.6.4-4.93,1.19-6.99.79-2.06,1.81-3.88,3.03-5.47s2.58-3,4.06-4.23c1.48-1.23,2.94-2.35,4.39-3.36,1.52-1.16,2.76-2.26,3.74-3.31s1.46-2.37,1.46-3.96c0-1.08-.42-2.2-1.25-3.36s-2.26-1.73-4.28-1.73c-1.59,0-3.07.49-4.44,1.46s-2.24,2.65-2.6,5.04c-.14.8-.49,1.5-1.03,2.11-.54.61-1.25.92-2.11.92h-16.58c-.43,0-.81-.16-1.14-.49s-.49-.74-.49-1.25v-1.84c0-4.41.89-8.25,2.66-11.54s4.06-6.02,6.88-8.18c2.82-2.17,5.96-3.79,9.43-4.88,3.47-1.08,6.9-1.63,10.3-1.63s6.81.58,10.02,1.73c3.22,1.16,6.05,2.82,8.51,4.99,2.46,2.17,4.41,4.79,5.85,7.86,1.45,3.07,2.17,6.52,2.17,10.35,0,2.74-.38,5.2-1.14,7.37-.76,2.17-1.73,4.1-2.93,5.8-1.19,1.7-2.49,3.16-3.9,4.39-1.41,1.23-2.8,2.31-4.17,3.25-1.08.79-2.11,1.52-3.09,2.17-.97.65-1.88,1.3-2.71,1.95s-1.52,1.37-2.06,2.17c-.54.79-.92,1.7-1.14,2.71-.07.22-.22.51-.43.87ZM152.96,150.42c-1.66-.72-3.11-1.7-4.33-2.93-1.23-1.23-2.2-2.67-2.93-4.33-.72-1.66-1.08-3.43-1.08-5.31s.36-3.65,1.08-5.31c.72-1.66,1.7-3.11,2.93-4.33,1.23-1.23,2.67-2.2,4.33-2.93,1.66-.72,3.43-1.08,5.31-1.08s3.65.36,5.31,1.08,3.11,1.7,4.33,2.93c1.23,1.23,2.2,2.67,2.93,4.33.72,1.66,1.08,3.43,1.08,5.31s-.36,3.65-1.08,5.31c-.72,1.66-1.7,3.11-2.93,4.33-1.23,1.23-2.67,2.2-4.33,2.93s-3.43,1.08-5.31,1.08-3.65-.36-5.31-1.08ZM32.95,95.91c.22-.36.65-.54,1.3-.54h14.52c.65,0,1.21.24,1.68.7.47.47.7,1.03.7,1.68v1.08c0,2.6-.4,4.93-1.19,6.99-.79,2.06-1.81,3.88-3.03,5.47s-2.58,3-4.06,4.23c-1.48,1.23-2.94,2.35-4.39,3.36-1.52,1.16-2.76,2.26-3.74,3.31s-1.46,2.37-1.46,3.96c0,1.08.42,2.2,1.25,3.36s2.26,1.73,4.28,1.73c1.59,0,3.07-.49,4.44-1.46s2.24-2.65,2.6-5.04c.14-.8.49-1.5,1.03-2.11.54-.61,1.25-.92,2.11-.92h16.58c.43,0,.81.16,1.14.49s.49.74.49,1.25v1.84c0,4.41-.89,8.25-2.66,11.54s-4.06,6.02-6.88,8.18c-2.82,2.17-5.96,3.79-9.43,4.88-3.47,1.08-6.9,1.63-10.3,1.63s-6.81-.58-10.02-1.73c-3.22-1.16-6.05-2.82-8.51-4.99-2.46-2.17-4.41-4.79-5.85-7.86-1.45-3.07-2.17-6.52-2.17-10.35,0-2.74.38-5.2,1.14-7.37.76-2.17,1.73-4.1,2.93-5.8,1.19-1.7,2.49-3.16,3.9-4.39,1.41-1.23,2.8-2.31,4.17-3.25,1.08-.79,2.11-1.52,3.09-2.17.97-.65,1.88-1.3,2.71-1.95s1.52-1.37,2.06-2.17c.54-.79.92-1.7,1.14-2.71.07-.22.22-.51.43-.87ZM47.04,64.59c1.66.72,3.11,1.7,4.33,2.93,1.23,1.23,2.2,2.67,2.93,4.33.72,1.66,1.08,3.43,1.08,5.31s-.36,3.65-1.08,5.31c-.72,1.66-1.7,3.11-2.93,4.33-1.23,1.23-2.67,2.2-4.33,2.93-1.66.72-3.43,1.08-5.31,1.08s-3.65-.36-5.31-1.08-3.11-1.7-4.33-2.93c-1.23-1.23-2.2-2.67-2.93-4.33-.72-1.66-1.08-3.43-1.08-5.31s.36-3.65,1.08-5.31c.72-1.66,1.7-3.11,2.93-4.33,1.23-1.23,2.67-2.2,4.33-2.93s3.43-1.08,5.31-1.08,3.65.36,5.31,1.08Z"/>
</svg>