<?xml version="1.0" encoding="UTF-8"?>
<svg id="Capa_1" data-name="Capa 1" xmlns="http://www.w3.org/2000/svg" viewBox="0 0 200 200">
  <path d="M58.92,18.85h10.2v13.65h-1.5l-3,22.57-.38,2.83-2.84.13-18.12.82v116.48c0,1.39.57,2.65,1.49,3.57v.02c.91.91,2.18,1.47,3.57,1.48h103.33c1.4,0,2.66-.57,3.56-1.47l.03-.03c.9-.9,1.47-2.16,1.47-3.57V37.55c0-1.38-.58-2.64-1.5-3.56h.01c-.92-.93-2.18-1.49-3.57-1.49h-20.32v6.48h-54.19V13.62h24.39v-3.68h-14.71v-3.97h35.32v6.68h9.19v6.19h20.32c5.13,0,9.8,2.1,13.18,5.49h.03c3.39,3.39,5.49,8.06,5.49,13.21v137.77c0,5.12-2.1,9.79-5.49,13.18h-.02s-.01.03-.01.03c-3.39,3.39-8.07,5.49-13.18,5.49H48.34c-5.13,0-9.8-2.1-13.19-5.49h-.02c-3.39-3.38-5.49-8.07-5.49-13.21V53.52l1.36-1.84c4.76-6.43,8.27-11.16,10.86-14.62l11.63-15.46,2.06-2.75h3.38ZM60.4,108.08v10.97h12.38v12.38h10.97v-12.38h12.38v-10.97h-12.38v-12.38h-10.97v12.38h-12.38ZM62.9,163.51h81.1v-5.42H62.9v5.42ZM106.46,142.44h37.54v-5.42h-37.54v5.42ZM106.46,120.76h37.54v-5.42h-37.54v5.42ZM106.46,99.65h37.54v-5.42h-37.54v5.42ZM84.58,67.33h59.42v-5.42h-59.42v5.42ZM62.9,82.42h81.1v-5.42H62.9v5.42ZM60.44,34.98l-7.65,10.23-4.94,6.6,10.4-.46,2.18-16.38Z"/>
</svg>