<?xml version="1.0" encoding="UTF-8"?>
<svg id="Capa_1" xmlns="http://www.w3.org/2000/svg" version="1.1" viewBox="0 0 200 200">
  <!-- Generator: Adobe Illustrator 29.0.0, SVG Export Plug-In . SVG Version: 2.1.0 Build 186)  -->
  <path d="M161.59,44.6c-.58-.38-1.06-.85-1.44-1.39-.38-.54-.65-1.15-.81-1.83-.16-.67-.18-1.36-.05-2.07s.38-1.35.76-1.93.85-1.06,1.39-1.44c.54-.38,1.15-.65,1.83-.81.67-.16,1.36-.18,2.07-.05s1.35.38,1.93.76,1.06.85,1.43,1.39c.38.54.65,1.15.81,1.83s.18,1.36.05,2.07-.38,1.35-.76,1.93c-.38.58-.85,1.06-1.39,1.43-.54.38-1.15.65-1.83.81s-1.36.18-2.07.05-1.35-.38-1.93-.76ZM165.03,12.4c.21-.16.45-.21.72-.17l7.14,1.27c.27.05.48.18.62.41.14.22.18.47.1.73l-4.93,17.97c-.08.27-.23.48-.47.63-.24.15-.49.21-.76.16l-3.47-.62c-.27-.05-.49-.19-.66-.41-.17-.23-.24-.48-.22-.75l1.58-18.57c.02-.28.14-.49.35-.65ZM176.47,50.62c-.7-.46-1.27-1.02-1.73-1.68-.46-.66-.78-1.39-.98-2.2-.19-.81-.21-1.65-.06-2.5s.46-1.63.92-2.32,1.02-1.27,1.68-1.73c.66-.46,1.39-.78,2.2-.98.81-.19,1.64-.21,2.5-.06s1.63.46,2.32.92,1.27,1.02,1.73,1.68c.46.66.78,1.39.98,2.2s.21,1.64.06,2.5-.46,1.63-.92,2.32c-.46.7-1.02,1.27-1.68,1.73-.66.46-1.39.78-2.2.98s-1.64.21-2.5.06-1.63-.46-2.32-.92ZM180.62,11.79c.25-.19.54-.26.87-.2l8.6,1.53c.33.06.58.22.75.49.17.27.21.56.12.88l-5.94,21.67c-.09.32-.28.58-.57.76-.29.19-.59.25-.92.19l-4.18-.74c-.33-.06-.59-.22-.8-.5-.21-.27-.3-.58-.27-.91l1.91-22.39c.03-.33.17-.6.42-.79ZM72.45,130.64l22.16,23.61-.16,3.67c-.32,7.26,5.48,13.31,12.74,13.31,6.81,0,12.41-5.35,12.74-12.15l.48-10.19c.14-2.9-.92-5.72-2.93-7.81l-8.98-9.36,3.91-27.48c1.64-11.21-4.06-22.21-14.16-27.33h0c-5.8-2.94-12.43-3.56-18.58-1.86-3,.83-5.23,3.38-5.81,6.43l-6.41,33.26c-.83,5.78,1.01,11.62,5,15.88ZM72.01,115.06l5.4-26.96c.23-1.16,1.35-1.9,2.51-1.67,1.16.23,1.9,1.35,1.67,2.51l-5.4,26.96c-.4,2,0,4.04,1.15,5.75,1.14,1.71,2.87,2.87,4.86,3.27,4.15.83,8.19-1.87,9.02-6.01l5.4-26.96c.23-1.15,1.35-1.9,2.51-1.67,1.16.23,1.9,1.35,1.67,2.51l-5.4,26.96c-1.13,5.66-6.13,9.59-11.69,9.59-.77,0-1.56-.08-2.35-.23-3.11-.62-5.8-2.43-7.58-5.09s-2.4-5.84-1.78-8.95ZM114.58,119.26l11.19,2.37c5.27,1.11,10.5-2.29,11.61-7.56,1.11-5.27-2.29-10.5-7.56-11.61l-12.88-2.72c.04,1.7-.06,3.41-.31,5.14l-2.05,14.39ZM117.22,79.53c19.55,0,35.39-15.85,35.39-35.39s-15.85-35.39-35.39-35.39-35.39,15.85-35.39,35.39,15.85,35.39,35.39,35.39ZM103.75,21.87s8.38,8.94,8.38,16.5c0,4.63-3.75,8.38-8.38,8.38s-8.38-3.75-8.38-8.38c0-7.55,8.38-16.5,8.38-16.5ZM138.03,171.17c1.66-.28,2.93-1.63,3.12-3.3,1.82-16.12,5.72-45.57,8.05-66.3.24-2.17-1.32-4.12-3.49-4.36-2.17-.24-4.12,1.32-4.36,3.49-2.22,20.25-5.47,45.82-7.71,66.34-.27,2.5,1.92,4.56,4.4,4.14ZM65.89,145.36l-2.1,2.03c-5.3,5.13-4.83,13.76,1,18.28h0c5.03,3.9,12.22,3.24,16.46-1.52l2.19-2.46c1.47-1.65,2.43-3.7,2.75-5.9l.58-4.03-18.85-20.5-2.03,14.09ZM189.76,179.53c-.14-.11-.35-.28-.52-.42-1.21-1.02-3.4-2.82-7.06-3.11-2.06-3.83-7.14-6.49-13.24-6.49-7.55,0-13.54,4.06-14.17,9.39-1.37-1.14-3.77-2.96-7.8-2.96-4.27,0-6.73,2.06-8.05,3.17-.16.13-.36.3-.5.41-.14-.11-.34-.28-.5-.41-1.32-1.11-3.77-3.17-8.05-3.17s-6.73,2.06-8.05,3.17c-.16.13-.36.31-.5.41-.14-.11-.34-.28-.5-.41-1.32-1.11-3.77-3.17-8.05-3.17s-6.73,2.06-8.05,3.17c-.16.13-.36.31-.5.41-.14-.11-.34-.28-.5-.41-1.32-1.11-3.77-3.17-8.05-3.17s-6.73,2.06-8.05,3.17c-.16.13-.36.3-.5.41-.14-.11-.34-.28-.5-.41-1.32-1.11-3.77-3.17-8.05-3.17s-6.73,2.06-8.05,3.17c-.16.13-.36.31-.5.41-.14-.11-.34-.28-.5-.41-1.32-1.11-3.77-3.17-8.05-3.17s-6.73,2.06-8.05,3.17c-.16.13-.36.3-.5.41-.14-.11-.34-.28-.5-.41-1.32-1.11-3.77-3.17-8.05-3.17-.43,0-.84.03-1.24.07-1.5-1.9-4.31-3.16-7.61-3.16s-6.08,1.24-7.59,3.13c-.22-.01-.43-.04-.66-.04-.77,0-1.48.07-2.14.19-1.48-1.97-4.34-3.28-7.71-3.28s-6.05,1.23-7.57,3.1c-3.08.17-5.49,2.72-5.49,5.85s2.62,5.8,5.8,5.87c.14.11.35.28.51.42,1.32,1.11,3.77,3.17,8.05,3.17s6.73-2.06,8.05-3.17c.16-.13.36-.3.5-.41.14.11.34.28.5.41,1.32,1.11,3.77,3.17,8.05,3.17s6.73-2.06,8.05-3.17c.16-.13.36-.3.5-.41.14.11.34.28.5.41,1.32,1.11,3.77,3.17,8.05,3.17s6.73-2.06,8.05-3.17c.16-.13.36-.3.5-.41.14.11.34.28.5.41,1.32,1.11,3.77,3.17,8.05,3.17s6.73-2.06,8.05-3.17c.16-.13.36-.31.5-.41.14.11.34.28.5.41,1.32,1.11,3.77,3.17,8.05,3.17s6.73-2.06,8.05-3.17c.16-.13.36-.31.5-.41.14.11.34.28.5.41,1.32,1.11,3.77,3.17,8.05,3.17s6.73-2.06,8.05-3.17c.16-.13.36-.31.5-.41.14.11.34.28.5.41,1.32,1.11,3.77,3.17,8.05,3.17s6.73-2.06,8.05-3.17c.16-.13.36-.3.5-.41.14.11.34.28.5.41,1.32,1.11,3.77,3.17,8.05,3.17s6.73-2.06,8.05-3.17c.16-.13.36-.31.5-.41.14.11.34.28.5.41,1.32,1.11,3.77,3.17,8.05,3.17s6.73-2.06,8.05-3.17c.16-.14.36-.31.51-.41.14.11.34.28.5.41,1.32,1.11,3.77,3.17,8.05,3.17s6.73-2.06,8.05-3.17c.16-.14.37-.31.51-.42.14.11.35.28.51.42,1.32,1.11,3.77,3.17,8.05,3.17,3.24,0,5.86-2.63,5.86-5.86s-2.62-5.86-5.86-5.86ZM17.44,180.32c-3.39,0-5.49-.18-5.49-1.1,0-1.46,2.26-3.08,5.49-3.08s5.49,1.62,5.49,3.08c0,.92-2.1,1.1-5.49,1.1ZM35.54,180.32c-3.39,0-5.49-.18-5.49-1.1,0-1.46,2.26-3.08,5.49-3.08s5.49,1.62,5.49,3.08c0,.92-2.1,1.1-5.49,1.1ZM168.94,181.62c-5.49,0-8.9-.3-8.9-1.79,0-2.36,3.66-4.99,8.9-4.99s8.9,2.63,8.9,4.99c0,1.49-3.41,1.79-8.9,1.79ZM39.48,106.28c2.75.65,5.48-1,6.11-3.68.63-2.68-1.07-5.37-3.83-6.02-2.74-.65-5.47,1-6.1,3.68-.63,2.67,1.08,5.37,3.82,6.02ZM41.87,96.16c2.75.65,5.48-.99,6.11-3.68.63-2.68-1.08-5.37-3.83-6.01-2.74-.65-5.47,1-6.1,3.67-.63,2.69,1.08,5.38,3.82,6.02ZM47.57,99.2c-1.34,5.61,2.08,11.26,7.67,12.67l6.28,1.59c1.25.32,2.51-.48,2.77-1.74l6.44-31.49c.27-1.34-.9-2.52-2.24-2.26l-10.31,2.05c-3.85.77-6.9,3.7-7.82,7.52l-2.79,11.65ZM44.25,86.05c2.75.65,5.48-.99,6.11-3.68.63-2.67-1.07-5.37-3.83-6.02-2.74-.65-5.47,1.01-6.1,3.68-.64,2.7,1.08,5.38,3.81,6.02Z"/>
</svg>