<?xml version="1.0" encoding="UTF-8"?>
<svg id="Capa_1" data-name="Capa 1" xmlns="http://www.w3.org/2000/svg" viewBox="0 0 200 200">
  <path d="M49.74,112.02c-1.8-1.87-4.71-1.87-6.51,0l-11.41,11.89c-12.81,13.36-12.58,35.17.71,48.22,12.84,12.61,33.33,11.29,45.8-1.72l10.45-10.9c1.8-1.87,1.8-4.91,0-6.79l-39.05-40.71Z"/>
  <path d="M42.91,88.31c1.8,1.87,4.71,1.87,6.51,0l39.05-40.71c1.8-1.87,1.8-4.91,0-6.79l-11.41-11.89c-12.81-13.36-33.74-13.11-46.25.74-12.09,13.39-10.83,34.75,1.65,47.75l10.45,10.9Z"/>
  <path d="M142.47,96.78l-39.05-40.71c-1.8-1.88-4.71-1.88-6.51,0l-39.05,40.71c-1.8,1.87-1.8,4.91,0,6.79l39.05,40.71c1.8,1.87,4.71,1.87,6.51,0l39.05-40.71c1.8-1.87,1.8-4.91,0-6.79ZM82.26,105.26c-2.7,2.81-7.07,2.81-9.76,0-2.7-2.81-2.7-7.37,0-10.18,2.7-2.81,7.07-2.81,9.76,0,2.7,2.81,2.7,7.37,0,10.18ZM105.04,129.01c-2.7,2.81-7.07,2.81-9.76,0-2.7-2.81-2.7-7.37,0-10.18,2.7-2.81,7.07-2.81,9.76,0,2.7,2.81,2.7,7.37,0,10.18ZM105.04,105.26c-2.7,2.81-7.07,2.81-9.76,0-2.7-2.81-2.7-7.37,0-10.18,2.7-2.81,7.07-2.81,9.76,0,2.7,2.81,2.7,7.37,0,10.18ZM105.04,81.51c-2.7,2.81-7.07,2.81-9.76,0-2.7-2.81-2.7-7.37,0-10.18,2.7-2.81,7.07-2.81,9.76,0,2.7,2.81,2.7,7.37,0,10.18ZM127.82,105.26c-2.7,2.81-7.07,2.81-9.76,0-2.7-2.81-2.7-7.37,0-10.18,2.69-2.81,7.07-2.81,9.76,0,2.7,2.81,2.7,7.37,0,10.18Z"/>
  <path d="M156.77,112.02c-1.8-1.87-4.71-1.87-6.51,0l-39.05,40.71c-1.8,1.87-1.8,4.91,0,6.79l10.45,10.9c12.47,13,32.96,14.32,45.8,1.72,13.29-13.05,13.53-34.86.71-48.22l-11.41-11.89Z"/>
  <path d="M150.59,88.31c1.8,1.87,4.71,1.87,6.51,0l10.45-10.9c12.47-13,13.74-34.36,1.64-47.75-12.51-13.86-33.44-14.1-46.25-.74l-11.41,11.89c-1.8,1.87-1.8,4.91,0,6.79l39.05,40.71Z"/>
</svg>