<?xml version="1.0" encoding="UTF-8"?>
<svg id="Capa_1" data-name="Capa 1" xmlns="http://www.w3.org/2000/svg" viewBox="0 0 200 200">
  <path d="M56.05,79.39h9.38s2.05-3.37,2.05-3.37h61.6l-1.77,5.15v106.29l-6.77,5.66-4.75-5.66h-.29l-6.65,5.66-5.93-5.66h-.23l-6.65,5.66-5.93-5.66h-.31l-6.63,5.66-5.94-5.66h-.3l-6.63,5.66-6.11-5.66v-95.13l-22.88-.03v-5.32l-6.12,3.17s-8.39-6.33-8.7-11.59c-.32-5.28,51.85-15.1,61.3-36.29h8.37v-4.75c-4.78-1.77-7.81-5.18-9.31-9.1-.86-2.27-1.18-4.67-1-7.01.17-2.33.84-4.62,1.97-6.69,2.49-4.61,7.17-7.99,13.52-7.88,3.27.07,6.26,1.27,8.7,3.18,2.55,1.97,4.54,4.74,5.66,7.69l-9.07,3.61c-.48-1.27-1.36-2.48-2.46-3.35-.91-.69-1.94-1.15-2.99-1.16-2.31-.04-3.99,1.14-4.87,2.76-.41.77-.66,1.66-.73,2.59-.07.91.04,1.8.36,2.63.71,1.86,2.56,3.43,5.8,3.91l4.21.59v4.35s-.03,8.64-.03,8.64h6.4c9.41,21.23,61.55,31.17,61.21,36.44-.33,5.28-8.73,11.58-8.73,11.58l-5.79-3v5.14s-20.32-.01-20.32-.01v86.35l-6.39-.11v-93.05l2.26-6.14h9.38l-43.9-22.8-43.97,22.7Z"/>
</svg>