<?xml version="1.0" encoding="UTF-8"?>
<svg id="Capa_1" xmlns="http://www.w3.org/2000/svg" version="1.1" viewBox="0 0 200 200">
  <!-- Generator: Adobe Illustrator 29.0.0, SVG Export Plug-In . SVG Version: 2.1.0 Build 186)  -->
  <path d="M87.81,186.17l-.52,5.73c-.15,1.65-1.59,2.88-3.2,2.73-1.61-.14-2.8-1.6-2.65-3.26l.52-5.73c.15-1.64,1.58-2.86,3.19-2.72,1.61.15,2.81,1.61,2.67,3.25ZM133.28,90.5c-3.38-4.04-9.39-4.59-13.44-1.21l-24.27,20.27-39.59-3.56c-10.61-.95-20.12,6.34-21.31,19.57l-1.58,17.62c-.41,4.53,2.85,8.54,7.29,8.94,4.43.4,8.35-2.97,8.76-7.49l1.58-17.62,3.35.3-2.45,27.25c-.44,4.87,2.29,9.28,6.45,11.1l-.2,2.2c-.15,1.65,1.04,3.11,2.65,3.26,1.61.15,3.05-1.08,3.2-2.73l.18-1.97c4.82-.73,8.71-4.75,9.18-9.93l.09-1.01,3.91.35-1.25,13.95c-.55,6.07,3.8,11.42,9.72,11.96,5.93.53,11.18-3.96,11.73-10.03l3.61-40.19.15-1.66,31.05-25.93c4.04-3.38,4.59-9.39,1.21-13.44ZM79.84,104.16c15.07.36,27.58-11.57,27.94-26.64.09-3.57-.53-6.99-1.7-10.15-.79-2.29-1.87-4.44-3.21-6.41.33-1.35.54-2.76.61-4.21.4-8.7-6.28-13.22-8.93-14.67-.16-.09-.35-.07-.48.05-.13.12-.18.3-.12.47,2.63,7.17-7.26,8.97-7.31,1.87-.04-5.08,4.94-8.32,6.07-8.99.14-.08.22-.24.21-.4-.42-5.18-5.47-10.42-7.42-12.26-.12-.11-.3-.15-.45-.09-.16.06-.26.21-.27.37-.22,4.02-5.43,3.41-5.78.25-.28-2.57,2.15-5.05,3-5.83.16-.15.18-.39.06-.56-3.16-4.36-2.01-9.55-1.23-11.9.06-.18,0-.37-.15-.48-.15-.11-.36-.11-.5,0-2.87,2.14-10.1,8.5-9.81,18.3,0,.08.03.16.07.23.75,1.11,7.27,11.1,2.48,16.08-3.54,3.68-7.76-1.12-6.31-5.22.06-.16.01-.34-.11-.46-.13-.12-.31-.14-.47-.07-1.86.86-5.69,3.34-6.71,9.39-.02.13.02.26.1.36.96,1.06,6.59,7.5,4.63,11.26-1.62,3.12-6.1,1.9-7.11-1.52-.06-.18-.22-.31-.41-.31s-.35.12-.41.31c-.7,2.37-1.55,6.87-.05,11.74-1.74,3.48-2.76,7.39-2.86,11.54-.36,15.07,11.57,27.58,26.64,27.94Z"/>
  <path d="M157.44,122.95c4.41.94,14.33,3.12,16.08,7.82,1.46,3.92-1.52,8.04-5.69,7.84-5.22-.25-8.61-6.35-13.07-8.37-2.55,5.21-8.42,9.73-14.46,7.6-5.72-2.02-7.61-9.3-3.64-13.92,1.21-1.41,3.01-1.96,3.21-4.08s-1.19-3.65-1.29-5.78c-.11-2.32,1.19-3.73,1.3-5.79.12-2.19-1.19-3.55-1.3-5.57-.15-2.7,1.47-4.33,1.27-7.05-.15-1.96-1.17-4.27-2.24-5.9-2.66-4.05-3.95-3.56-7.88-5.41-32.06-15.04-26.13-63.02,8.6-69.34,42.25-7.68,61.48,50.37,21.98,69.55-1.82.89-2.48.33-2.45,2.93.13,9.96.76,20.49.24,30.43-.09,1.64-.4,3.4-.65,5.02ZM123.87,72.74c15.67,15.45,42.26,9.57,49.86-10.96,9.36-25.27-16.09-49.55-40.8-38.65-19.54,8.62-24.36,34.52-9.06,49.61ZM156.18,127.64c3.82,1.25,8.54,8.75,12.67,7.91,1.9-.38,2.56-2.78,1.44-4.34-1.98-2.78-10.11-4.61-13.4-5.26l-.29.03-.42,1.66ZM161.21,87.41c-.33.26-.31.32-.36.72-.31,2.63.33,5.61.23,8.26,1.82.45,3.86-1.61,3.86-3.32v-7.39c-.93.48-2.99,1.16-3.73,1.74ZM153.15,57.26l13.29,9.88h.64c5.38-7.23,6.77-16.88,3.75-25.4l-16.39,5.15c1.53,3.49.88,7.31-1.28,10.37ZM123.38,34.68c-5.17,7.47-6.88,16.98-3.67,25.61l16.3-5.27c-.91-2.56-1.1-4.79-.22-7.4.37-1.1,1.15-1.98,1.49-3.08l-13.89-9.87ZM139.11,58.89l-10.17,13.92c7.46,5.26,16.78,6.89,25.5,3.86l-5.15-16.5c-3.26,1.53-7.44,1.05-10.18-1.28ZM151.44,42.93l9.98-13.62c-6.99-5.48-16.82-6.82-25.2-3.96l4.93,16.39c3.54-1.47,7.16-.97,10.28,1.19ZM146.16,58c9.07-1.05,7.36-15.27-1.85-14.06s-7.57,15.16,1.85,14.06Z"/>
</svg>