<?xml version="1.0" encoding="UTF-8"?>
<svg id="Capa_1" data-name="Capa 1" xmlns="http://www.w3.org/2000/svg" viewBox="0 0 200 200">
  <path d="M68.99,107.88l7.61-15.45c.61-1.24,2.12-1.75,3.36-1.14l10.59,5.2c1.24.61,1.75,2.1,1.16,3.34l-7.51,15.6c-.61,1.26-2.13,1.78-3.39,1.16l-10.69-5.35c-1.23-.62-1.74-2.12-1.13-3.36ZM96.89,112.07l3.73-7.91c.49-1.04.05-2.28-.99-2.77s-2.28-.05-2.77.99l-3.73,7.91c-.49,1.04-.05,2.28.99,2.77.73.34,1.55.23,2.15-.22.26-.2.48-.46.62-.77ZM105.63,116.45l3.73-7.91c.49-1.04.05-2.28-.99-2.77s-2.28-.05-2.77.99l-3.73,7.91c-.49,1.04-.05,2.28.99,2.77.73.34,1.55.23,2.15-.22.26-.2.48-.46.62-.77ZM114.38,120.83l3.74-7.91c.49-1.04.05-2.28-.99-2.77s-2.28-.05-2.77.99l-3.74,7.91c-.49,1.04-.05,2.28.99,2.77.73.34,1.55.23,2.15-.22.26-.2.48-.46.62-.77ZM123.12,125.2l3.73-7.91c.49-1.04.05-2.28-.99-2.77-1.04-.49-2.28-.05-2.77.99l-3.73,7.91c-.49,1.04-.05,2.28.99,2.77.73.34,1.55.23,2.15-.22.26-.2.48-.46.62-.77ZM34.32,149.47l3.82,5.38,6.42-2.78,9.72-.17,13.02,4.69h17.86s13.73-4.51,13.73-4.51l8.85.17,11.23,4.34h3.18s11.28-5.29,11.28-5.29c0,0,0-2,0-3.56,0-1.56-1.54-1.74-1.54-1.74H35.77c-.8,0-1.45.65-1.45,1.45v2.02ZM49.89,155.99c-9.21,0-16.67,7.46-16.67,16.67,0,9.21,7.46,16.67,16.67,16.67,9.21,0,16.67-7.46,16.67-16.67,0-9.21-7.46-16.67-16.67-16.67ZM49.89,181.34c-4.79,0-8.68-3.89-8.68-8.68,0-4.79,3.89-8.68,8.68-8.68,4.79,0,8.68,3.89,8.68,8.68,0,4.79-3.89,8.68-8.68,8.68ZM49.89,167.33c-2.95,0-5.33,2.39-5.33,5.33,0,2.95,2.39,5.33,5.33,5.33,2.95,0,5.33-2.39,5.33-5.33,0-2.95-2.39-5.33-5.33-5.33ZM49.89,176.13c-1.91,0-3.46-1.55-3.46-3.46,0-1.91,1.55-3.46,3.46-3.46s3.46,1.55,3.46,3.46-1.55,3.46-3.46,3.46ZM49.89,170.95c-.95,0-1.71.77-1.71,1.71,0,.95.77,1.71,1.71,1.71s1.71-.77,1.71-1.71-.77-1.71-1.71-1.71ZM103.25,155.99c-9.21,0-16.67,7.46-16.67,16.67,0,9.21,7.46,16.67,16.67,16.67,9.21,0,16.67-7.46,16.67-16.67,0-9.21-7.46-16.67-16.67-16.67ZM103.25,181.34c-4.79,0-8.68-3.89-8.68-8.68s3.89-8.68,8.68-8.68c4.79,0,8.68,3.89,8.68,8.68,0,4.79-3.89,8.68-8.68,8.68ZM103.25,167.33c-2.95,0-5.33,2.39-5.33,5.33,0,2.95,2.39,5.33,5.33,5.33,2.95,0,5.33-2.39,5.33-5.33,0-2.95-2.39-5.33-5.33-5.33ZM103.25,176.13c-1.91,0-3.46-1.55-3.46-3.46,0-1.91,1.55-3.46,3.46-3.46,1.91,0,3.46,1.55,3.46,3.46,0,1.91-1.55,3.46-3.46,3.46ZM103.25,170.95c-.95,0-1.71.77-1.71,1.71,0,.95.77,1.71,1.71,1.71s1.71-.77,1.71-1.71c0-.95-.77-1.71-1.71-1.71ZM135.82,159.48l-1.96-2.63,2.19-1.27-1.68-2.4-11.28,5.29,1.99,3.47,2.03-1.18,1.56,2.79,7.15-4.07ZM126.99,166.76c-3.59,2.08-1.6,5.9-1.6,5.9,0,0,1.25,1.49,2.87,3.46,2.66,3.02,4.45,2.25,6.25,1.18s7.75-4.6,10.41-6.35c2.66-1.75,2.99-2.73,1.97-4.88-1.02-2.15-2.08-4.4-2.08-4.4,0,0-1.39-4.51-5.55-1.97-4.17,2.55-8.68,4.98-12.26,7.06ZM75.65,88.81v-7.51c0-.69-.56-1.26-1.26-1.26h-40.33c-.69,0-1.26.56-1.26,1.26v7.51c0,.69.56,1.26,1.26,1.26h40.33c.69,0,1.26-.56,1.26-1.26ZM133.87,123.45h0c-1.45-2.03-3.34-3.7-5.52-4.91l-3.53,7.47c-.27.58-.68,1.09-1.19,1.47-.69.52-1.54.81-2.4.81h0c-.59,0-1.16-.13-1.69-.38-1.98-.93-2.83-3.3-1.89-5.28l3.63-7.68c-.53-.27-1.08-.55-1.65-.83l-3.55,7.52c-.27.58-.68,1.08-1.19,1.47-.69.52-1.54.81-2.4.81h0c-.59,0-1.16-.13-1.69-.38-1.98-.93-2.83-3.3-1.89-5.28l3.64-7.71c-.54-.27-1.09-.55-1.65-.83l-3.57,7.56c-.27.58-.68,1.08-1.19,1.47-.69.52-1.54.81-2.4.81h0c-.59,0-1.16-.13-1.69-.38-1.98-.93-2.82-3.3-1.89-5.28l3.66-7.75c-.55-.28-1.1-.55-1.65-.83l-3.58,7.59c-.27.58-.68,1.08-1.19,1.47-.69.52-1.54.81-2.4.81h0c-.59,0-1.16-.13-1.69-.38-1.98-.93-2.83-3.3-1.89-5.28l3.67-7.77c-.6-.3-1.19-.6-1.77-.89l-7.43,15.42c-.73,1.51-2.28,2.49-3.96,2.49-.68,0-1.36-.16-1.96-.47l-10.69-5.35c-2.15-1.08-3.04-3.71-1.98-5.87l7.27-14.76h-41.46c-.69,0-1.26.56-1.26,1.26v7.51c0,.69.57,1.26,1.26,1.26h.58v4.72s-14.86,19.63.93,35.44h97.08c1.17,0,2.21-.76,2.57-1.87l1.53-4.73c1.36-4.21.64-8.81-1.93-12.42ZM65.44,46.81c3.56,3.99,2.19,7.06.8,10.19-2.18,4.87-4.38,9.84,1.91,17.06,1.01,1.15,2.76,1.27,3.92.26,1.14-1,1.26-2.76.26-3.91-3.96-4.54-2.48-7.87-1.02-11.14,2.13-4.79,4.22-9.48-1.7-16.15-1.02-1.15-2.78-1.25-3.92-.23-1.15,1.02-1.25,2.78-.24,3.93h0ZM50.33,58.67c-1.06-1.11-1.01-2.87.1-3.93,1.1-1.06,2.86-1.02,3.92.09,4.08,4.29,2.84,7.76,1.64,11.13-.65,1.8-1.28,3.57.83,5.3,1.18.97,1.36,2.72.38,3.9-.98,1.18-2.72,1.35-3.9.38-5.13-4.23-3.86-7.79-2.55-11.45.64-1.8,1.29-3.64-.41-5.43h0ZM34.67,46.81c3.54,3.99,2.18,7.06.79,10.19-2.17,4.87-4.37,9.84,1.91,17.06,1.01,1.15,2.77,1.27,3.92.26,1.15-1,1.27-2.76.26-3.91-3.95-4.54-2.47-7.87-1.02-11.14,2.13-4.79,4.22-9.48-1.7-16.15-1.03-1.15-2.78-1.25-3.92-.23-1.14,1.02-1.25,2.78-.23,3.93h0ZM129.91,70.13v3.06c0,.31-.25.57-.57.57h-3.33c-.31,0-.57-.25-.57-.57v-3.06c0-1.23,1-2.23,2.23-2.23s2.23,1,2.23,2.23ZM116.3,66.89l-6.11,6.11c-.26-.49-.58-.95-.99-1.37-2.23-2.23-5.85-2.23-8.08,0s-2.23,5.85,0,8.08c1.55,1.55,3.75,1.99,5.71,1.4-.6,1.95-.15,4.16,1.4,5.71,2.23,2.23,5.85,2.23,8.08,0,2.23-2.23,2.23-5.85,0-8.08-.41-.41-.88-.74-1.37-.99l6.1-6.1c-1.79-1.36-3.38-2.96-4.73-4.75ZM109.2,32.27c.41-.41.73-.88.99-1.37l6.11,6.11c1.36-1.79,2.95-3.39,4.73-4.75l-6.1-6.1c.49-.26.96-.58,1.37-.99,2.23-2.23,2.23-5.85,0-8.08-2.23-2.23-5.85-2.23-8.08,0-1.55,1.55-1.99,3.75-1.4,5.71-1.95-.6-4.16-.15-5.71,1.4-2.23,2.23-2.23,5.85,0,8.08,2.23,2.23,5.85,2.23,8.08,0ZM155.79,37l6.11-6.11c.26.49.58.96.99,1.37,2.23,2.23,5.85,2.23,8.08,0,2.23-2.23,2.23-5.85,0-8.08-1.55-1.55-3.75-1.99-5.71-1.4.6-1.95.15-4.16-1.4-5.71-2.23-2.23-5.85-2.23-8.08,0-2.23,2.23-2.23,5.85,0,8.08.41.41.88.73,1.37.99l-6.1,6.1c1.79,1.36,3.38,2.96,4.73,4.75ZM133.26,67.89c-1.23,0-2.23,1-2.23,2.23v3.06c0,.31.25.57.57.57h3.33c.31,0,.57-.25.57-.57v-3.06c0-1.23-1-2.23-2.23-2.23ZM162.89,71.62c-.41.41-.74.88-.99,1.37l-6.11-6.11c-1.36,1.79-2.95,3.39-4.73,4.75l6.1,6.1c-.49.26-.96.58-1.37.99-2.23,2.23-2.23,5.85,0,8.08,2.23,2.23,5.85,2.23,8.08,0,1.55-1.55,1.99-3.75,1.4-5.71,1.95.6,4.16.15,5.71-1.4,2.23-2.23,2.23-5.85,0-8.08-2.23-2.23-5.85-2.23-8.08,0ZM148.1,69.55c-.28-1.79-1.82-3.16-3.68-3.16-1.11,0-2.1.48-2.79,1.25-.69-.77-1.68-1.25-2.79-1.25s-2.1.48-2.79,1.25c-.68-.77-1.68-1.25-2.79-1.25s-2.1.48-2.79,1.25c-.69-.77-1.68-1.25-2.79-1.25-1.87,0-3.4,1.37-3.68,3.16-5.62-3.85-9.33-10.28-9.33-17.61,0-11.81,9.57-21.38,21.38-21.38s21.38,9.57,21.38,21.38c0,7.33-3.71,13.75-9.33,17.61ZM135.39,54.24v-8.37c0-2.67-2.16-4.83-4.83-4.83s-4.83,2.16-4.83,4.83v8.37c0,2.67,2.16,4.83,4.83,4.83s4.83-2.16,4.83-4.83ZM138.7,61.35c0-1.47-1.19-2.65-2.65-2.65s-2.65,1.19-2.65,2.65v.83c0,.73.59,1.33,1.33,1.33s1.33-.59,1.33-1.33c0,.73.59,1.33,1.33,1.33s1.33-.59,1.33-1.33v-.83ZM146.36,51.31h-9.66v2.94c0,2.67,2.16,4.83,4.83,4.83s4.83-2.16,4.83-4.83v-2.94ZM144.41,67.89c-1.23,0-2.23,1-2.23,2.23v3.06c0,.31.25.57.57.57h3.33c.31,0,.57-.25.57-.57v-3.06c0-1.23-1-2.23-2.23-2.23ZM138.83,67.89c-1.23,0-2.23,1-2.23,2.23v3.06c0,.31.25.57.57.57h3.33c.31,0,.57-.25.57-.57v-3.06c0-1.23-1-2.23-2.23-2.23ZM143.3,27.69c.54.62,1.47.68,2.1.14.61-.54.67-1.47.14-2.09-2.12-2.43-1.33-4.21-.55-5.95,1.14-2.56,2.25-5.07-.91-8.63-.55-.61-1.48-.67-2.1-.12-.62.55-.67,1.48-.13,2.1,1.9,2.13,1.17,3.77.43,5.44-1.16,2.6-2.34,5.26,1.02,9.11ZM134,19.22c-.7,1.96-1.38,3.86,1.36,6.12.63.52,1.56.43,2.08-.2.52-.63.43-1.57-.21-2.08-1.13-.93-.79-1.87-.44-2.83.64-1.81,1.31-3.66-.87-5.95-.57-.59-1.51-.62-2.1-.05-.59.56-.62,1.5-.05,2.1.91.96.56,1.94.22,2.9ZM126.85,27.69c.54.62,1.48.68,2.1.14.62-.54.68-1.47.14-2.09-2.11-2.43-1.32-4.21-.55-5.95,1.14-2.56,2.25-5.07-.91-8.63-.55-.61-1.48-.67-2.1-.12-.61.55-.67,1.48-.12,2.1,1.89,2.13,1.16,3.77.42,5.44-1.16,2.6-2.34,5.26,1.02,9.11Z"/>
</svg>