<?xml version="1.0" encoding="UTF-8"?>
<svg id="Capa_1" xmlns="http://www.w3.org/2000/svg" version="1.1" viewBox="0 0 200 200">
  <!-- Generator: Adobe Illustrator 29.0.0, SVG Export Plug-In . SVG Version: 2.1.0 Build 186)  -->
  <path d="M188,125.54c-6.99,11.03-16.49,17.77-27.99,20.28-1.1-2.26-1.51-2.78-1.79-3.14-1.75-2.22-2.72-3.27-3.65-4.29-.86-.95-1.68-1.84-3.22-3.76-.2-.25-.4-.49-.61-.73,12.65-.58,22.82-9.63,24.95-22.42,2.53-15.2-6.77-28.24-22.11-30.99-1.55-.28-3.14-.42-4.71-.42-13.41,0-24.36,9.55-26.09,22.73-1.32,6.96.16,13.95,4.17,19.7.95,1.37,2.04,2.63,3.23,3.79-5.7-.08-12.53-.14-17.54-.17h-.11c-.65,0-1.3.05-1.94.13-3.36-5.17-5.75-11.08-6.9-17.48-2.44-13.68.74-25.86,9.83-36.44.72-.83,1.34-1.75,2.29-2.99.55,1.23.78,1.73,1,2.24.38.88.69,1.79,1.13,2.64,2.18,4.19,5.9,6.15,9.5,5.04,4.05-1.25,5.97-4.68,5.19-9.71-.44-2.83-1.16-5.62-1.87-8.4-2.06-7.97-.11-14.87,5.47-20.79,1.6-1.69,3.37-3.22,5.49-5.22-.15,3.26-.42,5.83-.35,8.39.05,1.82.35,3.69.9,5.42,2.15,6.68,9.81,8.31,14.6,3.14,3.37-3.65,4.56-8.22,4.89-12.99.9-13.24-2.99-27.7-13.03-36.76,12.71,1.61,23.89,16.13,25.82,29.49,1.43,9.88-.05,19.53-1.94,29.18-1.13,5.78-2.22,11.57-3.1,17.39-.28,1.84-.07,3.85.36,5.69.59,2.54,2.22,4.36,4.98,4.68,2.76.32,4.78-1.08,5.91-3.42.78-1.61,1.22-3.49,1.32-5.28.2-3.44.06-6.89.06-10.43,2.81,2.02,5.1,4.76,6.83,7.89,8.88,16.17,8.94,32.45-.93,48.03ZM147.11,166.47l-7.43-5.18-11.39,8.24,6.14,5.21h0c-1.79,4.08,1.15,8.67,5.61,8.75l2.43.04c2.56.05,4.89-1.47,5.88-3.83l1.48-3.52c1.46-3.48.33-7.5-2.71-9.72ZM149.63,162.7l-4.43-9.75-22.04,15.96.51,5.03c.17,1.69-.21,3.39-1.09,4.85l-2.83,4.91c-1.33,2.2-3.68,3.59-6.25,3.67h0c-5.93.2-9.8-6.15-6.9-11.32l2.04-3.64-.68-15.66c-.17-3.83,1.54-7.5,4.58-9.83l4.62-3.54-7.75.39-2.23,1.46c-2.56,1.68-5.98,1.1-7.84-1.33h0c-2.07-2.71-1.4-6.6,1.46-8.45l5.35-3.46c1.92-1.25,4.17-1.9,6.46-1.88,4.74.03,13.34.11,19.79.21,6.19.1,11.76,1.68,15.86,6.81,3.3,4.12,3.58,3.9,6.85,8.04.95,1.2,3.72,7.61,5.82,12.63,1.4,3.34-.38,7.16-3.84,8.25h0c-2.97.93-6.17-.49-7.46-3.33ZM152.88,84.4c13.54,2.43,20.98,13.88,18.9,26.43-2.07,12.47-13,20.97-26.5,18.79-12.44-2.01-21.05-13.55-18.59-26.18,1.69-13.32,14.09-21.21,26.19-19.04ZM135.84,189.16c.03,2.28-1.85,4.09-3.93,4.12-2.23.03-4.05-1.74-4.12-3.95-.07-2.14,1.8-4.18,3.95-4.08,2.13-.19,4.07,1.78,4.1,3.91ZM144.47,189.18c.03,2.28-1.85,4.09-3.93,4.12-2.23.03-4.05-1.74-4.12-3.95-.07-2.14,1.8-4.18,3.95-4.08,2.13-.19,4.07,1.78,4.1,3.91ZM153.1,189.2c.03,2.28-1.85,4.09-3.93,4.12-2.23.03-4.05-1.74-4.12-3.95-.07-2.14,1.8-4.18,3.95-4.08,2.13-.19,4.07,1.78,4.1,3.91ZM104.73,191.95c.03,2.28-1.85,4.09-3.93,4.12-2.23.03-4.05-1.74-4.12-3.95-.07-2.14,1.8-4.18,3.95-4.08,2.13-.19,4.07,1.78,4.1,3.91ZM113.36,191.96c.03,2.28-1.85,4.09-3.93,4.12-2.23.03-4.05-1.74-4.12-3.95-.07-2.14,1.8-4.18,3.95-4.08,2.13-.19,4.07,1.78,4.1,3.91ZM121.99,191.98c.03,2.28-1.85,4.09-3.93,4.12-2.23.03-4.05-1.74-4.12-3.95-.07-2.14,1.8-4.18,3.95-4.08,2.13-.19,4.07,1.78,4.1,3.91Z"/>
  <path d="M28.39,108.18h0c4.94,0,9.39,2.07,12.54,5.39h21.83s2.47,0,2.47,0h9.91c1.23,0,2.22,1,2.22,2.22h0c0,1.23-.99,2.22-2.22,2.22h-2.82c.5,1.04.8,2.2.8,3.43h0c0,4.35-3.53,7.88-7.88,7.88h-19.54s0,42.89,0,42.89c0,5.42-4.39,9.81-9.81,9.81h0c-5.42,0-9.81-4.39-9.81-9.81v-19.74h0c-4.63-2.31-7.67-6.93-7.97-12.1l-1.56-19.7c-.36-6.79,5.05-12.5,11.85-12.5ZM7.45,81.16c-.04,12.83,10.58,23.92,23.32,23.91,11.7-.02,24.1-8.95,23.98-23.58.47-14.44-11.78-23.98-23.36-24.17-12.95-.21-23.91,10.79-23.94,23.84ZM31.28,188.53c0,2.79,2.26,5.04,5.04,5.04,2.79,0,5.04-2.26,5.04-5.04,0-2.79-2.26-5.04-5.04-5.04-2.79,0-5.04,2.26-5.04,5.04ZM42.38,188.53c0,2.79,2.26,5.04,5.04,5.04,2.79,0,5.04-2.26,5.04-5.04s-2.26-5.04-5.04-5.04c-2.79,0-5.04,2.26-5.04,5.04ZM20.07,188.53c0,2.79,2.26,5.04,5.04,5.04,2.79,0,5.04-2.26,5.04-5.04,0-2.79-2.26-5.04-5.04-5.04s-5.04,2.26-5.04,5.04Z"/>
  <g>
    <path d="M47.28,55.59c-.58-.38-1.06-.85-1.44-1.39-.38-.54-.65-1.15-.81-1.83-.16-.67-.18-1.36-.05-2.07s.38-1.35.76-1.93.85-1.06,1.39-1.44c.54-.38,1.15-.65,1.83-.81.67-.16,1.36-.18,2.07-.05s1.35.38,1.93.76,1.06.85,1.43,1.39c.38.54.65,1.15.81,1.83s.18,1.36.05,2.07-.38,1.35-.76,1.93c-.38.58-.85,1.06-1.39,1.43-.54.38-1.15.65-1.83.81s-1.36.18-2.07.05-1.35-.38-1.93-.76Z"/>
    <path d="M50.73,23.38c.21-.16.45-.21.72-.17l7.14,1.27c.27.05.48.18.62.41.14.22.18.47.1.73l-4.93,17.97c-.08.27-.23.48-.47.63-.24.15-.49.21-.76.16l-3.47-.62c-.27-.05-.49-.19-.66-.41-.17-.23-.24-.48-.22-.75l1.58-18.57c.02-.28.14-.49.35-.65Z"/>
  </g>
  <g>
    <path d="M62.17,61.6c-.7-.46-1.27-1.02-1.73-1.68-.46-.66-.78-1.39-.98-2.2-.19-.81-.21-1.65-.06-2.5s.46-1.63.92-2.32,1.02-1.27,1.68-1.73c.66-.46,1.39-.78,2.2-.98.81-.19,1.64-.21,2.5-.06s1.63.46,2.32.92,1.27,1.02,1.73,1.68c.46.66.78,1.39.98,2.2s.21,1.64.06,2.5-.46,1.63-.92,2.32c-.46.7-1.02,1.27-1.68,1.73-.66.46-1.39.78-2.2.98s-1.64.21-2.5.06-1.63-.46-2.32-.92Z"/>
    <path d="M66.32,22.77c.25-.19.54-.26.87-.2l8.6,1.53c.33.06.58.22.75.49.17.27.21.56.12.88l-5.94,21.67c-.09.32-.28.58-.57.76-.29.19-.59.25-.92.19l-4.18-.74c-.33-.06-.59-.22-.8-.5-.21-.27-.3-.58-.27-.91l1.91-22.39c.03-.33.17-.6.42-.79Z"/>
  </g>
</svg>