<?xml version="1.0" encoding="UTF-8"?>
<svg id="Capa_1" data-name="Capa 1" xmlns="http://www.w3.org/2000/svg" viewBox="0 0 200 200">
  <path d="M74.42,184.45c0,3.09-2.41,5.58-5.44,5.59-3,0-5.44-2.48-5.45-5.57,0-3.07,2.43-5.57,5.42-5.58,3.03,0,5.45,2.48,5.46,5.56ZM61.01,92.55h-25.2c-16.12,0-16.12,21.33,0,21.33,10.42,0,18.88.01,25.2.03v-21.36ZM117.71,79.75c21.5-16.52,13.98-54.97-13.05-60.77-25.5-6.11-47.59,23.71-37.11,46.87,6.17,20.24,34.59,29.06,50.16,13.9ZM94.58,163.04l.06-14.37h-27.7v14.37c0,19.15,27.64,19.15,27.64,0ZM108.6,92.55h-23.02c2.62,3.66,6.84,5.9,11.51,5.9s8.89-2.24,11.51-5.9ZM99.25,148.67v14.37c0,19.15,28.74,19.15,28.74,0v-14.37h-28.74ZM159.9,92.55h-26.72v21.36c6.69-.01,15.73-.03,26.72-.03,16.12,0,16.12-21.33,0-21.33ZM80.31,178.87c-3.01,0-5.43,2.5-5.43,5.57,0,3.09,2.44,5.57,5.45,5.57,3.01,0,5.44-2.5,5.43-5.59,0-3.07-2.44-5.56-5.45-5.55ZM114.09,179.06c-1.38,0-2.51,1.13-2.51,2.51v6.48c0,1.38,1.13,2.51,2.51,2.51s2.51-1.13,2.51-2.51v-6.48c0-1.38-1.13-2.51-2.51-2.51ZM91.66,178.85c-3.01,0-5.43,2.5-5.43,5.58,0,3.09,2.44,5.57,5.45,5.56,3,0,5.43-2.5,5.42-5.59,0-3.07-2.45-5.56-5.45-5.55ZM40.76,85.11v4.83h-5.84v-4.83c-11.52-1.44-20.43-11.26-20.43-23.16,0-12.9,10.45-23.35,23.35-23.35s23.35,10.45,23.35,23.35c0,11.91-8.91,21.73-20.43,23.16ZM51.39,62.13l-13.55-13.55-13.55,13.55h8.76v13.17h9.58v-13.17h8.76ZM173.14,32.94h-1.23v4.6h1.19c1.37,0,2.32-.96,2.32-2.3s-.9-2.3-2.28-2.3ZM162,32.81c-1.17,0-1.91.8-1.91,2.2v5.21c0,1.39.74,2.2,1.91,2.2s1.91-.8,1.91-2.2v-5.21c0-1.4-.74-2.2-1.91-2.2ZM172.6,14.56l12.56,21.75c.47.81.47,1.8,0,2.61l-12.56,21.75c-.47.81-1.33,1.3-2.26,1.3h-9.43v27.96h-6.41v-27.96h-9.28c-.93,0-1.79-.5-2.26-1.3l-12.56-21.75c-.47-.81-.47-1.8,0-2.61l12.56-21.75c.47-.81,1.33-1.3,2.26-1.3h25.12c.93,0,1.79.5,2.26,1.3ZM140.67,33.9c0-.74.57-1.23,1.37-1.23.68,0,1.27.37,1.74,1.13.31.47.7.7,1.13.7.74,0,1.27-.51,1.27-1.25,0-.27-.08-.55-.27-.88-.8-1.42-2.11-2.13-3.94-2.13-1.19,0-2.2.35-3.02,1.07-.8.72-1.21,1.64-1.21,2.77,0,1.66,1.03,3.12,3.1,4.39,1.72,1.01,2.42,1.66,2.42,2.67,0,.88-.62,1.44-1.54,1.44-.68,0-1.33-.47-1.6-.86-.14-.18-.29-.43-.47-.74-.27-.45-.64-.68-1.15-.68-.76,0-1.27.53-1.27,1.27,0,.31.1.62.31.94.72,1.31,2.07,2.5,4.21,2.5,1.29,0,2.34-.37,3.18-1.09.84-.72,1.25-1.72,1.25-3,0-1.95-1.25-3.26-3.32-4.55-1.56-.92-2.2-1.54-2.2-2.46ZM156.24,31.77c0-.8-.57-1.33-1.33-1.33h-6.52c-.76.02-1.27.57-1.27,1.33s.51,1.29,1.27,1.31h1.83v10.34c0,.88.59,1.48,1.48,1.48s1.46-.59,1.46-1.48v-10.34h1.76c.8,0,1.33-.55,1.33-1.31ZM166.82,35.01c0-1.46-.45-2.63-1.33-3.49-.88-.86-2.03-1.29-3.45-1.29s-2.61.45-3.51,1.33c-.9.88-1.35,2.05-1.35,3.53v5.13c0,1.46.43,2.63,1.31,3.49.88.86,2.05,1.29,3.47,1.29s2.61-.43,3.51-1.31c.9-.88,1.35-2.07,1.35-3.55v-5.13ZM176.92,38.62c.94-.9,1.42-2.05,1.42-3.45s-.47-2.5-1.4-3.39c-.92-.9-2.11-1.35-3.57-1.35h-2.91c-.84,0-1.46.62-1.46,1.46v11.55c0,.88.62,1.46,1.46,1.46s1.46-.57,1.46-1.46v-3.49h1.37c1.5,0,2.71-.45,3.63-1.33ZM96,102.61v41.85h-30.78v-53.51h14.74c2.56,6.52,8.72,11.23,16.04,11.66ZM92.98,140.94h-24.74v-6.84h24.74v6.84ZM92.98,130.54h-24.74v-6.84h24.74v6.84ZM114.22,90.95c-2.56,6.53-8.72,11.23-16.04,11.66v41.85h30.78v-53.51h-14.74ZM125.94,140.94h-24.74v-6.84h24.74v6.84ZM125.94,130.54h-24.74v-6.84h24.74v6.84Z"/>
</svg>