<?xml version="1.0" encoding="UTF-8"?>
<svg id="Capa_1" data-name="Capa 1" xmlns="http://www.w3.org/2000/svg" viewBox="0 0 200 200">
  <path d="M101.42,159.55c-20.85,0-37.54-11.27-37.54-11.27l-25.61,8.36,8.31-24.8s-13.28-18.38-13.28-40.41c0-37.62,30.5-68.12,68.12-68.12s68.12,30.5,68.12,68.12-30.5,68.12-68.12,68.12M101.42,10.34c-44.79,0-81.1,36.31-81.1,81.1,0,22.23,11.77,42.1,11.77,42.1l-14.18,43.18,44.44-14.2s16.5,10.02,39.07,10.02c44.79,0,81.1-36.31,81.1-81.1S146.2,10.34,101.42,10.34M70.53,56.13c-6.57,4.2-7.68,14.01-7.87,16.13-.19,2.12-.38,6.61,3.08,14.18,3.46,7.57,11.93,17.83,22.39,27.59,10.46,9.75,26.49,13.94,31.34,15.3,4.85,1.35,15.09-1.05,19.91-6.25,4.81-5.2,3.7-10.6,3.61-12.41-.09-1.81-1.71-2.08-1.71-2.08,0,0-13.29-6.44-16.02-7.68-2.73-1.25-4.12.79-4.12.79,0,0-4.03,5.09-5.33,6.76-1.3,1.67-2.04,3.15-5.42,2.04-3.38-1.11-10.16-4.76-15.69-9.72-5.54-4.96-9.77-11.53-10.97-13.52-1.2-1.99.19-3.24.19-3.24,0,0,3.51-4.04,5.19-6.2,1.68-2.16.63-4.58.23-5.56-.4-.98-5.79-13.63-6.57-15.42-.79-1.79-2.5-2.08-2.5-2.08h-6.39c-1.14,0-3.33,1.39-3.33,1.39"/>
</svg>