<?xml version="1.0" encoding="UTF-8"?>
<svg id="Capa_1" data-name="Capa 1" xmlns="http://www.w3.org/2000/svg" viewBox="0 0 200 200">
  <path d="M133.92,161.73s-5.65,12.97-33.64,12.97-33.64-12.97-33.64-12.97c0-16.95,12.55-30.97,28.86-33.3v-20.26c-7.12-1.98-12.37-8.5-12.37-16.25,0-9.3,7.57-16.87,16.87-16.87s16.87,7.57,16.87,16.87c0,7.51-4.94,13.89-11.73,16.07v20.45c16.28,2.36,28.78,16.36,28.78,33.29ZM165.02,27.42c-2.19-2.21-5.75-2.22-7.95-.03s-2.22,5.75-.03,7.95c15.04,15.16,23.32,35.25,23.32,56.59s-8.28,41.43-23.31,56.59c-2.19,2.21-2.17,5.77.03,7.95,1.1,1.09,2.53,1.63,3.96,1.63s2.89-.55,3.99-1.66c17.14-17.27,26.58-40.18,26.58-64.51s-9.44-47.24-26.58-64.52ZM19.65,91.93c0-21.56,8.43-41.81,23.74-57.01,2.21-2.19,2.22-5.75.03-7.95-2.19-2.21-5.75-2.22-7.95-.03-17.45,17.33-27.06,40.41-27.06,65s9.54,47.5,26.87,64.81c1.1,1.1,2.54,1.65,3.98,1.65s2.88-.55,3.98-1.65c2.2-2.2,2.19-5.76,0-7.95-15.2-15.18-23.57-35.37-23.57-56.85ZM43.75,91.93c0-15.12,5.92-29.32,16.68-39.97,2.21-2.19,2.22-5.75.04-7.95-2.18-2.21-5.75-2.22-7.96-.04-12.91,12.78-20.01,29.81-20.01,47.96s7.05,35.04,19.84,47.79c1.1,1.09,2.53,1.64,3.97,1.64s2.88-.55,3.98-1.65c2.19-2.2,2.19-5.76-.01-7.95-10.66-10.63-16.53-24.77-16.53-39.83ZM147.95,44.44c-2.19-2.21-5.75-2.22-7.95-.04-2.21,2.19-2.22,5.75-.04,7.95,10.5,10.6,16.29,24.66,16.29,39.58s-5.78,28.95-16.26,39.55c-2.18,2.21-2.17,5.77.04,7.95,1.1,1.08,2.53,1.63,3.96,1.63s2.9-.56,4-1.67c12.58-12.72,19.51-29.58,19.51-47.46s-6.94-34.77-19.55-47.5ZM132.14,91.93c0,8.47-3.27,16.47-9.22,22.52-2.18,2.22-2.15,5.78.07,7.95,1.1,1.08,2.52,1.61,3.94,1.61s2.91-.56,4.01-1.68c8.03-8.17,12.45-18.96,12.45-30.41s-4.44-22.3-12.51-30.47c-2.18-2.21-5.74-2.23-7.95-.05-2.21,2.18-2.23,5.74-.05,7.95,5.97,6.05,9.26,14.07,9.26,22.57ZM69.42,122.72c1.1,1.09,2.53,1.63,3.96,1.63s2.89-.55,3.99-1.66c2.19-2.2,2.18-5.77-.03-7.95-6.12-6.08-9.49-14.18-9.49-22.8s3.41-16.82,9.61-22.91c2.21-2.18,2.24-5.74.07-7.95-2.18-2.22-5.74-2.24-7.95-.07-8.37,8.23-12.97,19.21-12.97,30.93s4.55,22.58,12.82,30.78Z"/>
</svg>