<?xml version="1.0" encoding="UTF-8"?>
<svg id="Capa_1" data-name="Capa 1" xmlns="http://www.w3.org/2000/svg" viewBox="0 0 200 200">
  <path d="M53.61,95.51c5.91-7.63,20.13-7.39,24.84,1.45l9.71,21.99s9.11,4.95,9.67,5.2c9.81,4.33,2.99,18.15-7.07,12.95l-14.81-7.72-3.84-8.35-10.22,12.29,2.78,7.43c3.21,7.07,3.44,12.16.55,19.17l-3.26,9.64c-2.04,5.7-8.3,8.67-14,6.65h0c-5.79-2.05-8.76-8.45-6.61-14.2l3.5-10.16-8.94-20c-3.25-7.05-.88-15.61,4.06-21.26l13.63-15.08h0ZM92.49,140.83v46.45c0,1.3,1.04,2.36,2.35,2.39h0c1.33.02,2.43-1.05,2.43-2.39v-46.53l-4.77.08ZM104.53,38.78l-32.2,32.2c0,7.32,2.51,14.58,8.09,20.18,16.48,19.6,53.88,5.78,53-20.01,1.31-16.48-13.06-31.48-28.89-32.37ZM96.54,37.99L43.82,10.34l27.65,52.72,25.07-25.07ZM161.52,134.14c3.22-.7,5.74-3.1,6.76-6.4.96-3.13.31-6.4-1.71-8.53-1.22-1.28-4-3.25-8.95-2.01l1.74,6.94c1.2-.3,1.88-.17,2.03,0,.17.18.28.8.07,1.51-.09.3-.47,1.31-1.45,1.52-1.94.43-3.78,0-4.92-1.14-1.13-1.14-1.48-2.9-.98-5.09.95-4.27,1.65-8.66-1.15-11.3-2.7-2.54-6.77-1.64-10.38-.6-1.02.29-1.61.17-1.73.07-.15-.13-.49-.93-.18-2.83.38-2.24.64-5.46-1.36-7.66-2-2.19-4.81-1.97-6.86-1.82-2.54.19-2.98.05-3.39-.61l-6.1,3.72c2.79,4.57,7.5,4.21,10.03,4.02.23-.02.51-.04.78-.05-.02.31-.07.71-.15,1.22-.86,5.14.87,7.92,2.47,9.35,2.1,1.88,5.19,2.41,8.47,1.46,1.63-.47,2.63-.66,3.23-.73-.02.71-.16,1.98-.66,4.19-1.02,4.56.03,8.82,2.9,11.7,2.21,2.22,5.26,3.41,8.53,3.41.98,0,1.98-.11,2.98-.33ZM49.02,177.9c-3.19,0-5.75,2.63-5.75,5.88s2.56,5.89,5.75,5.89,5.74-2.63,5.74-5.89-2.57-5.88-5.74-5.88ZM37.03,177.9c-3.17,0-5.74,2.63-5.74,5.88s2.58,5.89,5.74,5.89,5.74-2.63,5.74-5.89-2.57-5.88-5.74-5.88ZM61,177.9c-3.19,0-5.75,2.63-5.75,5.88s2.56,5.89,5.75,5.89,5.74-2.63,5.74-5.89-2.58-5.88-5.74-5.88Z"/>
</svg>